<?xml version="1.0" encoding="UTF-8"?>
<svg xmlns="http://www.w3.org/2000/svg" xmlns:xlink="http://www.w3.org/1999/xlink" width="384pt" height="384pt" viewBox="0 0 384 384" version="1.1">
<g id="surface4247738">
<path style=" stroke:none;fill-rule:nonzero;fill:rgb(24.705882%,31.764706%,70.980392%);fill-opacity:1;" d="M 48 48 L 48 336 L 336 336 L 336 48 Z M 288 80 C 296.832031 80 304 87.167969 304 96 C 304 104.832031 296.832031 112 288 112 C 279.167969 112 272 104.832031 272 96 C 272 87.167969 279.167969 80 288 80 Z M 192 112 C 236.175781 112 272 147.824219 272 192 C 272 236.175781 236.175781 272 192 272 C 147.824219 272 112 236.175781 112 192 C 112 147.824219 147.824219 112 192 112 Z M 192 144 C 165.492188 144 144 165.492188 144 192 C 144 218.507812 165.492188 240 192 240 C 218.507812 240 240 218.507812 240 192 C 240 165.492188 218.507812 144 192 144 Z M 192 144 "/>
</g>
</svg>
