<svg width="479" height="92" viewBox="0 0 479 92" fill="none" xmlns="http://www.w3.org/2000/svg">
<path d="M174.894 63.4913V74.4464H170.727V63.4913H167.71V60.0319H177.84V63.4913H174.894Z" fill="#7F879A"/>
<path d="M187.035 74.4464L186.209 71.5995H182.366L181.503 74.4464H177.911L182.33 60.0319H186.999L191.489 74.4464H187.035ZM181.288 58.122V56.5004H188.113V58.122H181.288ZM183.12 68.4644H185.455L184.305 64.2842L183.12 68.4644Z" fill="#7F879A"/>
<path d="M202.912 70.9148V74.4464H192.854V60.0319H197.273V70.9148H202.912Z" fill="#7F879A"/>
<path d="M220.083 60.0679V74.4824H215.988V64.1761L213.329 74.4824H210.528L207.762 64.1761V74.4824H204.457V60.0679H210.204L212.288 67.7076L214.263 60.0679H220.083Z" fill="#7F879A"/>
<path d="M230.499 74.4464L229.673 71.5995H225.83L224.968 74.4464H221.376L225.794 60.0319H230.464L234.954 74.4464H230.499ZM224.752 58.122V56.5004H231.577V58.122H224.752ZM226.584 68.4644H228.919L227.77 64.2842L226.584 68.4644Z" fill="#7F879A"/>
<path d="M244.221 68.969L248.244 69.2212C248.065 70.987 247.418 72.3564 246.305 73.2933C245.191 74.2303 243.826 74.6987 242.21 74.6987C240.27 74.6987 238.689 74.0501 237.468 72.7528C236.247 71.4555 235.672 69.6537 235.672 67.3834C235.672 65.1131 236.247 63.3113 237.36 61.9058C238.474 60.5004 240.09 59.8157 242.102 59.8157C244.006 59.8157 245.478 60.3563 246.484 61.4013C247.49 62.4464 248.065 63.8518 248.208 65.6176L244.078 65.8338C244.078 64.8608 243.898 64.1761 243.539 63.7437C243.18 63.3112 242.749 63.095 242.246 63.095C240.845 63.095 240.162 64.5005 240.162 67.3113C240.162 68.8969 240.342 69.9419 240.701 70.5185C241.06 71.0951 241.563 71.3474 242.21 71.3474C243.431 71.3474 244.078 70.5546 244.221 68.969Z" fill="#7F879A"/>
<path d="M248.676 58.122V56.5004H255.501V58.122H248.676ZM254.279 60.0679V74.4824H249.861V60.0679H254.279Z" fill="#7F879A"/>
<path d="M256.793 74.4464V60.0319H264.085C265.594 60.0319 266.708 60.4283 267.39 61.185C268.073 61.9418 268.432 62.8427 268.432 63.8157C268.432 64.5364 268.216 65.1851 267.821 65.7616C267.426 66.3382 266.815 66.7346 266.025 66.9508C267.893 67.3833 268.827 68.5364 268.827 70.3022C268.827 71.3833 268.504 72.3202 267.857 73.1851C267.211 74.0139 265.81 74.4464 263.654 74.4464H256.793V74.4464ZM260.853 65.5815H262.9C263.403 65.5815 263.762 65.4373 263.978 65.185C264.193 64.9328 264.301 64.6445 264.301 64.3562C264.301 63.5634 263.798 63.167 262.828 63.167H260.853V65.5815V65.5815ZM260.853 71.2391H263.008C263.547 71.2391 263.942 71.095 264.193 70.8427C264.445 70.5905 264.552 70.2662 264.552 69.9418C264.552 69.6175 264.445 69.2932 264.193 69.0409C263.942 68.7887 263.511 68.6085 262.864 68.6085H260.853V71.2391Z" fill="#7F879A"/>
<path d="M278.562 74.4464L277.735 71.5995H273.892L273.03 74.4464H269.438L273.856 60.0319H278.526L283.016 74.4464H278.562ZM274.646 68.4644H276.981L275.832 64.2841L274.646 68.4644Z" fill="#7F879A"/>
<path d="M282.908 70.3023L287.003 69.5456C287.362 70.6987 288.224 71.2753 289.661 71.2753C290.775 71.2753 291.313 70.987 291.313 70.3744C291.313 70.0501 291.17 69.8339 290.918 69.6537C290.667 69.4735 290.2 69.3294 289.553 69.1852C287.039 68.7167 285.422 68.0681 284.704 67.2753C283.986 66.4825 283.626 65.5816 283.626 64.5365C283.626 63.1671 284.129 62.05 285.171 61.1491C286.213 60.2482 287.685 59.7797 289.589 59.7797C292.499 59.7797 294.439 60.9689 295.372 63.3113L291.709 64.4284C291.313 63.4554 290.559 62.987 289.41 62.987C288.44 62.987 287.973 63.2753 287.973 63.8879C287.973 64.1401 288.081 64.3564 288.296 64.5005C288.512 64.6446 288.943 64.7888 289.553 64.9329C291.277 65.2933 292.499 65.6176 293.217 65.9059C293.936 66.1942 294.546 66.6627 295.013 67.3474C295.48 68.032 295.732 68.8248 295.732 69.7618C295.732 71.2032 295.157 72.3924 293.972 73.2933C292.786 74.1943 291.242 74.6627 289.338 74.6627C285.889 74.6988 283.698 73.2213 282.908 70.3023Z" fill="#7F879A"/>
<path d="M315.273 60.0679L310.818 74.4824H306.328L301.659 60.0679H306.292L308.555 67.9238C308.699 68.3923 308.843 68.8608 308.951 69.2932L311.609 60.0679H315.273V60.0679Z" fill="#7F879A"/>
<path d="M321.02 60.0679V74.4824H316.602V60.0679H321.02Z" fill="#7F879A"/>
<path d="M323.534 74.4464V60.0319H329.102C331.509 60.0319 333.305 60.7526 334.526 62.194C335.748 63.6355 336.322 65.2931 336.322 67.167C336.322 69.3292 335.676 71.059 334.383 72.4283C333.089 73.7977 331.437 74.4464 329.354 74.4464H323.534ZM327.953 71.131H329.102C329.821 71.131 330.431 70.7707 330.934 70.0499C331.437 69.3292 331.688 68.3562 331.688 67.131C331.688 66.086 331.473 65.185 331.006 64.4283C330.539 63.6715 329.928 63.2751 329.066 63.2751H327.917V71.131H327.953Z" fill="#7F879A"/>
<path d="M349.829 60.0678V69.5814C349.829 71.3832 349.29 72.6806 348.212 73.4734C347.134 74.2661 345.734 74.6625 344.045 74.6625C342.249 74.6625 340.776 74.2662 339.699 73.5094C338.621 72.7526 338.047 71.5274 338.047 69.7976V60.0318H342.537V69.2931C342.537 69.9778 342.68 70.4824 342.968 70.8067C343.255 71.131 343.722 71.2751 344.369 71.2751C344.907 71.2751 345.338 71.167 345.662 70.9148C345.985 70.6986 346.201 70.4103 346.272 70.122C346.344 69.8337 346.38 69.2571 346.38 68.4283V59.9958H349.829V60.0678Z" fill="#7F879A"/>
<path d="M350.691 70.3023L354.786 69.5456C355.145 70.6987 356.007 71.2753 357.444 71.2753C358.557 71.2753 359.096 70.987 359.096 70.3744C359.096 70.0501 358.952 69.8339 358.701 69.6537C358.45 69.4735 357.983 69.3294 357.336 69.1852C354.822 68.7167 353.205 68.0681 352.487 67.2753C351.768 66.4825 351.409 65.5816 351.409 64.5365C351.409 63.1671 351.912 62.05 352.954 61.1491C353.995 60.2482 355.468 59.7797 357.372 59.7797C360.282 59.7797 362.221 60.9689 363.155 63.3113L359.491 64.4284C359.096 63.4554 358.342 62.987 357.192 62.987C356.222 62.987 355.756 63.2753 355.756 63.8879C355.756 64.1401 355.863 64.3564 356.079 64.5005C356.294 64.6446 356.725 64.7888 357.336 64.9329C359.06 65.2933 360.282 65.6176 361 65.9059C361.718 66.1942 362.329 66.6627 362.796 67.3474C363.263 68.032 363.514 68.8248 363.514 69.7618C363.514 71.2032 362.94 72.3924 361.754 73.2933C360.569 74.1943 359.024 74.6627 357.12 74.6627C353.672 74.6988 351.517 73.2213 350.691 70.3023Z" fill="#7F879A"/>
<path d="M363.766 70.3023L367.861 69.5456C368.22 70.6987 369.082 71.2753 370.519 71.2753C371.632 71.2753 372.171 70.987 372.171 70.3744C372.171 70.0501 372.028 69.8339 371.776 69.6537C371.525 69.4735 371.058 69.3294 370.411 69.1852C367.897 68.7167 366.28 68.0681 365.562 67.2753C364.843 66.4825 364.484 65.5816 364.484 64.5365C364.484 63.1671 364.987 62.05 366.029 61.1491C367.07 60.2482 368.543 59.7797 370.447 59.7797C373.357 59.7797 375.296 60.9689 376.23 63.3113L372.566 64.4284C372.171 63.4554 371.417 62.987 370.267 62.987C369.298 62.987 368.831 63.2753 368.831 63.8879C368.831 64.1401 368.938 64.3564 369.154 64.5005C369.369 64.6446 369.8 64.7888 370.411 64.9329C372.135 65.2933 373.357 65.6176 374.075 65.9059C374.793 66.1942 375.404 66.6627 375.871 67.3474C376.338 68.032 376.59 68.8248 376.59 69.7618C376.59 71.2032 376.015 72.3924 374.829 73.2933C373.644 74.1943 372.099 74.6627 370.196 74.6627C366.747 74.6988 364.592 73.2213 363.766 70.3023Z" fill="#7F879A"/>
<path d="M391.317 74.4464H386.468L383.989 69.0049L382.517 71.131V74.4464H378.35V60.0319H382.517V65.9778L386.468 60.0319H390.419L386.791 65.2931L391.317 74.4464Z" fill="#7F879A"/>
<path d="M398.178 74.6987C396.166 74.6987 394.514 74.014 393.221 72.6807C391.928 71.3473 391.317 69.5455 391.317 67.2752C391.317 65.113 391.928 63.3473 393.149 61.9418C394.37 60.5364 396.059 59.8517 398.214 59.8517C400.226 59.8517 401.842 60.5004 403.099 61.8337C404.356 63.1671 405.003 64.9329 405.003 67.1311C405.003 69.4014 404.356 71.2392 403.099 72.6446C401.842 74.05 400.154 74.6987 398.178 74.6987ZM398.142 71.4194C398.896 71.4194 399.435 71.0951 399.759 70.4464C400.082 69.7978 400.261 68.6086 400.261 66.8788C400.261 64.3563 399.579 63.131 398.25 63.131C396.813 63.131 396.095 64.5725 396.095 67.4194C396.059 70.0861 396.741 71.4194 398.142 71.4194Z" fill="#7F879A"/>
<path d="M416.929 70.9148V74.4464H406.871V60.0319H411.253V70.9148H416.929Z" fill="#7F879A"/>
<path d="M426.376 74.4464L425.55 71.5995H421.706L420.844 74.4464H417.252L421.67 60.0319H426.34L430.83 74.4464H426.376ZM422.46 68.4644H424.795L423.646 64.2841L422.46 68.4644Z" fill="#7F879A"/>
<path d="M140.159 45.293H132.005L128.52 36.1038H126.185V45.293H118.858V21.2568H131.358C134.124 21.2568 136.243 21.9055 137.788 23.2028C139.297 24.5001 140.087 26.1938 140.087 28.3199C140.087 29.6893 139.799 30.9146 139.261 31.9956C138.686 33.0407 137.572 33.9776 135.848 34.8065L140.159 45.293ZM126.221 30.9506H129.346C130.28 30.9506 130.999 30.7704 131.574 30.374C132.148 29.9776 132.4 29.401 132.4 28.6803C132.4 27.1307 131.466 26.374 129.562 26.374H126.185V30.9506H126.221Z" fill="#4E7BBD"/>
<path d="M141.631 18.0497V15.3109H152.982V18.0497H141.631ZM151.007 21.2569V45.2931H143.643V21.2569H151.007Z" fill="#4E7BBD"/>
<path d="M175.828 31.8155V45.293H172.236C171.949 44.284 171.625 43.4552 171.266 42.7705C169.793 44.6804 167.566 45.6534 164.657 45.6534C161.568 45.6534 159.017 44.5723 157.041 42.4101C155.066 40.2479 154.06 37.329 154.06 33.6173C154.06 30.0137 155.03 27.0226 156.934 24.5722C158.873 22.1217 161.711 20.8965 165.519 20.8965C168.357 20.8965 170.655 21.6172 172.416 23.0947C174.176 24.5361 175.289 26.6262 175.792 29.2929L168.68 30.0137C168.321 27.5271 167.243 26.2659 165.411 26.2659C163.004 26.2659 161.783 28.5722 161.783 33.1488C161.783 35.9236 162.178 37.7614 162.932 38.6624C163.687 39.5633 164.657 39.9957 165.734 39.9957C166.632 39.9957 167.387 39.7434 167.997 39.2029C168.608 38.6624 168.931 37.9416 168.967 36.9686H165.016V31.8515H175.828V31.8155Z" fill="#4E7BBD"/>
<path d="M192.926 45.293L191.561 40.5723H185.131L183.695 45.293H177.768L185.167 21.2568H192.926L200.434 45.293H192.926ZM186.389 35.311H190.268L188.328 28.356L186.389 35.311Z" fill="#4E7BBD"/>
<path d="M200.146 38.3381L206.971 37.1128C207.546 39.0588 209.019 40.0318 211.39 40.0318C213.222 40.0318 214.156 39.5273 214.156 38.5543C214.156 38.0498 213.94 37.6534 213.509 37.3651C213.078 37.0768 212.324 36.8245 211.21 36.6083C207.007 35.8155 204.313 34.7344 203.128 33.4371C201.943 32.1398 201.332 30.5903 201.332 28.8605C201.332 26.5902 202.194 24.7164 203.918 23.2028C205.642 21.6893 208.085 20.9326 211.318 20.9326C216.203 20.9326 219.4 22.9146 220.981 26.8425L214.91 28.6804C214.263 27.0587 213.006 26.2659 211.066 26.2659C209.45 26.2659 208.66 26.7704 208.66 27.7794C208.66 28.2119 208.839 28.5723 209.199 28.8245C209.558 29.0768 210.276 29.293 211.318 29.5452C214.192 30.1578 216.203 30.6984 217.424 31.1669C218.646 31.6353 219.651 32.4281 220.442 33.5813C221.232 34.6984 221.663 36.0318 221.663 37.5813C221.663 39.9957 220.693 41.9777 218.718 43.4912C216.742 45.0048 214.192 45.7616 210.995 45.7616C205.139 45.6534 201.511 43.203 200.146 38.3381Z" fill="#4E7BBD"/>
<path d="M246.377 39.9236H252.016V45.257H233.589V39.9236H239.516V28.5001C237.289 29.5091 235.528 30.0857 234.271 30.2659V24.8605C237.684 24.1037 239.983 22.8064 241.204 20.8965H246.377V39.9236Z" fill="#4E7BBD"/>
<path d="M261.966 38.8786V45.2931H255.285V38.8786H261.966Z" fill="#4E7BBD"/>
<path d="M286.392 21.2569L278.957 45.2931H271.485L263.726 21.2569H271.485L275.257 34.338C275.508 35.0948 275.76 35.8876 275.939 36.6083L280.358 21.2208H286.392V21.2569Z" fill="#4E7BBD"/>
<path d="M295.947 21.2568V45.293H288.583V21.2568H295.947Z" fill="#4E7BBD"/>
<path d="M300.114 45.293V21.2568H309.382C313.405 21.2568 316.422 22.446 318.398 24.8605C320.373 27.2749 321.379 30.0136 321.379 33.1488C321.379 36.7524 320.302 39.6714 318.146 41.9056C315.991 44.1399 313.225 45.293 309.777 45.293H300.114V45.293ZM307.442 39.7434H309.346C310.567 39.7434 311.573 39.1668 312.435 37.9777C313.261 36.7885 313.692 35.1668 313.692 33.1488C313.692 31.4191 313.333 29.9055 312.579 28.6443C311.824 27.383 310.747 26.7343 309.346 26.7343H307.442V39.7434Z" fill="#4E7BBD"/>
<path d="M343.938 21.2569V37.1489C343.938 40.1759 343.04 42.3381 341.279 43.6354C339.483 44.9687 337.184 45.6174 334.311 45.6174C331.293 45.6174 328.887 44.9687 327.055 43.7075C325.223 42.4462 324.325 40.3921 324.325 37.5092V21.2208H331.796V36.6443C331.796 37.7975 332.048 38.6263 332.515 39.1669C332.982 39.7074 333.772 39.9597 334.85 39.9597C335.748 39.9597 336.466 39.7795 337.041 39.3831C337.616 38.9867 337.939 38.5543 338.047 38.0858C338.154 37.6173 338.226 36.6804 338.226 35.275V21.2208H343.938V21.2569Z" fill="#4E7BBD"/>
<path d="M345.375 38.3381L352.2 37.1128C352.774 39.0588 354.247 40.0318 356.618 40.0318C358.45 40.0318 359.384 39.5273 359.384 38.5543C359.384 38.0498 359.168 37.6534 358.737 37.3651C358.306 37.0768 357.552 36.8245 356.438 36.6083C352.236 35.8155 349.541 34.7344 348.356 33.4371C347.171 32.1398 346.56 30.5903 346.56 28.8605C346.56 26.5902 347.422 24.7164 349.146 23.2028C350.871 21.6893 353.313 20.9326 356.546 20.9326C361.431 20.9326 364.628 22.9146 366.209 26.8425L360.138 28.6804C359.492 27.0587 358.234 26.2659 356.295 26.2659C354.678 26.2659 353.888 26.7704 353.888 27.7794C353.888 28.2119 354.067 28.5723 354.427 28.8245C354.786 29.0768 355.504 29.293 356.546 29.5452C359.42 30.1578 361.431 30.6984 362.653 31.1669C363.874 31.6353 364.88 32.4281 365.67 33.5813C366.46 34.6984 366.891 36.0318 366.891 37.5813C366.891 39.9957 365.921 41.9777 363.946 43.4912C361.97 45.0048 359.42 45.7616 356.223 45.7616C350.332 45.6534 346.74 43.203 345.375 38.3381Z" fill="#4E7BBD"/>
<path d="M367.214 38.3381L374.039 37.1128C374.614 39.0588 376.087 40.0318 378.458 40.0318C380.29 40.0318 381.223 39.5273 381.223 38.5543C381.223 38.0498 381.008 37.6534 380.577 37.3651C380.146 37.0768 379.392 36.8245 378.278 36.6083C374.075 35.8155 371.381 34.7344 370.196 33.4371C369.01 32.1398 368.4 30.5903 368.4 28.8605C368.4 26.5902 369.262 24.7164 370.986 23.2028C372.71 21.6893 375.153 20.9326 378.386 20.9326C383.271 20.9326 386.468 22.9146 388.048 26.8425L381.978 28.6804C381.331 27.0587 380.074 26.2659 378.134 26.2659C376.518 26.2659 375.728 26.7704 375.728 27.7794C375.728 28.2119 375.907 28.5723 376.266 28.8245C376.626 29.0768 377.344 29.293 378.386 29.5452C381.259 30.1578 383.271 30.6984 384.492 31.1669C385.714 31.6353 386.719 32.4281 387.51 33.5813C388.3 34.6984 388.731 36.0318 388.731 37.5813C388.731 39.9957 387.761 41.9777 385.785 43.4912C383.81 45.0048 381.259 45.7616 378.062 45.7616C372.171 45.6534 368.579 43.203 367.214 38.3381Z" fill="#4E7BBD"/>
<path d="M413.085 45.293H405.039L400.908 36.2119L398.43 39.7434V45.293H391.497V21.2568H398.43V31.2028L405.039 21.2568H411.612L405.578 30.0497L413.085 45.293Z" fill="#4E7BBD"/>
<path d="M424.508 45.6534C421.132 45.6534 418.402 44.5363 416.282 42.302C414.163 40.0678 413.085 37.0767 413.085 33.2929C413.085 29.6893 414.091 26.7343 416.138 24.392C418.15 22.0496 420.988 20.8965 424.58 20.8965C427.921 20.8965 430.615 22.0136 432.734 24.2118C434.817 26.41 435.895 29.365 435.895 33.0407C435.895 36.8605 434.853 39.9236 432.734 42.1939C430.579 44.5002 427.849 45.6534 424.508 45.6534ZM424.472 40.2119C425.729 40.2119 426.591 39.6714 427.13 38.5903C427.669 37.5092 427.956 35.5272 427.956 32.6443C427.956 28.4641 426.843 26.374 424.616 26.374C422.209 26.374 420.988 28.7524 420.988 33.5092C420.988 37.9777 422.137 40.2119 424.472 40.2119Z" fill="#4E7BBD"/>
<path d="M455.759 39.3831V45.293H438.984V21.2568H446.348V39.3831H455.759V39.3831Z" fill="#4E7BBD"/>
<path d="M471.529 45.293L470.164 40.5723H463.734L462.297 45.293H456.334L463.734 21.2568H471.493L479 45.293H471.529ZM464.991 35.311H468.87L466.931 28.356L464.991 35.311Z" fill="#4E7BBD"/>
<path fill-rule="evenodd" clip-rule="evenodd" d="M44.7708 34.0793L50.6346 39.1116L56.4984 44.144C56.9848 44.5622 57.0543 45.3149 56.6235 45.8028C56.5123 45.9283 56.3873 46.0259 56.2483 46.0956L51.649 47.3641L54.5948 53.3025C54.7615 53.651 54.6226 54.0692 54.2752 54.2505L53.0941 54.8359C52.7467 55.0032 52.3298 54.8638 52.1492 54.5153L49.2034 48.5769L45.4239 51.4903C44.8403 51.7831 44.1316 51.5461 43.8398 50.9606C43.7564 50.7794 43.7147 50.5982 43.7147 50.417L43.2701 42.7778L42.8254 35.0551C42.7837 34.3999 43.284 33.8423 43.9371 33.8144C44.2428 33.7726 44.5484 33.8841 44.7708 34.0793Z" fill="#5E84C2"/>
<path fill-rule="evenodd" clip-rule="evenodd" d="M59.0553 82.3396H97.6843C98.8099 82.3396 99.727 81.4195 99.727 80.2904V21.4915C99.727 20.8502 99.324 20.3066 98.6709 20.195C97.3231 19.972 95.9613 19.7629 94.6135 19.5677V75.6344C94.6135 76.4848 93.9187 77.1957 93.0572 77.1957H76.3411C74.4513 77.1957 72.6727 77.363 70.8385 77.8091C66.7811 78.8128 62.7931 80.1231 58.9302 81.7402C58.7773 81.7959 58.7218 81.9493 58.7357 82.0747C58.7496 82.2141 58.8607 82.3396 59.0553 82.3396ZM27.1932 92C26.8319 92 26.5123 91.6933 26.5123 91.3169V88.6405C26.5123 88.292 26.7625 87.9853 27.1654 87.7204C27.7351 87.3301 28.6105 87.0234 29.4582 86.7864C31.2229 86.2985 32.7652 86.2846 34.5438 86.2846H65.197C66.9756 86.2846 68.518 86.2985 70.2827 86.7864C71.1303 87.0234 71.9918 87.3301 72.5754 87.7204C72.9784 87.9853 73.2285 88.292 73.2285 88.6405V91.3169C73.2285 91.6933 72.9228 92 72.5476 92H27.1932ZM40.6717 82.3396H2.04262C0.917093 82.3396 0 81.4195 0 80.2904V21.4915C0 20.8502 0.402966 20.3066 1.05605 20.195C2.4039 19.972 3.76564 19.7629 5.11349 19.5677V75.6344C5.11349 76.4848 5.80826 77.1957 6.66977 77.1957H23.3859C25.2756 77.1957 27.0543 77.363 28.8884 77.8091C32.9459 78.8128 36.9338 80.1231 40.7968 81.7402C40.9496 81.7959 41.0052 81.9493 40.9913 82.0747C40.9774 82.2141 40.8662 82.3396 40.6717 82.3396Z" fill="#5E84C2"/>
<path fill-rule="evenodd" clip-rule="evenodd" d="M85.3036 10.1443C86.457 10.0746 87.6103 10.0188 88.7636 9.99094C89.6946 9.977 90.4171 10.6461 90.4171 11.594V70.393C90.4171 71.4524 89.7085 72.3446 88.6107 72.3725C76.758 72.6931 65.2249 75.3974 54.4698 80.4437C54.178 80.5831 53.914 80.4437 53.8168 80.2346C53.7195 80.0534 53.7473 79.8025 53.9696 79.6492C63.2934 73.0276 73.9928 68.5668 85.3036 66.6292C85.3036 47.7962 85.3036 28.9633 85.3036 10.1443ZM14.4234 10.1443C13.2701 10.0746 12.1168 10.0188 10.9635 9.99094C10.0325 9.977 9.30994 10.6461 9.30994 11.594V70.393C9.30994 71.4524 10.0186 72.3446 11.1163 72.3725C22.9691 72.6931 34.5022 75.3974 45.2572 80.4437C45.549 80.5831 45.7991 80.4437 45.9103 80.2346C46.0076 80.0534 45.9798 79.8025 45.7575 79.6492C36.4337 73.0276 25.7342 68.5668 14.4234 66.6292C14.4234 47.7962 14.4234 28.9633 14.4234 10.1443ZM23.7472 5.26528C23.7472 5.26528 23.7472 22.2442 23.7472 56.2021C31.7648 61.1786 40.2549 67.5632 46.0076 74.9932C46.3133 75.3974 46.2577 75.8017 46.0354 76.0805C45.7575 76.4011 45.2433 76.5266 44.8265 76.1641C38.1428 70.2118 29.0136 65.6116 20.6208 62.6145C19.3841 62.1684 18.6337 60.9417 18.6337 59.6592V1.23661C18.6337 0.330515 19.3702 -0.213146 20.2317 0.0795946C29.9029 3.4949 38.6986 9.01514 45.9798 16.2082C46.1604 16.3894 46.1604 16.5985 46.0493 16.7518C45.9381 16.9191 45.688 16.9888 45.4518 16.8076C38.7542 11.845 31.612 7.99752 23.7472 5.26528ZM75.9799 5.26528C75.9799 5.26528 75.9799 22.2442 75.9799 56.2021C67.9622 61.1786 59.4722 67.5632 53.7195 74.9932C53.4138 75.3974 53.4694 75.8017 53.6917 76.0805C53.9696 76.4011 54.4837 76.5266 54.9006 76.1641C61.5843 70.2118 70.7135 65.6116 79.1063 62.6145C80.343 62.1684 81.0933 60.9417 81.0933 59.6592V1.23661C81.0933 0.330515 80.3569 -0.213146 79.4954 0.0795946C69.8242 3.4949 61.0423 9.01514 53.7612 16.2082C53.5805 16.3894 53.5805 16.5985 53.6917 16.7518C53.8029 16.9191 54.053 16.9888 54.2892 16.8076C60.9729 11.845 68.1151 7.99752 75.9799 5.26528Z" fill="#8390AF"/>
</svg>
