<?xml version="1.0" encoding="UTF-8"?>
<svg xmlns="http://www.w3.org/2000/svg" xmlns:xlink="http://www.w3.org/1999/xlink" width="96pt" height="96pt" viewBox="0 0 96 96" version="1.1">
<g id="surface4377389">
<path style=" stroke:none;fill-rule:nonzero;fill:rgb(24.705882%,31.764706%,70.980392%);fill-opacity:1;" d="M 84 12 L 12 12 L 12 84 L 84 84 Z M 71.628906 62.734375 L 64.6875 62.832031 C 64.6875 62.832031 63.191406 63.125 61.230469 61.773438 C 58.636719 59.988281 56.1875 55.347656 54.28125 55.953125 C 52.34375 56.566406 52.402344 60.742188 52.402344 60.742188 C 52.402344 60.742188 52.421875 61.480469 51.976562 61.960938 C 51.496094 62.476562 50.554688 62.425781 50.554688 62.425781 L 47.449219 62.425781 C 47.449219 62.425781 40.59375 62.992188 34.546875 56.691406 C 27.964844 49.824219 22.148438 36.269531 22.148438 36.269531 C 22.148438 36.269531 21.808594 35.410156 22.171875 34.976562 C 22.585938 34.492188 23.695312 34.480469 23.695312 34.480469 L 31.125 34.445312 C 31.125 34.445312 31.824219 34.566406 32.328125 34.9375 C 32.738281 35.238281 32.976562 35.8125 32.976562 35.8125 C 32.976562 35.8125 34.175781 38.855469 35.769531 41.613281 C 38.871094 46.984375 40.316406 48.160156 41.367188 47.585938 C 42.902344 46.742188 42.445312 39.992188 42.445312 39.992188 C 42.445312 39.992188 42.472656 37.539062 41.671875 36.449219 C 41.046875 35.597656 39.875 35.34375 39.359375 35.28125 C 38.941406 35.222656 39.625 34.253906 40.515625 33.8125 C 41.851562 33.160156 44.214844 33.121094 47.003906 33.148438 C 49.175781 33.171875 49.804688 33.304688 50.652344 33.511719 C 53.214844 34.132812 52.34375 36.523438 52.34375 42.265625 C 52.34375 44.105469 52.011719 46.6875 53.335938 47.539062 C 53.90625 47.90625 55.300781 47.597656 58.777344 41.675781 C 60.429688 38.867188 61.664062 35.566406 61.664062 35.566406 C 61.664062 35.566406 61.9375 34.980469 62.355469 34.726562 C 62.789062 34.46875 63.367188 34.546875 63.367188 34.546875 L 71.1875 34.5 C 71.1875 34.5 73.535156 34.214844 73.921875 35.285156 C 74.320312 36.398438 73.042969 39.003906 69.847656 43.265625 C 64.605469 50.265625 64.019531 49.613281 68.375 53.660156 C 72.535156 57.527344 73.394531 59.40625 73.539062 59.644531 C 75.261719 62.507812 71.628906 62.734375 71.628906 62.734375 Z M 71.628906 62.734375 "/>
</g>
</svg>
