<svg id="5e073532-8765-475d-99b2-8ed0b3280c95" data-name="Background" xmlns="http://www.w3.org/2000/svg" xmlns:xlink="http://www.w3.org/1999/xlink" viewBox="0 0 750 500"><defs><clipPath id="2233ba33-8b11-49ca-b8d1-a9d03b87a1b0"><rect id="5b988ac9-716f-4a82-ad54-6ca72b9083f5" data-name="&lt;Прямоугольник&gt;" width="750" height="500" fill="none"/></clipPath></defs><title>abstract5</title><g id="7b4027f6-d4c1-449b-bbc8-dea6f2decbc1" data-name="&lt;Группа обтравки&gt;"><g clip-path="url(#2233ba33-8b11-49ca-b8d1-a9d03b87a1b0)"><g id="19e6559f-a239-4a54-964b-d6875e771584" data-name="&lt;Группа&gt;"><g id="c97af22f-6a9e-4780-bda2-f5cd0f950e33" data-name="&lt;Группа&gt;"><path id="327bb69f-aabb-43c6-91d0-38ddb50e6490" data-name="&lt;Контур&gt;" d="M750.38,40.27a4.08,4.08,0,0,0,5.37-1.86,3.92,3.92,0,1,0-7-3.53A4,4,0,0,0,750.38,40.27Z" fill="#9a8bf2" opacity="0.8"/><path id="825e22a6-32f1-42c7-a114-aa81ecb2e43c" data-name="&lt;Контур&gt;" d="M745.34,11.39a4.05,4.05,0,0,0,1.36,5.56,4,4,0,0,0,5.28-1.8,3.45,3.45,0,0,0-1.63-5C748.18,9.16,746.27,9.57,745.34,11.39Z" fill="#9a8bf2" opacity="0.8"/><path id="c911189c-59c5-4326-9e25-9df8d91310ed" data-name="&lt;Контур&gt;" d="M742.72,71.43c-1.17,2.28-.73,3.93,1.34,5s3.73.55,4.79-1.51c1.18-2.29.69-4.06-1.39-5.1A3.28,3.28,0,0,0,742.72,71.43Z" fill="#9a8bf2" opacity="0.8"/><path id="7836fbaf-8dea-47a5-8728-e6e7df09992e" data-name="&lt;Контур&gt;" d="M747.33,99.6a3.64,3.64,0,1,0-1.49-5A3.57,3.57,0,0,0,747.33,99.6Z" fill="#9a8bf2" opacity="0.8"/><path id="fd9d5408-eb9e-45b7-8a06-bf217d5c20a7" data-name="&lt;Контур&gt;" d="M749.44,118.13a3.59,3.59,0,1,0,4.89-1.72A3.51,3.51,0,0,0,749.44,118.13Z" fill="#9a8bf2" opacity="0.8"/><path id="645596c9-c68f-4dd2-85e7-57afc9289293" data-name="&lt;Контур&gt;" d="M740.47,53.31a3.59,3.59,0,1,0-1.67-4.76A3.5,3.5,0,0,0,740.47,53.31Z" fill="#9a8bf2" opacity="0.8"/><path id="68766d00-1576-4af4-ae31-7c5b19ec6216" data-name="&lt;Контур&gt;" d="M738.75,4.94a3.09,3.09,0,0,0-1.6-4.4c-2.14-1.08-3.43-.59-4.61,1.33-1,1.64.2,4.1,1.47,4.79A3.79,3.79,0,0,0,738.75,4.94Z" fill="#9a8bf2" opacity="0.8"/><path id="1a085c7f-f097-4d6b-bd4f-6fc526b67d6d" data-name="&lt;Контур&gt;" d="M735.59,25.39a3.52,3.52,0,1,0,4.84-1.46A3.54,3.54,0,0,0,735.59,25.39Z" fill="#9a8bf2" opacity="0.8"/><path id="c6992240-a35c-4a5f-8c04-34bf72273125" data-name="&lt;Контур&gt;" d="M735.22,65.07a3.33,3.33,0,1,0-4.5,1.42A3.35,3.35,0,0,0,735.22,65.07Z" fill="#9a8bf2" opacity="0.8"/><path id="eafa2702-b121-4f61-8140-907ca51164c0" data-name="&lt;Контур&gt;" d="M732.68,84.81a3.4,3.4,0,1,0,6,3.08,3.31,3.31,0,0,0-1.55-4.29A3.27,3.27,0,0,0,732.68,84.81Z" fill="#9a8bf2" opacity="0.8"/><path id="da159bfd-2b07-47cc-8a3c-3c2a738f4a06" data-name="&lt;Контур&gt;" d="M737.74,112.8a3.33,3.33,0,1,0-1.42-4.52A3.35,3.35,0,0,0,737.74,112.8Z" fill="#9a8bf2" opacity="0.8"/><path id="fce1ce14-af9b-4a42-9075-b71461a90721" data-name="&lt;Контур&gt;" d="M731.91,41.52c1-1.91.54-3.62-1.17-4.52s-3.42-.29-4.37,1.59a3.13,3.13,0,1,0,5.54,2.92Z" fill="#9a8bf2" opacity="0.8"/><path id="5171a99e-4aa5-49df-89da-06da05834b79" data-name="&lt;Контур&gt;" d="M739.86,131.35c-.95,1.86-.46,3.46,1.33,4.35a2.91,2.91,0,0,0,4.19-1.38c1-1.92.57-3.62-1.13-4.53A3,3,0,0,0,739.86,131.35Z" fill="#9a8bf2" opacity="0.8"/><path id="0138f462-2bcf-4c59-9d5a-4cf35a3c809a" data-name="&lt;Контур&gt;" d="M728.27,18.23a3.33,3.33,0,0,0-1.22-4.46,3.41,3.41,0,0,0-4.25,1.4,3.14,3.14,0,1,0,5.47,3.06Z" fill="#9a8bf2" opacity="0.8"/><path id="17364530-6db9-485e-b612-a871991d091a" data-name="&lt;Контур&gt;" d="M728.7,101a3,3,0,1,0-4,1.4A3.15,3.15,0,0,0,728.7,101Z" fill="#9a8bf2" opacity="0.8"/><path id="c02a228c-a830-40bc-a017-7acc9ea8f2e3" data-name="&lt;Контур&gt;" d="M749,157.57a3.12,3.12,0,1,0-4.17,1.36A3.14,3.14,0,0,0,749,157.57Z" fill="#9a8bf2" opacity="0.8"/><path id="4dabcde2-3158-4d87-9e25-14b075e623da" data-name="&lt;Контур&gt;" d="M725.47,77.88a2.86,2.86,0,0,0-1.37-4c-1.73-.88-3.26-.49-4,1a3.34,3.34,0,0,0,1.25,4.49A3.41,3.41,0,0,0,725.47,77.88Z" fill="#9a8bf2" opacity="0.8"/><path id="06e16340-ca0b-496f-a985-aeccab2d76ea" data-name="&lt;Контур&gt;" d="M732.23,124.46c.59-1.49.71-2.87-1.45-3.89a2.71,2.71,0,0,0-3.77.87,3.32,3.32,0,0,0,1.13,4.54A3.13,3.13,0,0,0,732.23,124.46Z" fill="#9a8bf2" opacity="0.8"/><path id="505a7d29-0d23-456c-b96d-57a4ddeace7b" data-name="&lt;Контур&gt;" d="M721.75,54.55c.79-2,.2-3.1-1.48-3.88a2.7,2.7,0,0,0-3.75.9,3.3,3.3,0,0,0,1.16,4.53A3.16,3.16,0,0,0,721.75,54.55Z" fill="#9a8bf2" opacity="0.8"/><path id="82924db0-b2c2-4c5c-a3b7-c6b4e2b4b3e5" data-name="&lt;Контур&gt;" d="M747.25,177.74c-1,1.85-.66,3,1,3.86s2.9.54,3.79-1.22.63-3.13-1.07-4S748.15,176,747.25,177.74Z" fill="#9a8bf2" opacity="0.8"/><path id="f9e7dbeb-e63f-49bf-8732-fa609cde0302" data-name="&lt;Контур&gt;" d="M718.13,31.53a2.76,2.76,0,0,0-1.11-4,2.88,2.88,0,0,0-3.65,1.3c-.91,1.71-.58,3.07.95,3.91A2.55,2.55,0,0,0,718.13,31.53Z" fill="#9a8bf2" opacity="0.8"/><path id="5072e83d-7e5f-4480-8cea-8b2e55d9c627" data-name="&lt;Контур&gt;" d="M735.36,147.36a2.83,2.83,0,0,0-1.2-3.83,2.86,2.86,0,0,0-3.74,1.47c-.83,1.7-.41,3,1.21,3.82S734.52,149.08,735.36,147.36Z" fill="#9a8bf2" opacity="0.8"/><path id="7adff735-a78f-4d3c-9ae3-b41707e2c6c7" data-name="&lt;Контур&gt;" d="M738.67,170.34c.68-1.44.21-2.57-1.37-3.36s-2.77-.49-3.56,1.14a2.71,2.71,0,1,0,4.93,2.22Z" fill="#9a8bf2" opacity="0.8"/><path id="d783ca0e-57ca-4e43-a1df-9580e79aaa05" data-name="&lt;Контур&gt;" d="M715.07,90.86c.69-1.44.23-2.58-1.35-3.36s-2.78-.51-3.57,1.12a2.71,2.71,0,1,0,4.92,2.25Z" fill="#9a8bf2" opacity="0.8"/><path id="744a7404-9ec5-437b-8ea2-4ce26ca83163" data-name="&lt;Контур&gt;" d="M711.57,68.09a2.67,2.67,0,1,0-3.52,1.18A2.78,2.78,0,0,0,711.57,68.09Z" fill="#9a8bf2" opacity="0.8"/><path id="4432bb94-2eeb-40b3-b985-5f82a7cab328" data-name="&lt;Контур&gt;" d="M718.67,114.1c.66-1.53.09-2.6-1.3-3.31a2.43,2.43,0,0,0-3.52,1.13,2.65,2.65,0,1,0,4.82,2.19Z" fill="#9a8bf2" opacity="0.8"/><path id="7f9dde5c-c61a-4d6a-a769-49cecf8ef6a5" data-name="&lt;Контур&gt;" d="M714.4,8.33a2.71,2.71,0,1,0-3.65,1.19A2.78,2.78,0,0,0,714.4,8.33Z" fill="#9a8bf2" opacity="0.8"/><path id="cf553faf-5e61-4438-b86d-b14f74ba80ca" data-name="&lt;Контур&gt;" d="M707.86,44.61c.54-1.32.57-2.61-1.19-3.29-1.53-.78-2.66-.45-3.4,1.06a2.58,2.58,0,0,0,1.19,3.54A2.48,2.48,0,0,0,707.86,44.61Z" fill="#9a8bf2" opacity="0.8"/><path id="0eb0796a-8183-431b-815a-2bf2b673baf3" data-name="&lt;Контур&gt;" d="M721.83,137.26c.57-1.3.63-2.59-1.28-3.4a2.16,2.16,0,0,0-3.25,1.08,2.58,2.58,0,0,0,1.11,3.56A2.48,2.48,0,0,0,721.83,137.26Z" fill="#9a8bf2" opacity="0.8"/><path id="3a9d03b3-3922-4535-8311-017f7c4f23b9" data-name="&lt;Контур&gt;" d="M741.95,193.61c.69-1.38.36-2.92-1-3.37s-2.55-.46-3.17,1.12-.41,2.76.95,3.39A2.16,2.16,0,0,0,741.95,193.61Z" fill="#9a8bf2" opacity="0.8"/><path id="743ad29a-5ea7-4565-96c7-9f2e36372856" data-name="&lt;Контур&gt;" d="M725.16,160.8a2.21,2.21,0,0,0-.92-3.36,2.12,2.12,0,0,0-3.17,1c-.78,1.42-.46,2.81.86,3.44A2.26,2.26,0,0,0,725.16,160.8Z" fill="#9a8bf2" opacity="0.8"/><path id="21cca8b7-3f8d-457c-9266-7fc6efb5a7e5" data-name="&lt;Контур&gt;" d="M704.34,21.61a2.38,2.38,0,0,0-4.23-2.2c-.74,1.36-.29,2.47,1.07,3.36A2.31,2.31,0,0,0,704.34,21.61Z" fill="#9a8bf2" opacity="0.8"/><path id="6398dbc3-3287-4835-bd2a-7a69b4acaf5e" data-name="&lt;Контур&gt;" d="M701.49,81.28a2.28,2.28,0,0,0-4.09-2c-.67,1.27-.17,2.35,1,3.14A2.29,2.29,0,0,0,701.49,81.28Z" fill="#9a8bf2" opacity="0.8"/><path id="bc944d36-a60d-404d-ab85-fbaa8a6509da" data-name="&lt;Контур&gt;" d="M704.81,104.39a2.08,2.08,0,0,0-.93-3c-1.26-.68-2.41-.51-3.1.82a2.19,2.19,0,0,0,.92,3.16A2.26,2.26,0,0,0,704.81,104.39Z" fill="#9a8bf2" opacity="0.8"/><path id="e1e31c6c-8c77-41d0-ba77-f18d3ca4bcc4" data-name="&lt;Контур&gt;" d="M728.47,183.69c.62-1.36,0-2.36-1.27-2.94s-2.23-.13-3,1.16a2.27,2.27,0,0,0,1.17,3A2.19,2.19,0,0,0,728.47,183.69Z" fill="#9a8bf2" opacity="0.8"/><path id="cfab912d-f147-4519-870a-311a816f5dd4" data-name="&lt;Контур&gt;" d="M708.16,127.4a2.12,2.12,0,0,0-1.2-3.06,2,2,0,0,0-2.89,1,2.18,2.18,0,0,0,1,3.13A2.27,2.27,0,0,0,708.16,127.4Z" fill="#9a8bf2" opacity="0.8"/><path id="6686ed3f-3434-4426-93e8-dc6ac8730b0e" data-name="&lt;Контур&gt;" d="M745.19,216.65a2,2,0,0,0-.92-2.91,2.12,2.12,0,0,0-3.17.87,2.27,2.27,0,0,0,1,3.1A2.18,2.18,0,0,0,745.19,216.65Z" fill="#9a8bf2" opacity="0.8"/><path id="8d6acb85-6384-46c9-80a5-83db7da26497" data-name="&lt;Контур&gt;" d="M697.87,57.9c.62-1.36,0-2.36-1.27-2.94a2.07,2.07,0,0,0-2.92,1.1,2.26,2.26,0,0,0,1.13,3.07A2.19,2.19,0,0,0,697.87,57.9Z" fill="#9a8bf2" opacity="0.8"/><path id="a7a6275d-97a1-415c-b271-b038e66956b0" data-name="&lt;Контур&gt;" d="M694.6,34.48a1.81,1.81,0,0,0-1-2.8,1.74,1.74,0,0,0-2.73.46,2.29,2.29,0,0,0,.64,3.38A2.12,2.12,0,0,0,694.6,34.48Z" fill="#9a8bf2" opacity="0.8"/><path id="70a6a15e-8dd2-466f-a42f-eb2aba1b9a62" data-name="&lt;Контур&gt;" d="M711.5,150.58c.76-1.31.49-2.38-.76-3-1-.46-2.13-.48-2.58.85-.71,1.23-.73,2.23.64,2.94A1.77,1.77,0,0,0,711.5,150.58Z" fill="#9a8bf2" opacity="0.8"/><path id="626bcb91-96bd-46a1-874a-dac0767711f7" data-name="&lt;Контур&gt;" d="M731.71,206.28c.51-.83,0-1.88-1.08-2.43a1.86,1.86,0,0,0-2.64,1c-.59,1.19-.45,2.14.78,2.78S730.87,207.88,731.71,206.28Z" fill="#9a8bf2" opacity="0.8"/><path id="c05e9b01-c71b-437b-a21b-55acfdaa9d05" data-name="&lt;Контур&gt;" d="M690.77,11.13A1.85,1.85,0,0,0,690,8.4a1.92,1.92,0,0,0-2.79,1.05,2,2,0,1,0,3.57,1.68Z" fill="#9a8bf2" opacity="0.8"/><path id="d74fe0c9-692e-4bbe-828b-0680b432a353" data-name="&lt;Контур&gt;" d="M714.78,173.64A1.79,1.79,0,0,0,714,171a1.94,1.94,0,1,0-1.81,3.44A1.79,1.79,0,0,0,714.78,173.64Z" fill="#9a8bf2" opacity="0.8"/><path id="413547a6-0dfd-4770-895f-b4b16845c141" data-name="&lt;Контур&gt;" d="M748.55,239.76c.66-1.12.14-1.9-.78-2.52-1.06-.46-2-.57-2.61.63a1.9,1.9,0,0,0,.78,2.79A1.88,1.88,0,0,0,748.55,239.76Z" fill="#9a8bf2" opacity="0.8"/><path id="616da6e9-9bf7-44fb-9430-a60793cf7f94" data-name="&lt;Контур&gt;" d="M691.16,94.16a1.64,1.64,0,0,0-1-2.3c-1.06-.54-1.94-.37-2.68.95a1.93,1.93,0,0,0,1,2.52A1.9,1.9,0,0,0,691.16,94.16Z" fill="#9a8bf2" opacity="0.8"/><path id="894e1393-c9fa-404f-9f5e-7875bcee47e2" data-name="&lt;Контур&gt;" d="M688,70.76a1.64,1.64,0,0,0-1-2.3,1.75,1.75,0,0,0-2.62.82,2,2,0,1,0,3.6,1.49Z" fill="#9a8bf2" opacity="0.8"/><path id="b0e6f0d3-4af0-4523-837c-c80b87b770ba" data-name="&lt;Контур&gt;" d="M684.24,47.55c.53-1.12,0-1.83-1.16-2.37a1.47,1.47,0,0,0-2.22.82,1.81,1.81,0,0,0,.84,2.61A1.83,1.83,0,0,0,684.24,47.55Z" fill="#9a8bf2" opacity="0.8"/><path id="e2e6c174-ae71-4272-a823-f50476d5b4cf" data-name="&lt;Контур&gt;" d="M698.06,140.49c.53-1.13,0-1.82-1.2-2.38a1.47,1.47,0,0,0-2.19.85,1.8,1.8,0,0,0,.85,2.61A1.83,1.83,0,0,0,698.06,140.49Z" fill="#9a8bf2" opacity="0.8"/><path id="84211073-d626-4352-9890-94543adf52fa" data-name="&lt;Контур&gt;" d="M694.66,117.63a1.88,1.88,0,1,0-3.44-1.51,1.88,1.88,0,1,0,3.44,1.51Z" fill="#9a8bf2" opacity="0.8"/><path id="3cf3072d-f2d0-4b54-8c8b-9edbfb4d0328" data-name="&lt;Контур&gt;" d="M718.17,196.59a1.45,1.45,0,0,0-.54-2.34c-1-.55-1.75-.12-2.27.92s-.45,1.67.64,2.21S717.73,197.73,718.17,196.59Z" fill="#9a8bf2" opacity="0.8"/><path id="81f3b4b4-ce48-41c7-8925-0859f8dbb384" data-name="&lt;Контур&gt;" d="M734.83,229.73c.54-1.06.36-1.86-.71-2.34s-1.73.1-2.22,1.09-.24,1.72.79,2.12C733.81,231.25,734.35,230.68,734.83,229.73Z" fill="#9a8bf2" opacity="0.8"/><path id="0b5f8b06-519c-47d1-904f-4df81d2b3ed7" data-name="&lt;Контур&gt;" d="M701.12,163.44a1.59,1.59,0,1,0-2.21.89A1.5,1.5,0,0,0,701.12,163.44Z" fill="#9a8bf2" opacity="0.8"/><path id="c4c97ca7-e3eb-430d-96d2-78e799745486" data-name="&lt;Контур&gt;" d="M680.53,24.6a1.58,1.58,0,0,0-.37-2.37,1.47,1.47,0,0,0-2.2.5c-.59,1.08-.53,1.93.42,2.49A1.46,1.46,0,0,0,680.53,24.6Z" fill="#9a8bf2" opacity="0.8"/><path id="41bdfe80-2ab6-4bf9-9428-085b6ca3b29d" data-name="&lt;Контур&gt;" d="M681.19,107.15c.52-1,0-1.42-.78-1.82s-1.58-.58-2,.53A1.53,1.53,0,0,0,679,108C679.91,108.53,680.67,108.12,681.19,107.15Z" fill="#9a8bf2" opacity="0.8"/><path id="aa8c5d94-6501-4a60-9132-de9fb7141fd7" data-name="&lt;Контур&gt;" d="M677.33,1.26c.52-1-.07-1.41-.79-1.82s-1.58-.57-2,.54a1.53,1.53,0,0,0,.62,2.17C676.06,2.64,676.82,2.23,677.33,1.26Z" fill="#9a8bf2" opacity="0.8"/><path id="5c165fa8-aeb0-41b0-bc48-aa38b5424397" data-name="&lt;Контур&gt;" d="M704.94,186.38c.49-.75-.26-1.21-1.05-1.61s-1.46-.46-1.9.53-.29,1.85.69,2.29S704.31,187.58,704.94,186.38Z" fill="#9a8bf2" opacity="0.8"/><path id="a34e0661-c758-41ef-b0a0-cbcc319ded6b" data-name="&lt;Контур&gt;" d="M677.45,84c.61-1,.09-1.55-1.18-2.19-.45-.26-1.17-.26-1.61.81A1.56,1.56,0,1,0,677.45,84Z" fill="#9a8bf2" opacity="0.8"/><path id="2701062c-f71f-4ef3-8991-3eb541c0ce3f" data-name="&lt;Контур&gt;" d="M673.88,61.18a1.38,1.38,0,0,0-.47-2,1.25,1.25,0,0,0-1.94.49,1.58,1.58,0,0,0,.65,2.08A1.44,1.44,0,0,0,673.88,61.18Z" fill="#9a8bf2" opacity="0.8"/><path id="ea59c525-25f1-48a9-8821-1ad64a30215e" data-name="&lt;Контур&gt;" d="M684.19,130.55a1.38,1.38,0,0,0-.45-2,1.25,1.25,0,0,0-1.95.48,1.58,1.58,0,0,0,.65,2.09A1.44,1.44,0,0,0,684.19,130.55Z" fill="#9a8bf2" opacity="0.8"/><path id="33be21e2-06ee-4f08-a7a0-61701ac2c3af" data-name="&lt;Контур&gt;" d="M687.67,153.65c.37-.77.31-1.34-.53-1.73s-1.28.08-1.65.78-.29,1.35.75,1.83C686.89,154.82,687.32,154.38,687.67,153.65Z" fill="#9a8bf2" opacity="0.8"/><path id="9731853a-d2af-459f-906e-eab074b45f80" data-name="&lt;Контур&gt;" d="M690.9,176.85a.94.94,0,0,0-.46-1.43c-.64-.33-1.22-.42-1.61.38a1.16,1.16,0,1,0,2.07,1Z" fill="#9a8bf2" opacity="0.8"/><path id="d85f433b-4ed3-44fd-8646-b4c652ec6354" data-name="&lt;Контур&gt;" d="M667.31,97.33c.38-.77,0-1.19-.66-1.5a1,1,0,0,0-1.42.49,1.17,1.17,0,1,0,2.08,1Z" fill="#9a8bf2" opacity="0.8"/><path id="116f807c-312c-4176-b488-ccd33c13e883" data-name="&lt;Контур&gt;" d="M666.77,14.52c.38-.77,0-1.19-.66-1.5a1,1,0,0,0-1.42.49,1.17,1.17,0,1,0,2.08,1Z" fill="#9a8bf2" opacity="0.8"/><path id="1c251636-ad8a-48fb-be7e-2305d7e9670d" data-name="&lt;Контур&gt;" d="M670.52,37.89a1.17,1.17,0,0,0-.48-1.66,1.19,1.19,0,0,0-1.8.46,1.29,1.29,0,1,0,2.29,1.2Z" fill="#9a8bf2" opacity="0.8"/><path id="e5cd8b7f-81be-4774-b1df-0dfd9c28a688" data-name="&lt;Контур&gt;" d="M670.78,120c.25-.42-.3-.66-.73-.88s-1-.58-1.3.08-.33,1.34.4,1.68S670.25,120.76,670.78,120Z" fill="#9a8bf2" opacity="0.8"/><path id="05a1de1c-c8dd-4a4e-baf7-8d32779d1972" data-name="&lt;Контур&gt;" d="M664,74c.3-.64-.31-.88-.76-1.08s-1-.49-1.23.27c-.19.62-.19,1.25.42,1.54A1.16,1.16,0,0,0,664,74Z" fill="#9a8bf2" opacity="0.8"/><path id="315a3868-dd1b-4ede-9c8c-537b006e8bcc" data-name="&lt;Контур&gt;" d="M660.24,50.95c.55-.67,0-.93-.45-1.17s-1.05-.73-1.41.15a1.26,1.26,0,0,0,.37,1.59A1.29,1.29,0,0,0,660.24,50.95Z" fill="#9a8bf2" opacity="0.8"/><path id="60f7ef7d-d4ee-4937-ad1e-a3449ab20660" data-name="&lt;Контур&gt;" d="M674.25,143.52c.51-.67-.07-.93-.48-1.16s-1.06-.71-1.4.18a1.25,1.25,0,0,0,.39,1.57A1.29,1.29,0,0,0,674.25,143.52Z" fill="#9a8bf2" opacity="0.8"/></g></g><g id="fdd16905-246e-4b10-a701-912da3ed55eb" data-name="&lt;Группа&gt;"><g id="b920fd8f-6c18-407e-a8ea-74b9860fb90e" data-name="&lt;Группа&gt;"><path id="23fb1248-222b-40d8-832f-848e6f00ebb4" data-name="&lt;Контур&gt;" d="M2.52,381.66a3.55,3.55,0,0,0-4.79.66,3.54,3.54,0,0,0,.68,4.9,3.55,3.55,0,0,0,4.79-.66A3.54,3.54,0,0,0,2.52,381.66Z" fill="#9a8bf2"/><path id="d3c2c043-ea0d-4544-b4ba-4d49dad0e026" data-name="&lt;Контур&gt;" d="M3.26,362.51a3.06,3.06,0,0,0-4.5.42c-1.41,1.72-1.32,3.53.23,4.85a3.25,3.25,0,0,0,4.59-.53C4.94,365.57,4.82,363.75,3.26,362.51Z" fill="#9a8bf2"/><path id="32fd0b7b-a52b-4315-9d65-7e0c4a9c9a72" data-name="&lt;Контур&gt;" d="M9.7,430.78a3.08,3.08,0,0,0-4.62.4c-1.37,1.7-1.25,3.61.31,4.84a3.21,3.21,0,0,0,4.58-.61C11.28,433.78,11.17,432,9.7,430.78Z" fill="#9a8bf2"/><path id="0a65d7e7-7caf-4231-93f5-d06885132a76" data-name="&lt;Контур&gt;" d="M10.61,411.43a3.27,3.27,0,1,0,.48,4.68A3.21,3.21,0,0,0,10.61,411.43Z" fill="#9a8bf2"/><path id="c983ff4f-3256-4462-8e9d-84a194737fbc" data-name="&lt;Контур&gt;" d="M7.83,469.33a3.37,3.37,0,0,0-4.65.65,3.49,3.49,0,0,0,.4,4.63A3.46,3.46,0,0,0,8.28,474,3.29,3.29,0,0,0,7.83,469.33Z" fill="#9a8bf2"/><path id="926ab42e-2cbf-481e-83cc-1e213ed4125c" data-name="&lt;Контур&gt;" d="M9.41,454.64a3.2,3.2,0,0,0-.54-4.56,3.21,3.21,0,0,0-4.57.49,3.21,3.21,0,0,0,.56,4.67A3.2,3.2,0,0,0,9.41,454.64Z" fill="#9a8bf2"/><path id="1c6208aa-81ba-453e-9e65-e615da0235aa" data-name="&lt;Контур&gt;" d="M11.72,391.94a3.36,3.36,0,0,0-4.56.73,3,3,0,0,0,.72,4.44,3.06,3.06,0,0,0,4.46-.6A3.36,3.36,0,0,0,11.72,391.94Z" fill="#9a8bf2"/><path id="5b6a9df4-8ea7-4f83-af54-1d7f31cd55eb" data-name="&lt;Контур&gt;" d="M7.28,493.55a3.35,3.35,0,0,0-.21-4.72,3.31,3.31,0,0,0-4.57.62A2.85,2.85,0,0,0,3,493.71C4.62,494.89,6.23,494.87,7.28,493.55Z" fill="#9a8bf2"/><path id="30405a2b-e6e1-4536-96a1-2ccf46ec6645" data-name="&lt;Контур&gt;" d="M4.15,343.28a3.29,3.29,0,0,0-4.45.64c-1.1,1.45-1.13,3.22.58,4.37,1.52,1.18,3.21,1.06,4.23-.3A3.34,3.34,0,0,0,4.15,343.28Z" fill="#9a8bf2"/><path id="303b3789-8289-43f3-a528-f8c748621017" data-name="&lt;Контур&gt;" d="M12.56,372.7a3.14,3.14,0,1,0,.45,4.36A3.22,3.22,0,0,0,12.56,372.7Z" fill="#9a8bf2"/><path id="10f850b9-9b82-4f02-b9c8-b15446f785eb" data-name="&lt;Контур&gt;" d="M19,445.31c1.32-1.66,1.22-3.07-.28-4.26a2.62,2.62,0,0,0-4.12.45c-1.32,1.67-1.21,3.18.31,4.36A2.71,2.71,0,0,0,19,445.31Z" fill="#9a8bf2"/><path id="bb2953ee-da71-4905-bb15-82d00344362c" data-name="&lt;Контур&gt;" d="M19.83,421.75a3,3,0,1,0,.41,4.27A2.95,2.95,0,0,0,19.83,421.75Z" fill="#9a8bf2"/><path id="e9934797-b199-408c-b497-4a63892dcfcc" data-name="&lt;Контур&gt;" d="M21.09,406.4a3,3,0,0,0-4.77-3.52,3,3,0,1,0,4.77,3.52Z" fill="#9a8bf2"/><path id="d1e7f5ed-a940-4e73-8333-e72bcb760395" data-name="&lt;Контур&gt;" d="M18,460.36a3,3,0,1,0,.59,4.12A2.89,2.89,0,0,0,18,460.36Z" fill="#9a8bf2"/><path id="a20e38e4-a9fb-44dc-b971-eae9348cd185" data-name="&lt;Контур&gt;" d="M13.34,353.56a2.93,2.93,0,1,0,.52,4.14A2.89,2.89,0,0,0,13.34,353.56Z" fill="#9a8bf2"/><path id="cff33269-ee75-4f5d-9f80-7e3b0e2f12b4" data-name="&lt;Контур&gt;" d="M21.52,383.19a3,3,0,0,0-4.14.5,2.57,2.57,0,0,0,.48,4,2.58,2.58,0,0,0,4-.35A3,3,0,0,0,21.52,383.19Z" fill="#9a8bf2"/><path id="8da33ca8-bd41-4a43-ab63-22d3bb9a8f2e" data-name="&lt;Контур&gt;" d="M5,324.3a3,3,0,0,0-4.14.55,2.59,2.59,0,0,0,.54,4,2.58,2.58,0,0,0,4-.4A3,3,0,0,0,5,324.3Z" fill="#9a8bf2"/><path id="c449f809-49cd-4079-bc03-2c6913b8d9a9" data-name="&lt;Контур&gt;" d="M11.58,499.83a2.55,2.55,0,0,0,.59,3.82c1.56,1.22,2.68,1,4-.34,1.08-1.17.5-3.35-.42-4.12A3.13,3.13,0,0,0,11.58,499.83Z" fill="#9a8bf2"/><path id="73c960a4-ac66-4286-aa99-ae0d60f78a29" data-name="&lt;Контур&gt;" d="M17.42,483.76a2.91,2.91,0,1,0-4.15.4A2.92,2.92,0,0,0,17.42,483.76Z" fill="#9a8bf2"/><path id="269b1262-57d7-47f5-b865-14da6d46d06c" data-name="&lt;Контур&gt;" d="M24.1,451.67a2.75,2.75,0,1,0,3.87-.43A2.77,2.77,0,0,0,24.1,451.67Z" fill="#9a8bf2"/><path id="e87c020f-ff6e-4d29-aa96-8c3f731a1bde" data-name="&lt;Контур&gt;" d="M23,367.85a3,3,0,0,0-.4-4.08,3,3,0,0,0-4,.57,2.75,2.75,0,0,0,.54,3.84A2.67,2.67,0,0,0,23,367.85Z" fill="#9a8bf2"/><path id="f5a3b8ce-1c41-4247-8eb1-ac9ea99cb7d4" data-name="&lt;Контур&gt;" d="M14.05,334.29a3,3,0,0,0-4,.51,2.7,2.7,0,0,0,.48,3.85,2.69,2.69,0,0,0,3.84-.27A3,3,0,0,0,14.05,334.29Z" fill="#9a8bf2"/><path id="a006b27e-a845-416a-a00e-e43a4f31cabd" data-name="&lt;Контур&gt;" d="M29.32,436.09a2.81,2.81,0,1,0-4.41-3.46,2.73,2.73,0,0,0,.57,3.72A2.7,2.7,0,0,0,29.32,436.09Z" fill="#9a8bf2"/><path id="0e33cd67-4eec-4065-a033-7aa6b5d1cec7" data-name="&lt;Контур&gt;" d="M29.72,412.6a2.75,2.75,0,1,0,.42,3.89A2.76,2.76,0,0,0,29.72,412.6Z" fill="#9a8bf2"/><path id="490df237-32e9-4c91-90fb-5ab53628dd80" data-name="&lt;Контур&gt;" d="M23,471.29c-1.1,1.39-1,2.85.22,3.85a2.51,2.51,0,0,0,3.8-.59,2.41,2.41,0,0,0-.41-3.73A2.4,2.4,0,0,0,23,471.29Z" fill="#9a8bf2"/><path id="794b050b-3b1d-46fa-8982-9a2208828d6c" data-name="&lt;Контур&gt;" d="M31,397.23a2.42,2.42,0,0,0-.38-3.74,2.4,2.4,0,0,0-3.61.44c-1.11,1.4-1,2.84.19,3.85A2.52,2.52,0,0,0,31,397.23Z" fill="#9a8bf2"/><path id="7e6a047b-edbd-4fdc-a47f-98af004344e6" data-name="&lt;Контур&gt;" d="M5.76,304.86a2.51,2.51,0,0,0-3.63.49,2.59,2.59,0,0,0,.26,3.85,2.55,2.55,0,0,0,3.69-.51A2.53,2.53,0,0,0,5.76,304.86Z" fill="#9a8bf2"/><path id="ba4a9b84-f059-4e4d-8a30-8c9b2a1152b8" data-name="&lt;Контур&gt;" d="M23.27,344.54a2.57,2.57,0,0,0-3.69.47,2.75,2.75,0,0,0,.26,3.81,2.78,2.78,0,0,0,3.67-.44A2.6,2.6,0,0,0,23.27,344.54Z" fill="#9a8bf2"/><path id="a8dbb84e-0da9-4a2a-9ef5-18a6caed795a" data-name="&lt;Контур&gt;" d="M22.21,490.74a2.75,2.75,0,0,0,.27,3.81,2.82,2.82,0,0,0,3.67-.45,2.59,2.59,0,1,0-3.94-3.36Z" fill="#9a8bf2"/><path id="f90c38ea-e169-4c51-9cae-631adc7056de" data-name="&lt;Контур&gt;" d="M15.35,318.84a2.57,2.57,0,0,0-4-3.18,2.39,2.39,0,0,0,.43,3.61A2.37,2.37,0,0,0,15.35,318.84Z" fill="#9a8bf2"/><path id="1e43b1d2-bfc1-495a-af3e-70f452f190e3" data-name="&lt;Контур&gt;" d="M35.15,423.57a2.51,2.51,0,1,0,3.48-.49A2.6,2.6,0,0,0,35.15,423.57Z" fill="#9a8bf2"/><path id="a01f5ef5-bef1-425f-a6bf-3e153508e5dc" data-name="&lt;Контур&gt;" d="M27.76,374.51a2.58,2.58,0,1,0,3.59-.43A2.59,2.59,0,0,0,27.76,374.51Z" fill="#9a8bf2"/><path id="d69cdcee-809c-4c53-90d6-755945e26daf" data-name="&lt;Контур&gt;" d="M34.05,442.86a2.37,2.37,0,0,0,.47,3.42c1.26,1,2.57.92,3.41-.17a2.76,2.76,0,0,0-.29-3.84A2.82,2.82,0,0,0,34.05,442.86Z" fill="#9a8bf2"/><path id="ea833693-579f-49dd-a5c3-9496f44d671d" data-name="&lt;Контур&gt;" d="M36.05,404c-.72,1.11-1,2.22.55,3.39a2.24,2.24,0,0,0,3.19-.1,2.74,2.74,0,0,0-.19-3.86A2.59,2.59,0,0,0,36.05,404Z" fill="#9a8bf2"/><path id="4c143bb5-7179-4ed7-afdd-2c372144ff52" data-name="&lt;Контур&gt;" d="M33.32,462.36c-1,1.5-.66,2.48.58,3.38a2.23,2.23,0,0,0,3.19-.13,2.73,2.73,0,0,0-.21-3.85A2.61,2.61,0,0,0,33.32,462.36Z" fill="#9a8bf2"/><path id="a51b529c-cc55-4824-8a4e-e676aae1e2f4" data-name="&lt;Контур&gt;" d="M24.09,325.58c-1.27-1-2.25-.88-3.26.43s-1,2.42.27,3.39,2.27.75,3.34-.65C25.38,327.49,25.28,326.52,24.09,325.58Z" fill="#9a8bf2"/><path id="b88867bb-7f8a-4575-8109-37dc4e5f463d" data-name="&lt;Контур&gt;" d="M32.44,358.45c1.07-1.35,1-2.32-.2-3.29s-2.26-.91-3.27.38-1,2.43.23,3.39S31.43,359.72,32.44,358.45Z" fill="#9a8bf2"/><path id="6deb9aba-c37f-47c5-818c-3f3c0af22f56" data-name="&lt;Контур&gt;" d="M32.56,481.6a2.28,2.28,0,0,0,.26,3.42,2.38,2.38,0,0,0,3.17-.47c1-1.24,1-2.39-.14-3.32A2.11,2.11,0,0,0,32.56,481.6Z" fill="#9a8bf2"/><path id="2a25c6c1-6a6a-4d5c-b845-5a75682c22f8" data-name="&lt;Контур&gt;" d="M6.58,285.89a2.11,2.11,0,0,0-3.27.54,2.28,2.28,0,0,0,.32,3.3,2.35,2.35,0,0,0,3.27-.55A2.1,2.1,0,0,0,6.58,285.89Z" fill="#9a8bf2"/><path id="98570054-cbaa-4285-891b-f3509897a0c2" data-name="&lt;Контур&gt;" d="M37.2,385a2.34,2.34,0,0,0,.36,3.3,2.36,2.36,0,0,0,3.27-.59,2.1,2.1,0,0,0-.37-3.29C39.3,383.52,38.15,383.72,37.2,385Z" fill="#9a8bf2"/><path id="aca5bdbf-e68d-44e8-9ada-aef4ed54494c" data-name="&lt;Контур&gt;" d="M15.64,299.49a2.44,2.44,0,0,0,0-3.33,2.39,2.39,0,0,0-3.31.27,2.52,2.52,0,0,0,.19,3.42A2.56,2.56,0,0,0,15.64,299.49Z" fill="#9a8bf2"/><path id="13248bc6-635d-4a85-82a7-cb7f868f88b9" data-name="&lt;Контур&gt;" d="M29.67,336.2a2.51,2.51,0,0,0,.27,3.29A2.55,2.55,0,0,0,33.2,339a2.27,2.27,0,1,0-3.53-2.83Z" fill="#9a8bf2"/><path id="29414f67-122e-408c-b3f4-2351bf6792f1" data-name="&lt;Контур&gt;" d="M38.2,365.82c-.78,1.06-.59,2,.57,2.94s2.17.85,3.07-.35a2.24,2.24,0,1,0-3.64-2.59Z" fill="#9a8bf2"/><path id="86f459e4-425a-4bab-baea-15f777fecfba" data-name="&lt;Контур&gt;" d="M44.56,434c-.79,1.06-.6,2.05.55,2.94s2.17.86,3.07-.33A2.24,2.24,0,1,0,44.56,434Z" fill="#9a8bf2"/><path id="53a5ab63-bc37-431d-80f0-37d6c1bc2bca" data-name="&lt;Контур&gt;" d="M43.74,453a2.21,2.21,0,1,0,3-.39A2.3,2.3,0,0,0,43.74,453Z" fill="#9a8bf2"/><path id="d821141d-4522-49e2-a879-af27c35ae670" data-name="&lt;Контур&gt;" d="M45.38,414.6a1.92,1.92,0,0,0,.52,2.89,2,2,0,0,0,3-.35,2.19,2.19,0,1,0-3.55-2.55Z" fill="#9a8bf2"/><path id="683c0170-76ad-42d7-b5f8-6656b7f465cb" data-name="&lt;Контур&gt;" d="M24.7,306.14a2.3,2.3,0,0,0-3.13.6,1.92,1.92,0,0,0,.5,2.89,2,2,0,0,0,3-.33A2.3,2.3,0,0,0,24.7,306.14Z" fill="#9a8bf2"/><path id="a059b948-4a5e-4089-9558-29da12e22078" data-name="&lt;Контур&gt;" d="M43,472.64c-.65,1-.88,2,.43,2.85a1.82,1.82,0,0,0,2.93-.31,2.13,2.13,0,0,0-.39-3.06A2.05,2.05,0,0,0,43,472.64Z" fill="#9a8bf2"/><path id="57354133-71e2-4c70-ba2f-45f87363f4d7" data-name="&lt;Контур&gt;" d="M46.54,395.33c-.67,1-.92,2,.5,3a1.78,1.78,0,0,0,2.81-.35,2.13,2.13,0,0,0-.33-3.07A2,2,0,0,0,46.54,395.33Z" fill="#9a8bf2"/><path id="fef756ea-37d7-4af4-8056-0bcfb05a4aad" data-name="&lt;Контур&gt;" d="M39.28,346.45c-.78,1-.76,2.31.23,2.88s2,.78,2.75-.4A1.86,1.86,0,0,0,42,346,1.79,1.79,0,0,0,39.28,346.45Z" fill="#9a8bf2"/><path id="6f7e5a1f-a52f-45c0-9be4-7520c09e37be" data-name="&lt;Контур&gt;" d="M31.2,316.8a1.83,1.83,0,0,0,.12,2.88,1.76,1.76,0,0,0,2.73-.21,1.92,1.92,0,0,0-.06-2.93A1.87,1.87,0,0,0,31.2,316.8Z" fill="#9a8bf2"/><path id="8cce0f87-2a9a-4411-9d58-07d62faf0fa6" data-name="&lt;Контур&gt;" d="M47.61,375.72a1.82,1.82,0,0,0,.21,2.87,1.75,1.75,0,0,0,2.73-.3,1.9,1.9,0,0,0-.14-2.92A1.87,1.87,0,0,0,47.61,375.72Z" fill="#9a8bf2"/><path id="61615ee1-4611-4721-9679-948b69d40408" data-name="&lt;Контур&gt;" d="M42.14,491.84a2,2,0,0,0,3.08,2.46c.82-1,.63-2-.33-2.9A1.91,1.91,0,0,0,42.14,491.84Z" fill="#9a8bf2"/><path id="3e0a8627-aab7-40c6-915c-25afda48ec81" data-name="&lt;Контур&gt;" d="M54,444a1.89,1.89,0,0,0,3,2.29A1.89,1.89,0,1,0,54,444Z" fill="#9a8bf2"/><path id="d2ee511a-ac9c-4641-9e6b-d03d07c06257" data-name="&lt;Контур&gt;" d="M55.05,424.7a1.72,1.72,0,0,0,.27,2.58,1.67,1.67,0,0,0,2.64-.16,1.81,1.81,0,0,0-.23-2.71A1.87,1.87,0,0,0,55.05,424.7Z" fill="#9a8bf2"/><path id="7b527571-255e-4c93-93b5-1692579d4eda" data-name="&lt;Контур&gt;" d="M48.61,356.65a1.68,1.68,0,0,0,.56,2.59,1.74,1.74,0,0,0,2.58-.47,1.88,1.88,0,0,0-.46-2.62A1.81,1.81,0,0,0,48.61,356.65Z" fill="#9a8bf2"/><path id="7e93a0a8-108f-419f-abf1-5a5d8d92a3e1" data-name="&lt;Контур&gt;" d="M56,405.52a1.75,1.75,0,0,0,.48,2.67,1.63,1.63,0,0,0,2.5-.35,1.8,1.8,0,0,0-.32-2.7A1.87,1.87,0,0,0,56,405.52Z" fill="#9a8bf2"/><path id="459fa1d6-f52f-4cba-aaa5-bf20f4215438" data-name="&lt;Контур&gt;" d="M40.35,327.25a1.63,1.63,0,0,0,.28,2.51,1.75,1.75,0,0,0,2.71-.19A1.87,1.87,0,0,0,43,326.9,1.8,1.8,0,0,0,40.35,327.25Z" fill="#9a8bf2"/><path id="96c084d9-c7f4-40b2-8652-61160fe0b7a0" data-name="&lt;Контур&gt;" d="M53.21,463.48a1.68,1.68,0,0,0,.55,2.59,1.71,1.71,0,0,0,2.54-.42,1.87,1.87,0,0,0-.42-2.67A1.81,1.81,0,0,0,53.21,463.48Z" fill="#9a8bf2"/><path id="1c68686d-2c5a-454f-a814-e65ea10af0b6" data-name="&lt;Контур&gt;" d="M52.1,483a1.49,1.49,0,0,0,.34,2.42,1.44,1.44,0,0,0,2.29.07,1.9,1.9,0,0,0,0-2.84A1.75,1.75,0,0,0,52.1,483Z" fill="#9a8bf2"/><path id="ad7b59b7-767f-4c10-a21d-5ab054b959e5" data-name="&lt;Контур&gt;" d="M57,386.2a1.55,1.55,0,0,0,.14,2.53c.71.53,1.64.73,2.23-.28.78-.88.95-1.69,0-2.48A1.46,1.46,0,0,0,57,386.2Z" fill="#9a8bf2"/><path id="9624c698-28eb-40a0-8336-2581e77897be" data-name="&lt;Контур&gt;" d="M32.31,298c-.84.83-.47,1.72.32,2.31a1.51,1.51,0,0,0,2.38-.48c.62-.91.65-1.62-.24-2.32S33,297,32.31,298Z" fill="#9a8bf2"/><path id="2bedd9c0-30f2-4620-a6a2-256c894523b3" data-name="&lt;Контур&gt;" d="M49.61,337.82c-.55.59-.29,1.53.49,2.14a1.54,1.54,0,0,0,2.31-.41,1.5,1.5,0,0,0-.18-2.38C51.33,336.46,50.54,336.66,49.61,337.82Z" fill="#9a8bf2"/><path id="0edcec30-223e-4232-b03d-ac659374bee8" data-name="&lt;Контур&gt;" d="M58.09,367a1.48,1.48,0,0,0,.24,2.26,1.6,1.6,0,1,0,2-2.5A1.48,1.48,0,0,0,58.09,367Z" fill="#9a8bf2"/><path id="de067ef6-8f33-4fc0-a085-29655b12a75c" data-name="&lt;Контур&gt;" d="M41.33,308c-.72.8-.42,1.51.23,2.16s1.54.78,2.22-.09a1.57,1.57,0,0,0-.19-2.38A1.55,1.55,0,0,0,41.33,308Z" fill="#9a8bf2"/><path id="327e2287-f402-4fe5-9ad1-44941cb7a896" data-name="&lt;Контур&gt;" d="M64.47,435.18a1.36,1.36,0,0,0,.44,2c.78.61,1.51.61,2.32-.34a1.59,1.59,0,0,0-.43-2.21A1.57,1.57,0,0,0,64.47,435.18Z" fill="#9a8bf2"/><path id="730af7de-d723-46aa-a68c-c6782a885f53" data-name="&lt;Контур&gt;" d="M63.26,454.65a1.35,1.35,0,0,0,.43,2,1.44,1.44,0,0,0,2.26-.24,1.61,1.61,0,1,0-2.68-1.78Z" fill="#9a8bf2"/><path id="936cab4b-676a-4718-b36f-8dd8b029ba9d" data-name="&lt;Контур&gt;" d="M62.59,474.06c-.61.82-.3,1.48.55,2.11a1.22,1.22,0,0,0,1.93-.31,1.49,1.49,0,0,0-.26-2.25A1.51,1.51,0,0,0,62.59,474.06Z" fill="#9a8bf2"/><path id="98213e62-9925-4d77-95f5-d4a1c518ce77" data-name="&lt;Контур&gt;" d="M66.31,396.53c-.61.83-.28,1.48.59,2.12a1.21,1.21,0,0,0,1.91-.34,1.49,1.49,0,0,0-.27-2.25A1.52,1.52,0,0,0,66.31,396.53Z" fill="#9a8bf2"/><path id="06fb4b49-06a7-42e0-8f54-1f3976af9444" data-name="&lt;Контур&gt;" d="M65.4,415.6a1.55,1.55,0,1,0,2.54,1.77,1.55,1.55,0,1,0-2.54-1.77Z" fill="#9a8bf2"/><path id="ae71d82f-757f-413b-b3f4-89f8e4c92320" data-name="&lt;Контур&gt;" d="M59,347.84a1.2,1.2,0,0,0,.06,2c.75.61,1.4.38,2-.38s.63-1.28-.16-1.89S59.57,347,59,347.84Z" fill="#9a8bf2"/><path id="c4f70c0d-0ac1-4f66-8b8a-3d6d7eb1f756" data-name="&lt;Контур&gt;" d="M50.84,318.32c-.61.78-.59,1.45.2,2s1.42.2,2-.53.47-1.36-.3-1.85C51.91,317.25,51.39,317.62,50.84,318.32Z" fill="#9a8bf2"/><path id="f48b44e4-c947-47d3-817d-d2c365e5a097" data-name="&lt;Контур&gt;" d="M67.52,377.44a1.31,1.31,0,1,0,1.93-.37A1.24,1.24,0,0,0,67.52,377.44Z" fill="#9a8bf2"/><path id="6a7efd46-7687-400d-be1e-afe72b42de2c" data-name="&lt;Контур&gt;" d="M61.92,493.24a1.31,1.31,0,0,0-.08,2,1.21,1.21,0,0,0,1.86-.06c.65-.78.74-1.48.06-2.08A1.21,1.21,0,0,0,61.92,493.24Z" fill="#9a8bf2"/><path id="ed2ca9dd-2e12-4962-b1d7-bafae9ba47c1" data-name="&lt;Контур&gt;" d="M74.63,426.25c-.58.71-.19,1.16.34,1.6s1.19.72,1.75-.1a1.26,1.26,0,0,0-.14-1.86C75.88,425.34,75.2,425.55,74.63,426.25Z" fill="#9a8bf2"/><path id="89afb364-1bd5-4ae5-83ab-894d9140a68c" data-name="&lt;Контур&gt;" d="M68.11,358.24c-.52.53,0,1,.59,1.47s1.11.61,1.63-.12a1.27,1.27,0,0,0-.19-2C69.48,357.16,68.81,357.37,68.11,358.24Z" fill="#9a8bf2"/><path id="cfc404fb-cd8b-41a6-a870-121e1363f869" data-name="&lt;Контур&gt;" d="M74,445.57c-.66.72-.32,1.24.6,2,.33.28.91.4,1.43-.4a1.29,1.29,0,1,0-2-1.56Z" fill="#9a8bf2"/><path id="cfdcf7d7-ac78-4a44-add0-0cd761b8785e" data-name="&lt;Контур&gt;" d="M73.18,464.68a1.14,1.14,0,0,0,.06,1.71,1,1,0,0,0,1.65-.09,1.3,1.3,0,0,0-.19-1.79A1.19,1.19,0,0,0,73.18,464.68Z" fill="#9a8bf2"/><path id="5d2389c4-7991-435c-9f59-c4b3ebc6e646" data-name="&lt;Контур&gt;" d="M76,406.81a1.14,1.14,0,0,0,0,1.71,1,1,0,0,0,1.66-.07,1.31,1.31,0,0,0-.19-1.8A1.19,1.19,0,0,0,76,406.81Z" fill="#9a8bf2"/><path id="918dff20-7189-4612-b0cc-51cd6dce72cc" data-name="&lt;Контур&gt;" d="M76.84,387.53c-.43.57-.46,1,.15,1.49s1.05.14,1.46-.37.45-1-.31-1.61C77.67,386.71,77.25,387,76.84,387.53Z" fill="#9a8bf2"/><path id="8d3ffd3d-424d-46c0-bfa6-ce080448cf49" data-name="&lt;Контур&gt;" d="M78,368.22a.78.78,0,0,0,.15,1.23c.46.37.92.54,1.36-.05A1,1,0,1,0,78,368.22Z" fill="#9a8bf2"/><path id="ca908083-a28e-4e47-b29d-e4ac830b769f" data-name="&lt;Контур&gt;" d="M84.3,436.43c-.43.56-.19,1,.3,1.33a.78.78,0,0,0,1.23-.17,1,1,0,1,0-1.52-1.16Z" fill="#9a8bf2"/><path id="2d6e379e-3be9-4336-bb57-95d8dd34d7f0" data-name="&lt;Контур&gt;" d="M72.16,484.08a1,1,0,0,0,.12,1.42,1,1,0,0,0,1.54-.08,1.07,1.07,0,1,0-1.66-1.34Z" fill="#9a8bf2"/><path id="a75a2f36-5362-4fa7-90d7-9f989de409c5" data-name="&lt;Контур&gt;" d="M85.12,417.53c-.27.3.14.58.45.83s.7.63,1.07.14.48-1-.05-1.43S85.68,417,85.12,417.53Z" fill="#9a8bf2"/><path id="3cc08c87-5177-4b06-8f2d-d9d107d5b91e" data-name="&lt;Контур&gt;" d="M83.21,455.88c-.35.47.11.77.45,1s.72.56,1,0,.36-1-.09-1.32A1,1,0,0,0,83.21,455.88Z" fill="#9a8bf2"/><path id="26ddf439-9dfc-4c41-8031-e7f216beb385" data-name="&lt;Контур&gt;" d="M82.58,475.15c-.56.46-.12.76.17,1s.73.76,1.16.11a1,1,0,0,0,0-1.35A1.06,1.06,0,0,0,82.58,475.15Z" fill="#9a8bf2"/><path id="39fd2b46-a1de-4dde-9ab4-e2dae4ee09c7" data-name="&lt;Контур&gt;" d="M86.09,397.89c-.52.46-.09.76.2,1s.74.75,1.16.08a1,1,0,0,0-.06-1.33A1.06,1.06,0,0,0,86.09,397.89Z" fill="#9a8bf2"/></g></g></g></g></svg>