<svg id="0fd21214-6556-40d9-8519-edd63ba37859" data-name="Background" xmlns="http://www.w3.org/2000/svg" xmlns:xlink="http://www.w3.org/1999/xlink" viewBox="0 0 750 500"><defs><clipPath id="f14d6c71-59ed-48d5-90de-bd15de3f7df3"><rect id="a67d6b7a-a4bc-4b58-bb6d-fc047a8e7b03" data-name="&lt;Прямоугольник&gt;" width="750" height="500" fill="none"/></clipPath></defs><title>298_Abstract_background</title><g id="0be9a0d2-dc8a-4bd1-83c0-6e7aeb4bf556" data-name="&lt;Группа обтравки&gt;"><g clip-path="url(#f14d6c71-59ed-48d5-90de-bd15de3f7df3)"><g id="0ec149fb-275d-46c5-a101-46d8cb6a7b85" data-name="&lt;Группа&gt;"><g id="c5a0b6fc-d3d5-4c3e-809f-3503cb1233fc" data-name="&lt;Группа&gt;"><path id="5ca3071e-3c85-48c0-9ce7-54f67cb33804" data-name="&lt;Контур&gt;" d="M750.38,40.27a4.08,4.08,0,0,0,5.37-1.86,3.92,3.92,0,1,0-7-3.53A4,4,0,0,0,750.38,40.27Z" fill="#9a8bf2" opacity="0.8"/><path id="f4d3878e-bda0-438f-be65-6bc62acee655" data-name="&lt;Контур&gt;" d="M745.34,11.39a4.05,4.05,0,0,0,1.36,5.56,4,4,0,0,0,5.28-1.8,3.45,3.45,0,0,0-1.63-5C748.18,9.16,746.27,9.57,745.34,11.39Z" fill="#9a8bf2" opacity="0.8"/><path id="b415da49-86c8-4298-bec3-af9a6799c083" data-name="&lt;Контур&gt;" d="M742.72,71.43c-1.17,2.28-.73,3.93,1.34,5s3.73.55,4.79-1.51c1.18-2.29.69-4.06-1.39-5.1A3.28,3.28,0,0,0,742.72,71.43Z" fill="#9a8bf2" opacity="0.8"/><path id="33cbfa6e-8e63-408c-85d7-c2fdb90d4d7d" data-name="&lt;Контур&gt;" d="M747.33,99.6a3.64,3.64,0,1,0-1.49-5A3.57,3.57,0,0,0,747.33,99.6Z" fill="#9a8bf2" opacity="0.8"/><path id="d94da227-e3ca-46a0-94e0-0e9e33f0e8d8" data-name="&lt;Контур&gt;" d="M749.44,118.13a3.59,3.59,0,1,0,4.89-1.72A3.51,3.51,0,0,0,749.44,118.13Z" fill="#9a8bf2" opacity="0.8"/><path id="ef234284-9409-41e9-8a2a-d1e57d043492" data-name="&lt;Контур&gt;" d="M740.47,53.31a3.59,3.59,0,1,0-1.67-4.76A3.5,3.5,0,0,0,740.47,53.31Z" fill="#9a8bf2" opacity="0.8"/><path id="782ad2f9-1781-4fa8-94ee-85a76e8f95f0" data-name="&lt;Контур&gt;" d="M738.75,4.94a3.09,3.09,0,0,0-1.6-4.4c-2.14-1.08-3.43-.59-4.61,1.33-1,1.64.2,4.1,1.47,4.79A3.79,3.79,0,0,0,738.75,4.94Z" fill="#9a8bf2" opacity="0.8"/><path id="9b63e1ed-a668-4ca4-8a21-b6da9ca03514" data-name="&lt;Контур&gt;" d="M735.59,25.39a3.52,3.52,0,1,0,4.84-1.46A3.54,3.54,0,0,0,735.59,25.39Z" fill="#9a8bf2" opacity="0.8"/><path id="a5372bc9-37d4-4f44-8b0a-eeeda4d2414c" data-name="&lt;Контур&gt;" d="M735.22,65.07a3.33,3.33,0,1,0-4.5,1.42A3.35,3.35,0,0,0,735.22,65.07Z" fill="#9a8bf2" opacity="0.8"/><path id="ce51a002-0c9b-4d88-a5dd-70196e45b8ce" data-name="&lt;Контур&gt;" d="M732.68,84.81a3.4,3.4,0,1,0,6,3.08,3.31,3.31,0,0,0-1.55-4.29A3.27,3.27,0,0,0,732.68,84.81Z" fill="#9a8bf2" opacity="0.8"/><path id="f62bc62e-da77-4e0e-a293-048f94fe947a" data-name="&lt;Контур&gt;" d="M737.74,112.8a3.33,3.33,0,1,0-1.42-4.52A3.35,3.35,0,0,0,737.74,112.8Z" fill="#9a8bf2" opacity="0.8"/><path id="0b174ea0-e8e6-4c9b-887f-8435ced25bda" data-name="&lt;Контур&gt;" d="M731.91,41.52c1-1.91.54-3.62-1.17-4.52s-3.42-.29-4.37,1.59a3.13,3.13,0,1,0,5.54,2.92Z" fill="#9a8bf2" opacity="0.8"/><path id="9f102fdc-686e-420a-90ec-961dfd8cd8c4" data-name="&lt;Контур&gt;" d="M739.86,131.35c-.95,1.86-.46,3.46,1.33,4.35a2.91,2.91,0,0,0,4.19-1.38c1-1.92.57-3.62-1.13-4.53A3,3,0,0,0,739.86,131.35Z" fill="#9a8bf2" opacity="0.8"/><path id="840a5c73-77b7-4b67-9c81-3827d6715747" data-name="&lt;Контур&gt;" d="M728.27,18.23a3.33,3.33,0,0,0-1.22-4.46,3.41,3.41,0,0,0-4.25,1.4,3.14,3.14,0,1,0,5.47,3.06Z" fill="#9a8bf2" opacity="0.8"/><path id="5e41eb4b-ec4b-4f7a-8130-0974a9df8060" data-name="&lt;Контур&gt;" d="M728.7,101a3,3,0,1,0-4,1.4A3.15,3.15,0,0,0,728.7,101Z" fill="#9a8bf2" opacity="0.8"/><path id="0b90b3ac-8353-44f9-977e-9b061595f941" data-name="&lt;Контур&gt;" d="M749,157.57a3.12,3.12,0,1,0-4.17,1.36A3.14,3.14,0,0,0,749,157.57Z" fill="#9a8bf2" opacity="0.8"/><path id="b41d81f5-39a0-4400-bf93-498147cc3bfa" data-name="&lt;Контур&gt;" d="M725.47,77.88a2.86,2.86,0,0,0-1.37-4c-1.73-.88-3.26-.49-4,1a3.34,3.34,0,0,0,1.25,4.49A3.41,3.41,0,0,0,725.47,77.88Z" fill="#9a8bf2" opacity="0.8"/><path id="df2346ad-871a-404b-9275-271a82da22fc" data-name="&lt;Контур&gt;" d="M732.23,124.46c.59-1.49.71-2.87-1.45-3.89a2.71,2.71,0,0,0-3.77.87,3.32,3.32,0,0,0,1.13,4.54A3.13,3.13,0,0,0,732.23,124.46Z" fill="#9a8bf2" opacity="0.8"/><path id="255ec5b8-90e4-4bfa-abc8-62513192020d" data-name="&lt;Контур&gt;" d="M721.75,54.55c.79-2,.2-3.1-1.48-3.88a2.7,2.7,0,0,0-3.75.9,3.3,3.3,0,0,0,1.16,4.53A3.16,3.16,0,0,0,721.75,54.55Z" fill="#9a8bf2" opacity="0.8"/><path id="118052d7-e15c-4048-8849-432802a1b7df" data-name="&lt;Контур&gt;" d="M747.25,177.74c-1,1.85-.66,3,1,3.86s2.9.54,3.79-1.22.63-3.13-1.07-4S748.15,176,747.25,177.74Z" fill="#9a8bf2" opacity="0.8"/><path id="3b507db5-ee60-4988-b626-8cf05e48a0b1" data-name="&lt;Контур&gt;" d="M718.13,31.53a2.76,2.76,0,0,0-1.11-4,2.88,2.88,0,0,0-3.65,1.3c-.91,1.71-.58,3.07.95,3.91A2.55,2.55,0,0,0,718.13,31.53Z" fill="#9a8bf2" opacity="0.8"/><path id="d733bd10-4a77-48f4-b5c2-698cc322432b" data-name="&lt;Контур&gt;" d="M735.36,147.36a2.83,2.83,0,0,0-1.2-3.83,2.86,2.86,0,0,0-3.74,1.47c-.83,1.7-.41,3,1.21,3.82S734.52,149.08,735.36,147.36Z" fill="#9a8bf2" opacity="0.8"/><path id="64e0979f-6a6e-4c99-9687-8303d07748af" data-name="&lt;Контур&gt;" d="M738.67,170.34c.68-1.44.21-2.57-1.37-3.36s-2.77-.49-3.56,1.14a2.71,2.71,0,1,0,4.93,2.22Z" fill="#9a8bf2" opacity="0.8"/><path id="ce170292-e42d-4601-9a8c-8d9a111d2e59" data-name="&lt;Контур&gt;" d="M715.07,90.86c.69-1.44.23-2.58-1.35-3.36s-2.78-.51-3.57,1.12a2.71,2.71,0,1,0,4.92,2.25Z" fill="#9a8bf2" opacity="0.8"/><path id="9ff7746b-d420-40a8-836d-45d5aa3cbb7b" data-name="&lt;Контур&gt;" d="M711.57,68.09a2.67,2.67,0,1,0-3.52,1.18A2.78,2.78,0,0,0,711.57,68.09Z" fill="#9a8bf2" opacity="0.8"/><path id="9a4c9a51-79ff-4d8e-82e2-f48b9ab9b24b" data-name="&lt;Контур&gt;" d="M718.67,114.1c.66-1.53.09-2.6-1.3-3.31a2.43,2.43,0,0,0-3.52,1.13,2.65,2.65,0,1,0,4.82,2.19Z" fill="#9a8bf2" opacity="0.8"/><path id="e9eaa9c5-a003-40c2-92cd-06d9624f92b2" data-name="&lt;Контур&gt;" d="M714.4,8.33a2.71,2.71,0,1,0-3.65,1.19A2.78,2.78,0,0,0,714.4,8.33Z" fill="#9a8bf2" opacity="0.8"/><path id="68f8b065-bd99-48bc-a9d0-dfff418415d8" data-name="&lt;Контур&gt;" d="M707.86,44.61c.54-1.32.57-2.61-1.19-3.29-1.53-.78-2.66-.45-3.4,1.06a2.58,2.58,0,0,0,1.19,3.54A2.48,2.48,0,0,0,707.86,44.61Z" fill="#9a8bf2" opacity="0.8"/><path id="2874fcd6-72a2-4876-aa35-8f6274afe94e" data-name="&lt;Контур&gt;" d="M721.83,137.26c.57-1.3.63-2.59-1.28-3.4a2.16,2.16,0,0,0-3.25,1.08,2.58,2.58,0,0,0,1.11,3.56A2.48,2.48,0,0,0,721.83,137.26Z" fill="#9a8bf2" opacity="0.8"/><path id="6d029370-69bb-4b1e-9f3a-194722699679" data-name="&lt;Контур&gt;" d="M741.95,193.61c.69-1.38.36-2.92-1-3.37s-2.55-.46-3.17,1.12-.41,2.76.95,3.39A2.16,2.16,0,0,0,741.95,193.61Z" fill="#9a8bf2" opacity="0.8"/><path id="4c8c1a8b-87d3-4c18-9727-416f88ee776b" data-name="&lt;Контур&gt;" d="M725.16,160.8a2.21,2.21,0,0,0-.92-3.36,2.12,2.12,0,0,0-3.17,1c-.78,1.42-.46,2.81.86,3.44A2.26,2.26,0,0,0,725.16,160.8Z" fill="#9a8bf2" opacity="0.8"/><path id="06db28e9-7516-49b2-843c-e3f436513a4e" data-name="&lt;Контур&gt;" d="M704.34,21.61a2.38,2.38,0,0,0-4.23-2.2c-.74,1.36-.29,2.47,1.07,3.36A2.31,2.31,0,0,0,704.34,21.61Z" fill="#9a8bf2" opacity="0.8"/><path id="758d117f-1b39-4339-9e3b-3c004eac8208" data-name="&lt;Контур&gt;" d="M701.49,81.28a2.28,2.28,0,0,0-4.09-2c-.67,1.27-.17,2.35,1,3.14A2.29,2.29,0,0,0,701.49,81.28Z" fill="#9a8bf2" opacity="0.8"/><path id="ccb5f00a-9771-496a-a542-85dec4b644c0" data-name="&lt;Контур&gt;" d="M704.81,104.39a2.08,2.08,0,0,0-.93-3c-1.26-.68-2.41-.51-3.1.82a2.19,2.19,0,0,0,.92,3.16A2.26,2.26,0,0,0,704.81,104.39Z" fill="#9a8bf2" opacity="0.8"/><path id="e3e1fd73-5c25-4782-ad73-565969aa0165" data-name="&lt;Контур&gt;" d="M728.47,183.69c.62-1.36,0-2.36-1.27-2.94s-2.23-.13-3,1.16a2.27,2.27,0,0,0,1.17,3A2.19,2.19,0,0,0,728.47,183.69Z" fill="#9a8bf2" opacity="0.8"/><path id="86698755-d7ce-496b-824f-77ef856092ae" data-name="&lt;Контур&gt;" d="M708.16,127.4a2.12,2.12,0,0,0-1.2-3.06,2,2,0,0,0-2.89,1,2.18,2.18,0,0,0,1,3.13A2.27,2.27,0,0,0,708.16,127.4Z" fill="#9a8bf2" opacity="0.8"/><path id="6489a2da-1e02-4420-847b-ed5bd71a346e" data-name="&lt;Контур&gt;" d="M745.19,216.65a2,2,0,0,0-.92-2.91,2.12,2.12,0,0,0-3.17.87,2.27,2.27,0,0,0,1,3.1A2.18,2.18,0,0,0,745.19,216.65Z" fill="#9a8bf2" opacity="0.8"/><path id="3fe3b9b1-8152-474c-a762-9766cd05916f" data-name="&lt;Контур&gt;" d="M697.87,57.9c.62-1.36,0-2.36-1.27-2.94a2.07,2.07,0,0,0-2.92,1.1,2.26,2.26,0,0,0,1.13,3.07A2.19,2.19,0,0,0,697.87,57.9Z" fill="#9a8bf2" opacity="0.8"/><path id="09b3dd62-313f-422d-bd06-ea77e79d174f" data-name="&lt;Контур&gt;" d="M694.6,34.48a1.81,1.81,0,0,0-1-2.8,1.74,1.74,0,0,0-2.73.46,2.29,2.29,0,0,0,.64,3.38A2.12,2.12,0,0,0,694.6,34.48Z" fill="#9a8bf2" opacity="0.8"/><path id="1342967b-c091-4889-96ac-c1c73695067f" data-name="&lt;Контур&gt;" d="M711.5,150.58c.76-1.31.49-2.38-.76-3-1-.46-2.13-.48-2.58.85-.71,1.23-.73,2.23.64,2.94A1.77,1.77,0,0,0,711.5,150.58Z" fill="#9a8bf2" opacity="0.8"/><path id="a06c937b-c3df-4ab8-9417-ba61efe818ff" data-name="&lt;Контур&gt;" d="M731.71,206.28c.51-.83,0-1.88-1.08-2.43a1.86,1.86,0,0,0-2.64,1c-.59,1.19-.45,2.14.78,2.78S730.87,207.88,731.71,206.28Z" fill="#9a8bf2" opacity="0.8"/><path id="65422a5c-4024-4a1e-90e0-370755c7639e" data-name="&lt;Контур&gt;" d="M690.77,11.13A1.85,1.85,0,0,0,690,8.4a1.92,1.92,0,0,0-2.79,1.05,2,2,0,1,0,3.57,1.68Z" fill="#9a8bf2" opacity="0.8"/><path id="8403f654-71c9-489e-b928-8515491679f6" data-name="&lt;Контур&gt;" d="M714.78,173.64A1.79,1.79,0,0,0,714,171a1.94,1.94,0,1,0-1.81,3.44A1.79,1.79,0,0,0,714.78,173.64Z" fill="#9a8bf2" opacity="0.8"/><path id="3142fb82-39a7-4d65-9d35-1438eb642c60" data-name="&lt;Контур&gt;" d="M748.55,239.76c.66-1.12.14-1.9-.78-2.52-1.06-.46-2-.57-2.61.63a1.9,1.9,0,0,0,.78,2.79A1.88,1.88,0,0,0,748.55,239.76Z" fill="#9a8bf2" opacity="0.8"/><path id="119ff737-6eb9-46ab-9fc0-3951c61f6e30" data-name="&lt;Контур&gt;" d="M691.16,94.16a1.64,1.64,0,0,0-1-2.3c-1.06-.54-1.94-.37-2.68.95a1.93,1.93,0,0,0,1,2.52A1.9,1.9,0,0,0,691.16,94.16Z" fill="#9a8bf2" opacity="0.8"/><path id="eab65756-2dcc-4a4a-bcd2-05ed5c0b11e0" data-name="&lt;Контур&gt;" d="M688,70.76a1.64,1.64,0,0,0-1-2.3,1.75,1.75,0,0,0-2.62.82,2,2,0,1,0,3.6,1.49Z" fill="#9a8bf2" opacity="0.8"/><path id="239810a7-ab97-4820-b2ec-52bb87437a59" data-name="&lt;Контур&gt;" d="M684.24,47.55c.53-1.12,0-1.83-1.16-2.37a1.47,1.47,0,0,0-2.22.82,1.81,1.81,0,0,0,.84,2.61A1.83,1.83,0,0,0,684.24,47.55Z" fill="#9a8bf2" opacity="0.8"/><path id="13cdfead-7ff4-49ec-a1d1-e89a87b7474e" data-name="&lt;Контур&gt;" d="M698.06,140.49c.53-1.13,0-1.82-1.2-2.38a1.47,1.47,0,0,0-2.19.85,1.8,1.8,0,0,0,.85,2.61A1.83,1.83,0,0,0,698.06,140.49Z" fill="#9a8bf2" opacity="0.8"/><path id="33e66800-0c12-4f2a-963c-6d10e17b5253" data-name="&lt;Контур&gt;" d="M694.66,117.63a1.88,1.88,0,1,0-3.44-1.51,1.88,1.88,0,1,0,3.44,1.51Z" fill="#9a8bf2" opacity="0.8"/><path id="db8325b0-8555-48e8-8abc-cae1a42700a0" data-name="&lt;Контур&gt;" d="M718.17,196.59a1.45,1.45,0,0,0-.54-2.34c-1-.55-1.75-.12-2.27.92s-.45,1.67.64,2.21S717.73,197.73,718.17,196.59Z" fill="#9a8bf2" opacity="0.8"/><path id="18194623-4a8e-428a-be8d-8617b32f3723" data-name="&lt;Контур&gt;" d="M734.83,229.73c.54-1.06.36-1.86-.71-2.34s-1.73.1-2.22,1.09-.24,1.72.79,2.12C733.81,231.25,734.35,230.68,734.83,229.73Z" fill="#9a8bf2" opacity="0.8"/><path id="3dcd23b7-2d62-4e58-8bba-5d3b3d1a74eb" data-name="&lt;Контур&gt;" d="M701.12,163.44a1.59,1.59,0,1,0-2.21.89A1.5,1.5,0,0,0,701.12,163.44Z" fill="#9a8bf2" opacity="0.8"/><path id="4446ebd9-0e76-4424-b53a-ebceab2ee4cd" data-name="&lt;Контур&gt;" d="M680.53,24.6a1.58,1.58,0,0,0-.37-2.37,1.47,1.47,0,0,0-2.2.5c-.59,1.08-.53,1.93.42,2.49A1.46,1.46,0,0,0,680.53,24.6Z" fill="#9a8bf2" opacity="0.8"/><path id="3910e73f-04b4-4b8b-9a13-2f928a956439" data-name="&lt;Контур&gt;" d="M681.19,107.15c.52-1,0-1.42-.78-1.82s-1.58-.58-2,.53A1.53,1.53,0,0,0,679,108C679.91,108.53,680.67,108.12,681.19,107.15Z" fill="#9a8bf2" opacity="0.8"/><path id="cf0ac6ab-322c-4db7-8087-3d1c021959d7" data-name="&lt;Контур&gt;" d="M677.33,1.26c.52-1-.07-1.41-.79-1.82s-1.58-.57-2,.54a1.53,1.53,0,0,0,.62,2.17C676.06,2.64,676.82,2.23,677.33,1.26Z" fill="#9a8bf2" opacity="0.8"/><path id="5a29c8a8-e852-4e2c-b0a6-6641d3d8700a" data-name="&lt;Контур&gt;" d="M704.94,186.38c.49-.75-.26-1.21-1.05-1.61s-1.46-.46-1.9.53-.29,1.85.69,2.29S704.31,187.58,704.94,186.38Z" fill="#9a8bf2" opacity="0.8"/><path id="4b7f5314-37c5-429f-ba98-f7824b107add" data-name="&lt;Контур&gt;" d="M677.45,84c.61-1,.09-1.55-1.18-2.19-.45-.26-1.17-.26-1.61.81A1.56,1.56,0,1,0,677.45,84Z" fill="#9a8bf2" opacity="0.8"/><path id="cc21164f-9f5c-4b73-abc3-faaa502c959f" data-name="&lt;Контур&gt;" d="M673.88,61.18a1.38,1.38,0,0,0-.47-2,1.25,1.25,0,0,0-1.94.49,1.58,1.58,0,0,0,.65,2.08A1.44,1.44,0,0,0,673.88,61.18Z" fill="#9a8bf2" opacity="0.8"/><path id="dd75bbc1-d076-4b07-8f32-f0f0ee4e5aa6" data-name="&lt;Контур&gt;" d="M684.19,130.55a1.38,1.38,0,0,0-.45-2,1.25,1.25,0,0,0-1.95.48,1.58,1.58,0,0,0,.65,2.09A1.44,1.44,0,0,0,684.19,130.55Z" fill="#9a8bf2" opacity="0.8"/><path id="4becf22c-a942-425c-b7eb-db67c1eea53c" data-name="&lt;Контур&gt;" d="M687.67,153.65c.37-.77.31-1.34-.53-1.73s-1.28.08-1.65.78-.29,1.35.75,1.83C686.89,154.82,687.32,154.38,687.67,153.65Z" fill="#9a8bf2" opacity="0.8"/><path id="bae91209-585f-4be5-ab13-6b2fb8b55728" data-name="&lt;Контур&gt;" d="M690.9,176.85a.94.94,0,0,0-.46-1.43c-.64-.33-1.22-.42-1.61.38a1.16,1.16,0,1,0,2.07,1Z" fill="#9a8bf2" opacity="0.8"/><path id="34e092eb-2443-4525-8117-22f9f075f137" data-name="&lt;Контур&gt;" d="M667.31,97.33c.38-.77,0-1.19-.66-1.5a1,1,0,0,0-1.42.49,1.17,1.17,0,1,0,2.08,1Z" fill="#9a8bf2" opacity="0.8"/><path id="6a2542c1-5149-4e67-b218-339c3f3556fd" data-name="&lt;Контур&gt;" d="M666.77,14.52c.38-.77,0-1.19-.66-1.5a1,1,0,0,0-1.42.49,1.17,1.17,0,1,0,2.08,1Z" fill="#9a8bf2" opacity="0.8"/><path id="dbcfac48-cd9e-4f74-8400-bb0b5b733b81" data-name="&lt;Контур&gt;" d="M670.52,37.89a1.17,1.17,0,0,0-.48-1.66,1.19,1.19,0,0,0-1.8.46,1.29,1.29,0,1,0,2.29,1.2Z" fill="#9a8bf2" opacity="0.8"/><path id="9bc7b242-632d-4d3c-a115-194ab13f4888" data-name="&lt;Контур&gt;" d="M670.78,120c.25-.42-.3-.66-.73-.88s-1-.58-1.3.08-.33,1.34.4,1.68S670.25,120.76,670.78,120Z" fill="#9a8bf2" opacity="0.8"/><path id="984908b9-1dbc-45e5-ae67-9738cc439c10" data-name="&lt;Контур&gt;" d="M664,74c.3-.64-.31-.88-.76-1.08s-1-.49-1.23.27c-.19.62-.19,1.25.42,1.54A1.16,1.16,0,0,0,664,74Z" fill="#9a8bf2" opacity="0.8"/><path id="f7e74ea4-1ff5-40fd-bc47-550ff03cd330" data-name="&lt;Контур&gt;" d="M660.24,50.95c.55-.67,0-.93-.45-1.17s-1.05-.73-1.41.15a1.26,1.26,0,0,0,.37,1.59A1.29,1.29,0,0,0,660.24,50.95Z" fill="#9a8bf2" opacity="0.8"/><path id="74670e89-fd55-40cb-84d4-4d1d969f2d95" data-name="&lt;Контур&gt;" d="M674.25,143.52c.51-.67-.07-.93-.48-1.16s-1.06-.71-1.4.18a1.25,1.25,0,0,0,.39,1.57A1.29,1.29,0,0,0,674.25,143.52Z" fill="#9a8bf2" opacity="0.8"/></g></g><path id="d063be30-714d-4c4b-b96e-3b3514eb7719" data-name="&lt;Контур&gt;" d="M75.77-168.22c31.49,17.89,47.25,50.89,52.44,83.63,11.54,72.79-22.53,157.1-98.64,209.1-19.51,13.34-42,25-55,42.56-24,32.51-5.51,69.71,14.62,99.19s41.92,64.19,23.12,98.38" fill="none" stroke="#613ef5" stroke-miterlimit="10" stroke-width="3.13"/><path id="b35b8726-6d74-401e-8594-37dbe2c0aeab" data-name="&lt;Контур&gt;" d="M-5-63.63c38.85-.57,80,1.26,112.53,22.55s50.82,68.74,28.31,100.42c-10.62,14.94-27.74,23.53-42.65,34.2C44.85,128.12,18,190.44,26,249.34c3.75,27.6,14.48,55.48,7.77,82.5-8,32.18-38.65,53.58-69.47,65.81" fill="none" stroke="#6c63ff" stroke-miterlimit="10" stroke-width="5"/><path id="a1478faf-bbda-4878-9ae5-7007fd47c37b" data-name="&lt;Контур&gt;" d="M367.72,614.89C347.58,581,328.7,543.94,334.06,505s44.54-78.21,88.19-73.9c20.59,2,38,12.89,56.37,20.78,59.63,25.59,136.75,18.79,192.82-17,26.27-16.77,49.31-39.81,80.26-47.1,36.86-8.69,74.13,7.8,102.12,28.92" fill="none" stroke="#6c63ff" stroke-miterlimit="10" stroke-width="2"/></g></g></svg>