<!--?xml version="1.0" standalone="no"?-->
              <svg id="sw-js-blob-svg" viewBox="0 0 100 100" xmlns="http://www.w3.org/2000/svg" version="1.1">
                <path d="M20.7,-28.1C27.6,-23.5,34.4,-18.5,38.2,-11.3C41.9,-4.2,42.6,4.9,39.1,11.8C35.6,18.7,28,23.3,20.7,27.1C13.5,30.9,6.8,33.8,-0.3,34.3C-7.4,34.7,-14.8,32.6,-21.2,28.6C-27.7,24.6,-33.2,18.6,-36.3,11.2C-39.5,3.9,-40.4,-4.8,-38.8,-13.5C-37.2,-22.3,-33.2,-31.2,-26.3,-35.7C-19.4,-40.2,-9.7,-40.4,-1.4,-38.5C6.9,-36.6,13.8,-32.6,20.7,-28.1Z" width="100%" height="100%" transform="translate(50 50)" stroke-width="0" style="transition: all 0.3s ease 0s;" stroke="url(#sw-gradient)"></path>
              </svg>