<svg id="4a6c75c2-a87b-4b6a-bd99-e6e83a40cf67" data-name="Слой 1" xmlns="http://www.w3.org/2000/svg" viewBox="0 0 455 702.83"><title>chat</title><ellipse cx="590.66" cy="226.78" rx="8.86" ry="10.19" transform="translate(-70.8 560.66) rotate(-56.36)" fill="#fd6584"/><path d="M287.73,284.34c5.67-8.69,14.94-15.53,25.25-16.1s22.71,8.21,27.81,17.25c9.31,16.54,5.27,32.43-7.56,43.94-1.74-.59-7.82-2.38-9.6-2.95l-1.12-2-1.39,1.23c-15.85,1.58-31.17-.18-43.1-12C279.51,303.41,282.05,293,287.73,284.34Z" transform="translate(-145.47 -32.27)" fill="#2f2e41"/><polygon points="184.76 368.13 182.89 385.51 183.99 408.31 133.51 402.31 128.76 368.13 134.81 368.19 184.76 368.13" fill="#ffb6b6"/><circle cx="164.03" cy="272.06" r="20.96" fill="#ffb7b7"/><path d="M286.27,343.28l12-7.2,24-2.4,21.21,10.8-.21,33L329.8,411.68l-56.38-7.2-2.14-12.07s-15.6-20.95,1.2-32.94Z" transform="translate(-145.47 -32.27)" fill="#6c63ff"/><path d="M301.66,272.49a26.33,26.33,0,0,1,32.32,33c-12.77,1-25.39-.17-35.34-9.21l-.89-7.75L294.13,295l-11-3.11A26.89,26.89,0,0,1,301.66,272.49Z" transform="translate(-145.47 -32.27)" fill="#2f2e41"/><path d="M214.27,245.33a9.16,9.16,0,0,0,5.92,12.73l39.06,73.7L275,319.59,231.66,251a9.21,9.21,0,0,0-17.39-5.65Z" transform="translate(-145.47 -32.27)" fill="#ffb6b6"/><path d="M278.34,356.66s-3.62,3.21-8.77-5.65c-4.12-7.1-24.67-38.87-27.58-49.88a7.19,7.19,0,0,1-7.12-5.21L257,287.34c4.8,2.4,3.47,5.72,2.25,7.45l8.22,12.33,27.35,30.69L281,354.38Z" transform="translate(-145.47 -32.27)" fill="#6c63ff"/><path d="M495.8,73.18c-11.74-11.57-27.41-18-43.13-22-17.79-4.62-36.19-7.35-54.37-10q-28.41-4.09-57.05-6.3t-57.31-2.52c-17.05-.19-34.22-.2-51.19,1.69-16,1.78-31.93,5.36-46.34,12.7a76.62,76.62,0,0,0-31.1,28.47c-6.9,11.37-11,25-9.57,38.35a47,47,0,0,0,6,18.68,64.8,64.8,0,0,0,14.55,16.63c11.91,10.05,26.14,17.4,36.38,29.35a58.1,58.1,0,0,1,7,10.17c1.49,2.75,3.16,5.12,5.93,6.73A14.4,14.4,0,0,0,231.61,194c3.19-2.5,5.48-6.36,8-9.54l8.61-11.08a17.42,17.42,0,0,1,2.15-2.77c.58-.48-.38-.06-.19-.18s.29,0,.4-.08a9.35,9.35,0,0,1,1.76-.33q9.43-1.73,18.9-3.24c23.31-3.76,46.77-6.86,70.33-8.54a327.16,327.16,0,0,1,36.51-.87c15.74.64,31.27,3.77,47,5.12,16.89,1.45,34.63,1.25,50.54-5.26,12.74-5.21,24.56-14,31.46-26.09a43.89,43.89,0,0,0,5.67-18.7C513.49,97.54,506.24,83.47,495.8,73.18Z" transform="translate(-145.47 -32.27)" fill="#e6e6e6"/><path d="M274.56,44.59q-4.51,0-9,0c-28.8.31-58.57,2.63-81.16,17.48-20.05,13.18-34.1,42.53-22.21,63.59,5.46,9.67,15.36,16.7,25.83,24.15,4.11,2.92,8.35,5.94,12.42,9.19,8.89,7.1,17.26,16.64,22.08,27.36l21.15-27.22,4-.77c3.84-.74,94.71-18,143.11-12.37,4.45.51,8.95,1.11,13.3,1.68,19.66,2.59,38.23,5,56.06,1.42,18.61-3.77,39-18.14,40.26-37.36.83-13.16-7.73-27.59-21.81-36.78-14.24-9.28-32-13.12-49-16.25A856.34,856.34,0,0,0,274.56,44.59Z" transform="translate(-145.47 -32.27)" fill="#fff"/><path d="M438.71,86.47H234.44a4.44,4.44,0,0,1,0-8.89H438.71a4.44,4.44,0,0,1,0,8.89Z" transform="translate(-145.47 -32.27)" fill="#6c63ff"/><path d="M438.71,113.75H234.44a4.44,4.44,0,1,1,0-8.89H438.71a4.44,4.44,0,0,1,0,8.89Z" transform="translate(-145.47 -32.27)" fill="#6c63ff"/><path d="M258.25,141h-23.8a4.44,4.44,0,0,1,0-8.89h23.8a4.44,4.44,0,0,1,0,8.89Z" transform="translate(-145.47 -32.27)" fill="#6c63ff"/><circle cx="75.87" cy="196.47" r="18.89" fill="#e6e6e6"/><ellipse cx="157.89" cy="455.38" rx="8.86" ry="10.19" transform="translate(-454.17 302.32) rotate(-56.36)" fill="#f2f2f2"/><ellipse cx="563.19" cy="454.1" rx="8.86" ry="10.19" transform="translate(-272.31 639.19) rotate(-56.36)" fill="#e6e6e6"/><ellipse cx="410.19" cy="307.1" rx="8.86" ry="10.19" transform="translate(-218.17 446.23) rotate(-56.36)" fill="#e6e6e6"/><polygon points="210.95 683.71 199.91 683.71 194.66 641.13 210.95 641.13 210.95 683.71" fill="#ffb6b6"/><path d="M362.24,735.1h-7.92l-1.41-7.47-3.62,7.47h-21a4.72,4.72,0,0,1-2.68-8.6l16.77-11.58v-7.56L360,708.42Z" transform="translate(-145.47 -32.27)" fill="#2f2e41"/><polygon points="148.95 683.71 137.91 683.71 132.66 641.13 148.95 641.13 148.95 683.71" fill="#ffb6b6"/><path d="M300.24,735.1h-7.92l-1.41-7.47-3.62,7.47h-21a4.72,4.72,0,0,1-2.68-8.6l16.77-11.58v-7.56L298,708.42Z" transform="translate(-145.47 -32.27)" fill="#2f2e41"/><path d="M361.18,679.26h-.12L358.94,610a18.1,18.1,0,0,0-.24-17.11l-.3-.55.79-3.65a23.27,23.27,0,0,0-1.33-14l-2-64.57c7.07-45.85-26.64-75.75-26.64-75.75H278.72l-10.84,37.26c-7.17,69.84-5.87,137.9,5.51,203.83l-.31.16c-1.12.39-1.6,1.93-1.07,3.46s1.86,2.44,3,2.06l26.67-.93c1.12-.39,1.6-1.93,1.07-3.46s-1.86-2.44-3-2.06l-1.81.92,3.87-66.8-.43-12.2.88-13.84,4.09-62.26,15.48,76.56L337.63,680a2.91,2.91,0,0,0,2,5.06h21.58a2.92,2.92,0,1,0,0-5.83h0Z" transform="translate(-145.47 -32.27)" fill="#2f2e41"/><path d="M337.62,485.71a9.16,9.16,0,0,0,2-13.89l7.74-83-19.86,1.53-1.36,81.15a9.21,9.21,0,0,0,11.45,14.26Z" transform="translate(-145.47 -32.27)" fill="#ffb6b6"/><path d="M342.73,344.81s4.79-.7,4.23,9.53c-.44,8.19,1.67,58.7-1.94,69.5a7.19,7.19,0,0,1,3.1,8.26L325,427.17c-2.7-4.64-2.14-9.4-.18-10.17l-.12-14.82-5.12-48.85,19.71-8.07Z" transform="translate(-145.47 -32.27)" fill="#6c63ff"/></svg>