<?xml version="1.0" encoding="utf-8"?>
<!-- Generator: Adobe Illustrator 21.0.1, SVG Export Plug-In . SVG Version: 6.00 Build 0)  -->
<svg version="1.1" id="Слой_1" xmlns="http://www.w3.org/2000/svg" xmlns:xlink="http://www.w3.org/1999/xlink" x="0px" y="0px"
	 viewBox="0 0 652.7 735.2" style="enable-background:new 0 0 652.7 735.2;" xml:space="preserve">
<style type="text/css">
	.st0{display:none;fill:#F2F2F2;}
	.st1{display:none;fill:#FFFFFF;}
	.st2{display:none;fill:#FD6584;}
	.st3{fill:#2F2E41;}
	.st4{fill:#FFB6B6;}
	.st5{fill:#FFB7B7;}
	.st6{fill:#6C63FF;}
	.st7{display:none;fill:#CCCCCC;}
	.st8{fill:#E6E6E6;}
	.st9{fill:#FFFFFF;}
	.st10{display:none;fill:#E6E6E6;}
</style>
<path class="st0" d="M442.4,580.9c20.7-19.5,31.4-48.7,20.3-73.4c-16.2,24.9-42.9,44.5-73.8,54.2c-12,3.8-25.9,6.9-32.5,16.5
	c-4.1,6-4.4,13.4-2.5,20.1c1.8,6.7,5.6,12.9,9.4,19.1l0,1.7C392.6,611.6,421.7,600.4,442.4,580.9z"/>
<path class="st1" d="M462,507.6c-3.5,21.5-14.9,42.2-32.4,57.8c-3.8,3.5-8.1,6.5-12.8,8.7c-4.8,2.1-10,3.1-15.3,2.8
	c-4.9-0.2-10-0.8-14.9,0.1c-4.9,0.9-9.2,3.6-11.9,7.7c-3.3,4.8-4.3,10.3-5.2,15.7c-0.9,6-1.8,12.3-5.8,17.5
	c-0.5,0.6,0.7,1.2,1.1,0.6c6.9-9,4.6-20.5,9.2-30.2c2.2-4.5,5.9-8.5,11.5-9.9c4.9-1.2,10.1-0.5,15.1-0.3c5.1,0.3,10.3-0.5,15.1-2.3
	c4.8-2,9.2-4.8,13.1-8.2c8.5-7.3,15.8-15.9,21.6-25.5c6.4-10.5,10.7-22.2,12.7-34.4C463.5,506.8,462.2,506.8,462,507.6L462,507.6z"
	/>
<path class="st1" d="M435.6,560.6c7.3,4.5,16.7,3.9,23.3-1.5c0.6-0.5-0.3-1.4-0.9-0.9c-6.2,5.1-14.9,5.6-21.7,1.3
	C435.6,559.1,434.9,560.1,435.6,560.6L435.6,560.6z"/>
<path class="st1" d="M404.1,577.3c-1.4-7.6,0.5-15.4,5.3-21.5c0.5-0.6-0.7-1.2-1.1-0.6c-4.9,6.4-6.9,14.5-5.4,22.4
	C402.9,578.3,404.2,578,404.1,577.3L404.1,577.3z"/>
<path class="st1" d="M455.3,531.1c-3-1.1-5.2-3.6-5.9-6.7c-0.1-0.7-1.4-0.5-1.3,0.3c0.8,3.4,3.2,6.2,6.5,7.4
	c0.3,0.2,0.7,0.1,0.9-0.2C455.7,531.7,455.7,531.3,455.3,531.1C455.4,531.1,455.4,531.1,455.3,531.1z"/>
<path class="st0" d="M364.4,479.3c0.1,0.5,0.1,0.9,0.2,1.4c0.9,6.3,1.2,12.6,0.8,18.9c0,0.5,0,1-0.1,1.5c-1,15.4-5.2,30.4-12.3,44.1
	c-2.9,5.6-6.3,10.9-10,16c-5.3,7-11.6,14.3-13.8,22.2c-0.2,0.8-0.4,1.7-0.5,2.5l32.2,33c0.1,0,0.2,0.1,0.3,0.1l1.2,1.4
	c0.2-0.3,0.4-0.5,0.7-0.8c0.1-0.1,0.2-0.3,0.4-0.4c0.1-0.1,0.2-0.2,0.2-0.3c0,0,0.1-0.1,0.1-0.1c0.1-0.1,0.1-0.2,0.2-0.3
	c1.2-1.5,2.5-3,3.7-4.4c0,0,0,0,0,0c9.2-11.4,17.4-23.6,23.2-36.4c0.2-0.4,0.4-0.8,0.5-1.2c2.6-5.8,4.6-11.7,6.1-17.9
	c0.8-3.3,1.4-6.7,1.8-10.1c1-8.8,0.4-17.6-1.8-26.2c-4.3-17.1-14.9-32.9-31.6-42.3C365.3,479.8,364.9,479.6,364.4,479.3z"/>
<path class="st1" d="M364,479.7c12.1,19,17.3,41.5,14.2,63.1c-0.6,4.8-2,9.4-4.2,13.6c-2.4,4.3-6,7.8-10.3,10.3
	c-4.1,2.5-8.5,4.6-11.8,7.8c-3.3,3.2-4.8,7.9-4.2,12.4c0.7,5.5,3.7,10.5,6.8,15.3c3.4,5.3,7.1,10.7,7.5,17c0.1,0.8,1.4,0.6,1.3-0.1
	c-0.7-10.8-10.6-18.8-13.6-29c-1.4-4.8-1.2-9.9,2.4-13.9c3.1-3.5,7.7-5.7,11.8-8.2c4.2-2.3,7.8-5.7,10.5-9.7c2.4-4.1,4-8.7,4.7-13.4
	c1.8-10.5,1.6-21.2-0.5-31.7c-2.4-12.1-7-23.7-13.7-34.1C364.7,478.4,363.6,479.1,364,479.7L364,479.7z"/>
<path class="st1" d="M379.7,535.9c8.8-0.1,16.3-5.8,17.6-13.4c0.1-0.7-1.2-0.9-1.3-0.2c-1.2,7.1-8.2,12.3-16.4,12.4
	C378.7,534.7,378.8,535.9,379.7,535.9L379.7,535.9z"/>
<path class="st1" d="M366,565.7c-6.2-4.9-10-12.1-10.7-20c-0.1-0.8-1.4-0.6-1.3,0.1c0.7,8.2,4.8,15.7,11.2,20.8
	C365.8,567.2,366.7,566.3,366,565.7L366,565.7z"/>
<path class="st1" d="M375,502.1c-3.3,0.7-6.7-0.2-9.3-2.3c-0.6-0.5-1.5,0.4-0.9,0.9c2.9,2.3,6.7,3.2,10.3,2.5
	c0.4-0.1,0.6-0.3,0.6-0.6C375.7,502.2,375.3,502,375,502.1L375,502.1z"/>
<path class="st0" d="M289.9,618c-40,27.4-79.8,34.3-112,19.6c-41.4-18.9-66.4-71.1-68.7-143l2.5,0.2c2.3,71,26.8,122.2,67.1,140.7
	c31.4,14.4,70.3,7.5,109.6-19.4L289.9,618z"/>
<path class="st0" d="M537.2,154.7c-3.9,43.4-15.2,89.2-32.8,133.4c-21.8,54.6-51.5,102.8-86,139.2l-1.9-1.7
	c34.3-36.2,64-84.1,85.6-138.5c19.6-49.2,31.3-100.3,33.7-147.9l2.4,0.4C538.1,144.6,537.7,149.6,537.2,154.7z"/>
<path class="st0" d="M430.9,93l-2.4,0.3c-10.6-41.7-31.2-70.6-59.5-83.5c-36-16.5-80.4-5.4-125.2,31.1
	c-45,36.7-84.9,94.7-112.2,163.3l-2.3-1.1C156.8,134.3,196.8,76,242.1,39.1C287.6,1.9,333-9.2,369.9,7.7C399,21,420.1,50.5,430.9,93
	z"/>
<path class="st0" d="M562.9,455.9C514.4,533,455.6,588.1,397.3,611.1l-1.2-2.2c57.9-22.8,116.4-77.6,164.6-154.4L562.9,455.9z"/>
<path class="st0" d="M637.7,283.1c-0.8,8.8-1.8,17.7-3.1,26.7l-2.4-0.6c9.3-67.3,6-129-9.6-178.4l2.3-0.4
	C638.6,173.6,642.9,226,637.7,283.1z"/>
<path class="st0" d="M131.4,216.3c-6.2,13.1-12.1,26.7-17.6,40.4c-31.4,78.7-47.3,159-46,232.4l-2.5-0.3
	c-1.3-73.6,14.6-154.3,46.1-233.2c5.5-13.7,11.4-27.3,17.6-40.5L131.4,216.3z"/>
<path class="st0" d="M288.7,672.1c-40,27.4-79.8,34.3-112,19.6c-41.4-18.9-66.4-71.1-68.7-143l2.5,0.2c2.3,71,26.8,122.2,67.1,140.7
	c31.4,14.4,70.3,7.5,109.6-19.4L288.7,672.1z"/>
<path class="st0" d="M536,208.8c-3.9,43.4-15.2,89.2-32.8,133.4c-21.8,54.6-51.5,102.8-86,139.2l-1.9-1.7
	c34.3-36.2,64-84.1,85.6-138.5c19.6-49.2,31.3-100.3,33.7-147.9l2.4,0.4C536.9,198.6,536.5,203.7,536,208.8z"/>
<path class="st0" d="M531.7,150.1l-2.4,0.3c-10.6-41.7-31.2-70.6-59.5-83.5c-36-16.5-80.4-5.4-125.2,31.1
	c-45,36.7-84.9,94.7-112.2,163.3l-2.3-1.1c27.5-68.9,67.5-127.2,112.8-164.1c45.5-37.1,90.9-48.3,127.8-31.4
	C499.8,78.1,520.9,107.6,531.7,150.1z"/>
<path class="st0" d="M559.7,529c-48.5,77.1-107.3,132.2-165.6,155.1L393,682c57.9-22.8,116.4-77.6,164.6-154.4L559.7,529z"/>
<path class="st0" d="M636.5,337.2c-0.8,8.8-1.8,17.7-3.1,26.7l-2.4-0.6c9.3-67.3,6-129-9.6-178.4l2.3-0.4
	C637.4,227.7,641.7,280,636.5,337.2z"/>
<path class="st0" d="M130.3,270.4c-6.2,13.1-12.1,26.7-17.6,40.4c-31.4,78.7-47.3,159-46,232.4l-2.5-0.3
	c-1.3-73.6,14.6-154.3,46.1-233.2c5.5-13.7,11.4-27.3,17.6-40.5L130.3,270.4z"/>
<ellipse transform="matrix(0.5539 -0.8326 0.8326 0.5539 74.6735 592.9323)" class="st2" cx="590.7" cy="226.8" rx="8.9" ry="10.2"/>
<path class="st3" d="M287.7,284.3c5.7-8.7,14.9-15.5,25.3-16.1c10.3-0.6,22.7,8.2,27.8,17.2c9.3,16.5,5.3,32.4-7.6,43.9
	c-1.7-0.6-7.8-2.4-9.6-2.9l-1.1-2l-1.4,1.2c-15.9,1.6-31.2-0.2-43.1-12C279.5,303.4,282.1,293,287.7,284.3z"/>
<polygon class="st4" points="330.2,400.4 328.4,417.8 329.5,440.6 279,434.6 274.2,400.4 280.3,400.5 "/>
<circle class="st5" cx="309.5" cy="304.3" r="21"/>
<path class="st6" d="M286.3,343.3l12-7.2l24-2.4l21.2,10.8l-0.2,33l-13.5,34.2l-56.4-7.2l-2.1-12.1c0,0-15.6-20.9,1.2-32.9
	L286.3,343.3z"/>
<path class="st3" d="M301.7,272.5c14-3.9,28.5,4.2,32.5,18.2c1.4,4.8,1.3,9.9-0.1,14.7c-12.8,1-25.4-0.2-35.3-9.2l-0.9-7.7l-3.6,6.5
	c-3.7-1-7.3-2.1-11-3.1C285.4,282.6,292.5,275.2,301.7,272.5z"/>
<path class="st4" d="M214.3,245.3c-2.1,4.6-0.2,10,4.4,12.2c0.5,0.2,1,0.4,1.5,0.6l39.1,73.7l15.8-12.2L231.7,251
	c1-5-2.3-9.8-7.2-10.8C220.3,239.3,216.1,241.5,214.3,245.3L214.3,245.3z"/>
<path class="st6" d="M278.3,356.7c0,0-3.6,3.2-8.8-5.7c-4.1-7.1-24.7-38.9-27.6-49.9c-3.3,0.1-6.2-2.1-7.1-5.2l22.1-8.6
	c4.8,2.4,3.5,5.7,2.3,7.4l8.2,12.3l27.3,30.7L281,354.4L278.3,356.7z"/>
<path class="st8" d="M495.8,73.2c-11.7-11.6-27.4-18-43.1-22c-17.8-4.6-36.2-7.3-54.4-10c-18.9-2.7-38-4.8-57.1-6.3
	c-19.1-1.5-38.2-2.3-57.3-2.5c-17.1-0.2-34.2-0.2-51.2,1.7c-16,1.8-31.9,5.4-46.3,12.7c-12.8,6.4-23.6,16.3-31.1,28.5
	c-6.9,11.4-11,25-9.6,38.4c0.7,6.6,2.7,12.9,6,18.7c3.9,6.3,8.8,12,14.6,16.6c11.9,10.1,26.1,17.4,36.4,29.4c2.7,3.1,5.1,6.5,7,10.2
	c1.5,2.8,3.2,5.1,5.9,6.7c5,2.9,11.3,2.4,15.9-1.1c3.2-2.5,5.5-6.4,8-9.5l8.6-11.1c0.6-1,1.3-1.9,2.2-2.8c0.6-0.5-0.4-0.1-0.2-0.2
	c0.1-0.1,0.3,0,0.4-0.1c0.6-0.2,1.2-0.3,1.8-0.3c6.3-1.2,12.6-2.2,18.9-3.2c23.3-3.8,46.8-6.9,70.3-8.5c12.1-1,24.3-1.3,36.5-0.9
	c15.7,0.6,31.3,3.8,47,5.1c16.9,1.5,34.6,1.3,50.5-5.3c12.7-5.2,24.6-14,31.5-26.1c3.3-5.7,5.2-12.1,5.7-18.7
	C513.5,97.5,506.2,83.5,495.8,73.2z"/>
<path class="st9" d="M274.6,44.6c-3,0-6,0-9,0c-28.8,0.3-58.6,2.6-81.2,17.5c-20.1,13.2-34.1,42.5-22.2,63.6
	c5.5,9.7,15.4,16.7,25.8,24.2c4.1,2.9,8.4,5.9,12.4,9.2c8.9,7.1,17.3,16.6,22.1,27.4l21.2-27.2l4-0.8c3.8-0.7,94.7-18,143.1-12.4
	c4.5,0.5,8.9,1.1,13.3,1.7c19.7,2.6,38.2,5,56.1,1.4c18.6-3.8,39-18.1,40.3-37.4c0.8-13.2-7.7-27.6-21.8-36.8
	c-14.2-9.3-32-13.1-49-16.2C378.5,49.3,326.6,44.6,274.6,44.6z"/>
<path class="st6" d="M438.7,86.5H234.4c-2.5,0-4.4-2-4.4-4.4c0-2.5,2-4.4,4.4-4.4h204.3c2.5,0,4.4,2,4.4,4.4
	C443.1,84.5,441.2,86.5,438.7,86.5z"/>
<path class="st6" d="M438.7,113.8H234.4c-2.5,0-4.4-2-4.4-4.4c0-2.5,2-4.4,4.4-4.4c0,0,0,0,0,0h204.3c2.5,0,4.4,2,4.4,4.4
	C443.1,111.8,441.2,113.7,438.7,113.8z"/>
<path class="st6" d="M258.2,141h-23.8c-2.5,0-4.4-2-4.4-4.4c0-2.5,2-4.4,4.4-4.4h23.8c2.5,0,4.4,2,4.4,4.4
	C262.7,139,260.7,141,258.2,141z"/>
<circle class="st8" cx="221.3" cy="228.7" r="18.9"/>
<ellipse transform="matrix(0.5539 -0.8326 0.8326 0.5539 -308.7054 334.5971)" class="st0" cx="157.9" cy="455.4" rx="8.9" ry="10.2"/>
<ellipse transform="matrix(0.5539 -0.8326 0.8326 0.5539 -126.8371 671.4652)" class="st10" cx="563.2" cy="454.1" rx="8.9" ry="10.2"/>
<ellipse transform="matrix(0.5539 -0.8326 0.8326 0.5539 -72.6999 478.5071)" class="st10" cx="410.2" cy="307.1" rx="8.9" ry="10.2"/>
<polygon class="st4" points="356.4,716 345.4,716 340.1,673.4 356.4,673.4 "/>
<path class="st3" d="M362.2,735.1h-7.9l-1.4-7.5l-3.6,7.5h-21c-2.6,0-4.7-2.1-4.7-4.7c0-1.6,0.8-3,2-3.9l16.8-11.6v-7.6l17.6,1.1
	L362.2,735.1z"/>
<polygon class="st4" points="294.4,716 283.4,716 278.1,673.4 294.4,673.4 "/>
<path class="st3" d="M300.2,735.1h-7.9l-1.4-7.5l-3.6,7.5h-21c-2.6,0-4.7-2.1-4.7-4.7c0-1.6,0.8-3,2-3.9l16.8-11.6v-7.6l17.6,1.1
	L300.2,735.1z"/>
<path class="st3" d="M361.2,679.3h-0.1l-2.1-69.2c2.8-5.4,2.7-11.8-0.2-17.1l-0.3-0.6l0.8-3.7c1-4.7,0.5-9.6-1.3-14l-2-64.6
	c7.1-45.9-26.6-75.8-26.6-75.8h-50.5l-10.8,37.3c-7.2,69.8-5.9,137.9,5.5,203.8l-0.3,0.2c-1.1,0.4-1.6,1.9-1.1,3.5s1.9,2.4,3,2.1
	l26.7-0.9c1.1-0.4,1.6-1.9,1.1-3.5c-0.5-1.5-1.9-2.4-3-2.1l-1.8,0.9l3.9-66.8l-0.4-12.2l0.9-13.8l4.1-62.3l15.5,76.6l15.8,82.9
	c-1.2,1.1-1.3,2.9-0.2,4.1c0.6,0.6,1.3,1,2.2,1h21.6c1.6,0,2.9-1.3,2.9-2.9S362.8,679.3,361.2,679.3
	C361.2,679.3,361.2,679.3,361.2,679.3L361.2,679.3z"/>
<path class="st4" d="M337.6,485.7c4.3-2.7,5.6-8.3,3-12.6c-0.3-0.5-0.6-0.9-1-1.3l7.7-83l-19.9,1.5l-1.4,81.2
	c-3.6,3.6-3.5,9.5,0.1,13C329.3,487.5,334,488,337.6,485.7L337.6,485.7z"/>
<path class="st6" d="M342.7,344.8c0,0,4.8-0.7,4.2,9.5c-0.4,8.2,1.7,58.7-1.9,69.5c2.8,1.7,4.1,5.1,3.1,8.3l-23.2-4.9
	c-2.7-4.6-2.1-9.4-0.2-10.2l-0.1-14.8l-5.1-48.9l19.7-8.1L342.7,344.8z"/>
</svg>
