<svg xmlns:xlink="http://www.w3.org/1999/xlink" width="48" height="48" viewBox="0 0 48 48" fill="none" role="img" xmlns="http://www.w3.org/2000/svg"><title id="42976c57-7c6e-416d-80d9-9236ad5068ed">Discord</title><circle cx="24" cy="24" r="24" fill="#5865F2"></circle><path d="M34.3963 14.0695C32.4842 13.1922 30.4337 12.5458 28.2899 12.1756C28.2508 12.1684 28.2118 12.1863 28.1917 12.222C27.928 12.691 27.6359 13.3029 27.4314 13.7838C25.1255 13.4386 22.8315 13.4386 20.5729 13.7838C20.3683 13.2922 20.0656 12.691 19.8007 12.222C19.7806 12.1875 19.7416 12.1696 19.7026 12.1756C17.5599 12.5446 15.5095 13.191 13.5962 14.0695C13.5796 14.0767 13.5654 14.0886 13.556 14.104C9.66674 19.9145 8.60131 25.5821 9.12398 31.1795C9.12634 31.2069 9.14171 31.2331 9.163 31.2497C11.729 33.1341 14.2146 34.2782 16.6541 35.0364C16.6931 35.0484 16.7345 35.0341 16.7594 35.0019C17.3364 34.2139 17.8508 33.383 18.2918 32.5092C18.3179 32.458 18.293 32.3973 18.2398 32.3771C17.4239 32.0675 16.647 31.6902 15.8997 31.2616C15.8405 31.2271 15.8358 31.1426 15.8902 31.1021C16.0475 30.9842 16.2048 30.8616 16.3549 30.7378C16.3821 30.7152 16.42 30.7104 16.4519 30.7247C21.3616 32.9663 26.6769 32.9663 31.5287 30.7247C31.5606 30.7093 31.5985 30.714 31.6268 30.7366C31.7771 30.8604 31.9343 30.9842 32.0928 31.1021C32.1472 31.1426 32.1436 31.2271 32.0845 31.2616C31.3372 31.6985 30.5602 32.0675 29.7431 32.3759C29.6899 32.3961 29.6663 32.458 29.6923 32.5092C30.1428 33.3818 30.6572 34.2127 31.2236 35.0007C31.2473 35.0341 31.2898 35.0484 31.3289 35.0364C33.7802 34.2782 36.2658 33.1341 38.8318 31.2497C38.8543 31.2331 38.8685 31.2081 38.8708 31.1807C39.4964 24.7095 37.8231 19.0884 34.4353 14.1052C34.427 14.0886 34.4128 14.0767 34.3963 14.0695ZM19.025 27.7713C17.5469 27.7713 16.3289 26.4142 16.3289 24.7476C16.3289 23.081 17.5233 21.724 19.025 21.724C20.5386 21.724 21.7448 23.0929 21.7211 24.7476C21.7211 26.4142 20.5268 27.7713 19.025 27.7713ZM28.9934 27.7713C27.5153 27.7713 26.2974 26.4142 26.2974 24.7476C26.2974 23.081 27.4917 21.724 28.9934 21.724C30.507 21.724 31.7132 23.0929 31.6895 24.7476C31.6895 26.4142 30.507 27.7713 28.9934 27.7713Z" fill="#FFFFFF"></path></svg>