<svg id="ba2f36d8-d20a-4a12-9226-c0ad83b96fda" data-name="Слой 1" xmlns="http://www.w3.org/2000/svg" viewBox="0 0 744 539.29"><title>education-woman-2</title><path d="M595.58,404.29c37.11,0,67.3,29.16,67.3,65s-30.19,65-67.3,65H269.89v-130Z" transform="translate(0 0)" fill="#f2f2f2"/><path d="M266.89,528.29h334.5a58.5,58.5,0,0,0,0-117H266.89a5,5,0,0,1,0-10h334.5a68.5,68.5,0,0,1,0,137H266.89a5,5,0,0,1,0-10Z" transform="translate(0 0)" fill="#6c63ff"/><path d="M268.89,433.29a1,1,0,0,1,1-1h350a1,1,0,0,1,0,2h-350A1,1,0,0,1,268.89,433.29Z" transform="translate(0 0)" fill="#ccc"/><path d="M268.89,457.29a1,1,0,0,1,1-1h350a1,1,0,0,1,0,2h-350A1,1,0,0,1,268.89,457.29Z" transform="translate(0 0)" fill="#ccc"/><path d="M268.89,481.29a1,1,0,0,1,1-1h350a1,1,0,0,1,0,2h-350A1,1,0,0,1,268.89,481.29Z" transform="translate(0 0)" fill="#ccc"/><path d="M268.89,505.29a1,1,0,0,1,1-1h350a1,1,0,0,1,0,2h-350A1,1,0,0,1,268.89,505.29Z" transform="translate(0 0)" fill="#ccc"/><path d="M271.78,224.41c28.9-23.28,70.7-19.52,93.19,8.39s17.27,69.56-11.62,92.84L99.73,530,18.17,428.76Z" transform="translate(0 0)" fill="#f2f2f2"/><path d="M93.63,527.2,354.1,317.32a58.5,58.5,0,0,0-73.41-91.11L20.22,436.09h0A5,5,0,1,1,14,428.3L274.42,218.43a68.5,68.5,0,0,1,86,106.68L99.91,535a5,5,0,1,1-6.27-7.79Z" transform="translate(0 0)" fill="#ccc"/><path d="M37,452.12h0a1,1,0,1,1-1.25-1.56L308.27,231h0a1,1,0,1,1,1.25,1.56L37,452.12Z" transform="translate(0 0)" fill="#ccc"/><path d="M52,470.81a1,1,0,1,1-1.25-1.56l272.54-219.6a1,1,0,0,1,1.25,1.56L52,470.81Z" transform="translate(0 0)" fill="#ccc"/><path d="M67.1,489.5a1,1,0,1,1-1.25-1.56l272.54-219.6a1,1,0,0,1,1.25,1.56L67.11,489.49Z" transform="translate(0 0)" fill="#ccc"/><path d="M82.16,508.18a1,1,0,1,1-1.25-1.56L353.45,287h0a1,1,0,1,1,1.25,1.56L82.17,508.18Z" transform="translate(0 0)" fill="#ccc"/><path d="M0,538.29a1,1,0,0,1,1-1H743a1,1,0,0,1,0,2H1A1,1,0,0,1,0,538.29Z" transform="translate(0 0)" fill="#ccc"/><polygon points="590.72 390.62 579.29 390.62 573.85 346.52 590.73 346.53 590.72 390.62" fill="#ffb8b8"/><path d="M571.12,387.35h22v13.88H557.24a13.88,13.88,0,0,1,13.88-13.88Z" transform="translate(0 0)" fill="#2f2e41"/><polygon points="473.93 390.62 462.5 390.62 457.06 346.52 473.93 346.53 473.93 390.62" fill="#ffb8b8"/><path d="M454.33,387.35h22v13.88H440.45a13.88,13.88,0,0,1,13.88-13.88Z" transform="translate(0 0)" fill="#2f2e41"/><path d="M512.11,63.53v-5a32.25,32.25,0,0,1,32.25-32.25h0a32.25,32.25,0,0,1,32.25,32.25h0v5a23.25,23.25,0,0,1-23.25,23.25h-18a23.25,23.25,0,0,1-23.25-23.25Z" transform="translate(0 0)" fill="#2f2e41"/><circle cx="544.36" cy="63.94" r="24.56" fill="#ffb8b8"/><path d="M659.13,196.12" transform="translate(0 0)" fill="#ffb8b8"/><path d="M410.77,148.36A9.38,9.38,0,0,1,425,150l21.05-4,5.54,12.2-29.81,5.21a9.43,9.43,0,0,1-11.06-15.11Z" transform="translate(0 0)" fill="#ffb8b8"/><path d="M525.21,104l.28.42L491,127.13l-58.26,18.6a3.51,3.51,0,0,0-2.41,3.74l1.27,10.95a3.5,3.5,0,0,0,3.88,3.07l.33-.05,54.83-11.75a19.81,19.81,0,0,0,7.37-3.25l38.79-27.6a10,10,0,0,0-11.27-16.46Z" transform="translate(0 0)" fill="#ccc"/><path d="M579.49,378.11a4.52,4.52,0,0,1-4.14-2.7l-52.41-129.5a1.5,1.5,0,0,0-2.81.16L477.38,372.14a4.5,4.5,0,0,1-5.63,3l-.26-.09-14.34-5.38a4.49,4.49,0,0,1-2.9-3.7c-6.45-56.19,49.8-198,50.37-199.46l.16-.39,51.28,11.34.11.12c20.46,22.32,37.27,163.08,40.44,191.07a4.48,4.48,0,0,1-3,4.75L581,377.85A4.46,4.46,0,0,1,579.49,378.11Z" transform="translate(0 0)" fill="#2f2e41"/><path d="M535.31,182c-12.42,0-26.27-2.48-30.54-12.7l-.1-.23.13-.22c3.37-5.52,7.81-14.94,5.42-16.71-4.71-3.48-7-9.21-6.79-17,.44-17,12-32,28.77-37.48h0A127.64,127.64,0,0,1,546.47,94a24.28,24.28,0,0,1,20.13,5,24.53,24.53,0,0,1,9.1,18.87c.18,18.13-2.62,43.38-16.91,60.72a4.45,4.45,0,0,1-2.63,1.53A122.22,122.22,0,0,1,535.31,182Z" transform="translate(0 0)" fill="#ccc"/><path d="M530.69,181.33a9.56,9.56,0,0,1,11.68-6.66,9.41,9.41,0,0,1,1.45.54l16-14.55,11.12,7.49-22.86,20.23A9.54,9.54,0,0,1,537.25,193a9.39,9.39,0,0,1-6.58-11.54Z" transform="translate(0 0)" fill="#ffb8b8"/><path d="M557.27,181.51a4.49,4.49,0,0,1-2.85-1l-6.3-5.15a4.5,4.5,0,0,1,.11-7.06L574.67,148a1.5,1.5,0,0,0,.28-2.09l-16.32-21.58a13.29,13.29,0,0,1,.89-17.11h0a13.25,13.25,0,0,1,17.89-1.43l.1.11,17,24.4a15.19,15.19,0,0,1-.36,24.19L560,180.63A4.51,4.51,0,0,1,557.27,181.51Z" transform="translate(0 0)" fill="#ccc"/><path d="M522.61,57V44.85l21.76-9.5,20.74,9.5V57a2,2,0,0,1-2,2h-38.5A2,2,0,0,1,522.61,57Z" transform="translate(0 0)" fill="#2f2e41"/><path d="M543.36,27.9c-3.2-10.24,3.52-22,13.45-26S578.63.65,587,7.35s13.58,16.72,16.33,27.09,3.28,21.18,3.79,31.89c12.2,2.24,20.5,16.71,16.28,28.38s-19.87,17.46-30.68,11.36-13.93-22.48-6.14-32.13A26.37,26.37,0,0,0,555.9,33C549.89,35.55,542.34,29,543.36,27.9Z" transform="translate(0 0)" fill="#2f2e41"/><path d="M406.26,101.08a104.45,104.45,0,0,1-42.35-9.27,4.47,4.47,0,0,1-2.65-4.1V51.29a4.5,4.5,0,0,1,4.5-4.5h81a4.51,4.51,0,0,1,4.5,4.5V87.7a4.47,4.47,0,0,1-2.65,4.1h0A104.45,104.45,0,0,1,406.26,101.08Z" transform="translate(0 0)" fill="#6c63ff"/><path d="M406.24,71.58a4.51,4.51,0,0,1-1.75-.35l-64.23-27.1a4.5,4.5,0,0,1,.15-8.35l64.23-24.37a4.48,4.48,0,0,1,3.21,0l63.37,24.37a4.5,4.5,0,0,1,.15,8.34L408,71.22A4.51,4.51,0,0,1,406.24,71.58Z" transform="translate(0 0)" fill="#6c63ff"/><circle cx="368.76" cy="88.29" r="6" fill="#3f3d56"/><path d="M471.61,40.27l-63.37,27.1a4,4,0,0,1-3.13,0l-64.23-27.1A3.92,3.92,0,0,1,339,38.6a4,4,0,0,0,1.91,5.68l64.23,27.1a4,4,0,0,0,3.13,0l63.37-27.1a4,4,0,0,0,1.89-5.67A3.93,3.93,0,0,1,471.61,40.27Z" transform="translate(0 0)" opacity="0.2" style="isolation:isolate"/><path d="M369.26,88.26a1,1,0,0,0,1-1V53.8l33-12a1,1,0,0,0,0-2l-33,12a2,2,0,0,0-1.43.58,2,2,0,0,0-.6,1.42V87.26A1,1,0,0,0,369.26,88.26Z" transform="translate(0 0)" fill="#3f3d56"/></svg>