<svg id="55872646-6af6-49a7-bfd3-40effc433d6f" data-name="Слой 1" xmlns="http://www.w3.org/2000/svg" viewBox="0 0 744 539.29"><title>education-woman</title><path d="M474.11,404.29v130H148.42c-37.11,0-67.3-29.16-67.3-65s30.19-65,67.3-65Z" transform="translate(0 0)" fill="#f2f2f2"/><path d="M482.11,533.29a5,5,0,0,1-5,5H142.61a68.5,68.5,0,1,1,0-137h334.5a5,5,0,0,1,0,10H142.61a58.5,58.5,0,1,0,0,117h334.5A5,5,0,0,1,482.11,533.29Z" transform="translate(0 0)" fill="#6c63ff"/><path d="M474.11,434.29h-350a1,1,0,0,1,0-2h350a1,1,0,0,1,0,2Z" transform="translate(0 0)" fill="#ccc"/><path d="M474.11,458.29h-350a1,1,0,0,1,0-2h350a1,1,0,0,1,0,2Z" transform="translate(0 0)" fill="#ccc"/><path d="M474.11,482.29h-350a1,1,0,0,1,0-2h350a1,1,0,0,1,0,2Z" transform="translate(0 0)" fill="#ccc"/><path d="M474.11,506.29h-350a1,1,0,0,1,0-2h350a1,1,0,0,1,0,2Z" transform="translate(0 0)" fill="#ccc"/><path d="M725.83,428.76,644.27,530,390.65,325.64c-28.9-23.28-34.11-64.93-11.62-92.84s64.29-31.67,93.19-8.39Z" transform="translate(0 0)" fill="#f2f2f2"/><path d="M651.12,534.23a5,5,0,0,1-7,.76L383.62,325.11a68.5,68.5,0,0,1,86-106.68L730,428.3a5,5,0,0,1-6.27,7.79h0L463.31,226.22a58.5,58.5,0,0,0-73.41,91.11L650.37,527.2A5,5,0,0,1,651.12,534.23Z" transform="translate(0 0)" fill="#ccc"/><path d="M707,452.12,434.47,232.52a1,1,0,1,1,1.25-1.56h0l272.54,219.6a1,1,0,1,1-1.25,1.56h0Z" transform="translate(0 0)" fill="#ccc"/><path d="M692,470.81,419.41,251.21a1,1,0,0,1,1.25-1.56l272.54,219.6a1,1,0,1,1-1.25,1.56Z" transform="translate(0 0)" fill="#ccc"/><path d="M676.89,489.49,404.35,269.9a1,1,0,0,1,1.25-1.56l272.54,219.6a1,1,0,1,1-1.25,1.56Z" transform="translate(0 0)" fill="#ccc"/><path d="M661.83,508.18,389.3,288.58a1,1,0,1,1,1.25-1.56h0l272.54,219.6a1,1,0,1,1-1.25,1.56Z" transform="translate(0 0)" fill="#ccc"/><path d="M743,539.29H1a1,1,0,0,1,0-2H743a1,1,0,0,1,0,2Z" transform="translate(0 0)" fill="#ccc"/><polygon points="153.27 346.53 170.15 346.52 164.71 390.62 153.28 390.62 153.27 346.53" fill="#ffb8b8"/><path d="M172.88,387.35a13.88,13.88,0,0,1,13.88,13.88H150.83V387.35h22Z" transform="translate(0 0)" fill="#2f2e41"/><polygon points="270.07 346.53 286.94 346.52 281.5 390.62 270.07 390.62 270.07 346.53" fill="#ffb8b8"/><path d="M289.67,387.35a13.88,13.88,0,0,1,13.88,13.88H267.62V387.35h22Z" transform="translate(0 0)" fill="#2f2e41"/><path d="M231.89,63.53a23.25,23.25,0,0,1-23.25,23.25h-18a23.25,23.25,0,0,1-23.25-23.25v-5h0a32.25,32.25,0,0,1,32.25-32.25h0a32.25,32.25,0,0,1,32.25,32.25v5Z" transform="translate(0 0)" fill="#2f2e41"/><circle cx="199.64" cy="63.94" r="24.56" fill="#ffb8b8"/><path d="M84.87,196.12" transform="translate(0 0)" fill="#ffb8b8"/><path d="M335,159.89a9.43,9.43,0,0,1-12.84,3.57l-29.81-5.21,5.54-12.2L319,150A9.43,9.43,0,0,1,335,159.89Z" transform="translate(0 0)" fill="#ffb8b8"/><path d="M218.51,104.39a10,10,0,0,0-11.27,16.46L246,148.44a19.81,19.81,0,0,0,7.37,3.25l54.83,11.75.33.05a3.5,3.5,0,0,0,3.88-3.07l1.27-10.95a3.51,3.51,0,0,0-2.41-3.74L253,127.13l-34.53-22.74.28-.42Z" transform="translate(0 0)" fill="#ccc"/><path d="M163,377.85l-12.66-4.48a4.48,4.48,0,0,1-3-4.75c3.16-28,20-168.76,40.44-191.07l.11-.12,51.28-11.34.16.39c.57,1.43,56.82,143.26,50.37,199.46a4.49,4.49,0,0,1-2.9,3.7L272.5,375l-.26.09a4.5,4.5,0,0,1-5.63-3L223.86,246.06a1.5,1.5,0,0,0-2.81-.16l-52.41,129.5a4.52,4.52,0,0,1-4.14,2.7A4.46,4.46,0,0,1,163,377.85Z" transform="translate(0 0)" fill="#2f2e41"/><path d="M187.85,180.06a4.45,4.45,0,0,1-2.63-1.53c-14.3-17.34-17.09-42.59-16.91-60.72a24.53,24.53,0,0,1,9.1-18.87,24.28,24.28,0,0,1,20.13-5,127.64,127.64,0,0,1,14.26,3.67h0c16.77,5.45,28.33,20.52,28.77,37.48.2,7.82-2.08,13.54-6.79,17-2.39,1.77,2.06,11.19,5.42,16.71l.13.22-.1.23C235,179.53,221.11,182,208.69,182A122.22,122.22,0,0,1,187.85,180.06Z" transform="translate(0 0)" fill="#ccc"/><path d="M213.33,181.42A9.39,9.39,0,0,1,206.75,193a9.54,9.54,0,0,1-10.81-4.59l-22.86-20.23,11.12-7.49,16,14.55a9.41,9.41,0,0,1,1.45-.54,9.56,9.56,0,0,1,11.68,6.66Z" transform="translate(0 0)" fill="#ffb8b8"/><path d="M184,180.63,149.8,154.49a15.19,15.19,0,0,1-.36-24.19l17-24.4.1-.11a13.25,13.25,0,0,1,17.89,1.43h0a13.29,13.29,0,0,1,.89,17.11L169,145.91a1.5,1.5,0,0,0,.28,2.09l26.44,20.28a4.5,4.5,0,0,1,.11,7.06l-6.3,5.15a4.5,4.5,0,0,1-5.52.13Z" transform="translate(0 0)" fill="#ccc"/><path d="M219.39,59h-38.5a2,2,0,0,1-2-2V44.85l20.74-9.5,21.76,9.5V57A2,2,0,0,1,219.39,59Z" transform="translate(0 0)" fill="#2f2e41"/><path d="M188.1,33a26.37,26.37,0,0,0-30.69,40.91c7.8,9.65,4.67,26-6.14,32.13s-26.45.3-30.68-11.36,4.07-26.14,16.28-28.38c.51-10.71,1-21.52,3.79-31.89S148.61,14,157,7.35s20.26-9.53,30.19-5.48,16.65,15.79,13.45,26C201.66,29,194.11,35.55,188.1,33Z" transform="translate(0 0)" fill="#2f2e41"/><path d="M295.4,91.81h0a4.47,4.47,0,0,1-2.65-4.1V51.29a4.51,4.51,0,0,1,4.5-4.5h81a4.5,4.5,0,0,1,4.5,4.5V87.7a4.47,4.47,0,0,1-2.65,4.1,104.45,104.45,0,0,1-42.35,9.27A104.45,104.45,0,0,1,295.4,91.81Z" transform="translate(0 0)" fill="#6c63ff"/><path d="M336,71.22l-63.37-27.1a4.5,4.5,0,0,1,.15-8.34l63.37-24.37a4.48,4.48,0,0,1,3.21,0l64.23,24.37a4.5,4.5,0,0,1,.15,8.35L339.5,71.23a4.53,4.53,0,0,1-3.52,0Z" transform="translate(0 0)" fill="#6c63ff"/><circle cx="375.24" cy="88.29" r="6" fill="#3f3d56"/><path d="M270.5,38.6a4,4,0,0,0,1.89,5.67l63.37,27.1a4,4,0,0,0,3.13,0l64.23-27.1A4,4,0,0,0,405,38.6a3.92,3.92,0,0,1-1.91,1.68l-64.23,27.1a4,4,0,0,1-3.13,0l-63.37-27.1A3.93,3.93,0,0,1,270.5,38.6Z" transform="translate(0 0)" opacity="0.2" style="isolation:isolate"/><path d="M375.74,87.26V53.8a2,2,0,0,0-.6-1.42,2,2,0,0,0-1.43-.58l-33-12a1,1,0,0,0,0,2l33,12V87.26a1,1,0,1,0,2,0Z" transform="translate(0 0)" fill="#3f3d56"/></svg>