<svg id="396c4fd1-07dc-4a81-af84-e4d580abd7fd" data-name="Слой 1" xmlns="http://www.w3.org/2000/svg" viewBox="0 0 744 539.29"><title>education-woman-3</title><path d="M595.58,404.29c37.11,0,67.3,29.16,67.3,65s-30.19,65-67.3,65H269.89v-130Z" transform="translate(0 0)" fill="#f2f2f2"/><path d="M266.89,528.29h334.5a58.5,58.5,0,0,0,0-117H266.89a5,5,0,0,1,0-10h334.5a68.5,68.5,0,0,1,0,137H266.89a5,5,0,0,1,0-10Z" transform="translate(0 0)" fill="#6c63ff"/><path d="M268.89,433.29a1,1,0,0,1,1-1h350a1,1,0,0,1,0,2h-350A1,1,0,0,1,268.89,433.29Z" transform="translate(0 0)" fill="#ccc"/><path d="M268.89,457.29a1,1,0,0,1,1-1h350a1,1,0,0,1,0,2h-350A1,1,0,0,1,268.89,457.29Z" transform="translate(0 0)" fill="#ccc"/><path d="M268.89,481.29a1,1,0,0,1,1-1h350a1,1,0,0,1,0,2h-350A1,1,0,0,1,268.89,481.29Z" transform="translate(0 0)" fill="#ccc"/><path d="M268.89,505.29a1,1,0,0,1,1-1h350a1,1,0,0,1,0,2h-350A1,1,0,0,1,268.89,505.29Z" transform="translate(0 0)" fill="#ccc"/><path d="M271.78,224.41c28.9-23.28,70.7-19.52,93.19,8.39s17.27,69.56-11.62,92.84L99.73,530,18.17,428.76Z" transform="translate(0 0)" fill="#f2f2f2"/><path d="M93.63,527.2,354.1,317.32a58.5,58.5,0,0,0-73.41-91.11L20.22,436.09h0A5,5,0,1,1,14,428.3L274.42,218.43a68.5,68.5,0,0,1,86,106.68L99.91,535a5,5,0,1,1-6.27-7.79Z" transform="translate(0 0)" fill="#ccc"/><path d="M37,452.12h0a1,1,0,1,1-1.25-1.56L308.27,231h0a1,1,0,1,1,1.25,1.56L37,452.12Z" transform="translate(0 0)" fill="#ccc"/><path d="M52,470.81a1,1,0,1,1-1.25-1.56l272.54-219.6a1,1,0,0,1,1.25,1.56L52,470.81Z" transform="translate(0 0)" fill="#ccc"/><path d="M67.1,489.5a1,1,0,1,1-1.25-1.56l272.54-219.6a1,1,0,0,1,1.25,1.56L67.11,489.49Z" transform="translate(0 0)" fill="#ccc"/><path d="M82.16,508.18a1,1,0,1,1-1.25-1.56L353.45,287h0a1,1,0,1,1,1.25,1.56L82.17,508.18Z" transform="translate(0 0)" fill="#ccc"/><path d="M0,538.29a1,1,0,0,1,1-1H743a1,1,0,0,1,0,2H1A1,1,0,0,1,0,538.29Z" transform="translate(0 0)" fill="#ccc"/><polygon points="405.92 346.53 422.79 346.52 417.35 390.62 405.92 390.62 405.92 346.53" fill="#ffb8b8"/><path d="M425.52,387.35a13.88,13.88,0,0,1,13.88,13.88H403.47V387.35h22Z" transform="translate(0 0)" fill="#2f2e41"/><polygon points="522.71 346.53 539.58 346.52 534.15 390.62 522.71 390.62 522.71 346.53" fill="#ffb8b8"/><path d="M542.31,387.35a13.88,13.88,0,0,1,13.88,13.88H520.26V387.35h22Z" transform="translate(0 0)" fill="#2f2e41"/><path d="M484.53,63.53a23.25,23.25,0,0,1-23.25,23.25h-18A23.25,23.25,0,0,1,420,63.53v-5h0a32.25,32.25,0,0,1,32.25-32.25h0a32.25,32.25,0,0,1,32.25,32.25v5Z" transform="translate(0 0)" fill="#2f2e41"/><circle cx="452.28" cy="63.94" r="24.56" fill="#ffb8b8"/><path d="M337.51,196.12" transform="translate(0 0)" fill="#ffb8b8"/><path d="M587.66,159.89a9.43,9.43,0,0,1-12.84,3.57L545,158.25l5.54-12.2,21.05,4a9.43,9.43,0,0,1,16.06,9.85Z" transform="translate(0 0)" fill="#ffb8b8"/><path d="M471.15,104.39a10,10,0,0,0-11.27,16.46l38.79,27.6a19.81,19.81,0,0,0,7.37,3.25l54.83,11.75.33.05a3.5,3.5,0,0,0,3.88-3.07l1.27-10.95a3.51,3.51,0,0,0-2.41-3.74l-58.26-18.6-34.53-22.74.28-.42Z" transform="translate(0 0)" fill="#ccc"/><path d="M415.66,377.85,403,373.38a4.48,4.48,0,0,1-3-4.75c3.16-28,20-168.76,40.44-191.07l.11-.12,51.28-11.34.16.39c.57,1.43,56.82,143.26,50.37,199.46a4.49,4.49,0,0,1-2.9,3.7L525.14,375l-.26.09a4.5,4.5,0,0,1-5.63-3L476.5,246.06a1.5,1.5,0,0,0-2.81-.16l-52.41,129.5a4.52,4.52,0,0,1-4.14,2.7A4.46,4.46,0,0,1,415.66,377.85Z" transform="translate(0 0)" fill="#2f2e41"/><path d="M440.49,180.06a4.45,4.45,0,0,1-2.63-1.53c-14.3-17.34-17.09-42.59-16.91-60.72A24.53,24.53,0,0,1,430,98.94a24.28,24.28,0,0,1,20.13-5,127.64,127.64,0,0,1,14.26,3.67h0c16.77,5.45,28.33,20.52,28.77,37.48.2,7.82-2.08,13.54-6.79,17-2.39,1.77,2.06,11.19,5.42,16.71l.13.22-.1.23c-4.26,10.22-18.11,12.7-30.54,12.7A122.22,122.22,0,0,1,440.49,180.06Z" transform="translate(0 0)" fill="#ccc"/><path d="M466,181.42A9.39,9.39,0,0,1,459.39,193a9.54,9.54,0,0,1-10.81-4.59l-22.86-20.23,11.12-7.49,16,14.55a9.41,9.41,0,0,1,1.45-.54,9.56,9.56,0,0,1,11.68,6.66Z" transform="translate(0 0)" fill="#ffb8b8"/><path d="M436.69,180.63l-34.25-26.14a15.19,15.19,0,0,1-.36-24.19l17-24.4.1-.11a13.25,13.25,0,0,1,17.89,1.43h0a13.29,13.29,0,0,1,.89,17.11l-16.32,21.58A1.5,1.5,0,0,0,422,148l26.44,20.28a4.5,4.5,0,0,1,.11,7.06l-6.3,5.15a4.5,4.5,0,0,1-5.52.13Z" transform="translate(0 0)" fill="#ccc"/><path d="M472,59h-38.5a2,2,0,0,1-2-2V44.85l20.74-9.5L474,44.85V57A2,2,0,0,1,472,59Z" transform="translate(0 0)" fill="#2f2e41"/><path d="M440.74,33a26.37,26.37,0,0,0-30.69,40.91c7.8,9.65,4.67,26-6.14,32.13s-26.45.3-30.68-11.36,4.07-26.14,16.28-28.38c.51-10.71,1-21.52,3.79-31.89s8-20.4,16.33-27.09,20.26-9.53,30.19-5.48,16.65,15.79,13.45,26C454.3,29,446.75,35.55,440.74,33Z" transform="translate(0 0)" fill="#2f2e41"/><path d="M548,91.81h0a4.47,4.47,0,0,1-2.65-4.1V51.29a4.51,4.51,0,0,1,4.5-4.5h81a4.5,4.5,0,0,1,4.5,4.5V87.7a4.47,4.47,0,0,1-2.65,4.1,104.45,104.45,0,0,1-42.35,9.27A104.45,104.45,0,0,1,548,91.81Z" transform="translate(0 0)" fill="#6c63ff"/><path d="M588.63,71.22l-63.37-27.1a4.5,4.5,0,0,1,.15-8.34l63.37-24.37a4.48,4.48,0,0,1,3.21,0l64.23,24.37a4.5,4.5,0,0,1,.15,8.35l-64.23,27.1a4.53,4.53,0,0,1-3.52,0Z" transform="translate(0 0)" fill="#6c63ff"/><circle cx="627.89" cy="88.29" r="6" fill="#3f3d56"/><path d="M523.14,38.6A4,4,0,0,0,525,44.27l63.37,27.1a4,4,0,0,0,3.13,0l64.23-27.1a4,4,0,0,0,1.91-5.68,3.92,3.92,0,0,1-1.91,1.68l-64.23,27.1a4,4,0,0,1-3.13,0L525,40.27A3.93,3.93,0,0,1,523.14,38.6Z" transform="translate(0 0)" opacity="0.2" style="isolation:isolate"/><path d="M628.38,87.26V53.8a2,2,0,0,0-.6-1.42,2,2,0,0,0-1.43-.58l-33-12a1,1,0,0,0,0,2l33,12V87.26a1,1,0,1,0,2,0Z" transform="translate(0 0)" fill="#3f3d56"/></svg>