<svg id="a6e614f3-596e-41eb-bfaf-d20d8afbb6c4" data-name="BACKGROUND" xmlns="http://www.w3.org/2000/svg" xmlns:xlink="http://www.w3.org/1999/xlink" viewBox="0 0 269.36 500"><defs><clipPath id="aab50b13-6726-4226-89cf-f04eea9bb7b1"><rect width="750" height="500" fill="none"/></clipPath></defs><title>figures-xsmall</title><g clip-path="url(#aab50b13-6726-4226-89cf-f04eea9bb7b1)"><circle cx="131.69" cy="7.76" r="2" fill="#ffc248"/><circle cx="131.69" cy="23.29" r="2" fill="#ffc248"/><circle cx="163.36" cy="2.23" r="2.01" fill="#ffc248"/><circle cx="163.36" cy="17.76" r="2.01" fill="#ffc248"/><circle cx="163.36" cy="33.28" r="2.01" fill="#ffc248"/><circle cx="175.03" cy="466.96" r="2" fill="#ffc248"/><circle cx="175.03" cy="482.49" r="2" fill="#ffc248"/><path d="M660.37,498a2,2,0,1,1-4,0c0-1.11-482.44-2-481.33-2S660.37,496.9,660.37,498Z" fill="#ffc248"/><circle cx="38.6" cy="377.73" r="2.01" fill="#ffc248"/><circle cx="38.6" cy="393.25" r="2.01" fill="#ffc248"/><circle cx="38.6" cy="408.78" r="2.01" fill="#ffc248"/><circle cx="38.6" cy="424.3" r="2.01" fill="#ffc248"/><circle cx="3.54" cy="43.05" r="2" fill="#353535"/><circle cx="19.07" cy="43.05" r="2" fill="#353535"/><circle cx="34.59" cy="43.05" r="2.01" fill="#353535"/><circle cx="232.75" cy="387.06" r="2" fill="#353535"/><circle cx="248.27" cy="387.06" r="2" fill="#353535"/><circle cx="263.8" cy="387.06" r="2" fill="#353535"/><circle cx="238.51" cy="15.54" r="2" fill="#353535"/><circle cx="254.03" cy="15.54" r="2.01" fill="#353535"/><circle cx="269.56" cy="15.54" r="2" fill="#353535"/><circle cx="9.3" cy="305.06" r="2" fill="#353535"/><circle cx="13.31" cy="484.49" r="2" fill="#353535"/><circle cx="28.84" cy="484.49" r="2" fill="#353535"/><circle cx="155.62" cy="417.05" r="2" fill="#353535"/><circle cx="171.14" cy="417.05" r="2" fill="#353535"/><circle cx="186.67" cy="417.05" r="2" fill="#353535"/><circle cx="202.19" cy="417.05" r="2.01" fill="#353535"/><circle cx="240.51" cy="147.83" r="2" fill="#ffc248"/><circle cx="240.51" cy="163.36" r="2" fill="#ffc248"/><circle cx="240.51" cy="178.88" r="2" fill="#ffc248"/><circle cx="240.51" cy="194.41" r="2" fill="#ffc248"/><line x1="66.61" y1="19.76" x2="80.44" y2="19.76" fill="none" stroke="#353535" stroke-miterlimit="10" stroke-width="0.5"/><line x1="73.53" y1="26.68" x2="73.53" y2="12.85" fill="none" stroke="#353535" stroke-miterlimit="10" stroke-width="0.5"/><line x1="136.44" y1="464.96" x2="150.28" y2="464.96" fill="none" stroke="#353535" stroke-miterlimit="10" stroke-width="0.5"/><line x1="143.36" y1="471.87" x2="143.36" y2="458.04" fill="none" stroke="#353535" stroke-miterlimit="10" stroke-width="0.5"/><line x1="234.69" y1="443.06" x2="248.53" y2="443.06" fill="none" stroke="#353535" stroke-miterlimit="10" stroke-width="0.5"/><line x1="241.61" y1="449.97" x2="241.61" y2="436.14" fill="none" stroke="#353535" stroke-miterlimit="10" stroke-width="0.5"/><line x1="136.44" y1="35.29" x2="150.28" y2="35.29" fill="none" stroke="#353535" stroke-miterlimit="10" stroke-width="0.5"/><line x1="143.36" y1="42.2" x2="143.36" y2="28.37" fill="none" stroke="#353535" stroke-miterlimit="10" stroke-width="0.5"/><line x1="207.11" y1="289.56" x2="220.94" y2="289.56" fill="none" stroke="#353535" stroke-miterlimit="10" stroke-width="0.5"/><line x1="214.03" y1="296.47" x2="214.03" y2="282.64" fill="none" stroke="#353535" stroke-miterlimit="10" stroke-width="0.5"/><line x1="27.68" y1="180.89" x2="41.51" y2="180.89" fill="none" stroke="#353535" stroke-miterlimit="10" stroke-width="0.5"/><line x1="34.59" y1="187.81" x2="34.59" y2="173.97" fill="none" stroke="#353535" stroke-miterlimit="10" stroke-width="0.5"/><polygon points="27.21 265.54 22.01 274.54 32.4 274.54 27.21 265.54" fill="#353535"/><polygon points="266.67 308.54 261.47 317.54 271.86 317.54 266.67 308.54" fill="#353535"/><polygon points="-6 82.06 3 87.25 3 76.86 -6 82.06" fill="#353535"/><polygon points="213.11 459.54 204.11 454.35 204.11 464.74 213.11 459.54" fill="#353535"/><polygon points="174.85 63.58 183.85 68.78 183.85 58.39 174.85 63.58" fill="#353535"/><polygon points="222.78 2.98 231.78 8.18 231.78 -2.22 222.78 2.98" fill="#353535"/><polygon points="184.66 504.5 189.86 495.5 179.47 495.5 184.66 504.5" fill="#353535"/><polygon points="81.83 498.5 72.83 493.3 72.83 503.7 81.83 498.5" fill="#353535"/></g></svg>