<svg id="ce0c8747-75be-4882-8d4a-f8f90a9da68b" data-name="BACKGROUND" xmlns="http://www.w3.org/2000/svg" xmlns:xlink="http://www.w3.org/1999/xlink" viewBox="0 0 750 500"><defs><clipPath id="fe5f08d9-b989-4246-958f-03e8ab9fb2fe"><rect width="750" height="500" fill="none"/></clipPath></defs><title>figures2</title><g clip-path="url(#fe5f08d9-b989-4246-958f-03e8ab9fb2fe)"><circle cx="615.03" cy="7.76" r="2" fill="#ffc248"/><circle cx="615.03" cy="23.29" r="2" fill="#ffc248"/><circle cx="163.36" cy="2.23" r="2.01" fill="#ffc248"/><circle cx="163.36" cy="17.76" r="2.01" fill="#ffc248"/><circle cx="163.36" cy="33.28" r="2.01" fill="#ffc248"/><circle cx="658.36" cy="466.96" r="2" fill="#ffc248"/><circle cx="658.36" cy="482.49" r="2" fill="#ffc248"/><circle cx="658.36" cy="498.01" r="2" fill="#ffc248"/><circle cx="38.6" cy="377.73" r="2.01" fill="#ffc248"/><circle cx="38.6" cy="393.25" r="2.01" fill="#ffc248"/><circle cx="38.6" cy="408.78" r="2.01" fill="#ffc248"/><circle cx="38.6" cy="424.3" r="2.01" fill="#ffc248"/><circle cx="3.54" cy="43.05" r="2" fill="#353535"/><circle cx="19.07" cy="43.05" r="2" fill="#353535"/><circle cx="34.59" cy="43.05" r="2.01" fill="#353535"/><circle cx="716.08" cy="387.06" r="2" fill="#353535"/><circle cx="731.61" cy="387.06" r="2" fill="#353535"/><circle cx="747.13" cy="387.06" r="2" fill="#353535"/><circle cx="721.84" cy="15.54" r="2" fill="#353535"/><circle cx="737.36" cy="15.54" r="2" fill="#353535"/><circle cx="9.3" cy="305.06" r="2" fill="#353535"/><circle cx="13.31" cy="484.49" r="2" fill="#353535"/><circle cx="28.84" cy="484.49" r="2" fill="#353535"/><circle cx="282.79" cy="468.97" r="2" fill="#353535"/><circle cx="298.31" cy="468.97" r="2" fill="#353535"/><circle cx="313.84" cy="468.97" r="2" fill="#353535"/><circle cx="329.36" cy="468.97" r="2.01" fill="#353535"/><circle cx="723.85" cy="147.83" r="2" fill="#ffc248"/><circle cx="723.85" cy="163.36" r="2" fill="#ffc248"/><circle cx="723.85" cy="178.88" r="2" fill="#ffc248"/><circle cx="723.85" cy="194.41" r="2" fill="#ffc248"/><line x1="481.44" y1="19.76" x2="495.28" y2="19.76" fill="none" stroke="#353535" stroke-miterlimit="10" stroke-width="0.5"/><line x1="488.36" y1="26.68" x2="488.36" y2="12.85" fill="none" stroke="#353535" stroke-miterlimit="10" stroke-width="0.5"/><line x1="136.44" y1="464.96" x2="150.28" y2="464.96" fill="none" stroke="#353535" stroke-miterlimit="10" stroke-width="0.5"/><line x1="143.36" y1="471.87" x2="143.36" y2="458.04" fill="none" stroke="#353535" stroke-miterlimit="10" stroke-width="0.5"/><line x1="635.53" y1="443.06" x2="649.36" y2="443.06" fill="none" stroke="#353535" stroke-miterlimit="10" stroke-width="0.5"/><line x1="642.44" y1="449.97" x2="642.44" y2="436.14" fill="none" stroke="#353535" stroke-miterlimit="10" stroke-width="0.5"/><line x1="136.44" y1="35.29" x2="150.28" y2="35.29" fill="none" stroke="#353535" stroke-miterlimit="10" stroke-width="0.5"/><line x1="143.36" y1="42.2" x2="143.36" y2="28.37" fill="none" stroke="#353535" stroke-miterlimit="10" stroke-width="0.5"/><line x1="690.44" y1="289.56" x2="704.28" y2="289.56" fill="none" stroke="#353535" stroke-miterlimit="10" stroke-width="0.5"/><line x1="697.36" y1="296.47" x2="697.36" y2="282.64" fill="none" stroke="#353535" stroke-miterlimit="10" stroke-width="0.5"/><line x1="27.68" y1="180.89" x2="41.51" y2="180.89" fill="none" stroke="#353535" stroke-miterlimit="10" stroke-width="0.5"/><line x1="34.59" y1="187.81" x2="34.59" y2="173.97" fill="none" stroke="#353535" stroke-miterlimit="10" stroke-width="0.5"/><polygon points="27.21 265.54 22.01 274.54 32.4 274.54 27.21 265.54" fill="#353535"/><polygon points="750 308.54 744.8 317.54 755.2 317.54 750 308.54" fill="#353535"/><polygon points="-6 82.06 3 87.25 3 76.86 -6 82.06" fill="#353535"/><polygon points="696.44 459.54 687.44 454.35 687.44 464.74 696.44 459.54" fill="#353535"/><polygon points="658.19 63.58 667.19 68.78 667.19 58.39 658.19 63.58" fill="#353535"/><polygon points="222.78 2.98 231.78 8.18 231.78 -2.22 222.78 2.98" fill="#353535"/><polygon points="311.83 504.5 317.03 495.5 306.63 495.5 311.83 504.5" fill="#353535"/><polygon points="81.83 498.5 72.83 493.3 72.83 503.7 81.83 498.5" fill="#353535"/></g></svg>