<svg xmlns:xlink="http://www.w3.org/1999/xlink" width="48" height="48" viewBox="0 0 48 48" version="1.1" xmlns="http://www.w3.org/2000/svg" role="img" aria-labelledby="e11f7363-b6ea-45ab-ad1c-599205daf2bd"><title id="e11f7363-b6ea-45ab-ad1c-599205daf2bd">Instagram</title><defs><polygon id="dark-instagram-path-1" points="0 0.00883333333 27.9911667 0.00883333333 27.9911667 27.9966667 0 27.9966667"></polygon><polygon id="dark-instagram-path-1" points="0 0.00883333333 27.9911667 0.00883333333 27.9911667 27.9966667 0 27.9966667"></polygon></defs><g stroke="none" stroke-width="1" fill="none" fill-rule="evenodd"><g fill="none"><g fill="#FF0375" fill-rule="nonzero"><path d="M24,0 C10.7471924,0 0,10.7471924 0,24 C0,37.2528076 10.7471924,48 24,48 C37.2528076,48 48,37.2528076 48,24 C48,10.7471924 37.2528076,0 24,0 Z" fill="#FF0375"></path></g><g transform="translate(10.000000, 10.000000)" fill="none"><g fill="none"><mask id="dark-instagram-mask" fill="#FFFFFF"><use xlink:href="#dark-instagram-path-1" fill="#FFFFFF"></use></mask><g fill="none"></g><path d="M13.9956111,0.00883333333 C10.1946111,0.00883333333 9.718,0.0249444444 8.22522222,0.0930555556 C6.73555556,0.161 5.71816667,0.397611111 4.82794444,0.743611111 C3.90761111,1.10122222 3.12711111,1.57977778 2.349,2.35783333 C1.57094444,3.13594444 1.09238889,3.91644444 0.734777778,4.83677778 C0.388777778,5.727 0.152166667,6.74438889 0.0842222222,8.23405556 C0.0161111111,9.72683333 0,10.2034444 0,14.0044444 C0,17.8053889 0.0161111111,18.282 0.0842222222,19.7747778 C0.152166667,21.2644444 0.388777778,22.2818333 0.734777778,23.1720556 C1.09238889,24.0923889 1.57094444,24.8728889 2.349,25.651 C3.12711111,26.4290556 3.90761111,26.9076111 4.82794444,27.2652778 C5.71816667,27.6112222 6.73555556,27.8478333 8.22522222,27.9157778 C9.718,27.9838889 10.1946111,28 13.9956111,28 C17.7965556,28 18.2731667,27.9838889 19.7659444,27.9157778 C21.2556111,27.8478333 22.273,27.6112222 23.1632222,27.2652778 C24.0835556,26.9076111 24.8640556,26.4290556 25.6421667,25.651 C26.4202222,24.8728889 26.8987778,24.0923889 27.2564444,23.1720556 C27.6023889,22.2818333 27.839,21.2644444 27.9069444,19.7747778 C27.9750556,18.282 27.9911667,17.8053889 27.9911667,14.0044444 C27.9911667,10.2034444 27.9750556,9.72683333 27.9069444,8.23405556 C27.839,6.74438889 27.6023889,5.727 27.2564444,4.83677778 C26.8987778,3.91644444 26.4202222,3.13594444 25.6421667,2.35783333 C24.8640556,1.57977778 24.0835556,1.10122222 23.1632222,0.743611111 C22.273,0.397611111 21.2556111,0.161 19.7659444,0.0930555556 C18.2731667,0.0249444444 17.7965556,0.00883333333 13.9956111,0.00883333333 Z M13.9956111,2.53055556 C17.7325556,2.53055556 18.1752222,2.54483333 19.651,2.61216667 C21.0155556,2.67438889 21.7566111,2.90238889 22.2497778,3.09405556 C22.9030556,3.34794444 23.3692778,3.65122222 23.859,4.141 C24.3487778,4.63072222 24.6520556,5.09694444 24.9059444,5.75022222 C25.0976111,6.24338889 25.3256111,6.98444444 25.3878333,8.349 C25.4551667,9.82477778 25.4694444,10.2674444 25.4694444,14.0044444 C25.4694444,17.7413889 25.4551667,18.1840556 25.3878333,19.6598333 C25.3256111,21.0243889 25.0976111,21.7654444 24.9059444,22.2586111 C24.6520556,22.9118889 24.3487778,23.3781111 23.859,23.8678333 C23.3692778,24.3576111 22.9030556,24.6608889 22.2497778,24.9147778 C21.7566111,25.1064444 21.0155556,25.3344444 19.651,25.3966667 C18.1754444,25.464 17.7328333,25.4782778 13.9956111,25.4782778 C10.2583333,25.4782778 9.81577778,25.464 8.34016667,25.3966667 C6.97561111,25.3344444 6.23455556,25.1064444 5.74138889,24.9147778 C5.08811111,24.6608889 4.62188889,24.3576111 4.13216667,23.8678333 C3.64244444,23.3781111 3.33911111,22.9118889 3.08522222,22.2586111 C2.89355556,21.7654444 2.66555556,21.0243889 2.60333333,19.6598333 C2.536,18.1840556 2.52172222,17.7413889 2.52172222,14.0044444 C2.52172222,10.2674444 2.536,9.82477778 2.60333333,8.349 C2.66555556,6.98444444 2.89355556,6.24338889 3.08522222,5.75022222 C3.33911111,5.09694444 3.64238889,4.63072222 4.13216667,4.141 C4.62188889,3.65122222 5.08811111,3.34794444 5.74138889,3.09405556 C6.23455556,2.90238889 6.97561111,2.67438889 8.34016667,2.61216667 C9.81594444,2.54483333 10.2586111,2.53055556 13.9956111,2.53055556 L13.9956111,2.53055556 Z" fill="#FFFFFF" mask="url(#dark-instagram-mask)"></path></g><path d="M14.0000289,18.8467867 C11.3231811,18.8467867 9.15321334,16.6768189 9.15321334,14.0000289 C9.15321334,11.3231811 11.3231811,9.15321334 14.0000289,9.15321334 C16.6768189,9.15321334 18.8467867,11.3231811 18.8467867,14.0000289 C18.8467867,16.6768189 16.6768189,18.8467867 14.0000289,18.8467867 Z M14.0000289,6.53333333 C9.87624735,6.53333333 6.53333333,9.87624735 6.53333333,14.0000289 C6.53333333,18.1237527 9.87624735,21.4666667 14.0000289,21.4666667 C18.1237527,21.4666667 21.4666667,18.1237527 21.4666667,14.0000289 C21.4666667,9.87624735 18.1237527,6.53333333 14.0000289,6.53333333 L14.0000289,6.53333333 Z" fill="#FFFFFF"></path><path d="M23.3333333,6.53336421 C23.3333333,7.56430536 22.497577,8.4 21.4666358,8.4 C20.4357564,8.4 19.6,7.56430536 19.6,6.53336421 C19.6,5.50242305 20.4357564,4.66666667 21.4666358,4.66666667 C22.497577,4.66666667 23.3333333,5.50242305 23.3333333,6.53336421" fill="#FFFFFF"></path></g></g></g></svg>