<svg id="1b5b42b1-43ab-42bc-b005-e48c337da431" data-name="Слой 1" xmlns="http://www.w3.org/2000/svg" viewBox="0 0 333.96 669.89"><title>phone-border</title><path d="M333.46,158.92h-3.67V58.26A58.26,58.26,0,0,0,271.53,0H58.26A58.26,58.26,0,0,0,0,58.26V610.49a58.26,58.26,0,0,0,58.26,58.26H271.53a58.26,58.26,0,0,0,58.26-58.26V230.57h3.67ZM317.39,610.09h0a43.51,43.51,0,0,1-43.51,43.51H59.59a43.51,43.51,0,0,1-43.51-43.51V58.66A43.51,43.51,0,0,1,59.59,15.16h26a20.67,20.67,0,0,0,19.14,28.48H226.9A20.67,20.67,0,0,0,246,15.16h27.84a43.51,43.51,0,0,1,43.51,43.51Z" fill="#3f3d56"/></svg>