<svg id="0fc58e3f-6be7-432f-946b-5893f901de9d" data-name="aa18ff1c-7b06-43b4-b6a4-53d4a6fdfc8a" xmlns="http://www.w3.org/2000/svg" viewBox="0 0 747.76 649.39"><title>social-2</title><g id="893eee38-0fdf-4172-8125-6eeeead4013f" data-name="ad060fe7-63ca-41ba-a78b-55179135b7d7"><path d="M686,280c37,76.1,96.3,197.1,25.2,253.7a394.55,394.55,0,0,1-33.6,24c-6.3,4-12.8,8-19.5,11.7-53.2,30-116.2,50.6-184.7,58.2-7,.8-14.1,1.4-21.3,2-12.9.9-26,1.4-39.2,1.4-7.6,0-15.1-.2-22.6-.5-1.4-.1-2.8-.1-4.2-.2a525.21,525.21,0,0,1-85.6-11.2C127.2,581.8,0,460,0,315.5,0,141.3,185,0,413,0S586,74.5,686,280Z" fill="#fff"/></g><path d="M163.5,22.2c70.9,1.3,70.9,106.6,0,107.9C92.6,128.8,92.6,23.5,163.5,22.2Z" fill="#fff"/><path d="M297.6,179.2c70.9,1.3,70.9,106.6,0,107.9C226.75,285.8,226.75,180.5,297.6,179.2Z" fill="#fff"/><path d="M157.75,338.6c70.9,1.3,70.9,106.6,0,107.9C86.8,445.2,86.8,339.9,157.75,338.6Z" fill="#fff"/><path d="M163.5,22.2c70.9,1.3,70.9,106.6,0,107.9C92.6,128.8,92.6,23.5,163.5,22.2Zm0,104.6c66.6-1.2,66.6-100.2,0-101.3C96.9,26.7,96.9,125.7,163.5,126.8Z" fill="#e6e6e6"/><path d="M473.55,627.6c68.5-7.7,131.5-28.2,184.7-58.2a552.71,552.71,0,0,0-20.5-52.3c-1.8-4.1-3.7-8.1-5.6-12.1a10.4,10.4,0,0,0-11-5.8l-117.4-.5a10.63,10.63,0,0,0-8.9,8.4,2.77,2.77,0,0,0-.1.9L474.1,625.3c-.1.5-.2,1.1-.3,1.6Z" fill="#2f2e41"/><path d="M359.25,312.7a14,14,0,0,0-.9-2.9h0a24.68,24.68,0,1,0-14.6,31.7L447.9,423.7a18.91,18.91,0,0,0,22.6.6L511.6,395l-26.2-34.3-24.6,14.1L359.7,316.5a26.45,26.45,0,0,0-.5-3.8Z" fill="#ffb8b8"/><path d="M462.4,374a12.7,12.7,0,0,0,1.8,3.7l23,29.8,2.5,3.2,7.2,9.3c.3.4.7.8,1,1.2h0a10.6,10.6,0,0,0,15-.31l37-38.4h0a29.36,29.36,0,0,0-36-46.4L467.5,362a10.49,10.49,0,0,0-5.2,7.1A8.2,8.2,0,0,0,462.4,374Z" fill="#6c63ff"/><circle cx="570.15" cy="249.09" r="57.8" transform="translate(-9.14 476.11) rotate(-45)" fill="#ffb8b8"/><path d="M491,496.5a10.83,10.83,0,0,0,1.6,8.2,8,8,0,0,0,2.2,2.3,10.88,10.88,0,0,0,4.8,2.1l125,20.5a9.7,9.7,0,0,0,1.7.1,10.59,10.59,0,0,0,10.3-8.2l1-4.5,9.6-42.3,11.5-50.5L665.6,394l.6-2.4a51.17,51.17,0,0,0-6.7-42.2h0c-1.1-1.6-2.2-3.1-3.4-4.6A51.8,51.8,0,0,0,612,326l-64.6,4.9a52,52,0,0,0-48,48.5h0c-.1,1.8-.1,3.6-.1,5.5a69.3,69.3,0,0,0-12.4,22.6q-.9,3-1.5,6c-5.6,27.5,9.2,50.9,11.5,54.3Z" fill="#6c63ff"/><path d="M743.2,638.4a25.4,25.4,0,0,1-44.6-23.6L620.75,401.7,662,382.1,733.1,601a38.39,38.39,0,0,1,3.9,2.2,25.31,25.31,0,0,1,6.2,35.2Z" fill="#ffb8b8"/><path d="M600.15,369.5l8.3,56.4a7.49,7.49,0,0,0,.4,1.6v0a11.31,11.31,0,0,0,14.09,7.57l9-2.7,27-8.2,15.2-4.6,3.6-1.1c.5-.2,1.1-.4,1.6-.6l.11-.05a11.28,11.28,0,0,0,5.29-15L666.5,364.1l-6-12.8a17.24,17.24,0,0,0-.7-2.1h0a31.52,31.52,0,0,0-59.65,20.3Z" fill="#6c63ff"/><path d="M514,231a64.46,64.46,0,0,1,13.6-52.8c7.5-9,18.1-16,29.8-16.8s24.2,5.7,28.1,16.7c5.9-6.7,13.7-7.7,22.6-7.8,52.65-.6,70.65,127.2,21.2,137.8-8.4,1.8-67.5,8-67.5,8s21-64.6,32-77.7c-24.6,12-56.2,7.9-76.8-10.2Z" fill="#2f2e41"/><path d="M297.6,179.2c70.9,1.3,70.9,106.6,0,107.9C226.75,285.8,226.75,180.5,297.6,179.2Zm0,104.6c66.6-1.2,66.6-100.2,0-101.3C231,183.6,231,282.6,297.6,283.8Z" fill="#e6e6e6"/><path d="M157.75,338.6c70.9,1.3,70.9,106.6,0,107.9C86.8,445.2,86.8,339.9,157.75,338.6Zm0,104.6c66.6-1.2,66.6-100.2,0-101.3C91.1,343.1,91.1,442,157.75,443.2Z" fill="#e6e6e6"/><path d="M135.8,87.6c0,20.5,25.9,15.7,39.2,16.1,20.5,0,15.7-25.9,16.1-39.2,0-20.5-25.9-15.7-39.2-16.1C131.5,48.5,136.2,74.3,135.8,87.6Z" fill="#3f3d56"/><path d="M148.5,57.7c4.5-.1,4.5,7,0,6.9C144,64.7,144,57.6,148.5,57.7Z" fill="#fff"/><path d="M163.5,85.3c-12,.2-12-18.6,0-18.4C175.5,66.7,175.5,85.5,163.5,85.3Zm0,4.7c17.9.2,17.9-28,0-27.7C145.6,62,145.6,90.2,163.5,90Z" fill="#fff"/><path d="M254,401.1l-7.4-7.7h0l-.09-.1a1.49,1.49,0,0,1,.19-2.1l7.8-7.3a1.72,1.72,0,0,1,2.4.1h0a1.72,1.72,0,0,1-.1,2.4l-5.8,5.5-.1.1a.85.85,0,0,0,.1,1.2l5.4,5.8a1.29,1.29,0,0,1,.4,1.2,1.67,1.67,0,0,1-1.7,1.6A2.59,2.59,0,0,1,254,401.1Z" fill="#ccc"/><path d="M260.7,392.5a1,1,0,0,1,1-1l18.1.5h0a1,1,0,1,1,0,2l-18.1-.5a1.85,1.85,0,0,1-.7-.2A1.14,1.14,0,0,1,260.7,392.5Z" fill="#ccc"/><path d="M394,241.7l-7.4-7.7h0l-.09-.1a1.49,1.49,0,0,1,.19-2.1l7.8-7.3a1.72,1.72,0,0,1,2.4.1h0a1.72,1.72,0,0,1-.1,2.4l-5.8,5.5-.1.1a.85.85,0,0,0,.1,1.2l5.4,5.8a1.29,1.29,0,0,1,.4,1.2,1.67,1.67,0,0,1-1.7,1.6A4.13,4.13,0,0,1,394,241.7Z" fill="#ccc"/><path d="M400.7,233.1a1,1,0,0,1,1-1l18.1.5a1,1,0,0,1,0,2l-18.1-.5a.71.71,0,0,1-.6-.3A.67.67,0,0,1,400.7,233.1Z" fill="#ccc"/><path d="M260,84.7,252.6,77h0l-.09-.1a1.49,1.49,0,0,1,.19-2.1l7.8-7.3a1.72,1.72,0,0,1,2.4.1h0a1.72,1.72,0,0,1-.1,2.4L257,75.5l-.1.1a.85.85,0,0,0,.1,1.2l5.4,5.8a1.29,1.29,0,0,1,.4,1.2,1.67,1.67,0,0,1-1.7,1.6A4.13,4.13,0,0,1,260,84.7Z" fill="#ccc"/><path d="M266.7,76.1a1,1,0,0,1,1-1l18.1.5h0a1,1,0,0,1,0,2l-18.1-.5a.71.71,0,0,1-.6-.3A.67.67,0,0,1,266.7,76.1Z" fill="#ccc"/><path d="M133.9,380c-2.7-1.1-3.3-6.5-3.4-6.5l5.5,3.3s1.6-4.4,9.3-4.4a16.35,16.35,0,0,1,2.2.2h.06a11.5,11.5,0,0,1,8.94,13.59c14.4.9,23-10.9,23.3-11.6,5,5.1-3.3,15-4.3,16.2a10.26,10.26,0,0,0,5.3-2.1s1.2,8.6-7.6,10.9a3.43,3.43,0,0,0,4.4,1.1s-1.6,5.3-9.8,6.6c0,0,1.2,5.8,15.3,5.4.3.8-7.6,3.9-17,3.9-13.2,0-29.6-6-32.1-32.3-.9-.3-5.5-5.5-5.5-5.5Z" fill="#3f3d56"/><path d="M267.8,233.3a30,30,0,0,1,30-30c36.3-.1,40.5,54.1,4.7,59.6V242h7.6v-8.7h-7.6c1.6-13.7-4.2-20.7-18-17.7V223c9.2-1,8.9,3.1,8.7,10.3h-8.3l1.3,8.7h7v20.9a30.07,30.07,0,0,1-25.4-29.6Z" fill="#3f3d56"/><path d="M393.3,553.7l-7.4-7.7h0l-.09-.1a1.49,1.49,0,0,1,.19-2.1l7.8-7.3a1.72,1.72,0,0,1,2.4.1h0a1.72,1.72,0,0,1-.1,2.4l-5.8,5.5-.1.1a.85.85,0,0,0,.1,1.2l5.4,5.8a1.29,1.29,0,0,1,.4,1.2,1.67,1.67,0,0,1-1.7,1.6A4.13,4.13,0,0,1,393.3,553.7Z" fill="#ccc"/><path d="M400.5,545.8a.57.57,0,0,1-.4-.7,1,1,0,0,1,1-1l18.1.5a1,1,0,0,1,0,2l-18.1-.5a.71.71,0,0,1-.6-.3Z" fill="#ccc"/></svg>