<svg id="aa18ff1c-7b06-43b4-b6a4-53d4a6fdfc8a" data-name="Слой 1" xmlns="http://www.w3.org/2000/svg" viewBox="0 0 747.76 649.39"><title>social</title><g id="ad060fe7-63ca-41ba-a78b-55179135b7d7" data-name="&lt;Группа&gt;"><path d="M334.75,0c228,0,413,141.3,413,315.5,0,144.5-127.2,266.3-300.5,303.6a525.2,525.2,0,0,1-85.6,11.2c-1.4.1-2.8.1-4.2.2-7.5.3-15,.5-22.6.5-13.2,0-26.3-.5-39.2-1.4-7.2-.6-14.3-1.2-21.3-2-68.5-7.6-131.5-28.2-184.7-58.2-6.7-3.7-13.2-7.7-19.5-11.7a394.55,394.55,0,0,1-33.6-24c-71.1-56.6-11.8-177.6,25.2-253.7C161.75,74.5,106.75,0,334.75,0Z" transform="translate(0.01 0)" fill="#fff"/></g><path d="M584.25,130.1c-70.9-1.3-70.9-106.6,0-107.9C655.15,23.5,655.15,128.8,584.25,130.1Z" transform="translate(0.01 0)" fill="#fff"/><path d="M450.15,287.1c-70.9-1.3-70.9-106.6,0-107.9C521,180.5,521,285.8,450.15,287.1Z" transform="translate(0.01 0)" fill="#fff"/><path d="M590,446.5c-70.9-1.3-70.9-106.6,0-107.9C660.95,339.9,660.95,445.2,590,446.5Z" transform="translate(0.01 0)" fill="#fff"/><path d="M584.25,130.1c-70.9-1.3-70.9-106.6,0-107.9C655.15,23.5,655.15,128.8,584.25,130.1Zm0-104.6c-66.6,1.1-66.6,100.1,0,101.3,66.6-1.1,66.6-100.1,0-101.3Z" transform="translate(0.01 0)" fill="#e6e6e6"/><path d="M273.95,626.9c-.1-.5-.2-1.1-.3-1.6L253,508a2.77,2.77,0,0,0-.1-.9,10.63,10.63,0,0,0-8.9-8.4l-117.4.5a10.4,10.4,0,0,0-11,5.8c-1.9,4-3.8,8-5.6,12.1a552.71,552.71,0,0,0-20.5,52.3c53.2,30,116.2,50.5,184.7,58.2Z" transform="translate(0.01 0)" fill="#2f2e41"/><path d="M388.55,312.7a26.45,26.45,0,0,0-.5,3.8l-101.1,58.3-24.6-14.1L236.15,395l41.1,29.3a18.91,18.91,0,0,0,22.6-.6L404,341.5a24.68,24.68,0,1,0-14.6-31.7,14,14,0,0,0-.9,2.9Z" transform="translate(0.01 0)" fill="#ffb8b8"/><path d="M285.45,369.1a10.49,10.49,0,0,0-5.2-7.1l-46.4-25.9a29.36,29.36,0,0,0-36,46.4l37,38.4a10.6,10.6,0,0,0,15,.3c.3-.4.7-.8,1-1.2l7.2-9.3,2.5-3.2,23-29.8a12.7,12.7,0,0,0,1.8-3.7A8.2,8.2,0,0,0,285.45,369.1Z" transform="translate(0.01 0)" fill="#6c63ff"/><circle cx="177.59" cy="249.09" r="57.8" transform="translate(-124.1 198.53) rotate(-45)" fill="#ffb8b8"/><path d="M250.85,467.8c2.3-3.4,17.1-26.8,11.5-54.3q-.6-3-1.5-6a69.3,69.3,0,0,0-12.4-22.6c0-1.9,0-3.7-.1-5.5h0a52,52,0,0,0-48-48.5l-64.6-4.9a51.8,51.8,0,0,0-44.1,18.8c-1.2,1.5-2.3,3-3.4,4.6h0a51.17,51.17,0,0,0-6.7,42.2l.6,2.4L89,424.2l11.5,50.5,9.6,42.3,1,4.5a10.59,10.59,0,0,0,10.3,8.2,9.7,9.7,0,0,0,1.7-.1l125-20.5a10.88,10.88,0,0,0,4.8-2.1,8,8,0,0,0,2.2-2.3,10.83,10.83,0,0,0,1.6-8.2Z" transform="translate(0.01 0)" fill="#6c63ff"/><path d="M4.55,638.4a25.31,25.31,0,0,1,6.2-35.2,38.39,38.39,0,0,1,3.9-2.2l71.1-218.9L127,401.7,49.15,614.8a25.4,25.4,0,0,1-44.6,23.6Z" transform="translate(0.01 0)" fill="#ffb8b8"/><path d="M126.45,330.2a31.62,31.62,0,0,0-38.5,19h0a17.24,17.24,0,0,0-.7,2.1l-6,12.8L63,402.8a11.28,11.28,0,0,0,5.4,15.1c.5.2,1.1.4,1.6.6l3.6,1.1,15.2,4.6,27,8.2,9,2.7a11.31,11.31,0,0,0,14.1-7.6,7.49,7.49,0,0,0,.4-1.6l8.3-56.4A31.79,31.79,0,0,0,126.45,330.2Z" transform="translate(0.01 0)" fill="#6c63ff"/><path d="M230.75,228.2c-20.6,18.1-52.2,22.2-76.8,10.2,11,13.1,32,77.7,32,77.7s-59.1-6.2-67.5-8C69,297.5,87,169.7,139.65,170.3c8.9.1,16.7,1.1,22.6,7.8,3.9-11,16.4-17.5,28.1-16.7s22.3,7.8,29.8,16.8a64.46,64.46,0,0,1,13.6,52.8Z" transform="translate(0.01 0)" fill="#2f2e41"/><path d="M450.15,287.1c-70.9-1.3-70.9-106.6,0-107.9C521,180.5,521,285.8,450.15,287.1Zm0-104.6c-66.6,1.1-66.6,100.1,0,101.3C516.75,282.6,516.75,183.6,450.15,182.5Z" transform="translate(0.01 0)" fill="#e6e6e6"/><path d="M590,446.5c-70.9-1.3-70.9-106.6,0-107.9C660.95,339.9,660.95,445.2,590,446.5Zm0-104.6c-66.6,1.1-66.6,100.1,0,101.3C656.65,442,656.65,343.1,590,341.9Z" transform="translate(0.01 0)" fill="#e6e6e6"/><path d="M595.85,48.4c-13.3.4-39.2-4.4-39.2,16.1.4,13.3-4.4,39.2,16.1,39.2,13.3-.4,39.2,4.4,39.2-16.1C611.55,74.3,616.25,48.5,595.85,48.4Z" transform="translate(0.01 0)" fill="#3f3d56"/><path d="M599.25,64.6c-4.5.1-4.5-7,0-6.9C603.75,57.6,603.75,64.7,599.25,64.6Z" transform="translate(0.01 0)" fill="#fff"/><path d="M584.25,66.9c12-.2,12,18.6,0,18.4C572.25,85.5,572.25,66.7,584.25,66.9Zm0-4.6c-17.9-.3-17.9,27.9,0,27.7,17.9.2,17.9-28,0-27.7Z" transform="translate(0.01 0)" fill="#fff"/><path d="M492.65,401.8a1.67,1.67,0,0,1-1.7-1.6,1.29,1.29,0,0,1,.4-1.2l5.4-5.8a.85.85,0,0,0,0-1.3l-5.8-5.5a1.72,1.72,0,0,1-.1-2.4h0a1.72,1.72,0,0,1,2.4-.1l7.8,7.3a1.49,1.49,0,0,1,.1,2.2h0l-7.4,7.7A2.59,2.59,0,0,1,492.65,401.8Z" transform="translate(0.01 0)" fill="#ccc"/><path d="M486.75,393.3a1.85,1.85,0,0,1-.7.2l-18.1.5a1,1,0,1,1,0-2h0l18.1-.5a1,1,0,0,1,1,1,1.14,1.14,0,0,1-.3.8Z" transform="translate(0.01 0)" fill="#ccc"/><path d="M352.65,242.4a1.67,1.67,0,0,1-1.7-1.6,1.29,1.29,0,0,1,.4-1.2l5.4-5.8a.85.85,0,0,0,0-1.3l-5.8-5.5a1.72,1.72,0,0,1-.1-2.4h0a1.72,1.72,0,0,1,2.4-.1l7.8,7.3a1.49,1.49,0,0,1,.1,2.2h0l-7.4,7.7A4.13,4.13,0,0,1,352.65,242.4Z" transform="translate(0.01 0)" fill="#ccc"/><path d="M346.65,233.8a.71.71,0,0,1-.6.3l-18.1.5a1,1,0,0,1,0-2l18.1-.5a1,1,0,0,1,1,1A.67.67,0,0,1,346.65,233.8Z" transform="translate(0.01 0)" fill="#ccc"/><path d="M486.65,85.4a1.67,1.67,0,0,1-1.7-1.6,1.29,1.29,0,0,1,.4-1.2l5.4-5.8a.85.85,0,0,0,0-1.3l-5.8-5.5a1.72,1.72,0,0,1-.1-2.4h0a1.72,1.72,0,0,1,2.4-.1l7.8,7.3a1.49,1.49,0,0,1,.1,2.2h0l-7.4,7.7A4.13,4.13,0,0,1,486.65,85.4Z" transform="translate(0.01 0)" fill="#ccc"/><path d="M480.65,76.8a.71.71,0,0,1-.6.3l-18.1.5a1,1,0,0,1,0-2h0l18.1-.5a1,1,0,0,1,1,1A.67.67,0,0,1,480.65,76.8Z" transform="translate(0.01 0)" fill="#ccc"/><path d="M619.25,378.8s-4.6,5.2-5.5,5.5c-2.5,26.3-18.9,32.3-32.1,32.3-9.4,0-17.3-3.1-17-3.9,14.1.4,15.3-5.4,15.3-5.4-8.2-1.3-9.8-6.6-9.8-6.6a3.43,3.43,0,0,0,4.4-1.1c-8.8-2.3-7.6-10.9-7.6-10.9a10.26,10.26,0,0,0,5.3,2.1c-1-1.2-9.3-11.1-4.3-16.2.3.7,8.9,12.5,23.3,11.6a11.5,11.5,0,0,1,9-13.6,16.35,16.35,0,0,1,2.2-.2c7.7,0,9.3,4.4,9.3,4.4l5.5-3.3c-.1,0-.7,5.4-3.4,6.5Z" transform="translate(0.01 0)" fill="#3f3d56"/><path d="M479.95,233.3a30.07,30.07,0,0,1-25.4,29.6V242h7l1.3-8.7h-8.3c-.2-7.2-.5-11.3,8.7-10.3v-7.4c-13.8-3-19.6,4-18,17.7h-7.6V242h7.6v20.9c-35.8-5.5-31.6-59.7,4.7-59.6a30,30,0,0,1,30,30Z" transform="translate(0.01 0)" fill="#3f3d56"/><path d="M353.35,554.4a1.67,1.67,0,0,1-1.7-1.6,1.29,1.29,0,0,1,.4-1.2l5.4-5.8a.85.85,0,0,0,0-1.3l-5.8-5.5a1.72,1.72,0,0,1-.1-2.4h0a1.72,1.72,0,0,1,2.4-.1l7.8,7.3a1.49,1.49,0,0,1,.1,2.2h0l-7.4,7.7A4.13,4.13,0,0,1,353.35,554.4Z" transform="translate(0.01 0)" fill="#ccc"/><path d="M347.25,545.8a.71.71,0,0,1-.6.3l-18.1.5a1,1,0,0,1,0-2l18.1-.5a1,1,0,0,1,1,1A.57.57,0,0,1,347.25,545.8Z" transform="translate(0.01 0)" fill="#ccc"/></svg>