<svg id="a9013b79-320a-4d37-8e30-493d61463795" data-name="Слой 1" xmlns="http://www.w3.org/2000/svg" viewBox="0 0 776.32 488.5"><title>team</title><circle cx="113.44" cy="373.97" r="113.44" fill="#f2f2f2"/><circle cx="114.45" cy="333.46" r="45.24" fill="#2f2e41"/><path d="M227.49,113.64a113.15,113.15,0,1,1,0-.59Q227.5,113.35,227.49,113.64Z" fill="#f2f2f2"/><circle cx="382.63" cy="373.97" r="113.44" fill="#f2f2f2"/><circle cx="382.3" cy="113.44" r="113.44" fill="#f2f2f2"/><circle cx="658.78" cy="113.44" r="113.44" fill="#f2f2f2"/><circle cx="662.88" cy="373.97" r="113.44" fill="#f2f2f2"/><path d="M61.48,76.54c4.69-14.95,15.36-28.66,30.11-33.71s36.35,2.64,47.45,13.7c20.29,20.22,25.24,89.68,11.3,111.63-2.77-.15-12.34-.26-15.14-.36l-4-13.23v13.1q-6.71-.21-13.52-.29A58.82,58.82,0,0,1,59.63,110C59.26,95.44,59.63,82.43,61.48,76.54Z" fill="#2f2e41"/><circle cx="112.37" cy="93.75" r="32.33" fill="#9e616a"/><path d="M84.47,65.36,121.7,46.72h0a46.79,46.79,0,0,1,27.4,38.76L150,96.6l-15.59-4-1.71-14.21-2.65,13.1-7.19-1.83L123,67.63l-7.2,22-25.69-5.9Z" fill="#2f2e41"/><circle cx="351.48" cy="315.39" r="16.02" fill="#2f2e41"/><circle cx="377.1" cy="351.69" r="40.57" fill="#2f2e41"/><circle cx="380.46" cy="359.28" r="32.97" fill="#9e616a"/><path d="M402.85,325.68a37.77,37.77,0,0,0-57.42,33c16.8,4.22,34.45,7.45,52.37,1L402,349.29l2.49,10.36c5.46,2.23,10.93,4.12,16.4,0A38.56,38.56,0,0,0,402.85,325.68Z" fill="#2f2e41"/><path d="M336.57,271.91c-11.07-5.08-25-2.7-34.19,5.27s-13.61,20.92-11.83,33c1.82,12.3,9.29,22.88,16.18,33.23s13.62,21.68,13.61,34.11a33.81,33.81,0,0,1-33.74,33.79c10.51,4.52,21.47,9.14,32.9,8.6s23.4-7.88,25.27-19.17c1.34-8.13-2.65-16.06-6-23.6a167,167,0,0,1-11.67-38.41c-1.11-6.31-1.84-12.95.22-19A22.33,22.33,0,0,1,349.53,305l3.78-3.4C355,289.56,347.64,277,336.57,271.91Z" fill="#2f2e41"/><path d="M612.48,69.07a106.59,106.59,0,0,1-7.6,24.27c-20,42.33,37,28.53,57.34,28.53,22.27,0,43.57,11.71,40.32-40.32-1.39-22.22-18.05-40.32-40.32-40.32C643.2,41.24,616.46,49.69,612.48,69.07Z" fill="#2f2e41"/><circle cx="658.88" cy="89.1" r="32.76" fill="#ffb6b6"/><path d="M636.64,55.71a37.53,37.53,0,0,1,57.06,32.75c-16.69,4.19-34.23,7.4-52,1l-4.2-10.29L635,89.47c-5.42,2.22-10.86,4.09-16.29,0A38.32,38.32,0,0,1,636.64,55.71Z" fill="#2f2e41"/><circle cx="114.47" cy="344.23" r="40.41" fill="#ffb8b8"/><circle cx="386.92" cy="88.02" r="36.99" fill="#ffb8b8"/><path id="319ad630-c45e-4aa6-aa96-024de3abac02" data-name="bd502a69-4a38-4003-a7a1-fa248c8198be-81" d="M419.49,63.58s9.63-18.41-11.56-20.09c0,0-18.06-16.39-36.48-3,0,0-10,0-15.53,11.36,0,0-7.9-3-9.63,5,0,0-5.78,16.74,0,31.8s7.7,16.74,7.7,16.74-4.06-18.69,19.06-20.37,44.32-16.16,46.25,2.26,4,10.09,4,10.09S441.65,71.12,419.49,63.58Z" fill="#2f2e41"/><circle cx="659.75" cy="351.81" r="36.21" fill="#ffb6b6"/><path d="M198.23,448.51A113.4,113.4,0,0,1,39.52,460l9.73-27.15a29.2,29.2,0,0,1,24.8-17l6.19-.38L95,402.69s39.77-1.42,39.18-2.1l24.09,14.49,0-.1,9.47.58a29.18,29.18,0,0,1,24.8,17Z" fill="#6c63ff"/><path d="M468,449.87a113.4,113.4,0,0,1-158.71,11.47L319,434.19a29.2,29.2,0,0,1,24.8-17l6.19-.38,14.76-12.73s39.77-1.42,39.18-2.1L428,416.44l0-.1,9.47.58a29.18,29.18,0,0,1,24.8,17Z" fill="#6c63ff"/><path d="M748,449.87a113.4,113.4,0,0,1-158.71,11.47L599,434.19a29.2,29.2,0,0,1,24.8-17l6.19-.38,14.76-12.73s39.77-1.42,39.18-2.1L708,416.44l0-.1,9.47.58a29.18,29.18,0,0,1,24.8,17Z" fill="#6c63ff"/><path d="M198.23,188.51A113.4,113.4,0,0,1,39.52,200l9.73-27.15a29.2,29.2,0,0,1,24.8-17l6.19-.38L95,142.69s39.77-1.42,39.18-2.1l24.09,14.49,0-.1,9.47.58a29.18,29.18,0,0,1,24.8,17Z" fill="#6c63ff"/><path d="M467,188.87a113.4,113.4,0,0,1-158.71,11.47L318,173.19a29.2,29.2,0,0,1,24.8-17l6.19-.38,14.76-12.73s39.77-1.42,39.18-2.1L427,155.44l0-.1,9.47.58a29.18,29.18,0,0,1,24.8,17Z" fill="#6c63ff"/><path d="M747,188.87a113.4,113.4,0,0,1-158.71,11.47L598,173.19a29.2,29.2,0,0,1,24.8-17l6.19-.38,14.76-12.73s39.77-1.42,39.18-2.1L707,155.44l0-.1,9.47.58a29.18,29.18,0,0,1,24.8,17Z" fill="#6c63ff"/><path d="M697.94,329.35a46.69,46.69,0,0,0-19.55-26.6c-7.6-4.86-17.09-7.35-25.7-4.77s-15.74,11-15.18,20.16c-3.11-1.06-6.64.35-8.92,2.75s-3.5,5.64-4.38,8.86a56.33,56.33,0,0,0,.53,31.19l-.17,1.46c4.2-.7,7.39-4.3,9.37-8.14s3.12-8.1,5.27-11.85,5.72-7.09,10-7.21l-.37,6.5,11-5.66-2.61,6.25,9.59-4-1.07,6c3.17-7.22,13-10.39,19.65-6.35,3.87,2.34,6.42,6.52,7.75,10.91s1.6,9,1.86,13.61A47.6,47.6,0,0,0,697.94,329.35Z" fill="#2f2e41"/><path d="M157.11,330.06a89.42,89.42,0,0,0,.39-9.08,42.73,42.73,0,0,0-3.22-17.49,26.88,26.88,0,0,0-14.07-13.59,25.67,25.67,0,0,0-19.24,0c-5.57-3.52-11.76-6.31-18.28-6.65s-13.41,2.07-17.43,7.4a28.44,28.44,0,0,1-3,4c-3.23,3-8.14,2.56-12.43,1.95l5.78,4.95-7,1.83,8.16,4.95C68.84,313,65.25,323.36,66.2,332.75c.9,8.89,5.19,17,10.32,24.25,2-4.32,1.61-9.49,1.57-14.35a32.49,32.49,0,0,1,.29-4.72c17.34,4.16,35.46,6.83,53.84.22l3.69-9,1.55.16,2.14,8.88c4.84,2,9.7,3.71,14.55,1.89.24,1.37.38,2.77.49,4.11.42-1.61.78-3.23,1.1-4.86a14.36,14.36,0,0,0,1.84-1.17A39.51,39.51,0,0,0,157.11,330.06Z" fill="#2f2e41"/></svg>