<svg id="cec05c63-f39a-48fd-a307-fe5f804b0512" data-name="Слой 1" xmlns="http://www.w3.org/2000/svg" viewBox="0 0 776.32 227.5"><title>team-2</title><path d="M227.49,113.64a113.15,113.15,0,1,1,0-.59Q227.5,113.35,227.49,113.64Z" fill="#f2f2f2"/><circle cx="382.3" cy="113.44" r="113.44" fill="#f2f2f2"/><circle cx="658.78" cy="113.44" r="113.44" fill="#f2f2f2"/><path d="M61.48,76.54c4.69-14.95,15.36-28.66,30.11-33.71s36.35,2.64,47.45,13.7c20.29,20.22,25.24,89.68,11.3,111.63-2.77-.15-12.34-.26-15.14-.36l-4-13.23v13.1q-6.71-.21-13.52-.29A58.82,58.82,0,0,1,59.63,110C59.26,95.44,59.63,82.43,61.48,76.54Z" fill="#2f2e41"/><circle cx="112.37" cy="93.75" r="32.33" fill="#9e616a"/><path d="M84.47,65.36,121.7,46.72h0a46.79,46.79,0,0,1,27.4,38.76L150,96.6l-15.59-4-1.71-14.21-2.65,13.1-7.19-1.83L123,67.63l-7.2,22-25.69-5.9Z" fill="#2f2e41"/><path d="M612.48,69.07a106.59,106.59,0,0,1-7.6,24.27c-20,42.33,37,28.53,57.34,28.53,22.27,0,43.57,11.71,40.32-40.32-1.39-22.22-18.05-40.32-40.32-40.32C643.2,41.24,616.46,49.69,612.48,69.07Z" fill="#2f2e41"/><circle cx="658.88" cy="89.1" r="32.76" fill="#ffb6b6"/><path d="M636.64,55.71a37.53,37.53,0,0,1,57.06,32.75c-16.69,4.19-34.23,7.4-52,1l-4.2-10.29L635,89.47c-5.42,2.22-10.86,4.09-16.29,0A38.32,38.32,0,0,1,636.64,55.71Z" fill="#2f2e41"/><circle cx="386.92" cy="88.02" r="36.99" fill="#ffb8b8"/><path id="76cf05da-b950-43a1-a622-802d9a1d3112" data-name="bd502a69-4a38-4003-a7a1-fa248c8198be-81" d="M419.49,63.58s9.63-18.41-11.56-20.09c0,0-18.06-16.39-36.48-3,0,0-10,0-15.53,11.36,0,0-7.9-3-9.63,5,0,0-5.78,16.74,0,31.8s7.7,16.74,7.7,16.74-4.06-18.69,19.06-20.37,44.32-16.16,46.25,2.26,4,10.09,4,10.09S441.65,71.12,419.49,63.58Z" fill="#2f2e41"/><path d="M198.23,188.51A113.4,113.4,0,0,1,39.52,200l9.73-27.15a29.2,29.2,0,0,1,24.8-17l6.19-.38L95,142.69s39.77-1.42,39.18-2.1l24.09,14.49,0-.1,9.47.58a29.18,29.18,0,0,1,24.8,17Z" fill="#6c63ff"/><path d="M467,188.87a113.4,113.4,0,0,1-158.71,11.47L318,173.19a29.2,29.2,0,0,1,24.8-17l6.19-.38,14.76-12.73s39.77-1.42,39.18-2.1L427,155.44l0-.1,9.47.58a29.18,29.18,0,0,1,24.8,17Z" fill="#6c63ff"/><path d="M747,188.87a113.4,113.4,0,0,1-158.71,11.47L598,173.19a29.2,29.2,0,0,1,24.8-17l6.19-.38,14.76-12.73s39.77-1.42,39.18-2.1L707,155.44l0-.1,9.47.58a29.18,29.18,0,0,1,24.8,17Z" fill="#6c63ff"/></svg>