<svg xmlns="http://www.w3.org/2000/svg" viewBox="0 0 3408.11 1419.86"><title>town</title><g style="isolation:isolate"><g id="a08f72eb-2ad4-4dae-9db8-65e49ca41e03" data-name="Layer 1"><path d="M1247.66,722.81c-6-24-29.13-41.89-56.83-41.89a62.83,62.83,0,0,0-14.72,1.74c-13.67-27.09-43.35-45.86-77.76-45.86a92.08,92.08,0,0,0-25.55,3.58C1054.26,612,1020.6,593,982.15,593c-45.75,0-84.71,26.9-99.48,64.55a76.79,76.79,0,0,0-35.3-8.48c-40.1,0-72.61,30.11-72.61,67.26a63,63,0,0,0,.35,6.53Z" fill="#fff" opacity="0.8"/><path d="M1155.7,373.39c5.08-20.49,24.87-35.77,48.53-35.77a53.63,53.63,0,0,1,12.57,1.49c11.68-23.13,37-39.16,66.41-39.16A78.64,78.64,0,0,1,1305,303c15.82-24.27,44.56-40.49,77.4-40.49,39.07,0,72.34,23,84.95,55.12a65.57,65.57,0,0,1,30.14-7.24c34.24,0,62,25.71,62,57.43a53.79,53.79,0,0,1-.3,5.57Z" fill="#fff" opacity="0.8"/><path d="M1612,689.37c2.86-11.52,14-20.11,27.28-20.11a30.15,30.15,0,0,1,7.07.84c6.56-13,20.81-22,37.33-22a44.21,44.21,0,0,1,12.26,1.72c8.89-13.64,25-22.76,43.51-22.76,22,0,40.66,12.91,47.75,31a36.86,36.86,0,0,1,16.94-4.07c19.25,0,34.85,14.45,34.85,32.28a30.21,30.21,0,0,1-.17,3.13Z" fill="#fff" opacity="0.8"/><path d="M2251.83,771.11c4.46-18,21.82-31.38,42.57-31.38a47,47,0,0,1,11,1.3c10.24-20.29,32.47-34.35,58.25-34.35a69,69,0,0,1,19.13,2.68c13.88-21.28,39.09-35.52,67.89-35.52,34.26,0,63.45,20.14,74.51,48.35a57.51,57.51,0,0,1,26.44-6.35c30,0,54.38,22.55,54.38,50.37a47,47,0,0,1-.26,4.89Z" fill="#fff" opacity="0.8"/><polygon points="3066.24 1448.17 2984.42 1448.17 2984.42 1282.06 2938.75 1282.06 2938.75 1356.02 2873.61 1356.02 2873.61 1332.21 2873.61 1185.59 2766.95 1185.59 2766.95 1341.43 2735.04 1342.43 2735.04 1185.3 2697.82 1185.3 2697.82 1118.34 2675.48 1118.34 2675.48 1073.37 2588.27 1073.37 2588.27 1118.34 2565.94 1118.34 2565.94 1185.3 2528.72 1185.3 2528.72 1270.42 2511.54 1271.42 2506.38 1019.24 2391.52 1019.24 2391.52 1153.4 2351.1 1154.4 2351.1 944.72 2337.28 944.72 2337.28 900.47 2216.03 900.47 2216.03 944.72 2202.2 944.72 2202.2 1190.65 2176.68 1190.65 2176.68 1139.18 2155.41 1139.18 2155.41 1096.09 2124.57 1096.09 2124.57 970.34 2079.9 970.34 2079.9 1096.09 2049.05 1096.09 2049.05 1139.18 2027.78 1139.18 2027.78 1224.36 2001.19 1224.21 2001.19 1115.39 1746.78 1123.35 1686.38 1265.83 1659.8 1265.83 1659.8 1214.86 1593.57 1214.86 1593.57 871.44 1532.93 871.44 1532.93 907.41 1505.27 907.41 1505.27 1186.7 1409.52 1186.7 1409.52 1237.67 1328.33 1237.67 1328.33 1118.35 1200.05 1115.53 1200.05 1288.23 1188.35 1288.37 1173.45 1288.37 1173.45 1139.31 1152.17 1139.31 1152.17 1096.23 1121.32 1096.23 1121.32 970.47 1076.64 970.47 1076.64 1096.23 1045.78 1096.23 1045.78 1139.31 1024.51 1139.31 1024.51 1227.42 998.97 1227.42 998.97 944.86 985.14 944.86 985.14 900.61 863.86 900.61 863.86 944.86 850.03 944.86 850.03 1154.53 809.6 1153.53 809.6 1019.38 744.83 1019.38 743.79 1271.56 725.54 1270.56 725.54 1015.94 635.12 1015.94 635.12 948.98 612.78 948.98 612.78 904.01 525.54 904.01 525.54 948.98 503.19 948.98 503.19 1185.43 465.96 1185.43 465.96 1342.57 434.04 1341.57 434.04 1185.73 327.35 1288.83 327.35 1332.35 327.35 1356.16 256.2 1356.16 256.2 1878.63 1677.75 1878.56 3066.24 1878.49 3066.24 1448.17" fill="#c5ddf9" opacity="0.5" style="mix-blend-mode:multiply"/><path d="M309.1,1226.46c0,85.93-38.12,115.93-85.15,115.93s-85.15-30-85.15-115.93S224,1031.22,224,1031.22,309.1,1140.53,309.1,1226.46Z" fill="#6c63ff"/><polygon points="220.85 1329.25 221.72 1257.34 258.01 1168.37 221.86 1246.06 222.25 1213.72 247.26 1149.35 222.35 1205.16 222.35 1205.16 223.06 1147.01 249.84 1095.76 223.17 1137.86 223.61 1031.22 220.84 1172.39 221.07 1166.57 193.84 1110.71 220.63 1177.75 218.09 1242.7 218.02 1240.98 186.63 1182.2 217.93 1247.07 217.61 1255.19 217.55 1255.31 217.58 1255.98 211.14 1420.77 219.74 1420.77 220.77 1335.65 251.99 1270.94 220.85 1329.25" fill="#3f3d56"/><path d="M3130.83,1268.6c0,68-40.44,91.77-90.31,91.77s-90.31-23.75-90.31-91.77,90.31-154.55,90.31-154.55S3130.83,1200.58,3130.83,1268.6Z" fill="#6c63ff"/><polygon points="3037.22 1349.96 3038.15 1293.04 3076.64 1222.61 3038.29 1284.11 3038.71 1258.51 3065.24 1207.56 3038.82 1251.74 3038.82 1251.74 3039.57 1205.7 3067.97 1165.14 3039.68 1198.46 3040.15 1114.05 3037.22 1225.8 3037.46 1221.19 3008.57 1176.98 3036.99 1230.04 3034.3 1281.45 3034.22 1280.09 3000.93 1233.56 3034.12 1284.91 3033.78 1291.34 3033.72 1291.43 3033.75 1291.96 3026.92 1422.4 3036.05 1422.4 3037.14 1355.03 3070.26 1303.8 3037.22 1349.96" fill="#3f3d56"/><path id="3c937d40-7ef6-4080-89f7-2f8fd10e5d0d" data-name="a58bbeb0-9bd3-48cd-81c7-bf267a60ca0e-78" d="M1874.8,867.34l10.52-8.41c-8.17-.9-11.53,3.55-12.9,7.08-6.38-2.65-13.34.82-13.34.82l21,7.64a15.93,15.93,0,0,0-5.33-7.13Z" fill="#3f3d56"/><path id="78a422d2-036e-43b4-82d5-8615ffff0a66" data-name="f9b938cf-521f-4b64-a4af-443f90f250ff-79" d="M1684.7,802.54l10.52-8.41c-8.17-.9-11.53,3.55-12.9,7.08-6.38-2.65-13.34.82-13.34.82l21,7.64A15.93,15.93,0,0,0,1684.7,802.54Z" fill="#3f3d56"/><path id="d03b35db-eec8-45a8-8a19-3abafe3e3e03" data-name="a8da215e-7841-4236-9b2d-2b5040889003-80" d="M1949.46,818.2l10.52-8.41c-8.17-.9-11.53,3.55-12.9,7.08-6.38-2.65-13.34.82-13.34.82l21,7.64a15.93,15.93,0,0,0-5.33-7.13Z" fill="#3f3d56"/></g></g></svg>