<?xml version="1.0" encoding="UTF-8"?>
<svg xmlns="http://www.w3.org/2000/svg" xmlns:xlink="http://www.w3.org/1999/xlink" viewBox="0 0 48 48" width="48px" height="48px">
<g id="surface11002504">
<path style=" stroke:none;fill-rule:nonzero;fill:rgb(14.509805%,82.745099%,40.000001%);fill-opacity:1;" d="M 24 48 C 10.746094 48 0 37.253906 0 24 C 0 10.746094 10.746094 0 24 0 C 37.253906 0 48 10.746094 48 24 C 48 37.253906 37.253906 48 24 48 Z M 24 48 "/>
<path style=" stroke:none;fill-rule:nonzero;fill:rgb(100%,100%,100%);fill-opacity:1;" d="M 24.019531 8 C 15.207031 8 8.039062 15.164062 8.035156 23.976562 C 8.03125 26.789062 8.769531 29.539062 10.167969 31.960938 L 8 40 L 16.371094 38.023438 C 18.707031 39.296875 21.332031 39.964844 24.007812 39.964844 L 24.015625 39.964844 C 32.824219 39.964844 39.992188 32.796875 39.996094 23.992188 C 40 19.71875 38.339844 15.707031 35.320312 12.683594 C 32.304688 9.664062 28.292969 8 24.019531 8 Z M 24.015625 11.199219 C 27.433594 11.203125 30.644531 12.535156 33.058594 14.945312 C 35.472656 17.363281 36.800781 20.574219 36.796875 23.988281 C 36.792969 31.035156 31.0625 36.765625 24.011719 36.765625 C 21.878906 36.765625 19.765625 36.226562 17.90625 35.210938 L 16.828125 34.625 L 15.636719 34.90625 L 12.488281 35.648438 L 13.253906 32.792969 L 13.601562 31.511719 L 12.941406 30.363281 C 11.824219 28.429688 11.230469 26.21875 11.234375 23.976562 C 11.238281 16.933594 16.96875 11.199219 24.015625 11.199219 Z M 18.363281 16.601562 C 18.09375 16.601562 17.664062 16.699219 17.296875 17.101562 C 16.929688 17.5 15.894531 18.464844 15.894531 20.429688 C 15.894531 22.394531 17.328125 24.292969 17.527344 24.558594 C 17.726562 24.824219 20.289062 28.984375 24.347656 30.585938 C 27.722656 31.914062 28.40625 31.652344 29.140625 31.585938 C 29.871094 31.519531 31.503906 30.621094 31.835938 29.6875 C 32.167969 28.753906 32.171875 27.953125 32.070312 27.789062 C 31.972656 27.621094 31.707031 27.523438 31.304688 27.320312 C 30.90625 27.121094 28.945312 26.15625 28.578125 26.023438 C 28.210938 25.890625 27.941406 25.824219 27.675781 26.226562 C 27.414062 26.625 26.648438 27.523438 26.414062 27.789062 C 26.179688 28.054688 25.949219 28.089844 25.550781 27.890625 C 25.148438 27.6875 23.863281 27.265625 22.335938 25.90625 C 21.148438 24.847656 20.347656 23.542969 20.113281 23.144531 C 19.882812 22.746094 20.09375 22.527344 20.292969 22.328125 C 20.472656 22.148438 20.691406 21.863281 20.890625 21.628906 C 21.089844 21.394531 21.15625 21.226562 21.289062 20.960938 C 21.421875 20.695312 21.355469 20.460938 21.253906 20.261719 C 21.15625 20.0625 20.378906 18.089844 20.023438 17.300781 C 19.726562 16.636719 19.410156 16.621094 19.125 16.609375 C 18.894531 16.601562 18.628906 16.601562 18.363281 16.601562 Z M 18.363281 16.601562 "/>
</g>
</svg>
