<svg id="dbb038d3-55e5-4f47-b492-4e0aeff3188f" data-name="Background" xmlns="http://www.w3.org/2000/svg" xmlns:xlink="http://www.w3.org/1999/xlink" viewBox="0 0 750 500"><defs><clipPath id="e95b555c-402b-4d68-a392-81b83fa8c4d1"><rect id="6d6caf6e-bfb6-43b4-81c4-858ef8c910d2" data-name="&lt;Прямоугольник&gt;" width="750" height="500" fill="none"/></clipPath></defs><title>298_Abstract_background6</title><g id="f2e10d17-c89c-4f93-8dbe-b5a04f8a6c90" data-name="&lt;Группа обтравки&gt;"><g clip-path="url(#e95b555c-402b-4d68-a392-81b83fa8c4d1)"><g id="9bad4876-9b1b-4aea-9bcd-930ca8091b07" data-name="&lt;Группа&gt;"><g id="686da950-2e97-45e2-b18b-eecdd00f807f" data-name="&lt;Группа&gt;"><path id="2eef3d41-5fdc-4ce0-8340-04dbb82eaad8" data-name="&lt;Контур&gt;" d="M4.46,78.49A3.73,3.73,0,0,1-.94,76.93c-1.23-2.34-.63-4.58,1.51-5.68A3.88,3.88,0,0,1,5.87,73C7,75.29,6.49,77.4,4.46,78.49Z" fill="#9a8bf2" opacity="0.8"/><path id="99d1af9d-caf2-48a2-b691-9b967ca480c1" data-name="&lt;Контур&gt;" d="M1,101.68A3.88,3.88,0,0,1-4.31,100a3.88,3.88,0,0,1,1.62-5.32,3.89,3.89,0,0,1,5.34,1.56A3.88,3.88,0,0,1,1,101.68Z" fill="#9a8bf2" opacity="0.8"/><path id="cba49708-8b51-40a5-a121-4976a4497caa" data-name="&lt;Контур&gt;" d="M11.31,32.26A4.08,4.08,0,0,1,5.94,30.4,4.22,4.22,0,0,1,7.51,25a4.19,4.19,0,0,1,5.41,1.87A4,4,0,0,1,11.31,32.26Z" fill="#9a8bf2" opacity="0.8"/><path id="653e7814-ca4e-4aa4-a39e-f04449b405f1" data-name="&lt;Контур&gt;" d="M9.72,50.08A3.88,3.88,0,0,1,8,55.37a3.88,3.88,0,0,1-5.31-1.65,3.89,3.89,0,0,1,1.76-5.42A3.87,3.87,0,0,1,9.72,50.08Z" fill="#9a8bf2" opacity="0.8"/><path id="aea43977-ab09-41ba-8ab9-333ee00e8b0b" data-name="&lt;Контур&gt;" d="M16.34,3.38A4.05,4.05,0,0,1,15,8.93,4,4,0,0,1,9.7,7.13a3.45,3.45,0,0,1,1.63-5C13.51,1.15,15.41,1.56,16.34,3.38Z" fill="#9a8bf2" opacity="0.8"/><path id="fa798ef4-73a9-4365-af32-0b6974b28718" data-name="&lt;Контур&gt;" d="M19,63.42c1.17,2.28.73,3.93-1.34,5s-3.73.55-4.79-1.51c-1.18-2.29-.69-4.06,1.39-5.1A3.28,3.28,0,0,1,19,63.42Z" fill="#9a8bf2" opacity="0.8"/><path id="aa53a273-3e0b-498a-bdd9-6b3a2b5c63b6" data-name="&lt;Контур&gt;" d="M14.36,91.59a3.64,3.64,0,1,1,1.49-5A3.57,3.57,0,0,1,14.36,91.59Z" fill="#9a8bf2" opacity="0.8"/><path id="1461a7bf-95c3-48b6-9742-126e7bd166b9" data-name="&lt;Контур&gt;" d="M12.24,110.12a3.51,3.51,0,0,1-1.74,4.74,3.59,3.59,0,1,1,1.74-4.74Z" fill="#9a8bf2" opacity="0.8"/><path id="8061e1fd-b1bd-4395-bd21-2fc31bbda2c9" data-name="&lt;Контур&gt;" d="M21.22,45.29a3.59,3.59,0,1,1,1.67-4.76A3.5,3.5,0,0,1,21.22,45.29Z" fill="#9a8bf2" opacity="0.8"/><path id="ffb416f4-5a44-434f-9fa4-332e73d96c51" data-name="&lt;Контур&gt;" d="M7.3,137.78a3.66,3.66,0,0,1-4.81-1.56c-1-2-.49-3.61,1.51-4.65s3.67-.58,4.7,1.36A3.67,3.67,0,0,1,7.3,137.78Z" fill="#9a8bf2" opacity="0.8"/><path id="f46d6550-afa5-4a48-8191-48ff95b9d37f" data-name="&lt;Контур&gt;" d="M26.09,17.38a3.52,3.52,0,1,1-4.84-1.46A3.54,3.54,0,0,1,26.09,17.38Z" fill="#9a8bf2" opacity="0.8"/><path id="85d9bfbe-c86f-4602-9694-394c5117333e" data-name="&lt;Контур&gt;" d="M26.46,57.06A3.33,3.33,0,1,1,31,58.48,3.35,3.35,0,0,1,26.46,57.06Z" fill="#9a8bf2" opacity="0.8"/><path id="adf313f5-bf6d-462d-a5de-abf8f048ec84" data-name="&lt;Контур&gt;" d="M5.43,156.35A3.57,3.57,0,0,1,4,161.1a3.6,3.6,0,0,1-4.59-1.61A3.33,3.33,0,0,1,1,155.05,3.23,3.23,0,0,1,5.43,156.35Z" fill="#9a8bf2" opacity="0.8"/><path id="f734d94b-8a1d-469b-8f44-e78abab70bf3" data-name="&lt;Контур&gt;" d="M29,76.8a3.6,3.6,0,0,1-1.35,4.78,3.6,3.6,0,0,1-4.7-1.7,3.31,3.31,0,0,1,1.55-4.29A3.27,3.27,0,0,1,29,76.8Z" fill="#9a8bf2" opacity="0.8"/><path id="f8ffec01-45fa-4a45-905e-769cbd965df5" data-name="&lt;Контур&gt;" d="M23.95,104.79a3.33,3.33,0,1,1,1.42-4.52A3.35,3.35,0,0,1,23.95,104.79Z" fill="#9a8bf2" opacity="0.8"/><path id="177e45d7-01ea-4d23-bc64-f9f99ed7dde7" data-name="&lt;Контур&gt;" d="M29.77,33.51c-1-1.91-.54-3.62,1.17-4.52s3.42-.29,4.37,1.59a2.92,2.92,0,0,1-1.36,4.34A2.91,2.91,0,0,1,29.77,33.51Z" fill="#9a8bf2" opacity="0.8"/><path id="810b57b6-94c8-417d-ad5e-1840a14af43b" data-name="&lt;Контур&gt;" d="M21.83,123.34c.95,1.86.46,3.46-1.33,4.35a2.91,2.91,0,0,1-4.19-1.38c-1-1.92-.57-3.62,1.13-4.53A3,3,0,0,1,21.83,123.34Z" fill="#9a8bf2" opacity="0.8"/><path id="b64a2e57-516d-4652-badb-cf1039dd686e" data-name="&lt;Контур&gt;" d="M.28,184.1A3.11,3.11,0,0,1-4,182.67a3.33,3.33,0,0,1,1.21-4.46,3.36,3.36,0,0,1,4.25,1.39A3.14,3.14,0,0,1,.28,184.1Z" fill="#9a8bf2" opacity="0.8"/><path id="8900b32a-c276-4ee0-9afd-1dada25718e0" data-name="&lt;Контур&gt;" d="M33.42,10.22a3.33,3.33,0,0,1,1.22-4.46,3.41,3.41,0,0,1,4.25,1.4,3.14,3.14,0,1,1-5.47,3.06Z" fill="#9a8bf2" opacity="0.8"/><path id="ba2de2ff-b54f-453b-a442-baf1cea5a553" data-name="&lt;Контур&gt;" d="M33,93a3,3,0,1,1,4,1.4A3.15,3.15,0,0,1,33,93Z" fill="#9a8bf2" opacity="0.8"/><path id="5422816f-7376-48c1-ab28-bb3b97d8ed6c" data-name="&lt;Контур&gt;" d="M12.66,149.56a3.12,3.12,0,1,1,4.17,1.36A3.14,3.14,0,0,1,12.66,149.56Z" fill="#9a8bf2" opacity="0.8"/><path id="052e874d-86d2-4a20-987c-96f63f356176" data-name="&lt;Контур&gt;" d="M36.22,69.87a2.86,2.86,0,0,1,1.37-4c1.73-.88,3.26-.49,4,1a3.34,3.34,0,0,1-1.25,4.49A3.41,3.41,0,0,1,36.22,69.87Z" fill="#9a8bf2" opacity="0.8"/><path id="f84e98d9-aa7d-4dc5-8f2c-f1d6707e0f26" data-name="&lt;Контур&gt;" d="M29.46,116.45c-.59-1.49-.71-2.87,1.45-3.89a2.71,2.71,0,0,1,3.77.87A3.32,3.32,0,0,1,33.54,118,3.13,3.13,0,0,1,29.46,116.45Z" fill="#9a8bf2" opacity="0.8"/><path id="b49e30d0-4eaa-49d0-8ab9-4b3c1f4bdab8" data-name="&lt;Контур&gt;" d="M39.94,46.54c-.79-2-.2-3.1,1.48-3.88a2.7,2.7,0,0,1,3.75.9A3.3,3.3,0,0,1,44,48.09,3.16,3.16,0,0,1,39.94,46.54Z" fill="#9a8bf2" opacity="0.8"/><path id="a8b54806-cbb9-47d9-b9ab-9eb8d757b03e" data-name="&lt;Контур&gt;" d="M14.44,169.73c1,1.85.66,3-1,3.86s-2.9.54-3.79-1.22-.62-3.13,1.07-4S13.54,168,14.44,169.73Z" fill="#9a8bf2" opacity="0.8"/><path id="d8dcdcdf-16b9-4162-a1e3-34b24e836189" data-name="&lt;Контур&gt;" d="M43.56,23.51a2.76,2.76,0,0,1,1.11-4,2.88,2.88,0,0,1,3.65,1.3c.91,1.71.58,3.07-.95,3.91A2.55,2.55,0,0,1,43.56,23.51Z" fill="#9a8bf2" opacity="0.8"/><path id="b76a4c98-1f98-4dd7-8979-4d1b20fb0d2d" data-name="&lt;Контур&gt;" d="M26.33,139.35a2.83,2.83,0,0,1,1.2-3.83A2.86,2.86,0,0,1,31.27,137c.83,1.7.41,3-1.21,3.82S27.17,141.06,26.33,139.35Z" fill="#9a8bf2" opacity="0.8"/><path id="0bec3b9d-503f-4f44-9dbd-757ed2e0afa4" data-name="&lt;Контур&gt;" d="M5.91,195.5A3,3,0,0,1,7,191.66,3.08,3.08,0,0,1,10.77,193a2.91,2.91,0,0,1-1.07,3.88A2.89,2.89,0,0,1,5.91,195.5Z" fill="#9a8bf2" opacity="0.8"/><path id="f94ce79a-5943-43db-8791-f7c05f5c1995" data-name="&lt;Контур&gt;" d="M23,162.33c-.68-1.44-.21-2.57,1.37-3.36s2.77-.49,3.56,1.14a2.91,2.91,0,0,1-1.23,3.74A2.93,2.93,0,0,1,23,162.33Z" fill="#9a8bf2" opacity="0.8"/><path id="0a2ce1c0-be8f-4719-bb68-0d7a9a08437a" data-name="&lt;Контур&gt;" d="M46.62,82.85c-.69-1.44-.23-2.58,1.35-3.36s2.78-.51,3.57,1.12a2.71,2.71,0,1,1-4.92,2.25Z" fill="#9a8bf2" opacity="0.8"/><path id="f028e894-c640-44e5-8c86-a679f78faf36" data-name="&lt;Контур&gt;" d="M50.12,60.08a2.67,2.67,0,1,1,3.52,1.18A2.78,2.78,0,0,1,50.12,60.08Z" fill="#9a8bf2" opacity="0.8"/><path id="5a874872-9d9d-4fed-b813-d202f25f53e3" data-name="&lt;Контур&gt;" d="M43,106.09c-.66-1.53-.09-2.6,1.3-3.31a2.43,2.43,0,0,1,3.52,1.13A2.65,2.65,0,1,1,43,106.09Z" fill="#9a8bf2" opacity="0.8"/><path id="744e93f4-6d74-4839-be9b-d8429a03e240" data-name="&lt;Контур&gt;" d="M47.28.32a2.78,2.78,0,0,1,1.19-3.65,2.78,2.78,0,0,1,3.65,1.19,2.78,2.78,0,0,1-1.19,3.65A2.78,2.78,0,0,1,47.28.32Z" fill="#9a8bf2" opacity="0.8"/><path id="d87dd178-1370-4a39-8af8-b2ae0d5bfe39" data-name="&lt;Контур&gt;" d="M53.83,36.6c-.54-1.32-.57-2.61,1.19-3.29,1.53-.78,2.66-.45,3.4,1.06a2.58,2.58,0,0,1-1.18,3.54A2.48,2.48,0,0,1,53.83,36.6Z" fill="#9a8bf2" opacity="0.8"/><path id="224ee119-c7ed-48de-8ed1-e7d2823d5d45" data-name="&lt;Контур&gt;" d="M39.86,129.25c-.57-1.3-.63-2.59,1.28-3.4a2.16,2.16,0,0,1,3.25,1.08,2.58,2.58,0,0,1-1.11,3.56A2.48,2.48,0,0,1,39.86,129.25Z" fill="#9a8bf2" opacity="0.8"/><path id="6fce815b-33d8-4679-8bf2-d3bef7c57765" data-name="&lt;Контур&gt;" d="M19.74,185.59c-.69-1.38-.36-2.92,1-3.37s2.55-.46,3.17,1.12.41,2.76-.95,3.39A2.16,2.16,0,0,1,19.74,185.59Z" fill="#9a8bf2" opacity="0.8"/><path id="67650496-3b38-4f3f-a8dd-3443dbb651ef" data-name="&lt;Контур&gt;" d="M3.17,218.9A2.22,2.22,0,0,1,4,215.51a2.14,2.14,0,0,1,3.2.9c.8,1.4.52,2.82-.76,3.47A2.26,2.26,0,0,1,3.17,218.9Z" fill="#9a8bf2" opacity="0.8"/><path id="fb26cf0b-33a0-4fc1-a1cf-e8377d49ff9f" data-name="&lt;Контур&gt;" d="M36.52,152.79a2.21,2.21,0,0,1,.92-3.36,2.12,2.12,0,0,1,3.17,1c.78,1.42.46,2.81-.86,3.44A2.26,2.26,0,0,1,36.52,152.79Z" fill="#9a8bf2" opacity="0.8"/><path id="6d8a5ec8-1f3d-41d5-8126-c8ec19c0d198" data-name="&lt;Контур&gt;" d="M57.34,13.6a2.17,2.17,0,0,1,1-3.13,2.18,2.18,0,0,1,3.27.93c.74,1.36.29,2.47-1.07,3.36A2.31,2.31,0,0,1,57.34,13.6Z" fill="#9a8bf2" opacity="0.8"/><path id="171d028a-9f4e-4bd9-8776-f9bc65b8da4d" data-name="&lt;Контур&gt;" d="M60.2,73.27a2.28,2.28,0,0,1,4.09-2c.67,1.27.17,2.35-1,3.14A2.29,2.29,0,0,1,60.2,73.27Z" fill="#9a8bf2" opacity="0.8"/><path id="fd407b87-a216-4f33-828e-48d06d29b09a" data-name="&lt;Контур&gt;" d="M56.88,96.38a2.08,2.08,0,0,1,.93-3c1.26-.68,2.41-.51,3.1.82A2.19,2.19,0,0,1,60,97.36,2.26,2.26,0,0,1,56.88,96.38Z" fill="#9a8bf2" opacity="0.8"/><path id="a1a4d03c-a0af-4175-a2c3-1ef238db460f" data-name="&lt;Контур&gt;" d="M33.22,175.68c-.62-1.36,0-2.36,1.27-2.94s2.23-.13,3,1.16a2.27,2.27,0,0,1-1.17,3A2.19,2.19,0,0,1,33.22,175.68Z" fill="#9a8bf2" opacity="0.8"/><path id="ee76e76a-848f-4cf5-bd62-b53605692e19" data-name="&lt;Контур&gt;" d="M53.53,119.38a2.12,2.12,0,0,1,1.2-3.06,2,2,0,0,1,2.89,1,2.18,2.18,0,0,1-1,3.13A2.27,2.27,0,0,1,53.53,119.38Z" fill="#9a8bf2" opacity="0.8"/><path id="06398581-d5e5-42b0-8f04-a8db16164bc2" data-name="&lt;Контур&gt;" d="M16.5,208.64a2,2,0,0,1,.92-2.91,2.12,2.12,0,0,1,3.17.87,2.27,2.27,0,0,1-1,3.1A2.18,2.18,0,0,1,16.5,208.64Z" fill="#9a8bf2" opacity="0.8"/><path id="6ed8e830-d817-4cd5-b55b-421696e08913" data-name="&lt;Контур&gt;" d="M63.82,49.88c-.62-1.36,0-2.36,1.27-2.94A2.07,2.07,0,0,1,68,48a2.26,2.26,0,0,1-1.13,3.07A2.19,2.19,0,0,1,63.82,49.88Z" fill="#9a8bf2" opacity="0.8"/><path id="3a65c2cc-dd1c-42c3-9c0c-91a41a182363" data-name="&lt;Контур&gt;" d="M67.08,26.47a1.81,1.81,0,0,1,1-2.8,1.74,1.74,0,0,1,2.73.46,2.29,2.29,0,0,1-.64,3.38A2.12,2.12,0,0,1,67.08,26.47Z" fill="#9a8bf2" opacity="0.8"/><path id="29e2cbfc-078e-4f0b-9988-fd946b3de9e4" data-name="&lt;Контур&gt;" d="M50.19,142.57c-.76-1.31-.49-2.38.76-3,1-.46,2.13-.48,2.58.85.71,1.23.73,2.23-.64,2.94A1.77,1.77,0,0,1,50.19,142.57Z" fill="#9a8bf2" opacity="0.8"/><path id="2cc32271-1497-4e74-8df5-efda3df65b53" data-name="&lt;Контур&gt;" d="M.07,241.49c-.8-1.18-.15-2.15.93-2.67a1.83,1.83,0,0,1,2.71,1.12c.52,1.22.39,2.07-.84,2.7S.68,242.87.07,241.49Z" fill="#9a8bf2" opacity="0.8"/><path id="87b96805-1519-44dc-b326-16a3d6896213" data-name="&lt;Контур&gt;" d="M30,198.27c-.51-.83,0-1.88,1.08-2.43a1.86,1.86,0,0,1,2.64,1c.59,1.19.45,2.14-.78,2.78S30.81,199.87,30,198.27Z" fill="#9a8bf2" opacity="0.8"/><path id="b38248d2-3e4f-4287-8840-c23d625d2b64" data-name="&lt;Контур&gt;" d="M70.91,3.12A1.85,1.85,0,0,1,71.69.39a1.92,1.92,0,0,1,2.79,1.05,1.9,1.9,0,0,1-.9,2.79A1.88,1.88,0,0,1,70.91,3.12Z" fill="#9a8bf2" opacity="0.8"/><path id="affe2e87-afeb-401a-92ba-b41678f23fbe" data-name="&lt;Контур&gt;" d="M46.91,165.63a1.79,1.79,0,0,1,.82-2.62,1.94,1.94,0,1,1,1.81,3.44A1.79,1.79,0,0,1,46.91,165.63Z" fill="#9a8bf2" opacity="0.8"/><path id="07361156-fc71-4dd9-bf67-5020d10673c8" data-name="&lt;Контур&gt;" d="M13.13,231.75c-.66-1.12-.14-1.9.78-2.52,1.06-.46,2-.57,2.61.63a1.9,1.9,0,0,1-.78,2.79A1.88,1.88,0,0,1,13.13,231.75Z" fill="#9a8bf2" opacity="0.8"/><path id="55dbadf2-2297-4610-aeaa-72baaa9f9b35" data-name="&lt;Контур&gt;" d="M70.53,86.15a1.64,1.64,0,0,1,1-2.3c1.06-.54,1.94-.37,2.68.95a1.93,1.93,0,0,1-1,2.52A1.9,1.9,0,0,1,70.53,86.15Z" fill="#9a8bf2" opacity="0.8"/><path id="47975bdd-1256-4ce6-bf02-704592e89a9d" data-name="&lt;Контур&gt;" d="M73.68,62.75a1.64,1.64,0,0,1,1-2.3,1.75,1.75,0,0,1,2.62.82,2,2,0,1,1-3.6,1.49Z" fill="#9a8bf2" opacity="0.8"/><path id="40e1d441-c20e-4c87-8221-38b695db5d60" data-name="&lt;Контур&gt;" d="M77.45,39.54c-.53-1.12,0-1.83,1.16-2.37a1.47,1.47,0,0,1,2.22.82A1.81,1.81,0,0,1,80,40.6,1.83,1.83,0,0,1,77.45,39.54Z" fill="#9a8bf2" opacity="0.8"/><path id="8ee786af-b7f5-4717-a2e6-096ff55951d9" data-name="&lt;Контур&gt;" d="M63.63,132.48c-.53-1.13,0-1.82,1.2-2.38a1.47,1.47,0,0,1,2.19.85,1.8,1.8,0,0,1-.85,2.61A1.83,1.83,0,0,1,63.63,132.48Z" fill="#9a8bf2" opacity="0.8"/><path id="3d830a27-41b9-48eb-820d-c5c1d7fc19a1" data-name="&lt;Контур&gt;" d="M67,109.62a1.88,1.88,0,1,1,3.44-1.51A1.88,1.88,0,1,1,67,109.62Z" fill="#9a8bf2" opacity="0.8"/><path id="42f2558b-b4cf-4cb9-93c7-6a95c9c158ca" data-name="&lt;Контур&gt;" d="M43.52,188.58a1.45,1.45,0,0,1,.54-2.34c1-.55,1.75-.12,2.27.92s.45,1.67-.64,2.21S44,189.72,43.52,188.58Z" fill="#9a8bf2" opacity="0.8"/><path id="fdbd1f45-1615-42a8-be27-e72f2234d777" data-name="&lt;Контур&gt;" d="M26.85,221.72c-.54-1.06-.36-1.86.71-2.34s1.73.1,2.22,1.09.24,1.72-.79,2.12C27.87,223.24,27.34,222.67,26.85,221.72Z" fill="#9a8bf2" opacity="0.8"/><path id="61f8c24d-2a02-45fd-a639-bd2ff910631a" data-name="&lt;Контур&gt;" d="M60.57,155.43a1.59,1.59,0,1,1,2.21.89A1.5,1.5,0,0,1,60.57,155.43Z" fill="#9a8bf2" opacity="0.8"/><path id="9281a349-b59f-4d32-889d-54c95156fc4e" data-name="&lt;Контур&gt;" d="M81.16,16.59a1.58,1.58,0,0,1,.37-2.37,1.47,1.47,0,0,1,2.2.5c.59,1.08.53,1.93-.42,2.49A1.46,1.46,0,0,1,81.16,16.59Z" fill="#9a8bf2" opacity="0.8"/><path id="071f918c-e204-4676-aa5c-68fa7f27a149" data-name="&lt;Контур&gt;" d="M80.5,99.14c-.52-1,0-1.42.78-1.82s1.58-.58,2,.53a1.53,1.53,0,0,1-.61,2.17C81.77,100.52,81,100.1,80.5,99.14Z" fill="#9a8bf2" opacity="0.8"/><path id="b40aee9f-f0ed-4403-a04e-30264b807494" data-name="&lt;Контур&gt;" d="M56.75,178.37c-.49-.75.26-1.21,1.05-1.61s1.46-.46,1.9.53.29,1.85-.69,2.29S57.38,179.57,56.75,178.37Z" fill="#9a8bf2" opacity="0.8"/><path id="8c408c90-8f44-4d3c-852f-b1d57d6e1632" data-name="&lt;Контур&gt;" d="M84.24,76c-.61-1-.09-1.55,1.18-2.19.45-.26,1.17-.26,1.61.81A1.56,1.56,0,1,1,84.24,76Z" fill="#9a8bf2" opacity="0.8"/><path id="a8ab0687-a865-49f1-97c2-9854eb461172" data-name="&lt;Контур&gt;" d="M87.81,53.17a1.38,1.38,0,0,1,.47-2,1.25,1.25,0,0,1,1.94.49,1.58,1.58,0,0,1-.65,2.08A1.44,1.44,0,0,1,87.81,53.17Z" fill="#9a8bf2" opacity="0.8"/><path id="37bb15de-8ccc-4bdc-a033-12728f1ffbd2" data-name="&lt;Контур&gt;" d="M77.5,122.54a1.38,1.38,0,0,1,.45-2,1.25,1.25,0,0,1,1.95.48,1.58,1.58,0,0,1-.65,2.09A1.44,1.44,0,0,1,77.5,122.54Z" fill="#9a8bf2" opacity="0.8"/><path id="35ceb845-25b4-4a71-8ffd-7941d6db8409" data-name="&lt;Контур&gt;" d="M74,145.64c-.37-.77-.31-1.34.53-1.73s1.28.08,1.65.78.29,1.35-.75,1.83C74.8,146.81,74.37,146.37,74,145.64Z" fill="#9a8bf2" opacity="0.8"/><path id="0ecf8181-09a7-4d65-9867-310cb3b4fedb" data-name="&lt;Контур&gt;" d="M70.79,168.84a.94.94,0,0,1,.46-1.43c.64-.33,1.22-.42,1.61.38a1.16,1.16,0,1,1-2.07,1Z" fill="#9a8bf2" opacity="0.8"/><path id="e3f72914-6675-46a2-aaf7-92c1f3426ad7" data-name="&lt;Контур&gt;" d="M94.38,89.32c-.38-.77,0-1.19.66-1.5a1,1,0,0,1,1.42.49,1.17,1.17,0,1,1-2.08,1Z" fill="#9a8bf2" opacity="0.8"/><path id="7e4324f0-727f-47ac-b65c-0105aa35087d" data-name="&lt;Контур&gt;" d="M94.91,6.5c-.38-.77,0-1.19.66-1.5A1,1,0,0,1,97,5.49a1.17,1.17,0,1,1-2.08,1Z" fill="#9a8bf2" opacity="0.8"/><path id="8473bc55-fd68-497a-a72e-bc02379945fc" data-name="&lt;Контур&gt;" d="M91.16,29.88a1.17,1.17,0,0,1,.48-1.66,1.19,1.19,0,0,1,1.8.46,1.29,1.29,0,1,1-2.29,1.2Z" fill="#9a8bf2" opacity="0.8"/><path id="d19b78c8-e6c3-4941-8627-407fdd02d370" data-name="&lt;Контур&gt;" d="M90.91,112c-.25-.42.3-.66.73-.88s1-.58,1.3.08.33,1.34-.4,1.68S91.44,112.75,90.91,112Z" fill="#9a8bf2" opacity="0.8"/><path id="c745a7e1-ff59-41a4-b22e-911456817613" data-name="&lt;Контур&gt;" d="M97.66,66c-.3-.64.31-.88.76-1.08s1-.49,1.23.27c.19.62.19,1.25-.42,1.54A1.16,1.16,0,0,1,97.66,66Z" fill="#9a8bf2" opacity="0.8"/><path id="6cc5cb31-61a3-46da-8079-7e06650a770f" data-name="&lt;Контур&gt;" d="M101.44,42.93c-.55-.67,0-.93.45-1.17s1.05-.73,1.41.15a1.26,1.26,0,0,1-.37,1.59A1.29,1.29,0,0,1,101.44,42.93Z" fill="#9a8bf2" opacity="0.8"/><path id="b8db2550-362a-4707-8f2c-dd6459d44be5" data-name="&lt;Контур&gt;" d="M87.44,135.51c-.51-.67.07-.93.48-1.16s1.06-.71,1.4.18a1.25,1.25,0,0,1-.39,1.57A1.29,1.29,0,0,1,87.44,135.51Z" fill="#9a8bf2" opacity="0.8"/></g></g><path id="c266584b-1244-444f-b001-fc39e8a87530" data-name="&lt;Контур&gt;" d="M760-39.63c-38.85-.57-80,1.26-112.53,22.55S596.67,51.66,619.18,83.33c10.62,14.94,27.74,23.53,42.65,34.2,48.33,34.59,75.22,96.9,67.23,155.81-3.75,27.6-14.48,55.48-7.77,82.5,8,32.18,38.65,53.58,69.47,65.81" fill="none" stroke="#6c63ff" stroke-miterlimit="10" stroke-width="5"/><g id="2f5ecafc-fd34-433b-b5a8-3e899e1a0908" data-name="&lt;Группа&gt;"><g id="0b298e67-78ab-480b-b272-a1308e588d9a" data-name="&lt;Группа&gt;"><path id="7cdbb1a8-c82f-4eb0-b970-3848fea8fbe8" data-name="&lt;Контур&gt;" d="M750.54,373.66a3.46,3.46,0,1,1-.68,4.9A3.55,3.55,0,0,1,750.54,373.66Z" fill="#9a8bf2"/><path id="a56d5c8c-8306-47ed-873d-b2fe3fe41ac0" data-name="&lt;Контур&gt;" d="M749.8,354.52a3.06,3.06,0,0,1,4.5.42c1.41,1.72,1.32,3.53-.23,4.85a3.25,3.25,0,0,1-4.59-.53C748.12,357.58,748.24,355.76,749.8,354.52Z" fill="#9a8bf2"/><path id="25f248d8-b7b6-44f2-8b6c-c687519d17a9" data-name="&lt;Контур&gt;" d="M743.36,422.78a3.08,3.08,0,0,1,4.62.4c1.37,1.7,1.25,3.61-.31,4.84a3.21,3.21,0,0,1-4.58-.61C741.78,425.79,741.89,424,743.36,422.78Z" fill="#9a8bf2"/><path id="d90b100a-f320-4e09-a5b6-9d017595bc96" data-name="&lt;Контур&gt;" d="M742.45,403.44a3.27,3.27,0,1,1-.48,4.68A3.2,3.2,0,0,1,742.45,403.44Z" fill="#9a8bf2"/><path id="0129ed9f-c8f5-47b5-a50d-f008268edafa" data-name="&lt;Контур&gt;" d="M745.23,461.34a3.37,3.37,0,0,1,4.65.65,3.23,3.23,0,1,1-5.09,4A3.29,3.29,0,0,1,745.23,461.34Z" fill="#9a8bf2"/><path id="740a57e5-a01f-4e0a-a11d-704a3bbac2d3" data-name="&lt;Контур&gt;" d="M743.65,446.65a3.27,3.27,0,1,1,4.55.6A3.2,3.2,0,0,1,743.65,446.65Z" fill="#9a8bf2"/><path id="97fdca81-8155-4456-ad0c-80f1a532b958" data-name="&lt;Контур&gt;" d="M741.34,383.95a3.36,3.36,0,0,1,4.56.73,3.22,3.22,0,0,1-5.17,3.84A3.36,3.36,0,0,1,741.34,383.95Z" fill="#9a8bf2"/><path id="7feadf56-9505-4c7d-813c-d9baa6399598" data-name="&lt;Контур&gt;" d="M745.79,485.55a3.35,3.35,0,0,1,.21-4.72,3.31,3.31,0,0,1,4.57.62,2.85,2.85,0,0,1-.52,4.27C748.44,486.9,746.83,486.88,745.79,485.55Z" fill="#9a8bf2"/><path id="2b76bde4-bcc6-4af6-88cb-a3759faf8d99" data-name="&lt;Контур&gt;" d="M748.91,335.29a3.29,3.29,0,0,1,4.45.64c1.1,1.45,1.13,3.22-.58,4.37-1.52,1.18-3.21,1.06-4.23-.3A3.34,3.34,0,0,1,748.91,335.29Z" fill="#9a8bf2"/><path id="9653bb2d-355f-4b42-9197-e3b0f6c24518" data-name="&lt;Контур&gt;" d="M740.5,364.7a3.14,3.14,0,1,1-.45,4.36A3.21,3.21,0,0,1,740.5,364.7Z" fill="#9a8bf2"/><path id="5b137a1d-3c10-4d2e-9012-e72526d7c126" data-name="&lt;Контур&gt;" d="M734,437.32c-1.32-1.66-1.22-3.07.28-4.26a2.62,2.62,0,0,1,4.12.45c1.32,1.67,1.21,3.18-.31,4.36A2.71,2.71,0,0,1,734,437.32Z" fill="#9a8bf2"/><path id="8dd21b7a-a611-40ad-9185-fd15765f1bc6" data-name="&lt;Контур&gt;" d="M733.23,413.76a3,3,0,1,1-.41,4.27A2.95,2.95,0,0,1,733.23,413.76Z" fill="#9a8bf2"/><path id="03d9f4c8-8869-4da4-a9e4-055201716855" data-name="&lt;Контур&gt;" d="M747.24,500.19a2.83,2.83,0,0,1,4.17.68,3.11,3.11,0,0,1-.45,4.21,3.16,3.16,0,0,1-4.28-.81A2.8,2.8,0,0,1,747.24,500.19Z" fill="#9a8bf2"/><path id="15b00de8-8928-46bc-94cf-786d8b2bc6aa" data-name="&lt;Контур&gt;" d="M732,398.41a3,3,0,1,1,4.24.61A2.9,2.9,0,0,1,732,398.41Z" fill="#9a8bf2"/><path id="89ddd721-01b2-48e1-aeb0-1137e2acf3aa" data-name="&lt;Контур&gt;" d="M735.11,452.37a3,3,0,1,1-.59,4.12A2.89,2.89,0,0,1,735.11,452.37Z" fill="#9a8bf2"/><path id="38e0ea73-22ea-4d5a-9d7f-697bdf3dbdc7" data-name="&lt;Контур&gt;" d="M739.72,345.57a2.93,2.93,0,1,1-.52,4.14A2.89,2.89,0,0,1,739.72,345.57Z" fill="#9a8bf2"/><path id="53791cde-7add-4630-9e43-5251a8ae317c" data-name="&lt;Контур&gt;" d="M731.54,375.2a3,3,0,0,1,4.14.5,2.91,2.91,0,0,1-4.51,3.67A3,3,0,0,1,731.54,375.2Z" fill="#9a8bf2"/><path id="9793b9cf-bb08-4759-b7e0-119f7454d536" data-name="&lt;Контур&gt;" d="M748,316.31a3,3,0,0,1,4.14.55,2.91,2.91,0,0,1-4.56,3.6A3,3,0,0,1,748,316.31Z" fill="#9a8bf2"/><path id="db09a162-701d-485a-ad66-aced6295c017" data-name="&lt;Контур&gt;" d="M741.48,491.83a2.55,2.55,0,0,1-.59,3.82c-1.56,1.22-2.68,1-4-.34-1.08-1.17-.5-3.35.42-4.12A3.13,3.13,0,0,1,741.48,491.83Z" fill="#9a8bf2"/><path id="5f8f16a1-e679-45e4-aaa9-30d055664101" data-name="&lt;Контур&gt;" d="M735.64,475.77a2.91,2.91,0,1,1,4.15.4A2.92,2.92,0,0,1,735.64,475.77Z" fill="#9a8bf2"/><path id="ffbb59a4-cbde-4e41-9d9d-6e897a3b4bdd" data-name="&lt;Контур&gt;" d="M729,443.68a2.75,2.75,0,1,1-3.87-.43A2.77,2.77,0,0,1,729,443.68Z" fill="#9a8bf2"/><path id="5f127cbd-3336-49ce-a61c-1cd5551484c0" data-name="&lt;Контур&gt;" d="M730.07,359.85a2.81,2.81,0,1,1,4.37-3.51,2.75,2.75,0,0,1-.54,3.84A2.67,2.67,0,0,1,730.07,359.85Z" fill="#9a8bf2"/><path id="ad42e83d-0a20-4dc2-88fe-251a37dd014b" data-name="&lt;Контур&gt;" d="M739,326.3a3,3,0,0,1,4,.51,2.81,2.81,0,0,1-4.32,3.58A3,3,0,0,1,739,326.3Z" fill="#9a8bf2"/><path id="18caff9c-e8e6-4917-9e4e-169a65386d7f" data-name="&lt;Контур&gt;" d="M723.74,428.09a2.81,2.81,0,1,1,4.41-3.46,2.73,2.73,0,0,1-.57,3.72A2.7,2.7,0,0,1,723.74,428.09Z" fill="#9a8bf2"/><path id="3fa3d1a5-b903-497d-b8a3-69810de09487" data-name="&lt;Контур&gt;" d="M723.34,404.61a2.75,2.75,0,1,1-.42,3.89A2.76,2.76,0,0,1,723.34,404.61Z" fill="#9a8bf2"/><path id="c2a481c5-c313-4ab0-af75-fcc71f55cf2c" data-name="&lt;Контур&gt;" d="M730.07,463.29c1.1,1.39,1,2.85-.22,3.85a2.51,2.51,0,0,1-3.8-.59,2.59,2.59,0,1,1,4-3.26Z" fill="#9a8bf2"/><path id="553b0ee1-a64c-408f-9915-8ab9d0fd9c68" data-name="&lt;Контур&gt;" d="M722.08,389.23a2.59,2.59,0,1,1,4-3.29c1.11,1.4,1,2.84-.19,3.85A2.52,2.52,0,0,1,722.08,389.23Z" fill="#9a8bf2"/><path id="c7352992-757f-4d4d-8044-55661cbf139b" data-name="&lt;Контур&gt;" d="M747.3,296.86a2.51,2.51,0,0,1,3.63.49,2.59,2.59,0,0,1-.26,3.85,2.75,2.75,0,0,1-3.37-4.34Z" fill="#9a8bf2"/><path id="8d703c3e-ce51-42f9-a42e-718c534ff6d7" data-name="&lt;Контур&gt;" d="M729.79,336.54a2.57,2.57,0,0,1,3.69.47,2.75,2.75,0,0,1-.26,3.81,2.78,2.78,0,0,1-3.67-.44A2.6,2.6,0,0,1,729.79,336.54Z" fill="#9a8bf2"/><path id="7ee5003c-a417-400c-a017-6c000089ff6a" data-name="&lt;Контур&gt;" d="M730.85,482.75a2.75,2.75,0,0,1-.27,3.81,2.82,2.82,0,0,1-3.67-.45,2.59,2.59,0,1,1,3.94-3.36Z" fill="#9a8bf2"/><path id="418a7ad6-c02e-4c45-90cb-a92967df4567" data-name="&lt;Контур&gt;" d="M737.71,310.84a2.57,2.57,0,0,1,4-3.18,2.57,2.57,0,1,1-4,3.18Z" fill="#9a8bf2"/><path id="be5c7880-c753-4f61-87b2-6490536be31a" data-name="&lt;Контур&gt;" d="M717.91,415.58a2.51,2.51,0,1,1-3.48-.49A2.6,2.6,0,0,1,717.91,415.58Z" fill="#9a8bf2"/><path id="9a176eb3-3b22-4948-81e4-2b0ee754c102" data-name="&lt;Контур&gt;" d="M725.3,366.51a2.58,2.58,0,1,1-3.59-.43A2.59,2.59,0,0,1,725.3,366.51Z" fill="#9a8bf2"/><path id="6f80a811-2e4f-4d27-9222-8961edb9c813" data-name="&lt;Контур&gt;" d="M719,434.86a2.37,2.37,0,0,1-.47,3.42c-1.26,1-2.57.92-3.41-.17a2.76,2.76,0,0,1,.29-3.84A2.82,2.82,0,0,1,719,434.86Z" fill="#9a8bf2"/><path id="44dd3b3c-1986-472e-a26b-41d590e9fa1f" data-name="&lt;Контур&gt;" d="M717,396c.72,1.11,1,2.22-.55,3.39a2.24,2.24,0,0,1-3.19-.1,2.74,2.74,0,0,1,.19-3.86A2.59,2.59,0,0,1,717,396Z" fill="#9a8bf2"/><path id="fd392120-681a-46a7-bd3e-1a8ff03266fd" data-name="&lt;Контур&gt;" d="M719.74,454.37c1,1.5.66,2.48-.58,3.38a2.23,2.23,0,0,1-3.19-.13,2.73,2.73,0,0,1,.21-3.85A2.61,2.61,0,0,1,719.74,454.37Z" fill="#9a8bf2"/><path id="ae4ff68e-3fb9-491a-b8ba-f87704b7250f" data-name="&lt;Контур&gt;" d="M729,317.59c1.27-1,2.25-.88,3.26.43s1,2.42-.27,3.39-2.27.75-3.34-.65C727.68,319.5,727.78,318.53,729,317.59Z" fill="#9a8bf2"/><path id="90116b48-2a0b-4904-857b-2013ad9bca79" data-name="&lt;Контур&gt;" d="M720.62,350.46c-1.07-1.35-1-2.32.2-3.29s2.26-.91,3.27.38,1,2.43-.23,3.39S721.63,351.73,720.62,350.46Z" fill="#9a8bf2"/><path id="5643b1f6-ef67-4c06-960b-8f4e45562720" data-name="&lt;Контур&gt;" d="M720.5,473.61a2.28,2.28,0,0,1-.26,3.42,2.38,2.38,0,0,1-3.17-.47c-1-1.24-1-2.39.14-3.32A2.11,2.11,0,0,1,720.5,473.61Z" fill="#9a8bf2"/><path id="a83110bd-19d1-4292-b426-77dd535248ad" data-name="&lt;Контур&gt;" d="M746.48,277.9a2.11,2.11,0,0,1,3.27.54,2.28,2.28,0,0,1-.32,3.3,2.35,2.35,0,0,1-3.27-.55A2.1,2.1,0,0,1,746.48,277.9Z" fill="#9a8bf2"/><path id="3a6c32c0-e589-4313-8c81-ddfddabb59b6" data-name="&lt;Контур&gt;" d="M715.86,377a2.34,2.34,0,0,1-.36,3.3,2.36,2.36,0,0,1-3.27-.59,2.1,2.1,0,0,1,.37-3.29C713.76,375.52,714.91,375.73,715.86,377Z" fill="#9a8bf2"/><path id="d0d6672e-d752-4e95-aae5-6dd03791d66a" data-name="&lt;Контур&gt;" d="M737.42,291.5a2.44,2.44,0,0,1,0-3.33,2.39,2.39,0,0,1,3.31.27,2.52,2.52,0,0,1-.19,3.42A2.56,2.56,0,0,1,737.42,291.5Z" fill="#9a8bf2"/><path id="59ddf550-2fb8-4bb6-adad-f9484dd8f82d" data-name="&lt;Контур&gt;" d="M723.39,328.2a2.51,2.51,0,0,1-.27,3.29,2.55,2.55,0,0,1-3.27-.46,2.27,2.27,0,1,1,3.53-2.83Z" fill="#9a8bf2"/><path id="125e1d4b-3694-48ed-9938-d4ed9b75a261" data-name="&lt;Контур&gt;" d="M714.87,357.83c.78,1.06.59,2-.57,2.94s-2.17.85-3.07-.35a2.24,2.24,0,1,1,3.64-2.59Z" fill="#9a8bf2"/><path id="0f53af0d-c3fa-4a5c-9c4b-dd81c75ce269" data-name="&lt;Контур&gt;" d="M708.5,426c.79,1.06.6,2.05-.55,2.94s-2.17.86-3.07-.33A2.24,2.24,0,1,1,708.5,426Z" fill="#9a8bf2"/><path id="801bcd8f-16ed-41b7-8d8c-360502a7f384" data-name="&lt;Контур&gt;" d="M709.32,445a2.21,2.21,0,1,1-3-.39A2.3,2.3,0,0,1,709.32,445Z" fill="#9a8bf2"/><path id="e72816cc-f1b3-4faf-942a-c4de56db3efb" data-name="&lt;Контур&gt;" d="M707.68,406.61a1.92,1.92,0,0,1-.52,2.89,2,2,0,0,1-3-.35,2.19,2.19,0,1,1,3.55-2.55Z" fill="#9a8bf2"/><path id="4bcb8e38-7cbf-4caa-a09c-f4d5ec79b840" data-name="&lt;Контур&gt;" d="M721.21,493a2.24,2.24,0,1,1-3.15-.38A2.29,2.29,0,0,1,721.21,493Z" fill="#9a8bf2"/><path id="0e7f5760-79fa-455a-a867-243f7ab21e58" data-name="&lt;Контур&gt;" d="M728.36,298.15a2.3,2.3,0,0,1,3.13.6,1.92,1.92,0,0,1-.5,2.89,2,2,0,0,1-3-.33A2.3,2.3,0,0,1,728.36,298.15Z" fill="#9a8bf2"/><path id="0b9af047-7f25-4bb2-86c8-f74f90c26090" data-name="&lt;Контур&gt;" d="M710.08,464.65c.65,1,.88,2-.43,2.85a1.82,1.82,0,0,1-2.93-.31,2.13,2.13,0,0,1,.39-3.06A2.05,2.05,0,0,1,710.08,464.65Z" fill="#9a8bf2"/><path id="5d7082e5-5cb7-4364-8e1c-ccea643c007f" data-name="&lt;Контур&gt;" d="M706.52,387.34c.67,1,.92,2-.5,3a1.78,1.78,0,0,1-2.81-.35,2.13,2.13,0,0,1,.33-3.07A2,2,0,0,1,706.52,387.34Z" fill="#9a8bf2"/><path id="9f47a491-a405-49e3-991a-fadabac526ab" data-name="&lt;Контур&gt;" d="M713.78,338.45c.78,1,.76,2.31-.23,2.88s-2,.78-2.75-.4A1.86,1.86,0,0,1,711,338,1.79,1.79,0,0,1,713.78,338.45Z" fill="#9a8bf2"/><path id="7b3b40f9-e5a9-4417-9746-6246e5a9a4d5" data-name="&lt;Контур&gt;" d="M721.86,308.81a1.83,1.83,0,0,1-.12,2.88,1.76,1.76,0,0,1-2.73-.21,1.92,1.92,0,0,1,.06-2.93A1.87,1.87,0,0,1,721.86,308.81Z" fill="#9a8bf2"/><path id="18617015-2eea-4462-b4f8-a01463f207d8" data-name="&lt;Контур&gt;" d="M705.45,367.73a1.82,1.82,0,0,1-.21,2.87,1.75,1.75,0,0,1-2.73-.3,1.9,1.9,0,0,1,.14-2.92A1.87,1.87,0,0,1,705.45,367.73Z" fill="#9a8bf2"/><path id="49e0a212-cdef-41c2-9521-1223079cf2c5" data-name="&lt;Контур&gt;" d="M710.92,483.85a2,2,0,0,1-3.08,2.46c-.82-1-.63-2,.33-2.9A1.91,1.91,0,0,1,710.92,483.85Z" fill="#9a8bf2"/><path id="ac92549a-d1c2-45cb-8011-f7e2c493520c" data-name="&lt;Контур&gt;" d="M699,436a1.89,1.89,0,0,1-3,2.29,1.89,1.89,0,1,1,3-2.29Z" fill="#9a8bf2"/><path id="cbc71168-a890-48e2-a866-9f9105abfa23" data-name="&lt;Контур&gt;" d="M698,416.7a1.72,1.72,0,0,1-.27,2.58,1.67,1.67,0,0,1-2.64-.16,1.81,1.81,0,0,1,.23-2.71A1.87,1.87,0,0,1,698,416.7Z" fill="#9a8bf2"/><path id="e68cce80-311b-4250-8cfe-67ca16c1dd43" data-name="&lt;Контур&gt;" d="M704.45,348.65a1.68,1.68,0,0,1-.56,2.59,1.74,1.74,0,0,1-2.58-.47,1.88,1.88,0,0,1,.46-2.62A1.81,1.81,0,0,1,704.45,348.65Z" fill="#9a8bf2"/><path id="e72a385d-14a3-4d4a-8765-569abebdc668" data-name="&lt;Контур&gt;" d="M697,397.53a1.75,1.75,0,0,1-.48,2.67,1.63,1.63,0,0,1-2.5-.35,1.8,1.8,0,0,1,.32-2.7A1.87,1.87,0,0,1,697,397.53Z" fill="#9a8bf2"/><path id="b1462de0-48e5-428c-8f28-c4916e744b63" data-name="&lt;Контур&gt;" d="M712.71,319.26a1.63,1.63,0,0,1-.28,2.51,1.75,1.75,0,0,1-2.71-.19,1.87,1.87,0,0,1,.29-2.67A1.8,1.8,0,0,1,712.71,319.26Z" fill="#9a8bf2"/><path id="b614436d-c565-441d-97f0-e06aa3a86c3d" data-name="&lt;Контур&gt;" d="M699.85,455.49a1.68,1.68,0,0,1-.55,2.59,1.71,1.71,0,0,1-2.54-.42,1.87,1.87,0,0,1,.42-2.67A1.81,1.81,0,0,1,699.85,455.49Z" fill="#9a8bf2"/><path id="f1168794-5a25-4cbf-b5ab-6b60b6cbac2f" data-name="&lt;Контур&gt;" d="M701,475a1.49,1.49,0,0,1-.34,2.42,1.44,1.44,0,0,1-2.29.07,1.9,1.9,0,0,1,0-2.84A1.75,1.75,0,0,1,701,475Z" fill="#9a8bf2"/><path id="631f38c9-ddb4-4a64-a4a8-89a5437c3aeb" data-name="&lt;Контур&gt;" d="M696,378.2a1.55,1.55,0,0,1-.14,2.53c-.71.53-1.64.73-2.23-.28-.78-.88-.95-1.69,0-2.48A1.46,1.46,0,0,1,696,378.2Z" fill="#9a8bf2"/><path id="3ceb6174-559b-427a-8360-7d4af75db5dc" data-name="&lt;Контур&gt;" d="M720.75,290c.84.83.47,1.72-.32,2.31a1.51,1.51,0,0,1-2.38-.48c-.62-.91-.65-1.62.24-2.32S720,289,720.75,290Z" fill="#9a8bf2"/><path id="a07755ec-2ba1-45e4-b1b4-1fa27e1cff86" data-name="&lt;Контур&gt;" d="M703.45,329.83c.55.59.29,1.53-.49,2.14a1.54,1.54,0,0,1-2.31-.41,1.5,1.5,0,0,1,.18-2.38C701.73,328.47,702.52,328.67,703.45,329.83Z" fill="#9a8bf2"/><path id="32c7ff79-c34c-4f73-9a34-92af199046a1" data-name="&lt;Контур&gt;" d="M701.61,494.52a1.53,1.53,0,0,1-.19,2.34,1.58,1.58,0,0,1-2.43-.4,1.64,1.64,0,1,1,2.62-1.94Z" fill="#9a8bf2"/><path id="04809a59-3ac9-4b28-9554-d86b54073c6b" data-name="&lt;Контур&gt;" d="M695,359a1.48,1.48,0,0,1-.24,2.26,1.6,1.6,0,1,1-2-2.5A1.48,1.48,0,0,1,695,359Z" fill="#9a8bf2"/><path id="040bef39-c78c-4861-a515-a0ffe7839c26" data-name="&lt;Контур&gt;" d="M711.73,300c.72.8.42,1.51-.23,2.16s-1.54.78-2.22-.09a1.57,1.57,0,0,1,.19-2.38A1.55,1.55,0,0,1,711.73,300Z" fill="#9a8bf2"/><path id="b9dbe09b-dfd2-45c4-808e-5f10b84d64c1" data-name="&lt;Контур&gt;" d="M688.59,427.19a1.36,1.36,0,0,1-.44,2c-.78.61-1.51.61-2.32-.34a1.59,1.59,0,0,1,.43-2.21A1.57,1.57,0,0,1,688.59,427.19Z" fill="#9a8bf2"/><path id="1f7811bd-59ff-4d6a-abfa-ab94495d5881" data-name="&lt;Контур&gt;" d="M689.8,446.65a1.35,1.35,0,0,1-.43,2,1.44,1.44,0,0,1-2.26-.24,1.61,1.61,0,1,1,2.68-1.78Z" fill="#9a8bf2"/><path id="40ab18ca-d736-4e79-8340-2d782e0a3a87" data-name="&lt;Контур&gt;" d="M690.47,466.06c.61.82.3,1.48-.55,2.11a1.22,1.22,0,0,1-1.93-.31,1.49,1.49,0,0,1,.26-2.25A1.51,1.51,0,0,1,690.47,466.06Z" fill="#9a8bf2"/><path id="07a72740-dd75-4b83-9f9f-f9c2afad9b3e" data-name="&lt;Контур&gt;" d="M686.75,388.54c.61.83.28,1.48-.59,2.12a1.21,1.21,0,0,1-1.91-.34,1.49,1.49,0,0,1,.27-2.25A1.52,1.52,0,0,1,686.75,388.54Z" fill="#9a8bf2"/><path id="29a5dc26-caf9-49e5-adf4-3f6c7543d854" data-name="&lt;Контур&gt;" d="M687.66,407.6a1.55,1.55,0,1,1-2.54,1.77,1.55,1.55,0,1,1,2.54-1.77Z" fill="#9a8bf2"/><path id="930ec845-c95f-4959-a2b1-c1d7aaabf7af" data-name="&lt;Контур&gt;" d="M694,339.85a1.2,1.2,0,0,1-.06,2c-.75.61-1.4.38-2-.38s-.63-1.28.16-1.89S693.49,339,694,339.85Z" fill="#9a8bf2"/><path id="1f659a5d-889f-4fdc-aca3-ad9fcab483d9" data-name="&lt;Контур&gt;" d="M702.22,310.32c.61.78.59,1.45-.2,2s-1.42.2-2-.53-.47-1.36.3-1.85C701.15,309.26,701.67,309.63,702.22,310.32Z" fill="#9a8bf2"/><path id="7329324f-a426-4009-9d9b-e5bb941112b5" data-name="&lt;Контур&gt;" d="M685.54,369.45a1.31,1.31,0,1,1-1.93-.37A1.24,1.24,0,0,1,685.54,369.45Z" fill="#9a8bf2"/><path id="8a55058e-2bf0-480e-8c65-198e1e8634b5" data-name="&lt;Контур&gt;" d="M691.14,485.25a1.31,1.31,0,0,1,.08,2,1.21,1.21,0,0,1-1.86-.06c-.65-.78-.74-1.48-.06-2.08A1.21,1.21,0,0,1,691.14,485.25Z" fill="#9a8bf2"/><path id="f42ee83d-8d99-4b99-bdc4-e1542e9547c9" data-name="&lt;Контур&gt;" d="M678.43,418.26c.58.71.19,1.16-.34,1.6s-1.19.72-1.75-.1a1.26,1.26,0,0,1,.14-1.86C677.18,417.35,677.86,417.56,678.43,418.26Z" fill="#9a8bf2"/><path id="8a63a97a-7d49-4390-9fc0-89096d878446" data-name="&lt;Контур&gt;" d="M685,350.25c.52.53,0,1-.59,1.47s-1.11.61-1.63-.12a1.27,1.27,0,0,1,.19-2C683.58,349.17,684.25,349.38,685,350.25Z" fill="#9a8bf2"/><path id="acb8513a-2789-4db5-bd98-96b3f23ede84" data-name="&lt;Контур&gt;" d="M679.11,437.58c.66.72.32,1.24-.6,2-.33.28-.91.4-1.43-.4a1.29,1.29,0,1,1,2-1.56Z" fill="#9a8bf2"/><path id="0cc5750c-ff2d-43c8-ae97-eb3240994ecb" data-name="&lt;Контур&gt;" d="M679.88,456.68a1.14,1.14,0,0,1-.06,1.71,1,1,0,0,1-1.65-.09,1.3,1.3,0,0,1,.19-1.79A1.19,1.19,0,0,1,679.88,456.68Z" fill="#9a8bf2"/><path id="7df2dafb-7a51-4f0e-8bd7-2a03b7af3efc" data-name="&lt;Контур&gt;" d="M677.1,398.82a1.14,1.14,0,0,1,0,1.71,1,1,0,0,1-1.66-.07,1.31,1.31,0,0,1,.19-1.8A1.19,1.19,0,0,1,677.1,398.82Z" fill="#9a8bf2"/><path id="d9c8cdd0-8bf2-4c24-b9c1-7348c7134095" data-name="&lt;Контур&gt;" d="M676.22,379.54c.43.57.46,1-.15,1.49s-1.05.14-1.46-.37-.45-1,.31-1.61C675.4,378.72,675.81,379,676.22,379.54Z" fill="#9a8bf2"/><path id="da62a15c-f2b2-4348-9553-7dc75b20214e" data-name="&lt;Контур&gt;" d="M675.11,360.23a.78.78,0,0,1-.15,1.23c-.46.37-.92.54-1.36-.05a1,1,0,1,1,1.51-1.18Z" fill="#9a8bf2"/><path id="4b92d8b6-0d31-4ef3-a7c0-cee7bb698840" data-name="&lt;Контур&gt;" d="M668.76,428.44c.43.56.19,1-.3,1.33a.78.78,0,0,1-1.23-.17,1,1,0,1,1,1.52-1.16Z" fill="#9a8bf2"/><path id="20ad90f1-fc4b-4924-92e8-897b8c5560a3" data-name="&lt;Контур&gt;" d="M681.62,495.63c.43.56.19,1-.3,1.33a.78.78,0,0,1-1.23-.17,1,1,0,1,1,1.52-1.16Z" fill="#9a8bf2"/><path id="86fa171d-754e-4ac3-b4d2-35aa5af9da0d" data-name="&lt;Контур&gt;" d="M680.9,476.09a1,1,0,0,1-.12,1.42,1,1,0,0,1-1.54-.08,1.07,1.07,0,1,1,1.66-1.34Z" fill="#9a8bf2"/><path id="07591dd1-1691-464e-b0ea-66ae00b2125a" data-name="&lt;Контур&gt;" d="M667.94,409.53c.27.3-.14.58-.45.83s-.7.63-1.07.14-.48-1,.05-1.43S667.38,409,667.94,409.53Z" fill="#9a8bf2"/><path id="25a817af-2405-433b-acbb-e4dec14f3e86" data-name="&lt;Контур&gt;" d="M669.85,447.88c.35.47-.11.77-.44,1s-.72.56-1,0-.36-1,.09-1.32A1,1,0,0,1,669.85,447.88Z" fill="#9a8bf2"/><path id="5f05784a-029a-4f29-9c26-491ed314855b" data-name="&lt;Контур&gt;" d="M670.48,467.16c.56.46.12.76-.17,1s-.73.76-1.16.11a1,1,0,0,1,0-1.35A1.06,1.06,0,0,1,670.48,467.16Z" fill="#9a8bf2"/><path id="d1052206-d780-409a-9c7f-e1fd3a7f92cd" data-name="&lt;Контур&gt;" d="M667,389.9c.52.46.09.76-.2,1s-.74.75-1.16.08a1,1,0,0,1,.06-1.33A1.06,1.06,0,0,1,667,389.9Z" fill="#9a8bf2"/></g></g></g></g></svg>