<svg id="b12078b9-3fed-4e1d-b3e4-53612502de22" data-name="Background" xmlns="http://www.w3.org/2000/svg" xmlns:xlink="http://www.w3.org/1999/xlink" viewBox="0 0 750 500"><defs><clipPath id="1aefab64-4d59-4c9a-a1d9-1da9beada063"><rect id="b730df86-b650-4506-ae3a-f7af5158f435" data-name="&lt;Прямоугольник&gt;" width="750" height="500" fill="none"/></clipPath></defs><title>298_Abstract_background7</title><g id="67aa4fd4-7162-4796-ab19-e73db56a2efb" data-name="&lt;Группа обтравки&gt;"><g clip-path="url(#1aefab64-4d59-4c9a-a1d9-1da9beada063)"><g id="84eed4aa-0b9f-44dc-a852-dddb84b6526e" data-name="&lt;Группа&gt;"><g id="5a6e17cb-4482-4bb7-a3e4-9685ddc42fb0" data-name="&lt;Группа&gt;"><path id="4a186bd7-4030-47ff-8816-6c2721d212c0" data-name="&lt;Контур&gt;" d="M750.38,40.27a4.08,4.08,0,0,0,5.37-1.86,3.92,3.92,0,1,0-7-3.53A4,4,0,0,0,750.38,40.27Z" fill="#9a8bf2" opacity="0.8"/><path id="d1de68aa-7549-4581-ba7b-60cb1458f43b" data-name="&lt;Контур&gt;" d="M745.34,11.39a4.05,4.05,0,0,0,1.36,5.56,4,4,0,0,0,5.28-1.8,3.45,3.45,0,0,0-1.63-5C748.18,9.16,746.27,9.57,745.34,11.39Z" fill="#9a8bf2" opacity="0.8"/><path id="184148cb-bb43-4aa9-acf0-62753bdbf602" data-name="&lt;Контур&gt;" d="M742.72,71.43c-1.17,2.28-.73,3.93,1.34,5s3.73.55,4.79-1.51c1.18-2.29.69-4.06-1.39-5.1A3.28,3.28,0,0,0,742.72,71.43Z" fill="#9a8bf2" opacity="0.8"/><path id="1ce4faab-ec3f-4cda-b531-d1c5f369bf5e" data-name="&lt;Контур&gt;" d="M747.33,99.6a3.64,3.64,0,1,0-1.49-5A3.57,3.57,0,0,0,747.33,99.6Z" fill="#9a8bf2" opacity="0.8"/><path id="8225bfb7-553f-43b9-b914-1028f1070b11" data-name="&lt;Контур&gt;" d="M749.44,118.13a3.59,3.59,0,1,0,4.89-1.72A3.51,3.51,0,0,0,749.44,118.13Z" fill="#9a8bf2" opacity="0.8"/><path id="f72b5bf0-24d1-47a6-87cc-fc3ea044235e" data-name="&lt;Контур&gt;" d="M740.47,53.31a3.59,3.59,0,1,0-1.67-4.76A3.5,3.5,0,0,0,740.47,53.31Z" fill="#9a8bf2" opacity="0.8"/><path id="6e66a6fe-baaa-4fa1-a771-47a6ff444fac" data-name="&lt;Контур&gt;" d="M738.75,4.94a3.09,3.09,0,0,0-1.6-4.4c-2.14-1.08-3.43-.59-4.61,1.33-1,1.64.2,4.1,1.47,4.79A3.79,3.79,0,0,0,738.75,4.94Z" fill="#9a8bf2" opacity="0.8"/><path id="2624d151-6444-4781-a761-a5641a95c8f7" data-name="&lt;Контур&gt;" d="M735.59,25.39a3.52,3.52,0,1,0,4.84-1.46A3.54,3.54,0,0,0,735.59,25.39Z" fill="#9a8bf2" opacity="0.8"/><path id="f2261de4-1662-47fe-bc05-a6eb918d773e" data-name="&lt;Контур&gt;" d="M735.22,65.07a3.33,3.33,0,1,0-4.5,1.42A3.35,3.35,0,0,0,735.22,65.07Z" fill="#9a8bf2" opacity="0.8"/><path id="914ad860-4fbd-429b-a3e4-64aab68d6f84" data-name="&lt;Контур&gt;" d="M732.68,84.81a3.4,3.4,0,1,0,6,3.08,3.31,3.31,0,0,0-1.55-4.29A3.27,3.27,0,0,0,732.68,84.81Z" fill="#9a8bf2" opacity="0.8"/><path id="cc32932a-9797-4887-a7a4-70d86c303307" data-name="&lt;Контур&gt;" d="M737.74,112.8a3.33,3.33,0,1,0-1.42-4.52A3.35,3.35,0,0,0,737.74,112.8Z" fill="#9a8bf2" opacity="0.8"/><path id="5a2cd86e-c1c1-473d-a969-a0d20ffdc7d2" data-name="&lt;Контур&gt;" d="M731.91,41.52c1-1.91.54-3.62-1.17-4.52s-3.42-.29-4.37,1.59a3.13,3.13,0,1,0,5.54,2.92Z" fill="#9a8bf2" opacity="0.8"/><path id="578568c0-3962-49fa-a619-27eadc7de3a0" data-name="&lt;Контур&gt;" d="M739.86,131.35c-.95,1.86-.46,3.46,1.33,4.35a2.91,2.91,0,0,0,4.19-1.38c1-1.92.57-3.62-1.13-4.53A3,3,0,0,0,739.86,131.35Z" fill="#9a8bf2" opacity="0.8"/><path id="5c50fee6-21af-4c46-af95-2edd9d5cbd44" data-name="&lt;Контур&gt;" d="M728.27,18.23a3.33,3.33,0,0,0-1.22-4.46,3.41,3.41,0,0,0-4.25,1.4,3.14,3.14,0,1,0,5.47,3.06Z" fill="#9a8bf2" opacity="0.8"/><path id="59e213a1-2825-4793-af96-17d315ae942f" data-name="&lt;Контур&gt;" d="M728.7,101a3,3,0,1,0-4,1.4A3.15,3.15,0,0,0,728.7,101Z" fill="#9a8bf2" opacity="0.8"/><path id="d1df8707-41ec-44db-b27c-2d3333f60a61" data-name="&lt;Контур&gt;" d="M749,157.57a3.12,3.12,0,1,0-4.17,1.36A3.14,3.14,0,0,0,749,157.57Z" fill="#9a8bf2" opacity="0.8"/><path id="ab0d0c83-d8be-40bd-bdab-627876435590" data-name="&lt;Контур&gt;" d="M725.47,77.88a2.86,2.86,0,0,0-1.37-4c-1.73-.88-3.26-.49-4,1a3.34,3.34,0,0,0,1.25,4.49A3.41,3.41,0,0,0,725.47,77.88Z" fill="#9a8bf2" opacity="0.8"/><path id="c01e11e7-5d0a-41c1-af40-ea7f0ca3511e" data-name="&lt;Контур&gt;" d="M732.23,124.46c.59-1.49.71-2.87-1.45-3.89a2.71,2.71,0,0,0-3.77.87,3.32,3.32,0,0,0,1.13,4.54A3.13,3.13,0,0,0,732.23,124.46Z" fill="#9a8bf2" opacity="0.8"/><path id="c6e26693-82eb-4398-9644-91bee710b652" data-name="&lt;Контур&gt;" d="M721.75,54.55c.79-2,.2-3.1-1.48-3.88a2.7,2.7,0,0,0-3.75.9,3.3,3.3,0,0,0,1.16,4.53A3.16,3.16,0,0,0,721.75,54.55Z" fill="#9a8bf2" opacity="0.8"/><path id="07d437c0-a5bf-4e4f-9eba-04f870bbc0b0" data-name="&lt;Контур&gt;" d="M747.25,177.74c-1,1.85-.66,3,1,3.86s2.9.54,3.79-1.22.63-3.13-1.07-4S748.15,176,747.25,177.74Z" fill="#9a8bf2" opacity="0.8"/><path id="bf7782a6-ce56-44c9-888c-af1e824db5e5" data-name="&lt;Контур&gt;" d="M718.13,31.53a2.76,2.76,0,0,0-1.11-4,2.88,2.88,0,0,0-3.65,1.3c-.91,1.71-.58,3.07.95,3.91A2.55,2.55,0,0,0,718.13,31.53Z" fill="#9a8bf2" opacity="0.8"/><path id="03a96383-c54f-4f70-9767-904166c76c84" data-name="&lt;Контур&gt;" d="M735.36,147.36a2.83,2.83,0,0,0-1.2-3.83,2.86,2.86,0,0,0-3.74,1.47c-.83,1.7-.41,3,1.21,3.82S734.52,149.08,735.36,147.36Z" fill="#9a8bf2" opacity="0.8"/><path id="a372abe8-7139-4c5f-b9c7-c8c512564f73" data-name="&lt;Контур&gt;" d="M738.67,170.34c.68-1.44.21-2.57-1.37-3.36s-2.77-.49-3.56,1.14a2.71,2.71,0,1,0,4.93,2.22Z" fill="#9a8bf2" opacity="0.8"/><path id="9e04dbfa-ce60-4d00-9f55-9a8f8b5fed6a" data-name="&lt;Контур&gt;" d="M715.07,90.86c.69-1.44.23-2.58-1.35-3.36s-2.78-.51-3.57,1.12a2.71,2.71,0,1,0,4.92,2.25Z" fill="#9a8bf2" opacity="0.8"/><path id="b8a4cdf9-03e9-4768-98af-d0d813ff6350" data-name="&lt;Контур&gt;" d="M711.57,68.09a2.67,2.67,0,1,0-3.52,1.18A2.78,2.78,0,0,0,711.57,68.09Z" fill="#9a8bf2" opacity="0.8"/><path id="09a6fdef-b373-4896-9934-b0ea90890c58" data-name="&lt;Контур&gt;" d="M718.67,114.1c.66-1.53.09-2.6-1.3-3.31a2.43,2.43,0,0,0-3.52,1.13,2.65,2.65,0,1,0,4.82,2.19Z" fill="#9a8bf2" opacity="0.8"/><path id="626a6c0c-8541-4953-971b-d867e24f507b" data-name="&lt;Контур&gt;" d="M714.4,8.33a2.71,2.71,0,1,0-3.65,1.19A2.78,2.78,0,0,0,714.4,8.33Z" fill="#9a8bf2" opacity="0.8"/><path id="e506df28-f188-424b-9676-eb002fc01c52" data-name="&lt;Контур&gt;" d="M707.86,44.61c.54-1.32.57-2.61-1.19-3.29-1.53-.78-2.66-.45-3.4,1.06a2.58,2.58,0,0,0,1.19,3.54A2.48,2.48,0,0,0,707.86,44.61Z" fill="#9a8bf2" opacity="0.8"/><path id="594548d0-132c-4c2f-8bd3-8d25184c9476" data-name="&lt;Контур&gt;" d="M721.83,137.26c.57-1.3.63-2.59-1.28-3.4a2.16,2.16,0,0,0-3.25,1.08,2.58,2.58,0,0,0,1.11,3.56A2.48,2.48,0,0,0,721.83,137.26Z" fill="#9a8bf2" opacity="0.8"/><path id="07ceaabf-a5d0-4c35-9122-17c4b35af278" data-name="&lt;Контур&gt;" d="M741.95,193.61c.69-1.38.36-2.92-1-3.37s-2.55-.46-3.17,1.12-.41,2.76.95,3.39A2.16,2.16,0,0,0,741.95,193.61Z" fill="#9a8bf2" opacity="0.8"/><path id="af530a86-e412-4eb3-8b9f-7b5eb97bc1b6" data-name="&lt;Контур&gt;" d="M725.16,160.8a2.21,2.21,0,0,0-.92-3.36,2.12,2.12,0,0,0-3.17,1c-.78,1.42-.46,2.81.86,3.44A2.26,2.26,0,0,0,725.16,160.8Z" fill="#9a8bf2" opacity="0.8"/><path id="eb0879c8-cc2e-49f2-bdec-08cec87e8960" data-name="&lt;Контур&gt;" d="M704.34,21.61a2.38,2.38,0,0,0-4.23-2.2c-.74,1.36-.29,2.47,1.07,3.36A2.31,2.31,0,0,0,704.34,21.61Z" fill="#9a8bf2" opacity="0.8"/><path id="8896e7b9-048a-4541-9495-4c97803d055e" data-name="&lt;Контур&gt;" d="M701.49,81.28a2.28,2.28,0,0,0-4.09-2c-.67,1.27-.17,2.35,1,3.14A2.29,2.29,0,0,0,701.49,81.28Z" fill="#9a8bf2" opacity="0.8"/><path id="2c18237c-f0b3-41cc-8e90-b5d4b720e19d" data-name="&lt;Контур&gt;" d="M704.81,104.39a2.08,2.08,0,0,0-.93-3c-1.26-.68-2.41-.51-3.1.82a2.19,2.19,0,0,0,.92,3.16A2.26,2.26,0,0,0,704.81,104.39Z" fill="#9a8bf2" opacity="0.8"/><path id="00ee7318-5c3f-4f1d-8575-e6c89769f60b" data-name="&lt;Контур&gt;" d="M728.47,183.69c.62-1.36,0-2.36-1.27-2.94s-2.23-.13-3,1.16a2.27,2.27,0,0,0,1.17,3A2.19,2.19,0,0,0,728.47,183.69Z" fill="#9a8bf2" opacity="0.8"/><path id="e88e83a8-5f7c-4506-b084-811380483a5b" data-name="&lt;Контур&gt;" d="M708.16,127.4a2.12,2.12,0,0,0-1.2-3.06,2,2,0,0,0-2.89,1,2.18,2.18,0,0,0,1,3.13A2.27,2.27,0,0,0,708.16,127.4Z" fill="#9a8bf2" opacity="0.8"/><path id="9e3b9135-267a-4887-9b32-23165b3f105e" data-name="&lt;Контур&gt;" d="M745.19,216.65a2,2,0,0,0-.92-2.91,2.12,2.12,0,0,0-3.17.87,2.27,2.27,0,0,0,1,3.1A2.18,2.18,0,0,0,745.19,216.65Z" fill="#9a8bf2" opacity="0.8"/><path id="5d90dbad-0b38-46bd-a649-1d6fbdb3c237" data-name="&lt;Контур&gt;" d="M697.87,57.9c.62-1.36,0-2.36-1.27-2.94a2.07,2.07,0,0,0-2.92,1.1,2.26,2.26,0,0,0,1.13,3.07A2.19,2.19,0,0,0,697.87,57.9Z" fill="#9a8bf2" opacity="0.8"/><path id="bbf93c7b-7e48-4dec-8abc-8c4554688c20" data-name="&lt;Контур&gt;" d="M694.6,34.48a1.81,1.81,0,0,0-1-2.8,1.74,1.74,0,0,0-2.73.46,2.29,2.29,0,0,0,.64,3.38A2.12,2.12,0,0,0,694.6,34.48Z" fill="#9a8bf2" opacity="0.8"/><path id="0f122f30-e27f-413d-9609-4a11ca239283" data-name="&lt;Контур&gt;" d="M711.5,150.58c.76-1.31.49-2.38-.76-3-1-.46-2.13-.48-2.58.85-.71,1.23-.73,2.23.64,2.94A1.77,1.77,0,0,0,711.5,150.58Z" fill="#9a8bf2" opacity="0.8"/><path id="928544c8-23cb-4663-ac30-b796558de233" data-name="&lt;Контур&gt;" d="M731.71,206.28c.51-.83,0-1.88-1.08-2.43a1.86,1.86,0,0,0-2.64,1c-.59,1.19-.45,2.14.78,2.78S730.87,207.88,731.71,206.28Z" fill="#9a8bf2" opacity="0.8"/><path id="aa76ea4c-ad8d-45a0-9a2a-eb9d5888bb47" data-name="&lt;Контур&gt;" d="M690.77,11.13A1.85,1.85,0,0,0,690,8.4a1.92,1.92,0,0,0-2.79,1.05,2,2,0,1,0,3.57,1.68Z" fill="#9a8bf2" opacity="0.8"/><path id="efd0f631-37c9-4e79-a2c6-210281522c54" data-name="&lt;Контур&gt;" d="M714.78,173.64A1.79,1.79,0,0,0,714,171a1.94,1.94,0,1,0-1.81,3.44A1.79,1.79,0,0,0,714.78,173.64Z" fill="#9a8bf2" opacity="0.8"/><path id="fe42efd2-505f-47a9-9c0f-5571ef49412c" data-name="&lt;Контур&gt;" d="M748.55,239.76c.66-1.12.14-1.9-.78-2.52-1.06-.46-2-.57-2.61.63a1.9,1.9,0,0,0,.78,2.79A1.88,1.88,0,0,0,748.55,239.76Z" fill="#9a8bf2" opacity="0.8"/><path id="8c30790c-07cf-4871-8d14-79cb9b74cb14" data-name="&lt;Контур&gt;" d="M691.16,94.16a1.64,1.64,0,0,0-1-2.3c-1.06-.54-1.94-.37-2.68.95a1.93,1.93,0,0,0,1,2.52A1.9,1.9,0,0,0,691.16,94.16Z" fill="#9a8bf2" opacity="0.8"/><path id="a869b1ae-e7e1-40ef-a46c-c5ebefcd3cb6" data-name="&lt;Контур&gt;" d="M688,70.76a1.64,1.64,0,0,0-1-2.3,1.75,1.75,0,0,0-2.62.82,2,2,0,1,0,3.6,1.49Z" fill="#9a8bf2" opacity="0.8"/><path id="73a675d7-59a9-4b79-b16c-12b9be9ace29" data-name="&lt;Контур&gt;" d="M684.24,47.55c.53-1.12,0-1.83-1.16-2.37a1.47,1.47,0,0,0-2.22.82,1.81,1.81,0,0,0,.84,2.61A1.83,1.83,0,0,0,684.24,47.55Z" fill="#9a8bf2" opacity="0.8"/><path id="4f110716-522c-44b5-9cbe-2c54e55dedf9" data-name="&lt;Контур&gt;" d="M698.06,140.49c.53-1.13,0-1.82-1.2-2.38a1.47,1.47,0,0,0-2.19.85,1.8,1.8,0,0,0,.85,2.61A1.83,1.83,0,0,0,698.06,140.49Z" fill="#9a8bf2" opacity="0.8"/><path id="cb651654-6a4e-49d5-b023-b0d3ce43b61b" data-name="&lt;Контур&gt;" d="M694.66,117.63a1.88,1.88,0,1,0-3.44-1.51,1.88,1.88,0,1,0,3.44,1.51Z" fill="#9a8bf2" opacity="0.8"/><path id="143169bb-29b0-4960-a827-aa6a1b3e2fc6" data-name="&lt;Контур&gt;" d="M718.17,196.59a1.45,1.45,0,0,0-.54-2.34c-1-.55-1.75-.12-2.27.92s-.45,1.67.64,2.21S717.73,197.73,718.17,196.59Z" fill="#9a8bf2" opacity="0.8"/><path id="3e17420a-c1b9-49a3-ba0b-c6dffe6af6e9" data-name="&lt;Контур&gt;" d="M734.83,229.73c.54-1.06.36-1.86-.71-2.34s-1.73.1-2.22,1.09-.24,1.72.79,2.12C733.81,231.25,734.35,230.68,734.83,229.73Z" fill="#9a8bf2" opacity="0.8"/><path id="fa33ea3a-c2e0-4d12-a8cb-caeb52b7283c" data-name="&lt;Контур&gt;" d="M701.12,163.44a1.59,1.59,0,1,0-2.21.89A1.5,1.5,0,0,0,701.12,163.44Z" fill="#9a8bf2" opacity="0.8"/><path id="da34f567-99c5-40d3-b2bc-02f5aaca2158" data-name="&lt;Контур&gt;" d="M680.53,24.6a1.58,1.58,0,0,0-.37-2.37,1.47,1.47,0,0,0-2.2.5c-.59,1.08-.53,1.93.42,2.49A1.46,1.46,0,0,0,680.53,24.6Z" fill="#9a8bf2" opacity="0.8"/><path id="edc23ab0-6e1d-4467-9281-789001c2204e" data-name="&lt;Контур&gt;" d="M681.19,107.15c.52-1,0-1.42-.78-1.82s-1.58-.58-2,.53A1.53,1.53,0,0,0,679,108C679.91,108.53,680.67,108.12,681.19,107.15Z" fill="#9a8bf2" opacity="0.8"/><path id="91c9d033-aeee-40f4-a1f6-e236c37437e4" data-name="&lt;Контур&gt;" d="M677.33,1.26c.52-1-.07-1.41-.79-1.82s-1.58-.57-2,.54a1.53,1.53,0,0,0,.62,2.17C676.06,2.64,676.82,2.23,677.33,1.26Z" fill="#9a8bf2" opacity="0.8"/><path id="4f705e58-1453-408d-becc-a229eac133b8" data-name="&lt;Контур&gt;" d="M704.94,186.38c.49-.75-.26-1.21-1.05-1.61s-1.46-.46-1.9.53-.29,1.85.69,2.29S704.31,187.58,704.94,186.38Z" fill="#9a8bf2" opacity="0.8"/><path id="18cd780b-00ec-4f96-a8ce-905169c17e55" data-name="&lt;Контур&gt;" d="M677.45,84c.61-1,.09-1.55-1.18-2.19-.45-.26-1.17-.26-1.61.81A1.56,1.56,0,1,0,677.45,84Z" fill="#9a8bf2" opacity="0.8"/><path id="22b23f38-4dfd-4f8b-bfa6-465019722547" data-name="&lt;Контур&gt;" d="M673.88,61.18a1.38,1.38,0,0,0-.47-2,1.25,1.25,0,0,0-1.94.49,1.58,1.58,0,0,0,.65,2.08A1.44,1.44,0,0,0,673.88,61.18Z" fill="#9a8bf2" opacity="0.8"/><path id="afc7c7ef-7c03-4819-933d-6011bb17ff37" data-name="&lt;Контур&gt;" d="M684.19,130.55a1.38,1.38,0,0,0-.45-2,1.25,1.25,0,0,0-1.95.48,1.58,1.58,0,0,0,.65,2.09A1.44,1.44,0,0,0,684.19,130.55Z" fill="#9a8bf2" opacity="0.8"/><path id="e74fdad3-0bfc-4c36-be83-f3e7e2b955dd" data-name="&lt;Контур&gt;" d="M687.67,153.65c.37-.77.31-1.34-.53-1.73s-1.28.08-1.65.78-.29,1.35.75,1.83C686.89,154.82,687.32,154.38,687.67,153.65Z" fill="#9a8bf2" opacity="0.8"/><path id="7f462c88-aa3e-4f76-8947-76f49b1b8858" data-name="&lt;Контур&gt;" d="M690.9,176.85a.94.94,0,0,0-.46-1.43c-.64-.33-1.22-.42-1.61.38a1.16,1.16,0,1,0,2.07,1Z" fill="#9a8bf2" opacity="0.8"/><path id="0d24b0a7-5bf2-41b9-8042-e331119133f3" data-name="&lt;Контур&gt;" d="M667.31,97.33c.38-.77,0-1.19-.66-1.5a1,1,0,0,0-1.42.49,1.17,1.17,0,1,0,2.08,1Z" fill="#9a8bf2" opacity="0.8"/><path id="d80a3d79-512a-42fe-b00f-6186b2e1cafc" data-name="&lt;Контур&gt;" d="M666.77,14.52c.38-.77,0-1.19-.66-1.5a1,1,0,0,0-1.42.49,1.17,1.17,0,1,0,2.08,1Z" fill="#9a8bf2" opacity="0.8"/><path id="20b20ab5-adbe-4f88-8b87-0fb7eedbf9a9" data-name="&lt;Контур&gt;" d="M670.52,37.89a1.17,1.17,0,0,0-.48-1.66,1.19,1.19,0,0,0-1.8.46,1.29,1.29,0,1,0,2.29,1.2Z" fill="#9a8bf2" opacity="0.8"/><path id="d7bf0af1-662b-41e4-bd26-cb9347bd3dca" data-name="&lt;Контур&gt;" d="M670.78,120c.25-.42-.3-.66-.73-.88s-1-.58-1.3.08-.33,1.34.4,1.68S670.25,120.76,670.78,120Z" fill="#9a8bf2" opacity="0.8"/><path id="2907fdc7-d89b-4311-b792-04d82583a36c" data-name="&lt;Контур&gt;" d="M664,74c.3-.64-.31-.88-.76-1.08s-1-.49-1.23.27c-.19.62-.19,1.25.42,1.54A1.16,1.16,0,0,0,664,74Z" fill="#9a8bf2" opacity="0.8"/><path id="2e480786-6fe6-4334-8b24-a3ff0f6cd2ca" data-name="&lt;Контур&gt;" d="M660.24,50.95c.55-.67,0-.93-.45-1.17s-1.05-.73-1.41.15a1.26,1.26,0,0,0,.37,1.59A1.29,1.29,0,0,0,660.24,50.95Z" fill="#9a8bf2" opacity="0.8"/><path id="5ce7cca1-3b3d-4436-bb04-e479c2168763" data-name="&lt;Контур&gt;" d="M674.25,143.52c.51-.67-.07-.93-.48-1.16s-1.06-.71-1.4.18a1.25,1.25,0,0,0,.39,1.57A1.29,1.29,0,0,0,674.25,143.52Z" fill="#9a8bf2" opacity="0.8"/></g></g><path id="b088062d-58a9-445f-817b-e9c8aa46b31b" data-name="&lt;Контур&gt;" d="M-5-63.63c38.85-.57,80,1.26,112.53,22.55s50.82,68.74,28.31,100.42c-10.62,14.94-27.74,23.53-42.65,34.2C44.85,128.12,18,190.44,26,249.34c3.75,27.6,14.48,55.48,7.77,82.5-8,32.18-38.65,53.58-69.47,65.81" fill="none" stroke="#6c63ff" stroke-miterlimit="10" stroke-width="5"/></g></g></svg>