<svg id="85cccf90-ee49-4f88-98b3-7d0937400e06" data-name="Elements" xmlns="http://www.w3.org/2000/svg" viewBox="0 0 957.5 610.92"><title>abstract4</title><g id="f7269ee4-c9cd-4e5f-b1b7-6d3fc6400385" data-name="&lt;Группа&gt;"><g id="2687e215-eac7-4258-b246-acb622ed3ac7" data-name="&lt;Группа&gt;"><path id="6f210fb5-8fd7-4b83-949a-ed2a957b332c" data-name="&lt;Контур&gt;" d="M1.54,367a3.55,3.55,0,0,0-4.79.66,3.54,3.54,0,0,0,.68,4.9,3.55,3.55,0,0,0,4.79-.66A3.54,3.54,0,0,0,1.54,367Z" transform="translate(142 15.92)" fill="#9a8bf2"/><path id="82b5656d-ecd5-43c2-bc73-da89a4256d52" data-name="&lt;Контур&gt;" d="M-6.68,337.68a2.7,2.7,0,0,0-.32-.2v5.89a3.24,3.24,0,0,0,.92-.79A3.58,3.58,0,0,0-6.68,337.68Z" transform="translate(142 15.92)" fill="#9a8bf2"/><path id="0e5c6cf1-41d1-4c8b-98e8-d842729315ae" data-name="&lt;Контур&gt;" d="M-4.25,483.19A3.17,3.17,0,0,0-7,482.51v6.63a3.28,3.28,0,0,0,3.12-1.21C-2.53,486.25-2.67,484.43-4.25,483.19Z" transform="translate(142 15.92)" fill="#9a8bf2"/><path id="5457345c-4850-4d7d-aab6-1ce950170978" data-name="&lt;Контур&gt;" d="M-5.92,318.19A3.44,3.44,0,0,0-7,317.64V324a3.83,3.83,0,0,0,1.69-1.3A3.12,3.12,0,0,0-5.92,318.19Z" transform="translate(142 15.92)" fill="#9a8bf2"/><path id="7fa99821-a7eb-48f3-9113-0d1334f01023" data-name="&lt;Контур&gt;" d="M2.28,347.82a3.06,3.06,0,0,0-4.5.42c-1.41,1.72-1.32,3.53.23,4.85a3.25,3.25,0,0,0,4.59-.53C4,350.88,3.84,349.06,2.28,347.82Z" transform="translate(142 15.92)" fill="#9a8bf2"/><path id="b05096a4-a3f5-4a2e-8292-0face02be525" data-name="&lt;Контур&gt;" d="M8.72,416.08a3.08,3.08,0,0,0-4.62.4c-1.37,1.7-1.25,3.61.31,4.84A3.21,3.21,0,0,0,9,420.72C10.3,419.09,10.19,417.29,8.72,416.08Z" transform="translate(142 15.92)" fill="#9a8bf2"/><path id="b1d7b4ff-db1a-4a7a-9f0a-042f1ae82e22" data-name="&lt;Контур&gt;" d="M9.63,396.74a3.2,3.2,0,0,0-4.56.52,3.21,3.21,0,0,0,.46,4.57,3.21,3.21,0,0,0,4.58-.41A3.21,3.21,0,0,0,9.63,396.74Z" transform="translate(142 15.92)" fill="#9a8bf2"/><path id="11c118ec-1dda-4273-a1c8-afdd17533843" data-name="&lt;Контур&gt;" d="M6.85,454.64a3.37,3.37,0,0,0-4.65.65,3.49,3.49,0,0,0,.4,4.63,3.46,3.46,0,0,0,4.69-.65A3.29,3.29,0,0,0,6.85,454.64Z" transform="translate(142 15.92)" fill="#9a8bf2"/><path id="0d4a2afd-5ea5-4357-a80e-7a0aa859a8b8" data-name="&lt;Контур&gt;" d="M8.43,439.95a3.2,3.2,0,0,0-.54-4.56,3.21,3.21,0,0,0-4.57.49,3.21,3.21,0,0,0,.56,4.67A3.2,3.2,0,0,0,8.43,439.95Z" transform="translate(142 15.92)" fill="#9a8bf2"/><path id="e165f41d-4bb7-48df-bfc8-95054d47aee1" data-name="&lt;Контур&gt;" d="M10.74,377.24a3.36,3.36,0,0,0-4.56.73,3,3,0,0,0,.72,4.44,3.06,3.06,0,0,0,4.46-.6A3.36,3.36,0,0,0,10.74,377.24Z" transform="translate(142 15.92)" fill="#9a8bf2"/><path id="00bf7f74-2c91-4a7a-a6b8-d9698ecb73ab" data-name="&lt;Контур&gt;" d="M6.29,478.85a3.35,3.35,0,0,0-.21-4.72,3.31,3.31,0,0,0-4.57.62A2.85,2.85,0,0,0,2,479C3.64,480.2,5.25,480.17,6.29,478.85Z" transform="translate(142 15.92)" fill="#9a8bf2"/><path id="f2da519c-ca6e-48e6-bc52-dcbde6cc5f62" data-name="&lt;Контур&gt;" d="M3.17,328.59a3.29,3.29,0,0,0-4.45.64c-1.1,1.45-1.13,3.22.58,4.37,1.52,1.18,3.21,1.06,4.23-.3A3.34,3.34,0,0,0,3.17,328.59Z" transform="translate(142 15.92)" fill="#9a8bf2"/><path id="cc74bb02-7d23-4774-98aa-e6c1093e78e2" data-name="&lt;Контур&gt;" d="M11.58,358a3.21,3.21,0,0,0-4.47.47,3.22,3.22,0,0,0,.58,4.45,3.22,3.22,0,0,0,4.34-.57A3.22,3.22,0,0,0,11.58,358Z" transform="translate(142 15.92)" fill="#9a8bf2"/><path id="783f1eac-a8d3-47ed-92bb-62a145bab021" data-name="&lt;Контур&gt;" d="M-5.11,299.23A3,3,0,0,0-7,298.54v6.22a3.12,3.12,0,0,0,2.38-1.36A2.68,2.68,0,0,0-5.11,299.23Z" transform="translate(142 15.92)" fill="#9a8bf2"/><path id="e863257a-e433-4575-aacc-19885654abe2" data-name="&lt;Контур&gt;" d="M18.06,430.62c1.32-1.66,1.22-3.07-.28-4.26a2.62,2.62,0,0,0-4.12.45c-1.32,1.67-1.21,3.18.31,4.36A2.71,2.71,0,0,0,18.06,430.62Z" transform="translate(142 15.92)" fill="#9a8bf2"/><path id="a531122d-0d14-4a41-b017-d0651b0feb0e" data-name="&lt;Контур&gt;" d="M18.84,407.06a3,3,0,1,0,.41,4.27A2.95,2.95,0,0,0,18.84,407.06Z" transform="translate(142 15.92)" fill="#9a8bf2"/><path id="b860c9ec-34e9-473b-b3ec-fac56aa59820" data-name="&lt;Контур&gt;" d="M4.84,493.49a2.83,2.83,0,0,0-4.17.68,3.11,3.11,0,0,0,.45,4.21,3.16,3.16,0,0,0,4.28-.81A2.8,2.8,0,0,0,4.84,493.49Z" transform="translate(142 15.92)" fill="#9a8bf2"/><path id="10465330-9087-4310-bb0e-6dbfe0897af5" data-name="&lt;Контур&gt;" d="M20.11,391.7a3,3,0,0,0-4.77-3.52,3,3,0,1,0,4.77,3.52Z" transform="translate(142 15.92)" fill="#9a8bf2"/><path id="7678c500-94ed-48e6-bbad-0eeec0c8a212" data-name="&lt;Контур&gt;" d="M17,445.67a3,3,0,1,0,.59,4.12A2.89,2.89,0,0,0,17,445.67Z" transform="translate(142 15.92)" fill="#9a8bf2"/><path id="55f5168f-cddb-4543-8f3a-8a89931c8a55" data-name="&lt;Контур&gt;" d="M12.36,338.86a2.93,2.93,0,1,0,.52,4.14A2.89,2.89,0,0,0,12.36,338.86Z" transform="translate(142 15.92)" fill="#9a8bf2"/><path id="a55db03d-d81d-430c-a159-1478547a8d4a" data-name="&lt;Контур&gt;" d="M20.54,368.5a3,3,0,0,0-4.14.5,2.57,2.57,0,0,0,.48,4,2.58,2.58,0,0,0,4-.35A3,3,0,0,0,20.54,368.5Z" transform="translate(142 15.92)" fill="#9a8bf2"/><path id="3d78e4a9-1004-4805-97f1-d9bb4ad5595b" data-name="&lt;Контур&gt;" d="M4.06,309.61a3,3,0,0,0-4.14.55,2.59,2.59,0,0,0,.54,4,2.58,2.58,0,0,0,4-.4A3,3,0,0,0,4.06,309.61Z" transform="translate(142 15.92)" fill="#9a8bf2"/><path id="eac80d2f-e74a-4fc6-98df-2c38dead7ce8" data-name="&lt;Контур&gt;" d="M10.6,485.13a2.55,2.55,0,0,0,.59,3.82c1.56,1.22,2.68,1,4-.34,1.08-1.17.5-3.35-.42-4.12A3.13,3.13,0,0,0,10.6,485.13Z" transform="translate(142 15.92)" fill="#9a8bf2"/><path id="b70e8791-5fcb-48d0-a5f5-13cb4dcc94dc" data-name="&lt;Контур&gt;" d="M16.44,469.07a2.91,2.91,0,1,0-4.15.4A2.92,2.92,0,0,0,16.44,469.07Z" transform="translate(142 15.92)" fill="#9a8bf2"/><path id="2b6f3829-7f0a-483c-85c4-d3f7b6f4259b" data-name="&lt;Контур&gt;" d="M23.11,437a2.75,2.75,0,1,0,3.87-.43A2.77,2.77,0,0,0,23.11,437Z" transform="translate(142 15.92)" fill="#9a8bf2"/><path id="d9d61070-a8ba-4e96-a5dc-121d36dd19f1" data-name="&lt;Контур&gt;" d="M22,353.15a3,3,0,0,0-.4-4.08,3,3,0,0,0-4,.57,2.75,2.75,0,0,0,.54,3.84A2.67,2.67,0,0,0,22,353.15Z" transform="translate(142 15.92)" fill="#9a8bf2"/><path id="124bc963-d40d-4d5c-a654-475320ee1fa8" data-name="&lt;Контур&gt;" d="M13.07,319.6a3,3,0,0,0-4,.51A2.7,2.7,0,0,0,9.57,324a2.69,2.69,0,0,0,3.84-.27A3,3,0,0,0,13.07,319.6Z" transform="translate(142 15.92)" fill="#9a8bf2"/><path id="b938773d-74b0-4523-8c27-32ede3ea5da2" data-name="&lt;Контур&gt;" d="M28.34,421.39A3,3,0,0,0,28,417.3a3,3,0,0,0-4.08.62,2.73,2.73,0,0,0,.57,3.72A2.7,2.7,0,0,0,28.34,421.39Z" transform="translate(142 15.92)" fill="#9a8bf2"/><path id="d723e3ce-821d-4568-91b7-e7a8e4e93cd6" data-name="&lt;Контур&gt;" d="M-4.49,279.91A2.74,2.74,0,0,0-7,279.54v5.16a2.74,2.74,0,0,0,3.07-.91A2.76,2.76,0,0,0-4.49,279.91Z" transform="translate(142 15.92)" fill="#9a8bf2"/><path id="45778562-4d15-405e-8e53-047fad3a475f" data-name="&lt;Контур&gt;" d="M28.74,397.9a2.75,2.75,0,1,0,.42,3.89A2.76,2.76,0,0,0,28.74,397.9Z" transform="translate(142 15.92)" fill="#9a8bf2"/><path id="ca3258e7-f0fa-44d1-90d3-e6123d311042" data-name="&lt;Контур&gt;" d="M22,456.59c-1.1,1.39-1,2.85.22,3.85a2.51,2.51,0,0,0,3.8-.59,2.41,2.41,0,0,0-.41-3.73A2.4,2.4,0,0,0,22,456.59Z" transform="translate(142 15.92)" fill="#9a8bf2"/><path id="65ea0497-4d26-4c75-b974-97fab4c8a341" data-name="&lt;Контур&gt;" d="M30,382.53a2.42,2.42,0,0,0-.38-3.74,2.4,2.4,0,0,0-3.61.44c-1.11,1.4-1,2.84.19,3.85A2.52,2.52,0,0,0,30,382.53Z" transform="translate(142 15.92)" fill="#9a8bf2"/><path id="ee4b71f0-272c-4db8-b8e1-a208d1c5023c" data-name="&lt;Контур&gt;" d="M4.78,290.16a2.51,2.51,0,0,0-3.63.49,2.59,2.59,0,0,0,.26,3.85A2.55,2.55,0,0,0,5.1,294,2.53,2.53,0,0,0,4.78,290.16Z" transform="translate(142 15.92)" fill="#9a8bf2"/><path id="652880c8-30eb-4015-b86e-80346956a717" data-name="&lt;Контур&gt;" d="M22.29,329.84a2.57,2.57,0,0,0-3.69.47,2.75,2.75,0,0,0,.26,3.81,2.78,2.78,0,0,0,3.67-.44A2.6,2.6,0,0,0,22.29,329.84Z" transform="translate(142 15.92)" fill="#9a8bf2"/><path id="3b725223-41e6-4715-b60b-8dd18fb5e235" data-name="&lt;Контур&gt;" d="M21.23,476a2.75,2.75,0,0,0,.27,3.81,2.82,2.82,0,0,0,3.67-.45A2.59,2.59,0,1,0,21.23,476Z" transform="translate(142 15.92)" fill="#9a8bf2"/><path id="f70176b0-8b3c-479a-a39d-c2a161eac202" data-name="&lt;Контур&gt;" d="M14.37,304.14a2.57,2.57,0,0,0-4-3.18,2.39,2.39,0,0,0,.43,3.61A2.37,2.37,0,0,0,14.37,304.14Z" transform="translate(142 15.92)" fill="#9a8bf2"/><path id="48ac28ce-c7d9-4918-a516-785a43213187" data-name="&lt;Контур&gt;" d="M34.17,408.88a2.51,2.51,0,1,0,3.48-.49A2.6,2.6,0,0,0,34.17,408.88Z" transform="translate(142 15.92)" fill="#9a8bf2"/><path id="0a18afed-dbc4-4228-9665-a726330a18a1" data-name="&lt;Контур&gt;" d="M26.78,359.81a2.58,2.58,0,1,0,3.59-.43A2.59,2.59,0,0,0,26.78,359.81Z" transform="translate(142 15.92)" fill="#9a8bf2"/><path id="08849921-3799-4d00-9c58-3c4900f7bc24" data-name="&lt;Контур&gt;" d="M33.07,428.16a2.37,2.37,0,0,0,.47,3.42c1.26,1,2.57.92,3.41-.17a2.76,2.76,0,0,0-.29-3.84A2.82,2.82,0,0,0,33.07,428.16Z" transform="translate(142 15.92)" fill="#9a8bf2"/><path id="899e227b-31a7-4eea-80dc-5d942279fa0e" data-name="&lt;Контур&gt;" d="M35.07,389.34c-.72,1.11-1,2.22.55,3.39a2.24,2.24,0,0,0,3.19-.1,2.74,2.74,0,0,0-.19-3.86A2.59,2.59,0,0,0,35.07,389.34Z" transform="translate(142 15.92)" fill="#9a8bf2"/><path id="3e381f34-b27f-48df-8ce0-c746a194221c" data-name="&lt;Контур&gt;" d="M32.34,447.66c-1,1.5-.66,2.48.58,3.38a2.23,2.23,0,0,0,3.19-.13,2.73,2.73,0,0,0-.21-3.85A2.61,2.61,0,0,0,32.34,447.66Z" transform="translate(142 15.92)" fill="#9a8bf2"/><path id="e920c297-db5b-49d8-8da7-851114e53432" data-name="&lt;Контур&gt;" d="M20.24,495.43c-1,1.5-.66,2.48.57,3.38A2.23,2.23,0,0,0,24,498.7a2.73,2.73,0,0,0-.21-3.86A2.61,2.61,0,0,0,20.24,495.43Z" transform="translate(142 15.92)" fill="#9a8bf2"/><path id="950711b4-fe31-4388-89b0-038e29d7be7a" data-name="&lt;Контур&gt;" d="M-3.57,261a2.47,2.47,0,0,0-3.43.36v3.08a2.37,2.37,0,0,0,.29.31,2.47,2.47,0,0,0,3.47-.28A2.47,2.47,0,0,0-3.57,261Z" transform="translate(142 15.92)" fill="#9a8bf2"/><path id="e6a0a5dc-b9c9-45a0-bba2-77f3713dd21b" data-name="&lt;Контур&gt;" d="M23.11,310.89c-1.27-1-2.25-.88-3.26.43s-1,2.42.27,3.39,2.27.75,3.34-.65C24.4,312.8,24.3,311.83,23.11,310.89Z" transform="translate(142 15.92)" fill="#9a8bf2"/><path id="b5904f8e-8328-4c6e-9677-5208a1425174" data-name="&lt;Контур&gt;" d="M31.46,343.76c1.07-1.35,1-2.32-.2-3.29s-2.26-.91-3.27.38-1,2.43.23,3.39S30.45,345,31.46,343.76Z" transform="translate(142 15.92)" fill="#9a8bf2"/><path id="ec346a61-ec1e-4dbb-9d47-a9a6d5b1b976" data-name="&lt;Контур&gt;" d="M31.58,466.9a2.28,2.28,0,0,0,.26,3.42,2.38,2.38,0,0,0,3.17-.47c1-1.24,1-2.39-.14-3.32A2.11,2.11,0,0,0,31.58,466.9Z" transform="translate(142 15.92)" fill="#9a8bf2"/><path id="1a3244e2-98d8-4fc0-95fc-003e152876b9" data-name="&lt;Контур&gt;" d="M5.59,271.2a2.11,2.11,0,0,0-3.27.54,2.28,2.28,0,0,0,.32,3.3,2.35,2.35,0,0,0,3.27-.55A2.1,2.1,0,0,0,5.59,271.2Z" transform="translate(142 15.92)" fill="#9a8bf2"/><path id="5a864be0-d85b-4062-94c5-f8a14f1fa882" data-name="&lt;Контур&gt;" d="M36.22,370.28a2.34,2.34,0,0,0,.36,3.3,2.36,2.36,0,0,0,3.27-.59,2.1,2.1,0,0,0-.37-3.29C38.32,368.82,37.17,369,36.22,370.28Z" transform="translate(142 15.92)" fill="#9a8bf2"/><path id="65dc8c18-e259-4945-8137-c4567d90d8c7" data-name="&lt;Контур&gt;" d="M14.66,284.79a2.44,2.44,0,0,0,0-3.33,2.39,2.39,0,0,0-3.31.27,2.52,2.52,0,0,0,.19,3.42A2.56,2.56,0,0,0,14.66,284.79Z" transform="translate(142 15.92)" fill="#9a8bf2"/><path id="fbfab01e-b724-404b-bd27-4893d0225c14" data-name="&lt;Контур&gt;" d="M28.68,321.5A2.51,2.51,0,0,0,29,324.8a2.55,2.55,0,0,0,3.27-.46,2.27,2.27,0,1,0-3.53-2.83Z" transform="translate(142 15.92)" fill="#9a8bf2"/><path id="a8d3aba2-b700-4301-959c-96c0615731e8" data-name="&lt;Контур&gt;" d="M37.21,351.13c-.78,1.06-.59,2,.57,2.94s2.17.85,3.07-.35a2.24,2.24,0,1,0-3.64-2.59Z" transform="translate(142 15.92)" fill="#9a8bf2"/><path id="775c7270-a382-4683-ae9f-e019f5c5f35a" data-name="&lt;Контур&gt;" d="M43.58,419.32c-.79,1.06-.6,2.05.55,2.94s2.17.86,3.07-.33a2.24,2.24,0,1,0-3.62-2.61Z" transform="translate(142 15.92)" fill="#9a8bf2"/><path id="42e00d85-fd56-48e1-b2a3-1e4405746579" data-name="&lt;Контур&gt;" d="M42.76,438.33a2.21,2.21,0,1,0,3-.39A2.3,2.3,0,0,0,42.76,438.33Z" transform="translate(142 15.92)" fill="#9a8bf2"/><path id="e952d320-1d9f-4407-8281-e0c5d665a54b" data-name="&lt;Контур&gt;" d="M44.39,399.91a1.92,1.92,0,0,0,.52,2.89,2,2,0,0,0,3-.35,2.19,2.19,0,1,0-3.55-2.55Z" transform="translate(142 15.92)" fill="#9a8bf2"/><path id="6a46226f-e198-42da-ba03-53b0063bf23f" data-name="&lt;Контур&gt;" d="M30.87,486.29a2.24,2.24,0,1,0,3.15-.38A2.29,2.29,0,0,0,30.87,486.29Z" transform="translate(142 15.92)" fill="#9a8bf2"/><path id="e3f49312-6113-41b6-a8fb-7fabfc06aeb2" data-name="&lt;Контур&gt;" d="M23.72,291.45a2.3,2.3,0,0,0-3.13.6,1.92,1.92,0,0,0,.5,2.89,2,2,0,0,0,3-.33A2.3,2.3,0,0,0,23.72,291.45Z" transform="translate(142 15.92)" fill="#9a8bf2"/><path id="7be6a800-c884-4143-ba2c-8ceb233dbca9" data-name="&lt;Контур&gt;" d="M42,457.95c-.65,1-.88,2,.43,2.85a1.82,1.82,0,0,0,2.93-.31,2.13,2.13,0,0,0-.39-3.06A2.05,2.05,0,0,0,42,457.95Z" transform="translate(142 15.92)" fill="#9a8bf2"/><path id="720caf91-57f2-4c2b-80e2-00b4f6e0b8f4" data-name="&lt;Контур&gt;" d="M45.56,380.63c-.67,1-.92,2,.5,3a1.78,1.78,0,0,0,2.81-.35,2.13,2.13,0,0,0-.33-3.07A2,2,0,0,0,45.56,380.63Z" transform="translate(142 15.92)" fill="#9a8bf2"/><path id="0cd4b16d-8cb5-41aa-9e56-ac9a5ddede64" data-name="&lt;Контур&gt;" d="M38.3,331.75c-.78,1-.76,2.31.23,2.88s2,.78,2.75-.4a1.86,1.86,0,0,0-.22-2.9A1.79,1.79,0,0,0,38.3,331.75Z" transform="translate(142 15.92)" fill="#9a8bf2"/><path id="e0d25cfb-7e7e-484b-96c4-c44688abaf61" data-name="&lt;Контур&gt;" d="M30.22,302.11a1.83,1.83,0,0,0,.12,2.88,1.76,1.76,0,0,0,2.73-.21,1.92,1.92,0,0,0-.06-2.93A1.87,1.87,0,0,0,30.22,302.11Z" transform="translate(142 15.92)" fill="#9a8bf2"/><path id="40dd630a-2b4f-41dd-84af-9eeb249c6cfe" data-name="&lt;Контур&gt;" d="M46.63,361a1.82,1.82,0,0,0,.21,2.87,1.75,1.75,0,0,0,2.73-.3,1.9,1.9,0,0,0-.14-2.92A1.87,1.87,0,0,0,46.63,361Z" transform="translate(142 15.92)" fill="#9a8bf2"/><path id="7a685cd4-a492-4da5-819f-f4f581726574" data-name="&lt;Контур&gt;" d="M41.16,477.15a2,2,0,0,0,3.08,2.46c.82-1,.63-2-.33-2.9A1.91,1.91,0,0,0,41.16,477.15Z" transform="translate(142 15.92)" fill="#9a8bf2"/><path id="96d2ef28-ecaf-4c84-82c7-1b474e2cc093" data-name="&lt;Контур&gt;" d="M53,429.26a1.89,1.89,0,0,0,3,2.29,1.89,1.89,0,1,0-3-2.29Z" transform="translate(142 15.92)" fill="#9a8bf2"/><path id="b64a7c91-c743-43d2-997b-e32fa0594d85" data-name="&lt;Контур&gt;" d="M54.07,410a1.72,1.72,0,0,0,.27,2.58,1.67,1.67,0,0,0,2.64-.17,1.81,1.81,0,0,0-.23-2.71A1.87,1.87,0,0,0,54.07,410Z" transform="translate(142 15.92)" fill="#9a8bf2"/><path id="354c6c88-9b5e-4e0b-bea0-91df1ae63f38" data-name="&lt;Контур&gt;" d="M47.63,342a1.68,1.68,0,0,0,.56,2.59,1.74,1.74,0,0,0,2.58-.47,1.88,1.88,0,0,0-.46-2.62A1.81,1.81,0,0,0,47.63,342Z" transform="translate(142 15.92)" fill="#9a8bf2"/><path id="7f268704-17e6-4c96-87b1-a6e490df0a4a" data-name="&lt;Контур&gt;" d="M55,390.82a1.75,1.75,0,0,0,.48,2.67,1.63,1.63,0,0,0,2.5-.35,1.8,1.8,0,0,0-.32-2.7A1.87,1.87,0,0,0,55,390.82Z" transform="translate(142 15.92)" fill="#9a8bf2"/><path id="d3aab676-8409-4201-ae03-fb21ff258b0f" data-name="&lt;Контур&gt;" d="M40.17,496.46a1.75,1.75,0,0,0,.48,2.67,1.63,1.63,0,0,0,2.5-.35,1.8,1.8,0,0,0-.32-2.7A1.87,1.87,0,0,0,40.17,496.46Z" transform="translate(142 15.92)" fill="#9a8bf2"/><path id="7fef1264-c999-4cf4-bcdd-bfdce6121607" data-name="&lt;Контур&gt;" d="M39.37,312.56a1.63,1.63,0,0,0,.28,2.51,1.75,1.75,0,0,0,2.71-.19,1.87,1.87,0,0,0-.29-2.67A1.8,1.8,0,0,0,39.37,312.56Z" transform="translate(142 15.92)" fill="#9a8bf2"/><path id="5cd3e75b-3a9a-4c5a-892e-735d64e5f457" data-name="&lt;Контур&gt;" d="M52.23,448.79a1.68,1.68,0,0,0,.55,2.59,1.71,1.71,0,0,0,2.54-.42,1.87,1.87,0,0,0-.42-2.67A1.81,1.81,0,0,0,52.23,448.79Z" transform="translate(142 15.92)" fill="#9a8bf2"/><path id="4ce0289e-8ad1-421b-886d-621a83374785" data-name="&lt;Контур&gt;" d="M51.11,468.28a1.49,1.49,0,0,0,.34,2.42,1.44,1.44,0,0,0,2.29.07,1.9,1.9,0,0,0,0-2.84A1.75,1.75,0,0,0,51.11,468.28Z" transform="translate(142 15.92)" fill="#9a8bf2"/><path id="f918b2e9-ccd2-4b8e-a367-50c910bbcea3" data-name="&lt;Контур&gt;" d="M56.06,371.5A1.55,1.55,0,0,0,56.2,374c.71.53,1.64.73,2.23-.28.78-.88.95-1.69,0-2.48A1.46,1.46,0,0,0,56.06,371.5Z" transform="translate(142 15.92)" fill="#9a8bf2"/><path id="847857e3-dabd-4d94-b8cd-9d01dddf6798" data-name="&lt;Контур&gt;" d="M31.33,283.31c-.84.83-.47,1.72.32,2.31a1.51,1.51,0,0,0,2.38-.48c.62-.91.65-1.62-.24-2.32S32,282.28,31.33,283.31Z" transform="translate(142 15.92)" fill="#9a8bf2"/><path id="b01bc3f8-8560-4284-a8a6-abf20b4015ec" data-name="&lt;Контур&gt;" d="M48.62,323.12c-.55.59-.29,1.53.49,2.14a1.54,1.54,0,0,0,2.31-.41,1.5,1.5,0,0,0-.18-2.38C50.35,321.76,49.56,322,48.62,323.12Z" transform="translate(142 15.92)" fill="#9a8bf2"/><path id="1a13544c-5fdd-4990-9743-d1c0b9b2cdfc" data-name="&lt;Контур&gt;" d="M50.47,487.82a1.53,1.53,0,0,0,.19,2.34,1.58,1.58,0,0,0,2.43-.4,1.64,1.64,0,1,0-2.62-1.94Z" transform="translate(142 15.92)" fill="#9a8bf2"/><path id="dc02f12e-3924-471e-91e8-8b93e0329eeb" data-name="&lt;Контур&gt;" d="M57.11,352.29a1.48,1.48,0,0,0,.24,2.26,1.6,1.6,0,1,0,2-2.5A1.48,1.48,0,0,0,57.11,352.29Z" transform="translate(142 15.92)" fill="#9a8bf2"/><path id="5adc1fa1-e509-498f-944d-25302ea36566" data-name="&lt;Контур&gt;" d="M40.35,293.29c-.72.8-.42,1.51.23,2.16s1.54.78,2.22-.09a1.57,1.57,0,0,0-.19-2.38A1.55,1.55,0,0,0,40.35,293.29Z" transform="translate(142 15.92)" fill="#9a8bf2"/><path id="34e7f8de-15d0-4bb5-b786-faca7b12a628" data-name="&lt;Контур&gt;" d="M63.48,420.48a1.36,1.36,0,0,0,.44,2c.78.61,1.51.61,2.32-.34a1.59,1.59,0,0,0-.43-2.21A1.57,1.57,0,0,0,63.48,420.48Z" transform="translate(142 15.92)" fill="#9a8bf2"/><path id="5d0aa0e8-5c10-41e0-a3ca-13877e4219d7" data-name="&lt;Контур&gt;" d="M62.28,440a1.35,1.35,0,0,0,.43,2,1.44,1.44,0,0,0,2.26-.24A1.61,1.61,0,1,0,62.28,440Z" transform="translate(142 15.92)" fill="#9a8bf2"/><path id="3904c682-d9cd-4cef-a7a6-840a63666fd4" data-name="&lt;Контур&gt;" d="M61.61,459.36c-.61.82-.3,1.48.55,2.11a1.22,1.22,0,0,0,1.93-.31,1.49,1.49,0,0,0-.26-2.25A1.51,1.51,0,0,0,61.61,459.36Z" transform="translate(142 15.92)" fill="#9a8bf2"/><path id="9b25be26-0d8a-4687-98e1-9d6b64f0f8ca" data-name="&lt;Контур&gt;" d="M65.33,381.84c-.61.83-.28,1.48.59,2.12a1.21,1.21,0,0,0,1.91-.34,1.49,1.49,0,0,0-.27-2.25A1.52,1.52,0,0,0,65.33,381.84Z" transform="translate(142 15.92)" fill="#9a8bf2"/><path id="4894236b-8589-46f8-b1da-9446691d4965" data-name="&lt;Контур&gt;" d="M64.42,400.9A1.55,1.55,0,1,0,67,402.68a1.55,1.55,0,1,0-2.54-1.77Z" transform="translate(142 15.92)" fill="#9a8bf2"/><path id="65b656af-d663-4278-a829-dad4c9168f48" data-name="&lt;Контур&gt;" d="M58,333.15a1.2,1.2,0,0,0,.06,2c.75.61,1.4.38,2-.38s.63-1.28-.16-1.89S58.59,332.3,58,333.15Z" transform="translate(142 15.92)" fill="#9a8bf2"/><path id="a3fc803c-c4db-4a49-bde8-b1e1d8e3f3d2" data-name="&lt;Контур&gt;" d="M49.86,303.62c-.61.78-.59,1.45.2,2s1.42.2,2-.53.47-1.36-.3-1.85C50.93,302.56,50.41,302.93,49.86,303.62Z" transform="translate(142 15.92)" fill="#9a8bf2"/><path id="a93c651f-6ef8-46f4-ab20-871bc9077e25" data-name="&lt;Контур&gt;" d="M66.54,362.75a1.31,1.31,0,1,0,1.93-.37A1.24,1.24,0,0,0,66.54,362.75Z" transform="translate(142 15.92)" fill="#9a8bf2"/><path id="d4063bcc-c588-4617-8e34-06175561e170" data-name="&lt;Контур&gt;" d="M60.94,478.55a1.31,1.31,0,0,0-.08,2,1.21,1.21,0,0,0,1.86-.06c.65-.78.74-1.48.06-2.08A1.21,1.21,0,0,0,60.94,478.55Z" transform="translate(142 15.92)" fill="#9a8bf2"/><path id="73ec30f8-e52f-48dc-88e7-2893cb1c154a" data-name="&lt;Контур&gt;" d="M73.65,411.55c-.58.71-.19,1.16.34,1.6s1.19.72,1.75-.1a1.26,1.26,0,0,0-.14-1.86C74.9,410.65,74.22,410.86,73.65,411.55Z" transform="translate(142 15.92)" fill="#9a8bf2"/><path id="85cb4ead-e4dd-4be5-b5a1-2430d53548e2" data-name="&lt;Контур&gt;" d="M59.78,498c-.58.72-.17,1.16.35,1.6s1.19.71,1.75-.11a1.26,1.26,0,0,0-.15-1.86C61,497.06,60.35,497.27,59.78,498Z" transform="translate(142 15.92)" fill="#9a8bf2"/><path id="61ba6d28-7168-4987-aaf9-54463be5926d" data-name="&lt;Контур&gt;" d="M67.12,343.55c-.52.53,0,1,.59,1.47s1.11.61,1.63-.12a1.27,1.27,0,0,0-.19-2C68.5,342.47,67.83,342.68,67.12,343.55Z" transform="translate(142 15.92)" fill="#9a8bf2"/><path id="b768635a-3e28-4cc4-9145-dded1228ec0c" data-name="&lt;Контур&gt;" d="M73,430.88c-.66.72-.32,1.24.6,2,.33.28.91.4,1.43-.4a1.29,1.29,0,1,0-2-1.56Z" transform="translate(142 15.92)" fill="#9a8bf2"/><path id="712189ff-e9c7-4362-9aff-7c98b99e25f2" data-name="&lt;Контур&gt;" d="M72.19,450a1.14,1.14,0,0,0,.06,1.71,1,1,0,0,0,1.65-.09,1.3,1.3,0,0,0-.19-1.79A1.19,1.19,0,0,0,72.19,450Z" transform="translate(142 15.92)" fill="#9a8bf2"/><path id="885e0ffc-7f97-4a87-9741-84ce4b08b9e1" data-name="&lt;Контур&gt;" d="M75,392.12a1.14,1.14,0,0,0,0,1.71,1,1,0,0,0,1.66-.07,1.31,1.31,0,0,0-.19-1.8A1.19,1.19,0,0,0,75,392.12Z" transform="translate(142 15.92)" fill="#9a8bf2"/><path id="e050b513-a8c3-4ed7-90d6-02f7cea30c06" data-name="&lt;Контур&gt;" d="M75.86,372.84c-.43.57-.46,1,.15,1.49s1.05.14,1.46-.37.45-1-.31-1.61C76.68,372,76.26,372.3,75.86,372.84Z" transform="translate(142 15.92)" fill="#9a8bf2"/><path id="ff3deeda-c4a6-4cbf-9b60-a7a5a1c36fd2" data-name="&lt;Контур&gt;" d="M77,353.53a.78.78,0,0,0,.15,1.23c.46.37.92.54,1.36-.05A1,1,0,1,0,77,353.53Z" transform="translate(142 15.92)" fill="#9a8bf2"/><path id="d1e510af-7c50-4a74-b385-e37434d9071b" data-name="&lt;Контур&gt;" d="M83.32,421.74c-.43.56-.19,1,.3,1.33a.78.78,0,0,0,1.23-.17,1,1,0,1,0-1.52-1.16Z" transform="translate(142 15.92)" fill="#9a8bf2"/><path id="66e353b7-9540-448e-9174-6291f5ebe3ff" data-name="&lt;Контур&gt;" d="M70.46,488.93c-.43.56-.19,1,.3,1.33a.78.78,0,0,0,1.23-.17,1,1,0,1,0-1.52-1.16Z" transform="translate(142 15.92)" fill="#9a8bf2"/><path id="272f0f5f-b5f7-4aa6-82fc-18336bdb820b" data-name="&lt;Контур&gt;" d="M71.17,469.38a1,1,0,0,0,.12,1.42,1,1,0,0,0,1.54-.08,1.07,1.07,0,1,0-1.66-1.34Z" transform="translate(142 15.92)" fill="#9a8bf2"/><path id="71c5108a-307b-4733-838b-f32235cff879" data-name="&lt;Контур&gt;" d="M84.14,402.83c-.27.3.14.58.45.83s.7.63,1.07.14.48-1-.05-1.43S84.7,402.29,84.14,402.83Z" transform="translate(142 15.92)" fill="#9a8bf2"/><path id="7339ab6b-9e39-44a0-a11f-fb1a44f54f8c" data-name="&lt;Контур&gt;" d="M82.23,441.18c-.35.47.11.77.44,1s.72.56,1,0,.36-1-.09-1.32A1,1,0,0,0,82.23,441.18Z" transform="translate(142 15.92)" fill="#9a8bf2"/><path id="60b9a5b7-b774-44a1-a71e-90c7350b9462" data-name="&lt;Контур&gt;" d="M81.6,460.46c-.56.46-.12.76.17,1s.73.76,1.16.11a1,1,0,0,0,0-1.35A1.06,1.06,0,0,0,81.6,460.46Z" transform="translate(142 15.92)" fill="#9a8bf2"/><path id="b5fb41ab-02bf-4120-9097-576033791bb8" data-name="&lt;Контур&gt;" d="M85.11,383.2c-.52.46-.09.76.2,1s.74.75,1.16.08a1,1,0,0,0-.06-1.33A1.06,1.06,0,0,0,85.11,383.2Z" transform="translate(142 15.92)" fill="#9a8bf2"/></g></g><g id="25a853b5-0b57-4d1f-8102-2f51bc55aede" data-name="&lt;Группа&gt;"><g id="f1402338-22d6-4850-a1f1-46c3a423a262" data-name="&lt;Группа&gt;"><path id="bc43b129-a053-400e-953d-a577aa294de5" data-name="&lt;Контур&gt;" d="M766.52,154.13a4.19,4.19,0,1,0-2-5.66A4.29,4.29,0,0,0,766.52,154.13Z" transform="translate(142 15.92)" fill="#9a8bf2" opacity="0.8"/><path id="ca9ebffc-22b6-4c8b-a66c-913d9c514b7a" data-name="&lt;Контур&gt;" d="M783.18,187a4.23,4.23,0,1,0-1.87-5.69A4.34,4.34,0,0,0,783.18,187Z" transform="translate(142 15.92)" fill="#9a8bf2" opacity="0.8"/><path id="7c385ccf-8ffe-466d-9f34-f5e3de4479ec" data-name="&lt;Контур&gt;" d="M800.3,220.06a3.62,3.62,0,0,0,5.25-1.79c1.23-2.43.64-4.46-1.62-5.57a3.62,3.62,0,0,0-5.21,1.75C797.45,217,798,218.91,800.3,220.06Z" transform="translate(142 15.92)" fill="#9a8bf2" opacity="0.8"/><path id="74cbb915-bece-4da0-9c5e-727d90087791" data-name="&lt;Контур&gt;" d="M744.5,9.2c-1.21,2.32-.62,4.44,1.54,5.54a3.71,3.71,0,0,0,5.23-1.61c1.24-2.35.68-4.55-1.47-5.69A3.91,3.91,0,0,0,744.5,9.2Z" transform="translate(142 15.92)" fill="#9a8bf2" opacity="0.8"/><path id="3a9886ec-7dee-4d29-8308-c04286c40f6b" data-name="&lt;Контур&gt;" d="M786.86,210.29a3.78,3.78,0,0,0,5.24-1.79,3.93,3.93,0,1,0-7-3.45A3.78,3.78,0,0,0,786.86,210.29Z" transform="translate(142 15.92)" fill="#9a8bf2" opacity="0.8"/><path id="256fa26e-939b-4888-bf73-6a50e15f2b6c" data-name="&lt;Контур&gt;" d="M770.15,177a3.71,3.71,0,0,0,5.25-1.56c1.27-2.37.74-4.51-1.42-5.71a3.94,3.94,0,0,0-5.33,1.7C767.43,173.8,768,175.93,770.15,177Z" transform="translate(142 15.92)" fill="#9a8bf2" opacity="0.8"/><path id="36682c70-c6b0-4d4a-9f45-9b5402b76de2" data-name="&lt;Контур&gt;" d="M746.44,97.49a3.73,3.73,0,0,0,5.39-1.56c1.23-2.34.63-4.58-1.51-5.68A3.88,3.88,0,0,0,745,92C743.86,94.28,744.41,96.39,746.44,97.49Z" transform="translate(142 15.92)" fill="#9a8bf2" opacity="0.8"/><path id="519bdf0f-7566-470a-a8b2-55d557eebc69" data-name="&lt;Контур&gt;" d="M749.91,120.67a4,4,0,1,0-1.67-5.45A3.88,3.88,0,0,0,749.91,120.67Z" transform="translate(142 15.92)" fill="#9a8bf2" opacity="0.8"/><path id="ba044bf6-3295-4fd6-a8e8-bd7299b5c06b" data-name="&lt;Контур&gt;" d="M739.58,51.26a4.08,4.08,0,0,0,5.37-1.86,3.92,3.92,0,1,0-7-3.53A4,4,0,0,0,739.58,51.26Z" transform="translate(142 15.92)" fill="#9a8bf2" opacity="0.8"/><path id="02ea9ff0-a1fa-4a70-a35e-dcc0c4b4eb7d" data-name="&lt;Контур&gt;" d="M741.17,69.07a4,4,0,1,0,5.27-1.78A3.88,3.88,0,0,0,741.17,69.07Z" transform="translate(142 15.92)" fill="#9a8bf2" opacity="0.8"/><path id="b70e2027-39f2-4356-b141-b72a91e133c7" data-name="&lt;Контур&gt;" d="M753.18,144.08a4.06,4.06,0,0,0,5.24-1.94,3.9,3.9,0,0,0-7-3.34A4.07,4.07,0,0,0,753.18,144.08Z" transform="translate(142 15.92)" fill="#9a8bf2" opacity="0.8"/><path id="d8796c18-61e7-487e-928a-184117e8ad54" data-name="&lt;Контур&gt;" d="M741-14.16c-1.13,2.2-.45,4.75,1.51,5.65a4,4,0,0,0,5.11-1.87c.94-2,.51-4.1-1.79-5C743.86-16.41,741.92-15.9,741-14.16Z" transform="translate(142 15.92)" fill="#9a8bf2" opacity="0.8"/><path id="e2dced6b-ad68-49a0-9f04-042cada61bd9" data-name="&lt;Контур&gt;" d="M734.55,22.37a4.05,4.05,0,0,0,1.36,5.56,4,4,0,0,0,5.28-1.8,3.45,3.45,0,0,0-1.63-5C737.39,20.15,735.48,20.55,734.55,22.37Z" transform="translate(142 15.92)" fill="#9a8bf2" opacity="0.8"/><path id="4fe43a17-d442-4141-bd50-c7a01d5b1bb4" data-name="&lt;Контур&gt;" d="M803.69,243.06a4,4,0,0,0,5.12-1.83c1-2,.56-4.09-1.74-5-2.07-1-4.06-.49-5,1.37A4,4,0,0,0,803.69,243.06Z" transform="translate(142 15.92)" fill="#9a8bf2" opacity="0.8"/><path id="e1e189e3-60a7-4e39-bf1f-aac945e0fdc9" data-name="&lt;Контур&gt;" d="M773.62,200.08a4,4,0,0,0,5.13-1.8c1-2,.58-4.09-1.72-5.05-2.08-1-4.06-.5-5,1.35A4,4,0,0,0,773.62,200.08Z" transform="translate(142 15.92)" fill="#9a8bf2" opacity="0.8"/><path id="78dd1e66-dc06-4853-81d0-e888fd77984a" data-name="&lt;Контур&gt;" d="M756.71,167.13a3.8,3.8,0,1,0-1.56-5.07A3.89,3.89,0,0,0,756.71,167.13Z" transform="translate(142 15.92)" fill="#9a8bf2" opacity="0.8"/><path id="a49b67d8-ed43-4161-9029-d0b01947c08d" data-name="&lt;Контур&gt;" d="M790.35,233c2,1,3.73.37,4.77-1.72s.49-4-1.49-5-3.79-.25-4.84,1.85S788.33,232,790.35,233Z" transform="translate(142 15.92)" fill="#9a8bf2" opacity="0.8"/><path id="63ba194e-46a8-4c8a-be76-aa4776f1bd1a" data-name="&lt;Контур&gt;" d="M731.93,82.42c-1.17,2.28-.73,3.93,1.34,5s3.73.55,4.79-1.51c1.18-2.29.69-4.06-1.39-5.1A3.28,3.28,0,0,0,731.93,82.42Z" transform="translate(142 15.92)" fill="#9a8bf2" opacity="0.8"/><path id="35a8bbf2-ebcb-4291-a8f7-ae84e150b733" data-name="&lt;Контур&gt;" d="M736.54,110.58a3.64,3.64,0,1,0-1.49-5A3.57,3.57,0,0,0,736.54,110.58Z" transform="translate(142 15.92)" fill="#9a8bf2" opacity="0.8"/><path id="11ef4cec-8d8d-40ce-9cc7-b56f02c21e5e" data-name="&lt;Контур&gt;" d="M732.84,4.65a3.42,3.42,0,0,0,4.8-1.79A3.77,3.77,0,0,0,736.11-2a3.82,3.82,0,0,0-4.89,2A3.39,3.39,0,0,0,732.84,4.65Z" transform="translate(142 15.92)" fill="#9a8bf2" opacity="0.8"/><path id="91645599-fd87-4ae8-a8c9-cc9e0ae27e70" data-name="&lt;Контур&gt;" d="M738.65,129.11a3.59,3.59,0,1,0,4.89-1.72A3.51,3.51,0,0,0,738.65,129.11Z" transform="translate(142 15.92)" fill="#9a8bf2" opacity="0.8"/><path id="22bbf77e-cc10-4dc0-abe4-db14ed1c6337" data-name="&lt;Контур&gt;" d="M729.68,64.29A3.59,3.59,0,1,0,728,59.53,3.5,3.5,0,0,0,729.68,64.29Z" transform="translate(142 15.92)" fill="#9a8bf2" opacity="0.8"/><path id="249c4652-9a23-4d6a-a5b2-cb843a7a4862" data-name="&lt;Контур&gt;" d="M760.28,190a3.55,3.55,0,1,0-1.59-4.79A3.5,3.5,0,0,0,760.28,190Z" transform="translate(142 15.92)" fill="#9a8bf2" opacity="0.8"/><path id="db6b4ab5-f345-463a-840b-a8a10c66a57c" data-name="&lt;Контур&gt;" d="M743.6,156.77a3.66,3.66,0,0,0,4.81-1.56c1-2,.49-3.61-1.51-4.65s-3.67-.58-4.7,1.36A3.67,3.67,0,0,0,743.6,156.77Z" transform="translate(142 15.92)" fill="#9a8bf2" opacity="0.8"/><path id="c051da9a-4699-4f18-9abe-6c539540ae01" data-name="&lt;Контур&gt;" d="M777,222.83a3.64,3.64,0,0,0,4.78-1.63c1-2,.42-3.61-1.58-4.63s-3.67-.53-4.68,1.43A3.66,3.66,0,0,0,777,222.83Z" transform="translate(142 15.92)" fill="#9a8bf2" opacity="0.8"/><path id="9d78d227-c53f-41c7-8514-d57cbca2c2fe" data-name="&lt;Контур&gt;" d="M807.13,265.75a3.84,3.84,0,0,0,4.66-1.56,3.15,3.15,0,0,0-1.19-4.38c-2.35-1.26-3.75-1-4.81,1C804.41,262.41,805.88,265.08,807.13,265.75Z" transform="translate(142 15.92)" fill="#9a8bf2" opacity="0.8"/><path id="a074e475-8b89-4e88-bda0-64a1694651c6" data-name="&lt;Контур&gt;" d="M728,15.93a3.09,3.09,0,0,0-1.6-4.4c-2.14-1.08-3.43-.59-4.61,1.33-1,1.64.2,4.1,1.47,4.79A3.79,3.79,0,0,0,728,15.93Z" transform="translate(142 15.92)" fill="#9a8bf2" opacity="0.8"/><path id="59a6c9ea-778c-4f31-92b2-cf7209d31e6b" data-name="&lt;Контур&gt;" d="M724.8,36.38a3.52,3.52,0,1,0,4.84-1.46A3.54,3.54,0,0,0,724.8,36.38Z" transform="translate(142 15.92)" fill="#9a8bf2" opacity="0.8"/><path id="211f9a38-5855-4964-874f-e14872301a8c" data-name="&lt;Контур&gt;" d="M724.43,76.05a3.33,3.33,0,1,0-4.5,1.42A3.35,3.35,0,0,0,724.43,76.05Z" transform="translate(142 15.92)" fill="#9a8bf2" opacity="0.8"/><path id="d8f0edbd-4a5e-411b-886f-b41bdfc2d3e7" data-name="&lt;Контур&gt;" d="M745.46,175.35a3.4,3.4,0,1,0,6,3.14,3.33,3.33,0,0,0-1.55-4.44A3.23,3.23,0,0,0,745.46,175.35Z" transform="translate(142 15.92)" fill="#9a8bf2" opacity="0.8"/><path id="ca581a5b-773f-4c9c-9350-9c22f40dea8c" data-name="&lt;Контур&gt;" d="M764,213.09a3.59,3.59,0,0,0,4.61-1.54,3.4,3.4,0,0,0-6-3.23A3.59,3.59,0,0,0,764,213.09Z" transform="translate(142 15.92)" fill="#9a8bf2" opacity="0.8"/><path id="6334d181-2b41-47b1-8e25-f492e9f7796c" data-name="&lt;Контур&gt;" d="M721.89,95.79a3.4,3.4,0,1,0,6,3.08,3.31,3.31,0,0,0-1.55-4.29A3.27,3.27,0,0,0,721.89,95.79Z" transform="translate(142 15.92)" fill="#9a8bf2" opacity="0.8"/><path id="a4c2c4f2-ed98-41d5-b56a-b2449a2de4f8" data-name="&lt;Контур&gt;" d="M794.16,256.08a3.33,3.33,0,1,0-1.57-4.48A3.35,3.35,0,0,0,794.16,256.08Z" transform="translate(142 15.92)" fill="#9a8bf2" opacity="0.8"/><path id="f4315056-cc92-4a5c-a45e-69bd39ea776a" data-name="&lt;Контур&gt;" d="M726.95,123.78a3.33,3.33,0,1,0-1.42-4.52A3.35,3.35,0,0,0,726.95,123.78Z" transform="translate(142 15.92)" fill="#9a8bf2" opacity="0.8"/><path id="6e261720-cb3a-4344-98ea-f27bb29cf76f" data-name="&lt;Контур&gt;" d="M721.12,52.5c1-1.91.54-3.62-1.17-4.52s-3.42-.29-4.37,1.59a3.13,3.13,0,1,0,5.54,2.92Z" transform="translate(142 15.92)" fill="#9a8bf2" opacity="0.8"/><path id="e6fde21c-bab5-4956-8e0f-22901fa31571" data-name="&lt;Контур&gt;" d="M729.06,142.33c-.95,1.86-.46,3.46,1.33,4.35a2.91,2.91,0,0,0,4.19-1.38c1-1.92.57-3.62-1.13-4.53A3,3,0,0,0,729.06,142.33Z" transform="translate(142 15.92)" fill="#9a8bf2" opacity="0.8"/><path id="1f70735e-80ce-4c5f-aae7-d52432952050" data-name="&lt;Контур&gt;" d="M723.93-7.29c1-1.89.54-3.3-1.27-4.47-1.51-1-3.36-.23-4.23,1.46-1,1.86-.44,3.61,1.31,4.47A3.07,3.07,0,0,0,723.93-7.29Z" transform="translate(142 15.92)" fill="#9a8bf2" opacity="0.8"/><path id="5523f825-c746-4ca1-bef1-ab0d0ffc1edb" data-name="&lt;Контур&gt;" d="M780.74,246.1a3,3,0,0,0,4.19-1.43,3.13,3.13,0,0,0-1.21-4.51,3.08,3.08,0,0,0-4.26,1.47C778.51,243.48,779,245.24,780.74,246.1Z" transform="translate(142 15.92)" fill="#9a8bf2" opacity="0.8"/><path id="63b6b01d-8c6b-4e50-a541-3e7e1e7106c9" data-name="&lt;Контур&gt;" d="M750.62,203.09a3.11,3.11,0,0,0,4.28-1.43,3.33,3.33,0,0,0-1.21-4.46,3.36,3.36,0,0,0-4.25,1.39A3.14,3.14,0,0,0,750.62,203.09Z" transform="translate(142 15.92)" fill="#9a8bf2" opacity="0.8"/><path id="4484937c-ce6c-4a57-8942-f3dabe1d9288" data-name="&lt;Контур&gt;" d="M717.48,29.21a3.33,3.33,0,0,0-1.22-4.46,3.41,3.41,0,0,0-4.25,1.4,3.14,3.14,0,1,0,5.47,3.06Z" transform="translate(142 15.92)" fill="#9a8bf2" opacity="0.8"/><path id="161d3552-d1d9-490d-9374-56117d8a152b" data-name="&lt;Контур&gt;" d="M766.07,231.75a3.11,3.11,0,0,0,5.55,2.82,3.11,3.11,0,1,0-5.55-2.82Z" transform="translate(142 15.92)" fill="#9a8bf2" opacity="0.8"/><path id="d889a788-3f1e-4bfd-92ea-3e5fedae01a0" data-name="&lt;Контур&gt;" d="M717.91,112a3,3,0,1,0-4,1.4A3.15,3.15,0,0,0,717.91,112Z" transform="translate(142 15.92)" fill="#9a8bf2" opacity="0.8"/><path id="9c48c523-2330-43bf-a0ad-32cfd8b85715" data-name="&lt;Контур&gt;" d="M738.24,168.56a3.12,3.12,0,1,0-4.17,1.36A3.14,3.14,0,0,0,738.24,168.56Z" transform="translate(142 15.92)" fill="#9a8bf2" opacity="0.8"/><path id="44bc315f-ad25-46bc-b615-73ea432dc9b1" data-name="&lt;Контур&gt;" d="M811,288.67a3.4,3.4,0,0,0,4.15-1.46,2.92,2.92,0,0,0-1.46-4.07c-1.62-.8-3.13-.41-3.85,1A3.34,3.34,0,0,0,811,288.67Z" transform="translate(142 15.92)" fill="#9a8bf2" opacity="0.8"/><path id="5e897d44-4ef5-431a-b8b4-bbb5309bc910" data-name="&lt;Контур&gt;" d="M714.68,88.87a2.86,2.86,0,0,0-1.37-4c-1.73-.88-3.26-.49-4,1a3.34,3.34,0,0,0,1.25,4.49A3.41,3.41,0,0,0,714.68,88.87Z" transform="translate(142 15.92)" fill="#9a8bf2" opacity="0.8"/><path id="e38d46cc-c530-4bf2-927c-11c4be603a89" data-name="&lt;Контур&gt;" d="M721.44,135.44c.59-1.49.71-2.87-1.45-3.89a2.71,2.71,0,0,0-3.77.87,3.32,3.32,0,0,0,1.13,4.54A3.13,3.13,0,0,0,721.44,135.44Z" transform="translate(142 15.92)" fill="#9a8bf2" opacity="0.8"/><path id="8db0388e-e113-439b-816c-15ad9bfd24d0" data-name="&lt;Контур&gt;" d="M711,65.54c.79-2,.2-3.1-1.48-3.88a2.7,2.7,0,0,0-3.75.9,3.3,3.3,0,0,0,1.16,4.53A3.16,3.16,0,0,0,711,65.54Z" transform="translate(142 15.92)" fill="#9a8bf2" opacity="0.8"/><path id="3ece3525-b4c8-4acd-98f6-db517a7d6a9c" data-name="&lt;Контур&gt;" d="M714.09,6c.79-2,.21-3.1-1.48-3.88a2.7,2.7,0,0,0-3.76.9A3.3,3.3,0,0,0,710,7.5,3.16,3.16,0,0,0,714.09,6Z" transform="translate(142 15.92)" fill="#9a8bf2" opacity="0.8"/><path id="2cdc3ad3-94b7-4d4a-bde3-650fa917ed8d" data-name="&lt;Контур&gt;" d="M797.52,278.75a3,3,0,1,0-1.21-4A3,3,0,0,0,797.52,278.75Z" transform="translate(142 15.92)" fill="#9a8bf2" opacity="0.8"/><path id="7af603da-efa5-4bfe-8d5e-ba1553d7f49d" data-name="&lt;Контур&gt;" d="M754.1,225.8c1.75.9,2.88.52,3.78-1.27s.62-3.11-1.12-4-2.87-.35-3.81,1.56C752.11,223.83,752.47,225,754.1,225.8Z" transform="translate(142 15.92)" fill="#9a8bf2" opacity="0.8"/><path id="68579170-68b7-4d70-a28e-f3e7db609196" data-name="&lt;Контур&gt;" d="M736.45,188.72c-1,1.85-.66,3,1,3.86s2.9.54,3.79-1.22.63-3.13-1.07-4S737.35,187,736.45,188.72Z" transform="translate(142 15.92)" fill="#9a8bf2" opacity="0.8"/><path id="d5d81abb-299d-4827-9c69-538223824685" data-name="&lt;Контур&gt;" d="M707.33,42.51a2.76,2.76,0,0,0-1.11-4,2.88,2.88,0,0,0-3.65,1.3c-.91,1.71-.58,3.07.95,3.91A2.55,2.55,0,0,0,707.33,42.51Z" transform="translate(142 15.92)" fill="#9a8bf2" opacity="0.8"/><path id="6a8f6787-9827-4f1d-b5e9-1bc4aa0dff76" data-name="&lt;Контур&gt;" d="M784.24,268.81c1.59.79,2.9.29,3.75-1.41a2.76,2.76,0,0,0-1.15-3.85,2.84,2.84,0,0,0-3.76,1.43C782.23,266.68,782.64,268,784.24,268.81Z" transform="translate(142 15.92)" fill="#9a8bf2" opacity="0.8"/><path id="c98f148e-8f89-49ec-9b43-bb3046e136b4" data-name="&lt;Контур&gt;" d="M724.56,158.35a2.83,2.83,0,0,0-1.2-3.83,2.86,2.86,0,0,0-3.74,1.47c-.83,1.7-.41,3,1.21,3.82S723.73,160.06,724.56,158.35Z" transform="translate(142 15.92)" fill="#9a8bf2" opacity="0.8"/><path id="b774343c-7242-4e81-a75c-c9e2b7224109" data-name="&lt;Контур&gt;" d="M770.27,254.79a3,3,0,0,0,.82,3.95,2.89,2.89,0,0,0,3.87-1.11,3,3,0,0,0-1-4A3.09,3.09,0,0,0,770.27,254.79Z" transform="translate(142 15.92)" fill="#9a8bf2" opacity="0.8"/><path id="88e42eab-d0f7-4464-b418-9a3a173430b3" data-name="&lt;Контур&gt;" d="M745,214.5a3,3,0,0,0-1.09-3.85,3.08,3.08,0,0,0-3.77,1.32A2.75,2.75,0,1,0,745,214.5Z" transform="translate(142 15.92)" fill="#9a8bf2" opacity="0.8"/><path id="d0d83e0c-e300-41bc-ac3c-35389aee31bc" data-name="&lt;Контур&gt;" d="M727.88,181.32c.68-1.44.21-2.57-1.37-3.36s-2.77-.49-3.56,1.14a2.71,2.71,0,1,0,4.93,2.22Z" transform="translate(142 15.92)" fill="#9a8bf2" opacity="0.8"/><path id="65747da0-bafc-47b2-a27c-f68f9bf6cf32" data-name="&lt;Контур&gt;" d="M704.28,101.84c.69-1.44.23-2.58-1.35-3.36s-2.78-.51-3.57,1.12a2.71,2.71,0,1,0,4.92,2.25Z" transform="translate(142 15.92)" fill="#9a8bf2" opacity="0.8"/><path id="9ccab9ac-1fb3-4005-836b-65805116b892" data-name="&lt;Контур&gt;" d="M700.78,79.07a2.67,2.67,0,1,0-3.52,1.18A2.78,2.78,0,0,0,700.78,79.07Z" transform="translate(142 15.92)" fill="#9a8bf2" opacity="0.8"/><path id="0fd60be9-8e61-4dd6-9240-05ec2e4bb25a" data-name="&lt;Контур&gt;" d="M707.88,125.09c.66-1.53.09-2.6-1.3-3.31a2.43,2.43,0,0,0-3.52,1.13,2.65,2.65,0,1,0,4.82,2.19Z" transform="translate(142 15.92)" fill="#9a8bf2" opacity="0.8"/><path id="c02e5038-0996-469c-83e8-1e0fa7e76a0e" data-name="&lt;Контур&gt;" d="M703.61,19.32A2.71,2.71,0,1,0,700,20.51,2.78,2.78,0,0,0,703.61,19.32Z" transform="translate(142 15.92)" fill="#9a8bf2" opacity="0.8"/><path id="5da0df2d-9e67-4d54-8958-6f19550464ed" data-name="&lt;Контур&gt;" d="M758,249a2.79,2.79,0,0,0,3.58-1.45,2.33,2.33,0,0,0-1.28-3.32,2.43,2.43,0,0,0-3.53,1.11A2.79,2.79,0,0,0,758,249Z" transform="translate(142 15.92)" fill="#9a8bf2" opacity="0.8"/><path id="e6f8f9a3-5537-49f4-bb75-a5e30d560a9c" data-name="&lt;Контур&gt;" d="M697.07,55.6c.54-1.32.57-2.61-1.19-3.29-1.53-.78-2.66-.45-3.4,1.06a2.58,2.58,0,0,0,1.19,3.54A2.48,2.48,0,0,0,697.07,55.6Z" transform="translate(142 15.92)" fill="#9a8bf2" opacity="0.8"/><path id="bffe6e13-225f-4d5c-9dda-530fc3f2ae38" data-name="&lt;Контур&gt;" d="M700.19-4c.56-1.31.6-2.59-1.18-3.32-1.49-.76-2.65-.44-3.38,1a2.58,2.58,0,0,0,1.14,3.55A2.47,2.47,0,0,0,700.19-4Z" transform="translate(142 15.92)" fill="#9a8bf2" opacity="0.8"/><path id="db1c143e-1cd8-4862-b461-9e08cc55efcb" data-name="&lt;Контур&gt;" d="M711,148.25c.57-1.3.63-2.59-1.28-3.4a2.16,2.16,0,0,0-3.25,1.08,2.58,2.58,0,0,0,1.11,3.56A2.48,2.48,0,0,0,711,148.25Z" transform="translate(142 15.92)" fill="#9a8bf2" opacity="0.8"/><path id="9d90665c-c6b7-4a0c-af08-9e803e2821ff" data-name="&lt;Контур&gt;" d="M731.16,204.59c.69-1.38.36-2.92-1-3.37s-2.55-.46-3.17,1.12-.41,2.76.95,3.39A2.16,2.16,0,0,0,731.16,204.59Z" transform="translate(142 15.92)" fill="#9a8bf2" opacity="0.8"/><path id="0e5195b2-3da0-4b58-8daf-c4df4cf7797d" data-name="&lt;Контур&gt;" d="M747.72,237.9a2.22,2.22,0,0,0-.82-3.39,2.14,2.14,0,0,0-3.2.9c-.8,1.4-.52,2.82.76,3.47A2.26,2.26,0,0,0,747.72,237.9Z" transform="translate(142 15.92)" fill="#9a8bf2" opacity="0.8"/><path id="f2e293f1-a6f2-4488-b5c2-40250be91ef6" data-name="&lt;Контур&gt;" d="M714.37,171.79a2.21,2.21,0,0,0-.92-3.36,2.12,2.12,0,0,0-3.17,1c-.78,1.42-.46,2.81.86,3.44A2.26,2.26,0,0,0,714.37,171.79Z" transform="translate(142 15.92)" fill="#9a8bf2" opacity="0.8"/><path id="5957be24-d120-4c2f-841f-509e5cce160a" data-name="&lt;Контур&gt;" d="M693.55,32.6a2.38,2.38,0,0,0-4.23-2.2c-.74,1.36-.29,2.47,1.07,3.36A2.31,2.31,0,0,0,693.55,32.6Z" transform="translate(142 15.92)" fill="#9a8bf2" opacity="0.8"/><path id="a56dfe79-5113-4de8-8670-23f5137412ab" data-name="&lt;Контур&gt;" d="M690.69,92.26a2.28,2.28,0,0,0-4.09-2c-.67,1.27-.17,2.35,1,3.14A2.29,2.29,0,0,0,690.69,92.26Z" transform="translate(142 15.92)" fill="#9a8bf2" opacity="0.8"/><path id="80d4d1bd-e433-402d-aab0-8590b4498412" data-name="&lt;Контур&gt;" d="M694,115.37a2.08,2.08,0,0,0-.93-3c-1.26-.68-2.41-.51-3.09.82a2.19,2.19,0,0,0,.92,3.16A2.26,2.26,0,0,0,694,115.37Z" transform="translate(142 15.92)" fill="#9a8bf2" opacity="0.8"/><path id="a52a4d02-2513-4e11-9ac9-4b0d6f7828bb" data-name="&lt;Контур&gt;" d="M717.67,194.67c.62-1.36,0-2.36-1.27-2.94s-2.23-.13-3,1.16a2.27,2.27,0,0,0,1.17,3A2.19,2.19,0,0,0,717.67,194.67Z" transform="translate(142 15.92)" fill="#9a8bf2" opacity="0.8"/><path id="0436eb02-9278-4769-b0a0-1e048adaaac4" data-name="&lt;Контур&gt;" d="M697.37,138.38a2.12,2.12,0,0,0-1.2-3.06,2,2,0,0,0-2.89,1,2.18,2.18,0,0,0,1,3.13A2.27,2.27,0,0,0,697.37,138.38Z" transform="translate(142 15.92)" fill="#9a8bf2" opacity="0.8"/><path id="b3325192-ad6e-4c6f-8874-202855ea8740" data-name="&lt;Контур&gt;" d="M690.18,9.44A2.12,2.12,0,0,0,689,6.37a2,2,0,0,0-2.89,1,2.18,2.18,0,0,0,1,3.13A2.27,2.27,0,0,0,690.18,9.44Z" transform="translate(142 15.92)" fill="#9a8bf2" opacity="0.8"/><path id="5495b607-71ba-4b35-84f1-3dde350b8770" data-name="&lt;Контур&gt;" d="M734.4,227.64a2,2,0,0,0-.92-2.91,2.12,2.12,0,0,0-3.17.87,2.27,2.27,0,0,0,1,3.1A2.18,2.18,0,0,0,734.4,227.64Z" transform="translate(142 15.92)" fill="#9a8bf2" opacity="0.8"/><path id="9712d314-e6aa-4d87-9076-05700bc17148" data-name="&lt;Контур&gt;" d="M687.08,68.88c.62-1.36,0-2.36-1.27-2.94a2.07,2.07,0,0,0-2.92,1.1A2.26,2.26,0,0,0,684,70.11,2.19,2.19,0,0,0,687.08,68.88Z" transform="translate(142 15.92)" fill="#9a8bf2" opacity="0.8"/><path id="f0acbf53-ab1b-4b01-afc7-5aa73e32cbd6" data-name="&lt;Контур&gt;" d="M683.81,45.47a1.81,1.81,0,0,0-1-2.8,1.74,1.74,0,0,0-2.73.46,2.29,2.29,0,0,0,.64,3.38A2.12,2.12,0,0,0,683.81,45.47Z" transform="translate(142 15.92)" fill="#9a8bf2" opacity="0.8"/><path id="f6aa25a1-43e2-4239-be8b-7325b219c5c6" data-name="&lt;Контур&gt;" d="M700.71,161.57c.76-1.31.49-2.38-.76-3-1-.46-2.13-.48-2.58.85-.71,1.23-.73,2.23.64,2.94A1.77,1.77,0,0,0,700.71,161.57Z" transform="translate(142 15.92)" fill="#9a8bf2" opacity="0.8"/><path id="e700eb59-546b-45a1-b747-437c8e7cb4be" data-name="&lt;Контур&gt;" d="M750.83,260.48c.8-1.18.15-2.15-.93-2.67a1.83,1.83,0,0,0-2.71,1.12c-.52,1.23-.39,2.07.84,2.7S750.22,261.87,750.83,260.48Z" transform="translate(142 15.92)" fill="#9a8bf2" opacity="0.8"/><path id="b5ac118e-0bd5-4dfe-af38-85d19d7f2b99" data-name="&lt;Контур&gt;" d="M720.92,217.26c.51-.83,0-1.88-1.08-2.43a1.86,1.86,0,0,0-2.64,1c-.59,1.19-.45,2.14.78,2.78S720.08,218.86,720.92,217.26Z" transform="translate(142 15.92)" fill="#9a8bf2" opacity="0.8"/><path id="592d771d-e00e-4fff-9f47-cc133e0fc6a3" data-name="&lt;Контур&gt;" d="M680,22.11a1.85,1.85,0,0,0-.78-2.73,1.92,1.92,0,0,0-2.79,1.05A2,2,0,1,0,680,22.11Z" transform="translate(142 15.92)" fill="#9a8bf2" opacity="0.8"/><path id="ec210fc0-7bb5-4a13-80aa-23a3f6e7aaf0" data-name="&lt;Контур&gt;" d="M704,184.63a1.79,1.79,0,0,0-.82-2.62,1.94,1.94,0,1,0-1.81,3.44A1.79,1.79,0,0,0,704,184.63Z" transform="translate(142 15.92)" fill="#9a8bf2" opacity="0.8"/><path id="986c7e18-a589-43b9-9b87-ecd421be4347" data-name="&lt;Контур&gt;" d="M737.76,250.75c.66-1.12.14-1.9-.78-2.52-1.06-.46-2-.57-2.61.63a1.9,1.9,0,0,0,.78,2.79A1.88,1.88,0,0,0,737.76,250.75Z" transform="translate(142 15.92)" fill="#9a8bf2" opacity="0.8"/><path id="d9dfcf27-a699-46d1-b119-9d04be664942" data-name="&lt;Контур&gt;" d="M680.37,105.14a1.64,1.64,0,0,0-1-2.3c-1.06-.54-1.94-.37-2.68.95a1.93,1.93,0,0,0,1,2.52A1.9,1.9,0,0,0,680.37,105.14Z" transform="translate(142 15.92)" fill="#9a8bf2" opacity="0.8"/><path id="98a04c0f-d9f5-458b-8070-d07c25dec426" data-name="&lt;Контур&gt;" d="M677.21,81.74a1.64,1.64,0,0,0-1-2.3,1.75,1.75,0,0,0-2.62.82,2,2,0,1,0,3.6,1.49Z" transform="translate(142 15.92)" fill="#9a8bf2" opacity="0.8"/><path id="923f8d28-cc6b-4569-8f23-9e1a34969899" data-name="&lt;Контур&gt;" d="M673.44,58.53c.53-1.12,0-1.83-1.16-2.37a1.47,1.47,0,0,0-2.22.82,1.81,1.81,0,0,0,.84,2.61A1.83,1.83,0,0,0,673.44,58.53Z" transform="translate(142 15.92)" fill="#9a8bf2" opacity="0.8"/><path id="750ec8ad-36d6-4c42-a0e6-d54db9022788" data-name="&lt;Контур&gt;" d="M687.27,151.47c.53-1.13,0-1.82-1.19-2.38a1.47,1.47,0,0,0-2.19.85,1.8,1.8,0,0,0,.85,2.61A1.83,1.83,0,0,0,687.27,151.47Z" transform="translate(142 15.92)" fill="#9a8bf2" opacity="0.8"/><path id="97f42d39-ec6e-4cb4-bd12-dd808e50a203" data-name="&lt;Контур&gt;" d="M683.87,128.61a1.88,1.88,0,1,0-3.44-1.51,1.88,1.88,0,1,0,3.44,1.51Z" transform="translate(142 15.92)" fill="#9a8bf2" opacity="0.8"/><path id="c423984a-1688-4cbe-8c02-9ed4e2d8573c" data-name="&lt;Контур&gt;" d="M676.35-.8a1.63,1.63,0,0,0-.61-2.35,1.74,1.74,0,0,0-2.52.66,1.72,1.72,0,0,0,.65,2.34A1.66,1.66,0,0,0,676.35-.8Z" transform="translate(142 15.92)" fill="#9a8bf2" opacity="0.8"/><path id="f87d73ee-ce68-45fe-b808-ae797aac97cf" data-name="&lt;Контур&gt;" d="M707.38,207.58a1.45,1.45,0,0,0-.54-2.34c-1-.55-1.75-.12-2.27.92s-.45,1.67.64,2.21S706.93,208.72,707.38,207.58Z" transform="translate(142 15.92)" fill="#9a8bf2" opacity="0.8"/><path id="46ebab52-7ce9-4281-92e2-ab877839be3d" data-name="&lt;Контур&gt;" d="M724,240.72c.54-1.06.36-1.86-.71-2.34s-1.73.1-2.22,1.09-.24,1.72.79,2.12C723,242.23,723.56,241.67,724,240.72Z" transform="translate(142 15.92)" fill="#9a8bf2" opacity="0.8"/><path id="80501859-ac63-45be-827c-ca424a2c45f9" data-name="&lt;Контур&gt;" d="M690.33,174.43a1.59,1.59,0,1,0-2.21.89A1.5,1.5,0,0,0,690.33,174.43Z" transform="translate(142 15.92)" fill="#9a8bf2" opacity="0.8"/><path id="dcfa76aa-42cb-4c51-9766-76a51a39f81f" data-name="&lt;Контур&gt;" d="M669.73,35.59a1.58,1.58,0,0,0-.37-2.37,1.47,1.47,0,0,0-2.2.5c-.59,1.08-.53,1.93.42,2.49A1.46,1.46,0,0,0,669.73,35.59Z" transform="translate(142 15.92)" fill="#9a8bf2" opacity="0.8"/><path id="1ea46c1f-09c7-4be7-9a42-e398e69979b8" data-name="&lt;Контур&gt;" d="M670.39,118.14c.52-1,0-1.42-.78-1.82s-1.58-.58-2,.53a1.53,1.53,0,0,0,.61,2.17C669.12,119.51,669.88,119.1,670.39,118.14Z" transform="translate(142 15.92)" fill="#9a8bf2" opacity="0.8"/><path id="60fc1c61-a8df-4280-86bd-5574bb45f62c" data-name="&lt;Контур&gt;" d="M666.54,12.25c.52-1-.07-1.41-.79-1.82s-1.58-.57-2,.54a1.53,1.53,0,0,0,.62,2.17C665.27,13.63,666,13.21,666.54,12.25Z" transform="translate(142 15.92)" fill="#9a8bf2" opacity="0.8"/><path id="75c05b80-9b19-4722-9742-6be28d97a15b" data-name="&lt;Контур&gt;" d="M694.15,197.36c.49-.75-.26-1.21-1.05-1.61s-1.46-.46-1.9.53-.29,1.85.69,2.29S693.52,198.56,694.15,197.36Z" transform="translate(142 15.92)" fill="#9a8bf2" opacity="0.8"/><path id="1e48e627-b641-4a95-b8e6-2c53e5b16ecb" data-name="&lt;Контур&gt;" d="M666.66,95c.61-1,.09-1.55-1.18-2.19-.45-.26-1.17-.26-1.61.81A1.56,1.56,0,1,0,666.66,95Z" transform="translate(142 15.92)" fill="#9a8bf2" opacity="0.8"/><path id="49f0ef00-3fe6-4a5c-843b-4fde0c1f0cec" data-name="&lt;Контур&gt;" d="M663.08,72.16a1.38,1.38,0,0,0-.47-2,1.25,1.25,0,0,0-1.94.49,1.58,1.58,0,0,0,.65,2.08A1.44,1.44,0,0,0,663.08,72.16Z" transform="translate(142 15.92)" fill="#9a8bf2" opacity="0.8"/><path id="7fd30bb3-6b04-4ad3-8774-c0b4b04eb591" data-name="&lt;Контур&gt;" d="M673.4,141.53a1.38,1.38,0,0,0-.45-2A1.25,1.25,0,0,0,671,140a1.58,1.58,0,0,0,.65,2.09A1.44,1.44,0,0,0,673.4,141.53Z" transform="translate(142 15.92)" fill="#9a8bf2" opacity="0.8"/><path id="8cada946-c5ce-4756-9ec5-cbdb85edefdd" data-name="&lt;Контур&gt;" d="M676.88,164.63c.37-.77.31-1.34-.53-1.73s-1.28.08-1.65.78-.29,1.35.75,1.83C676.1,165.81,676.53,165.37,676.88,164.63Z" transform="translate(142 15.92)" fill="#9a8bf2" opacity="0.8"/><path id="eb692f8f-fe4a-4937-845c-d20f8d40a709" data-name="&lt;Контур&gt;" d="M680.11,187.83a.94.94,0,0,0-.46-1.43c-.64-.33-1.22-.42-1.61.38a1.16,1.16,0,1,0,2.07,1Z" transform="translate(142 15.92)" fill="#9a8bf2" opacity="0.8"/><path id="d544c965-67cd-4b59-a49b-bdc5b37ee803" data-name="&lt;Контур&gt;" d="M656.52,108.32c.38-.77,0-1.19-.66-1.5a1,1,0,0,0-1.42.49,1.17,1.17,0,1,0,2.08,1Z" transform="translate(142 15.92)" fill="#9a8bf2" opacity="0.8"/><path id="68547cd3-8e3f-4d12-8902-f5ac7eeb4da2" data-name="&lt;Контур&gt;" d="M656,25.5c.38-.77,0-1.19-.66-1.5a1,1,0,0,0-1.42.49,1.17,1.17,0,1,0,2.08,1Z" transform="translate(142 15.92)" fill="#9a8bf2" opacity="0.8"/><path id="b7a5d206-d665-473a-82e4-014bdb092708" data-name="&lt;Контур&gt;" d="M659.73,48.88a1.17,1.17,0,0,0-.48-1.66,1.19,1.19,0,0,0-1.8.46,1.29,1.29,0,1,0,2.29,1.2Z" transform="translate(142 15.92)" fill="#9a8bf2" opacity="0.8"/><path id="a9802ce2-ac4b-43ce-a7b4-218a41170fb3" data-name="&lt;Контур&gt;" d="M660,131c.25-.42-.3-.66-.73-.88s-1-.58-1.3.08-.33,1.34.4,1.68S659.46,131.74,660,131Z" transform="translate(142 15.92)" fill="#9a8bf2" opacity="0.8"/><path id="f1fc5884-8fdc-4c95-bf78-136d43e5519b" data-name="&lt;Контур&gt;" d="M653.24,85c.3-.64-.31-.88-.76-1.08s-1-.49-1.23.27c-.19.62-.19,1.25.42,1.54A1.16,1.16,0,0,0,653.24,85Z" transform="translate(142 15.92)" fill="#9a8bf2" opacity="0.8"/><path id="2254187f-639c-4437-b551-e8f38b7658f6" data-name="&lt;Контур&gt;" d="M649.45,61.93c.55-.67,0-.93-.45-1.17s-1.05-.73-1.41.15A1.26,1.26,0,0,0,648,62.5,1.29,1.29,0,0,0,649.45,61.93Z" transform="translate(142 15.92)" fill="#9a8bf2" opacity="0.8"/><path id="5a953f74-ed90-421d-bbcc-17990a988bc8" data-name="&lt;Контур&gt;" d="M663.46,154.51c.51-.67-.07-.93-.48-1.16s-1.06-.71-1.4.18a1.25,1.25,0,0,0,.39,1.57A1.29,1.29,0,0,0,663.46,154.51Z" transform="translate(142 15.92)" fill="#9a8bf2" opacity="0.8"/></g></g><rect id="1eb2ccf5-cc9c-4d55-8b9f-eac52bdcc824" data-name="&lt;Прямоугольник&gt;" y="110.92" width="750" height="500" fill="none"/></svg>