<svg id="0cab2333-c576-430c-9ef7-1c9c376916ac" data-name="Elements" xmlns="http://www.w3.org/2000/svg" viewBox="0 0 750 500"><title>abstract3</title><g id="1b8fb059-3d20-4fe2-a828-87c20c80f14b" data-name="&lt;Группа&gt;"><g id="0aa32064-494d-471d-8eb2-138179f10fbc" data-name="&lt;Группа&gt;"><path id="3191e83f-3026-4328-a28e-a62ae014cd2a" data-name="&lt;Контур&gt;" d="M1.54,367a3.55,3.55,0,0,0-4.79.66,3.54,3.54,0,0,0,.68,4.9,3.55,3.55,0,0,0,4.79-.66A3.54,3.54,0,0,0,1.54,367Z" fill="#9a8bf2"/><path id="a9b89983-ab5d-44c3-85f2-9ee5b41d1732" data-name="&lt;Контур&gt;" d="M2.28,347.82a3.06,3.06,0,0,0-4.5.42c-1.41,1.72-1.32,3.53.23,4.85a3.25,3.25,0,0,0,4.59-.53C4,350.88,3.84,349.06,2.28,347.82Z" fill="#9a8bf2"/><path id="f122daa1-c22a-49a7-a66a-a762a11ae76d" data-name="&lt;Контур&gt;" d="M8.72,416.08a3.08,3.08,0,0,0-4.62.4c-1.37,1.7-1.25,3.61.31,4.84A3.21,3.21,0,0,0,9,420.72C10.3,419.09,10.19,417.29,8.72,416.08Z" fill="#9a8bf2"/><path id="489390b9-6042-45ce-89d5-1c249b66eb91" data-name="&lt;Контур&gt;" d="M9.63,396.74a3.2,3.2,0,0,0-4.56.52,3.21,3.21,0,0,0,.46,4.57,3.21,3.21,0,0,0,4.58-.41A3.21,3.21,0,0,0,9.63,396.74Z" fill="#9a8bf2"/><path id="735b3286-bf56-438e-b14e-8442eb23a7bd" data-name="&lt;Контур&gt;" d="M6.85,454.64a3.37,3.37,0,0,0-4.65.65,3.49,3.49,0,0,0,.4,4.63,3.46,3.46,0,0,0,4.69-.65A3.29,3.29,0,0,0,6.85,454.64Z" fill="#9a8bf2"/><path id="e2b0347b-52fc-49b7-9c65-4cfcd94dedc4" data-name="&lt;Контур&gt;" d="M8.43,439.95a3.2,3.2,0,0,0-.54-4.56,3.21,3.21,0,0,0-4.57.49,3.21,3.21,0,0,0,.56,4.67A3.2,3.2,0,0,0,8.43,439.95Z" fill="#9a8bf2"/><path id="df0a4073-78dd-47b0-8337-2154c422188f" data-name="&lt;Контур&gt;" d="M10.74,377.24a3.36,3.36,0,0,0-4.56.73,3,3,0,0,0,.72,4.44,3.06,3.06,0,0,0,4.46-.6A3.36,3.36,0,0,0,10.74,377.24Z" fill="#9a8bf2"/><path id="0b84e4c7-64f3-42b9-b374-b0a3549e676c" data-name="&lt;Контур&gt;" d="M6.29,478.85a3.35,3.35,0,0,0-.21-4.72,3.31,3.31,0,0,0-4.57.62A2.85,2.85,0,0,0,2,479C3.64,480.2,5.25,480.17,6.29,478.85Z" fill="#9a8bf2"/><path id="e8c8cfef-22a9-4cb6-8bbc-4cd52a1180bf" data-name="&lt;Контур&gt;" d="M3.17,328.59a3.29,3.29,0,0,0-4.45.64c-1.1,1.45-1.13,3.22.58,4.37,1.52,1.18,3.21,1.06,4.23-.3A3.34,3.34,0,0,0,3.17,328.59Z" fill="#9a8bf2"/><path id="313b30f0-eab8-4e39-bee8-faf9a5720550" data-name="&lt;Контур&gt;" d="M11.58,358a3.21,3.21,0,0,0-4.47.47,3.22,3.22,0,0,0,.58,4.45,3.22,3.22,0,0,0,4.34-.57A3.22,3.22,0,0,0,11.58,358Z" fill="#9a8bf2"/><path id="90e31209-1ab1-498c-a0df-df02540959d0" data-name="&lt;Контур&gt;" d="M18.06,430.62c1.32-1.66,1.22-3.07-.28-4.26a2.62,2.62,0,0,0-4.12.45c-1.32,1.67-1.21,3.18.31,4.36A2.71,2.71,0,0,0,18.06,430.62Z" fill="#9a8bf2"/><path id="2714d9ef-7713-40f1-a2bc-fba69607b4e6" data-name="&lt;Контур&gt;" d="M18.84,407.06a3,3,0,1,0,.41,4.27A2.95,2.95,0,0,0,18.84,407.06Z" fill="#9a8bf2"/><path id="e016339a-3705-41c1-92f3-23906792966e" data-name="&lt;Контур&gt;" d="M4.84,493.49a2.83,2.83,0,0,0-4.17.68,3.11,3.11,0,0,0,.45,4.21,3.16,3.16,0,0,0,4.28-.81A2.8,2.8,0,0,0,4.84,493.49Z" fill="#9a8bf2"/><path id="4c203efb-e691-45d3-b8a7-f670ad1d5c8d" data-name="&lt;Контур&gt;" d="M20.11,391.7a3,3,0,0,0-4.77-3.52,3,3,0,1,0,4.77,3.52Z" fill="#9a8bf2"/><path id="c7f7706f-aa85-4c40-8d32-778507c314a6" data-name="&lt;Контур&gt;" d="M17,445.67a3,3,0,1,0,.59,4.12A2.89,2.89,0,0,0,17,445.67Z" fill="#9a8bf2"/><path id="c9d2ec11-035e-4c2c-ad5b-a71048634f95" data-name="&lt;Контур&gt;" d="M12.36,338.86a2.93,2.93,0,1,0,.52,4.14A2.89,2.89,0,0,0,12.36,338.86Z" fill="#9a8bf2"/><path id="d081744c-3266-4062-9889-d848b09ee25a" data-name="&lt;Контур&gt;" d="M20.54,368.5a3,3,0,0,0-4.14.5,2.57,2.57,0,0,0,.48,4,2.58,2.58,0,0,0,4-.35A3,3,0,0,0,20.54,368.5Z" fill="#9a8bf2"/><path id="7379baf0-7d62-426c-992d-ec67c44fd011" data-name="&lt;Контур&gt;" d="M4.06,309.61a3,3,0,0,0-4.14.55,2.59,2.59,0,0,0,.54,4,2.58,2.58,0,0,0,4-.4A3,3,0,0,0,4.06,309.61Z" fill="#9a8bf2"/><path id="669fd50d-ff73-406e-a7cf-11ec97a71863" data-name="&lt;Контур&gt;" d="M10.6,485.13a2.55,2.55,0,0,0,.59,3.82c1.56,1.22,2.68,1,4-.34,1.08-1.17.5-3.35-.42-4.12A3.13,3.13,0,0,0,10.6,485.13Z" fill="#9a8bf2"/><path id="e8689ba1-fe4e-4c51-b0aa-df08f4a81706" data-name="&lt;Контур&gt;" d="M16.44,469.07a2.91,2.91,0,1,0-4.15.4A2.92,2.92,0,0,0,16.44,469.07Z" fill="#9a8bf2"/><path id="86306291-34ee-4893-a07e-0981d6c5cbe2" data-name="&lt;Контур&gt;" d="M23.11,437a2.75,2.75,0,1,0,3.87-.43A2.77,2.77,0,0,0,23.11,437Z" fill="#9a8bf2"/><path id="e1b20e4d-1489-43b8-b237-33c42f823c0f" data-name="&lt;Контур&gt;" d="M22,353.15a3,3,0,0,0-.4-4.08,3,3,0,0,0-4,.57,2.75,2.75,0,0,0,.54,3.84A2.67,2.67,0,0,0,22,353.15Z" fill="#9a8bf2"/><path id="9a9c0032-bcb4-4b37-bf03-403e42ff6c34" data-name="&lt;Контур&gt;" d="M13.07,319.6a3,3,0,0,0-4,.51A2.7,2.7,0,0,0,9.57,324a2.69,2.69,0,0,0,3.84-.27A3,3,0,0,0,13.07,319.6Z" fill="#9a8bf2"/><path id="e78dd997-2fad-4f83-94b4-7548f72c64ee" data-name="&lt;Контур&gt;" d="M28.34,421.39A3,3,0,0,0,28,417.3a3,3,0,0,0-4.08.62,2.73,2.73,0,0,0,.57,3.72A2.7,2.7,0,0,0,28.34,421.39Z" fill="#9a8bf2"/><path id="010060d8-66ec-43c4-a839-9b214c6b1547" data-name="&lt;Контур&gt;" d="M28.74,397.9a2.75,2.75,0,1,0,.42,3.89A2.76,2.76,0,0,0,28.74,397.9Z" fill="#9a8bf2"/><path id="e216ad32-739f-4c79-8795-6f90fefb0a21" data-name="&lt;Контур&gt;" d="M22,456.59c-1.1,1.39-1,2.85.22,3.85a2.51,2.51,0,0,0,3.8-.59,2.41,2.41,0,0,0-.41-3.73A2.4,2.4,0,0,0,22,456.59Z" fill="#9a8bf2"/><path id="22c9d052-37dd-4f5d-9da7-461ba727b5d3" data-name="&lt;Контур&gt;" d="M30,382.53a2.42,2.42,0,0,0-.38-3.74,2.4,2.4,0,0,0-3.61.44c-1.11,1.4-1,2.84.19,3.85A2.52,2.52,0,0,0,30,382.53Z" fill="#9a8bf2"/><path id="2590cb91-f00b-476b-a00e-66a20f81116d" data-name="&lt;Контур&gt;" d="M4.78,290.16a2.51,2.51,0,0,0-3.63.49,2.59,2.59,0,0,0,.26,3.85A2.55,2.55,0,0,0,5.1,294,2.53,2.53,0,0,0,4.78,290.16Z" fill="#9a8bf2"/><path id="63913057-86dc-443c-9a66-b96625e9ad5e" data-name="&lt;Контур&gt;" d="M22.29,329.84a2.57,2.57,0,0,0-3.69.47,2.75,2.75,0,0,0,.26,3.81,2.78,2.78,0,0,0,3.67-.44A2.6,2.6,0,0,0,22.29,329.84Z" fill="#9a8bf2"/><path id="2c9c9ad2-9af3-4d78-bf69-6ba25af4cfd2" data-name="&lt;Контур&gt;" d="M21.23,476a2.75,2.75,0,0,0,.27,3.81,2.82,2.82,0,0,0,3.67-.45A2.59,2.59,0,1,0,21.23,476Z" fill="#9a8bf2"/><path id="8169f327-fd0f-4dbf-b9e6-4ab24e761912" data-name="&lt;Контур&gt;" d="M14.37,304.14a2.57,2.57,0,0,0-4-3.18,2.39,2.39,0,0,0,.43,3.61A2.37,2.37,0,0,0,14.37,304.14Z" fill="#9a8bf2"/><path id="d51beca4-e7d8-4be3-adc6-36ab1a7a8b8d" data-name="&lt;Контур&gt;" d="M34.17,408.88a2.51,2.51,0,1,0,3.48-.49A2.6,2.6,0,0,0,34.17,408.88Z" fill="#9a8bf2"/><path id="25301f5e-378f-4ff9-8f6b-327fb908ac99" data-name="&lt;Контур&gt;" d="M26.78,359.81a2.58,2.58,0,1,0,3.59-.43A2.59,2.59,0,0,0,26.78,359.81Z" fill="#9a8bf2"/><path id="a9230c54-6df9-4fb6-ae8f-671f8638ecca" data-name="&lt;Контур&gt;" d="M33.07,428.16a2.37,2.37,0,0,0,.47,3.42c1.26,1,2.57.92,3.41-.17a2.76,2.76,0,0,0-.29-3.84A2.82,2.82,0,0,0,33.07,428.16Z" fill="#9a8bf2"/><path id="891a0722-2959-49ad-bc93-2f7ec316f1f7" data-name="&lt;Контур&gt;" d="M35.07,389.34c-.72,1.11-1,2.22.55,3.39a2.24,2.24,0,0,0,3.19-.1,2.74,2.74,0,0,0-.19-3.86A2.59,2.59,0,0,0,35.07,389.34Z" fill="#9a8bf2"/><path id="5cd530f4-ea87-4a43-9ed6-f703abc71360" data-name="&lt;Контур&gt;" d="M32.34,447.66c-1,1.5-.66,2.48.58,3.38a2.23,2.23,0,0,0,3.19-.13,2.73,2.73,0,0,0-.21-3.85A2.61,2.61,0,0,0,32.34,447.66Z" fill="#9a8bf2"/><path id="7bd8f9af-5708-453a-8ff8-61c848bbe72b" data-name="&lt;Контур&gt;" d="M20.24,495.43c-1,1.5-.66,2.48.57,3.38A2.23,2.23,0,0,0,24,498.7a2.73,2.73,0,0,0-.21-3.86A2.61,2.61,0,0,0,20.24,495.43Z" fill="#9a8bf2"/><path id="c799d748-533f-426e-b615-26329b847165" data-name="&lt;Контур&gt;" d="M23.11,310.89c-1.27-1-2.25-.88-3.26.43s-1,2.42.27,3.39,2.27.75,3.34-.65C24.4,312.8,24.3,311.83,23.11,310.89Z" fill="#9a8bf2"/><path id="83ac89a9-6999-4d84-912c-6e1871902193" data-name="&lt;Контур&gt;" d="M31.46,343.76c1.07-1.35,1-2.32-.2-3.29s-2.26-.91-3.27.38-1,2.43.23,3.39S30.45,345,31.46,343.76Z" fill="#9a8bf2"/><path id="483a20e1-2090-44e5-8312-433584e3d34e" data-name="&lt;Контур&gt;" d="M31.58,466.9a2.28,2.28,0,0,0,.26,3.42,2.38,2.38,0,0,0,3.17-.47c1-1.24,1-2.39-.14-3.32A2.11,2.11,0,0,0,31.58,466.9Z" fill="#9a8bf2"/><path id="a04722d6-8f8b-423d-b27e-c506ffa33d66" data-name="&lt;Контур&gt;" d="M5.59,271.2a2.11,2.11,0,0,0-3.27.54,2.28,2.28,0,0,0,.32,3.3,2.35,2.35,0,0,0,3.27-.55A2.1,2.1,0,0,0,5.59,271.2Z" fill="#9a8bf2"/><path id="d73c13d6-14c5-41a3-a5fd-22fb9b7543ce" data-name="&lt;Контур&gt;" d="M36.22,370.28a2.34,2.34,0,0,0,.36,3.3,2.36,2.36,0,0,0,3.27-.59,2.1,2.1,0,0,0-.37-3.29C38.32,368.82,37.17,369,36.22,370.28Z" fill="#9a8bf2"/><path id="de8691cf-46c6-4f88-8e95-a257e58a617a" data-name="&lt;Контур&gt;" d="M14.66,284.79a2.44,2.44,0,0,0,0-3.33,2.39,2.39,0,0,0-3.31.27,2.52,2.52,0,0,0,.19,3.42A2.56,2.56,0,0,0,14.66,284.79Z" fill="#9a8bf2"/><path id="3c0cd246-3584-4b8a-978a-a56b25dc8c3f" data-name="&lt;Контур&gt;" d="M28.68,321.5A2.51,2.51,0,0,0,29,324.8a2.55,2.55,0,0,0,3.27-.46,2.27,2.27,0,1,0-3.53-2.83Z" fill="#9a8bf2"/><path id="221d35f9-5c39-4d68-a6be-afaf487091d9" data-name="&lt;Контур&gt;" d="M37.21,351.13c-.78,1.06-.59,2,.57,2.94s2.17.85,3.07-.35a2.24,2.24,0,1,0-3.64-2.59Z" fill="#9a8bf2"/><path id="03e8bcd3-9225-42c8-b3e1-8fec291226a5" data-name="&lt;Контур&gt;" d="M43.58,419.32c-.79,1.06-.6,2.05.55,2.94s2.17.86,3.07-.33a2.24,2.24,0,1,0-3.62-2.61Z" fill="#9a8bf2"/><path id="c88f9e0f-411e-4299-abd6-e1b73f4cc8b9" data-name="&lt;Контур&gt;" d="M42.76,438.33a2.21,2.21,0,1,0,3-.39A2.3,2.3,0,0,0,42.76,438.33Z" fill="#9a8bf2"/><path id="da0ff5d8-c947-4f0c-9e83-2de28ba3e40d" data-name="&lt;Контур&gt;" d="M44.39,399.91a1.92,1.92,0,0,0,.52,2.89,2,2,0,0,0,3-.35,2.19,2.19,0,1,0-3.55-2.55Z" fill="#9a8bf2"/><path id="556d1ee8-1ca1-458c-b65b-da72e68cace6" data-name="&lt;Контур&gt;" d="M30.87,486.29a2.24,2.24,0,1,0,3.15-.38A2.29,2.29,0,0,0,30.87,486.29Z" fill="#9a8bf2"/><path id="7980622f-4f24-46c8-a1c2-5a412be1f5db" data-name="&lt;Контур&gt;" d="M23.72,291.45a2.3,2.3,0,0,0-3.13.6,1.92,1.92,0,0,0,.5,2.89,2,2,0,0,0,3-.33A2.3,2.3,0,0,0,23.72,291.45Z" fill="#9a8bf2"/><path id="0d95fd3f-9487-42cb-ab88-7473184379d0" data-name="&lt;Контур&gt;" d="M42,457.95c-.65,1-.88,2,.43,2.85a1.82,1.82,0,0,0,2.93-.31,2.13,2.13,0,0,0-.39-3.06A2.05,2.05,0,0,0,42,457.95Z" fill="#9a8bf2"/><path id="ededabd2-a800-41d2-96af-a5b9dd5ead46" data-name="&lt;Контур&gt;" d="M45.56,380.63c-.67,1-.92,2,.5,3a1.78,1.78,0,0,0,2.81-.35,2.13,2.13,0,0,0-.33-3.07A2,2,0,0,0,45.56,380.63Z" fill="#9a8bf2"/><path id="7f85e56d-87e1-4e62-9a0b-1d9d96a57a37" data-name="&lt;Контур&gt;" d="M38.3,331.75c-.78,1-.76,2.31.23,2.88s2,.78,2.75-.4a1.86,1.86,0,0,0-.22-2.9A1.79,1.79,0,0,0,38.3,331.75Z" fill="#9a8bf2"/><path id="245a4fae-7f2d-418c-be69-ed393acd54b3" data-name="&lt;Контур&gt;" d="M30.22,302.11a1.83,1.83,0,0,0,.12,2.88,1.76,1.76,0,0,0,2.73-.21,1.92,1.92,0,0,0-.06-2.93A1.87,1.87,0,0,0,30.22,302.11Z" fill="#9a8bf2"/><path id="4404bd97-ad87-40ad-9140-d160681db728" data-name="&lt;Контур&gt;" d="M46.63,361a1.82,1.82,0,0,0,.21,2.87,1.75,1.75,0,0,0,2.73-.3,1.9,1.9,0,0,0-.14-2.92A1.87,1.87,0,0,0,46.63,361Z" fill="#9a8bf2"/><path id="516e93a7-3793-4224-b670-17ff93d7a34c" data-name="&lt;Контур&gt;" d="M41.16,477.15a2,2,0,0,0,3.08,2.46c.82-1,.63-2-.33-2.9A1.91,1.91,0,0,0,41.16,477.15Z" fill="#9a8bf2"/><path id="e62b6aea-cfdc-458b-8856-9de86aae27a1" data-name="&lt;Контур&gt;" d="M53,429.26a1.89,1.89,0,0,0,3,2.29,1.89,1.89,0,1,0-3-2.29Z" fill="#9a8bf2"/><path id="ea6e4572-352c-405a-accc-072be9e719f1" data-name="&lt;Контур&gt;" d="M54.07,410a1.72,1.72,0,0,0,.27,2.58,1.67,1.67,0,0,0,2.64-.17,1.81,1.81,0,0,0-.23-2.71A1.87,1.87,0,0,0,54.07,410Z" fill="#9a8bf2"/><path id="ff3c43fe-9d4a-419c-b4bc-77550a534296" data-name="&lt;Контур&gt;" d="M47.63,342a1.68,1.68,0,0,0,.56,2.59,1.74,1.74,0,0,0,2.58-.47,1.88,1.88,0,0,0-.46-2.62A1.81,1.81,0,0,0,47.63,342Z" fill="#9a8bf2"/><path id="516945bb-b8f2-40fe-bf95-1f67ef19bdf0" data-name="&lt;Контур&gt;" d="M55,390.82a1.75,1.75,0,0,0,.48,2.67,1.63,1.63,0,0,0,2.5-.35,1.8,1.8,0,0,0-.32-2.7A1.87,1.87,0,0,0,55,390.82Z" fill="#9a8bf2"/><path id="4896f480-1955-4a09-8fbb-6a6d4cb9ad3a" data-name="&lt;Контур&gt;" d="M40.17,496.46a1.75,1.75,0,0,0,.48,2.67,1.63,1.63,0,0,0,2.5-.35,1.8,1.8,0,0,0-.32-2.7A1.87,1.87,0,0,0,40.17,496.46Z" fill="#9a8bf2"/><path id="76274c76-d905-43ff-bc01-00004576680d" data-name="&lt;Контур&gt;" d="M39.37,312.56a1.63,1.63,0,0,0,.28,2.51,1.75,1.75,0,0,0,2.71-.19,1.87,1.87,0,0,0-.29-2.67A1.8,1.8,0,0,0,39.37,312.56Z" fill="#9a8bf2"/><path id="690cc98e-ea16-46ca-9089-dc1d7c1f4804" data-name="&lt;Контур&gt;" d="M52.23,448.79a1.68,1.68,0,0,0,.55,2.59,1.71,1.71,0,0,0,2.54-.42,1.87,1.87,0,0,0-.42-2.67A1.81,1.81,0,0,0,52.23,448.79Z" fill="#9a8bf2"/><path id="a66e086e-d875-47c1-9fce-9251c164e1f2" data-name="&lt;Контур&gt;" d="M51.11,468.28a1.49,1.49,0,0,0,.34,2.42,1.44,1.44,0,0,0,2.29.07,1.9,1.9,0,0,0,0-2.84A1.75,1.75,0,0,0,51.11,468.28Z" fill="#9a8bf2"/><path id="adc75e9a-956c-49e8-bfb6-4470a5817c32" data-name="&lt;Контур&gt;" d="M56.06,371.5A1.55,1.55,0,0,0,56.2,374c.71.53,1.64.73,2.23-.28.78-.88.95-1.69,0-2.48A1.46,1.46,0,0,0,56.06,371.5Z" fill="#9a8bf2"/><path id="ec50c041-bab8-49ca-8357-22286fbb3ba8" data-name="&lt;Контур&gt;" d="M31.33,283.31c-.84.83-.47,1.72.32,2.31a1.51,1.51,0,0,0,2.38-.48c.62-.91.65-1.62-.24-2.32S32,282.28,31.33,283.31Z" fill="#9a8bf2"/><path id="78084675-e2a9-4829-a48c-5aef3a6bde61" data-name="&lt;Контур&gt;" d="M48.62,323.12c-.55.59-.29,1.53.49,2.14a1.54,1.54,0,0,0,2.31-.41,1.5,1.5,0,0,0-.18-2.38C50.35,321.76,49.56,322,48.62,323.12Z" fill="#9a8bf2"/><path id="9342a5ea-c7bf-437b-a093-ffbfaa9126d6" data-name="&lt;Контур&gt;" d="M50.47,487.82a1.53,1.53,0,0,0,.19,2.34,1.58,1.58,0,0,0,2.43-.4,1.64,1.64,0,1,0-2.62-1.94Z" fill="#9a8bf2"/><path id="9795e058-b571-45b5-9fcc-43df0445a2dc" data-name="&lt;Контур&gt;" d="M57.11,352.29a1.48,1.48,0,0,0,.24,2.26,1.6,1.6,0,1,0,2-2.5A1.48,1.48,0,0,0,57.11,352.29Z" fill="#9a8bf2"/><path id="cc32254f-6c23-468d-a9bc-1f4896db9d62" data-name="&lt;Контур&gt;" d="M40.35,293.29c-.72.8-.42,1.51.23,2.16s1.54.78,2.22-.09a1.57,1.57,0,0,0-.19-2.38A1.55,1.55,0,0,0,40.35,293.29Z" fill="#9a8bf2"/><path id="81a8340c-06a4-4cef-830c-93b086b21ace" data-name="&lt;Контур&gt;" d="M63.48,420.48a1.36,1.36,0,0,0,.44,2c.78.61,1.51.61,2.32-.34a1.59,1.59,0,0,0-.43-2.21A1.57,1.57,0,0,0,63.48,420.48Z" fill="#9a8bf2"/><path id="4d056287-b1f9-46a6-ab50-7b58f91af316" data-name="&lt;Контур&gt;" d="M62.28,440a1.35,1.35,0,0,0,.43,2,1.44,1.44,0,0,0,2.26-.24A1.61,1.61,0,1,0,62.28,440Z" fill="#9a8bf2"/><path id="2445379a-2ad8-41ec-ba41-f720b612835b" data-name="&lt;Контур&gt;" d="M61.61,459.36c-.61.82-.3,1.48.55,2.11a1.22,1.22,0,0,0,1.93-.31,1.49,1.49,0,0,0-.26-2.25A1.51,1.51,0,0,0,61.61,459.36Z" fill="#9a8bf2"/><path id="1097a0bf-656f-4f38-a91e-5374f1351795" data-name="&lt;Контур&gt;" d="M65.33,381.84c-.61.83-.28,1.48.59,2.12a1.21,1.21,0,0,0,1.91-.34,1.49,1.49,0,0,0-.27-2.25A1.52,1.52,0,0,0,65.33,381.84Z" fill="#9a8bf2"/><path id="f2170c46-6d64-43e4-b981-dc25d85609cd" data-name="&lt;Контур&gt;" d="M64.42,400.9A1.55,1.55,0,1,0,67,402.68a1.55,1.55,0,1,0-2.54-1.77Z" fill="#9a8bf2"/><path id="ed1bcfba-197d-4133-8be4-bc8a357b018d" data-name="&lt;Контур&gt;" d="M58,333.15a1.2,1.2,0,0,0,.06,2c.75.61,1.4.38,2-.38s.63-1.28-.16-1.89S58.59,332.3,58,333.15Z" fill="#9a8bf2"/><path id="bf82d7e3-f396-46d6-af0b-8f1b07ae8c04" data-name="&lt;Контур&gt;" d="M49.86,303.62c-.61.78-.59,1.45.2,2s1.42.2,2-.53.47-1.36-.3-1.85C50.93,302.56,50.41,302.93,49.86,303.62Z" fill="#9a8bf2"/><path id="57ab81d7-9eec-49dd-9772-1a604c325bca" data-name="&lt;Контур&gt;" d="M66.54,362.75a1.31,1.31,0,1,0,1.93-.37A1.24,1.24,0,0,0,66.54,362.75Z" fill="#9a8bf2"/><path id="ca3fa9f0-766f-42ea-a1bc-8c0ba2603fc5" data-name="&lt;Контур&gt;" d="M60.94,478.55a1.31,1.31,0,0,0-.08,2,1.21,1.21,0,0,0,1.86-.06c.65-.78.74-1.48.06-2.08A1.21,1.21,0,0,0,60.94,478.55Z" fill="#9a8bf2"/><path id="caf32434-3645-4590-a50a-17cfd7efcec9" data-name="&lt;Контур&gt;" d="M73.65,411.55c-.58.71-.19,1.16.34,1.6s1.19.72,1.75-.1a1.26,1.26,0,0,0-.14-1.86C74.9,410.65,74.22,410.86,73.65,411.55Z" fill="#9a8bf2"/><path id="c906da10-86f4-448a-afdd-01d78d95a421" data-name="&lt;Контур&gt;" d="M59.78,498c-.58.72-.17,1.16.35,1.6s1.19.71,1.75-.11a1.26,1.26,0,0,0-.15-1.86C61,497.06,60.35,497.27,59.78,498Z" fill="#9a8bf2"/><path id="6ba968f7-d517-46e6-9ec5-414524f08e40" data-name="&lt;Контур&gt;" d="M67.12,343.55c-.52.53,0,1,.59,1.47s1.11.61,1.63-.12a1.27,1.27,0,0,0-.19-2C68.5,342.47,67.83,342.68,67.12,343.55Z" fill="#9a8bf2"/><path id="b7bb674f-abaf-41f6-b3af-8f4f5b2b6c91" data-name="&lt;Контур&gt;" d="M73,430.88c-.66.72-.32,1.24.6,2,.33.28.91.4,1.43-.4a1.29,1.29,0,1,0-2-1.56Z" fill="#9a8bf2"/><path id="45e24572-d12a-4e78-92f0-d89864568ccd" data-name="&lt;Контур&gt;" d="M72.19,450a1.14,1.14,0,0,0,.06,1.71,1,1,0,0,0,1.65-.09,1.3,1.3,0,0,0-.19-1.79A1.19,1.19,0,0,0,72.19,450Z" fill="#9a8bf2"/><path id="917b0dda-62d3-4654-9d58-de395f2193d9" data-name="&lt;Контур&gt;" d="M75,392.12a1.14,1.14,0,0,0,0,1.71,1,1,0,0,0,1.66-.07,1.31,1.31,0,0,0-.19-1.8A1.19,1.19,0,0,0,75,392.12Z" fill="#9a8bf2"/><path id="d8d32d8c-01f0-4ee1-9ee0-970143d550d3" data-name="&lt;Контур&gt;" d="M75.86,372.84c-.43.57-.46,1,.15,1.49s1.05.14,1.46-.37.45-1-.31-1.61C76.68,372,76.26,372.3,75.86,372.84Z" fill="#9a8bf2"/><path id="0b9d7a34-d298-4538-b337-21179933dc8f" data-name="&lt;Контур&gt;" d="M77,353.53a.78.78,0,0,0,.15,1.23c.46.37.92.54,1.36-.05A1,1,0,1,0,77,353.53Z" fill="#9a8bf2"/><path id="ccda091f-915e-419c-9258-f8d03ab942a8" data-name="&lt;Контур&gt;" d="M83.32,421.74c-.43.56-.19,1,.3,1.33a.78.78,0,0,0,1.23-.17,1,1,0,1,0-1.52-1.16Z" fill="#9a8bf2"/><path id="8c6b1695-fa33-4963-b83f-b00d2e849628" data-name="&lt;Контур&gt;" d="M70.46,488.93c-.43.56-.19,1,.3,1.33a.78.78,0,0,0,1.23-.17,1,1,0,1,0-1.52-1.16Z" fill="#9a8bf2"/><path id="d5baab4a-f23f-45a4-a2f0-4e3a10021a74" data-name="&lt;Контур&gt;" d="M71.17,469.38a1,1,0,0,0,.12,1.42,1,1,0,0,0,1.54-.08,1.07,1.07,0,1,0-1.66-1.34Z" fill="#9a8bf2"/><path id="b21fd482-74a0-4f12-a7a1-c995be7c0b3b" data-name="&lt;Контур&gt;" d="M84.14,402.83c-.27.3.14.58.45.83s.7.63,1.07.14.48-1-.05-1.43S84.7,402.29,84.14,402.83Z" fill="#9a8bf2"/><path id="251dbc2f-d95d-4b04-8ec0-ed8e48a04340" data-name="&lt;Контур&gt;" d="M82.23,441.18c-.35.47.11.77.44,1s.72.56,1,0,.36-1-.09-1.32A1,1,0,0,0,82.23,441.18Z" fill="#9a8bf2"/><path id="d594bd8f-b314-41cd-937f-ce8ffc37dacd" data-name="&lt;Контур&gt;" d="M81.6,460.46c-.56.46-.12.76.17,1s.73.76,1.16.11a1,1,0,0,0,0-1.35A1.06,1.06,0,0,0,81.6,460.46Z" fill="#9a8bf2"/><path id="c27451bd-6046-43b1-8b65-963dd9704ba1" data-name="&lt;Контур&gt;" d="M85.11,383.2c-.52.46-.09.76.2,1s.74.75,1.16.08a1,1,0,0,0-.06-1.33A1.06,1.06,0,0,0,85.11,383.2Z" fill="#9a8bf2"/></g></g><g id="c154ebc2-a09f-4bff-a56f-0b9ccda95658" data-name="&lt;Группа&gt;"><g id="8223c4b3-ba92-4178-9b7b-ca132c5701f7" data-name="&lt;Группа&gt;"><path id="2d2b91b9-6c58-4351-8249-21664fe578f5" data-name="&lt;Контур&gt;" d="M750,145.17a4,4,0,0,0-4.15,1.39,4.42,4.42,0,0,0,.61,5.84,4.19,4.19,0,0,0,3.54.66Z" fill="#9a8bf2"/><path id="968751a0-1006-4fe7-a347-b5ac051dbc5e" data-name="&lt;Контур&gt;" d="M750,125.75a3.91,3.91,0,0,0-3,1.52,4.42,4.42,0,0,0,.62,5.84,4,4,0,0,0,2.36.78Z" fill="#9a8bf2"/><path id="02476002-1856-4bca-954d-9f6b5dc4e79a" data-name="&lt;Контур&gt;" d="M750,106.87a2.9,2.9,0,0,0-1.21.86c-1.66,2-1.54,4.73.28,6.2a3.77,3.77,0,0,0,.93.53Z" fill="#9a8bf2"/><path id="7435e3d4-90e6-4a1e-8d7b-8e8667a3983e" data-name="&lt;Контур&gt;" d="M750,164.94a4.11,4.11,0,0,0-5.38.86c-1.53,1.83-1.42,3.94.26,5.33s3.74,1.56,5.12.25Z" fill="#9a8bf2"/><path id="331f935b-b4ae-41ab-ab8c-0413c9484bed" data-name="&lt;Контур&gt;" d="M743.38,190.56a3.77,3.77,0,0,0,5.49-.41,4,4,0,0,0-.26-5.7,4.07,4.07,0,0,0-5.55.61A3.77,3.77,0,0,0,743.38,190.56Z" fill="#9a8bf2"/><path id="869e07fa-3188-4e96-b22a-0e242e4a4049" data-name="&lt;Контур&gt;" d="M750,88.79c-.06.07-.14.12-.2.19a3.81,3.81,0,0,0,.2,5.22Z" fill="#9a8bf2"/><path id="3100f8f3-3ae9-4a81-b27d-bbe5282fe49c" data-name="&lt;Контур&gt;" d="M737.52,141.95a4,4,0,0,0,5.44-.64,3.5,3.5,0,0,0-.65-5.35,3.56,3.56,0,0,0-5.23.39A4.08,4.08,0,0,0,737.52,141.95Z" fill="#9a8bf2"/><path id="cd81718e-374c-40af-b757-ec82b05df861" data-name="&lt;Контур&gt;" d="M736.14,161.06a4,4,0,0,0,5.33-.61,3.55,3.55,0,0,0-.63-5.4,3.47,3.47,0,0,0-5.27.56A4,4,0,0,0,736.14,161.06Z" fill="#9a8bf2"/><path id="74263851-83e1-44e5-9795-e7fb6a4db18b" data-name="&lt;Контур&gt;" d="M738.56,122.5a3.88,3.88,0,0,0,5.33-.29c1.39-1.76,2-3.45-.27-5.38-1.74-1.51-3.4-1.77-5.28.2A4,4,0,0,0,738.56,122.5Z" fill="#9a8bf2"/><path id="f1fd6363-b3bd-4e9b-8e3b-7daa9d45120b" data-name="&lt;Контур&gt;" d="M750,233.36c-.05.06-.12.1-.17.16-1.59,1.93-1.54,4.24.14,5.66l0,0Z" fill="#9a8bf2"/><path id="b1fe4b6a-b15a-4448-9999-575c91c836ee" data-name="&lt;Контур&gt;" d="M734.91,180.25a3.81,3.81,0,0,0,5.39-.63c1.37-1.83,1.26-3.57-.62-5.16a3.41,3.41,0,0,0-5,.25C733.19,176.61,733.27,178.86,734.91,180.25Z" fill="#9a8bf2"/><path id="b1366c3d-3fc6-4299-844c-e7868e7bd521" data-name="&lt;Контур&gt;" d="M740.16,103.46a3.81,3.81,0,0,0,5.39-.67,3.36,3.36,0,0,0-.53-5.06c-1.79-1.46-3.79-1.43-5,.07C738.39,99.73,738.46,102.06,740.16,103.46Z" fill="#9a8bf2"/><path id="44eeb4fc-1d01-4f3a-818f-6f01087805e6" data-name="&lt;Контур&gt;" d="M741.83,204.53a3.8,3.8,0,1,0,5.31-.51A3.88,3.88,0,0,0,741.83,204.53Z" fill="#9a8bf2"/><path id="b2e94e91-4751-43ee-88fc-4540e6d9d531" data-name="&lt;Контур&gt;" d="M741.9,83.92a3.69,3.69,0,0,0,4.76-5.64,3.69,3.69,0,0,0-4.76,5.64Z" fill="#9a8bf2"/><path id="af8af6c9-da7f-4a64-9d06-079df9873917" data-name="&lt;Контур&gt;" d="M733.67,199.22a3.47,3.47,0,0,0,5.05-.64,3.54,3.54,0,1,0-5.51-4.43A3.47,3.47,0,0,0,733.67,199.22Z" fill="#9a8bf2"/><path id="70d9c0e7-31e0-4c04-bf17-eaf48aef6dcb" data-name="&lt;Контур&gt;" d="M741.09,228.81a3.47,3.47,0,0,0,5.05-.62,3.54,3.54,0,1,0-5.49-4.46A3.47,3.47,0,0,0,741.09,228.81Z" fill="#9a8bf2"/><path id="d56428d6-439f-4587-9c06-a54f0e4f7417" data-name="&lt;Контур&gt;" d="M730.22,112.06a3.52,3.52,0,1,0-.35-5A3.55,3.55,0,0,0,730.22,112.06Z" fill="#9a8bf2"/><path id="4bd720b1-4a41-4474-8dbd-cad56cb0794d" data-name="&lt;Контур&gt;" d="M726.09,169.91a3.72,3.72,0,0,0,5-.67,3.24,3.24,0,0,0-.65-4.89,3.37,3.37,0,0,0-5,.6A4,4,0,0,0,726.09,169.91Z" fill="#9a8bf2"/><path id="7811bb71-f35a-4326-bcc4-8af99fca711f" data-name="&lt;Контур&gt;" d="M727.17,150.54a3.54,3.54,0,1,0-.35-5.1A3.53,3.53,0,0,0,727.17,150.54Z" fill="#9a8bf2"/><path id="4979b9ac-7c60-41de-bc14-9ea4ff9730cb" data-name="&lt;Контур&gt;" d="M728.64,131.47a3.54,3.54,0,1,0-.43-5.09A3.53,3.53,0,0,0,728.64,131.47Z" fill="#9a8bf2"/><path id="150dae59-e56c-470a-99c7-720fc32df7fc" data-name="&lt;Контур&gt;" d="M743.19,64.66a3.66,3.66,0,0,0,5-.68,3.5,3.5,0,0,0-5.5-4.32A3.67,3.67,0,0,0,743.19,64.66Z" fill="#9a8bf2"/><path id="c1f346d7-c576-4dae-8361-3698a37284ad" data-name="&lt;Контур&gt;" d="M750,252a3.54,3.54,0,0,0-1.7,1.16,3.66,3.66,0,0,0,.44,5,3.2,3.2,0,0,0,1.26.62Z" fill="#9a8bf2"/><path id="36d101b8-1a5f-4edb-9656-6d108a8dae95" data-name="&lt;Контур&gt;" d="M724.72,188.95a3.44,3.44,0,1,0-.57-4.89A3.53,3.53,0,0,0,724.72,188.95Z" fill="#9a8bf2"/><path id="59dc3cc5-7c0b-4938-8075-ff3812f68a03" data-name="&lt;Контур&gt;" d="M731.47,92.73a3.75,3.75,0,0,0,5-.58c1.23-1.5.9-3.89-.48-4.7-1.71-1.4-3.57-1.28-4.89.32A3.71,3.71,0,0,0,731.47,92.73Z" fill="#9a8bf2"/><path id="1a5d59a4-abc1-43bf-9052-721b4d4f74db" data-name="&lt;Контур&gt;" d="M732.25,218.26a3.48,3.48,0,1,0-.49-4.9A3.57,3.57,0,0,0,732.25,218.26Z" fill="#9a8bf2"/><path id="13b60523-3353-4f83-8f93-ff3e022b1c5c" data-name="&lt;Контур&gt;" d="M740.12,247.87a3,3,0,0,0,4.53-.5c1.42-1.73,1.31-3.47-.31-4.76a3,3,0,0,0-4.49.48C738.38,244.88,738.47,246.53,740.12,247.87Z" fill="#9a8bf2"/><path id="4d5f8477-e227-42e2-a663-3cdc955174f7" data-name="&lt;Контур&gt;" d="M732.8,68.71c-1.38,1.64-1.29,3.46.25,4.72a3,3,0,0,0,4.49-.36c1.42-1.67,1.35-3.53-.17-4.83A3.21,3.21,0,0,0,732.8,68.71Z" fill="#9a8bf2"/><path id="011a0e93-4dd4-450e-ada8-7cd0a7a33acb" data-name="&lt;Контур&gt;" d="M731.06,237.64a3.11,3.11,0,0,0,4.52-.5,3.23,3.23,0,1,0-5-4A3.11,3.11,0,0,0,731.06,237.64Z" fill="#9a8bf2"/><path id="f95e47fd-868a-4181-bb9d-de08d5bfb14c" data-name="&lt;Контур&gt;" d="M723.56,208a3,3,0,0,0,4.49-.32c1.44-1.68,1.39-3.49-.12-4.84a3.24,3.24,0,0,0-4.58.42C722,204.9,722,206.71,723.56,208Z" fill="#9a8bf2"/><path id="16bee697-4b95-4c09-8e44-c48f91cb82dd" data-name="&lt;Контур&gt;" d="M718.66,139.92a3.06,3.06,0,0,0,4.61-.29c1.4-1.66,1.32-3.56-.2-4.83a3.19,3.19,0,0,0-4.57.5C717.16,136.89,717.23,138.68,718.66,139.92Z" fill="#9a8bf2"/><path id="0e468b6c-dd0c-4cf7-8e66-ee2b43a0f1b7" data-name="&lt;Контур&gt;" d="M717.33,159.14a3.25,3.25,0,1,0-.37-4.67A3.19,3.19,0,0,0,717.33,159.14Z" fill="#9a8bf2"/><path id="a56e1641-bc68-47cf-b872-7e091a1f8c7f" data-name="&lt;Контур&gt;" d="M721.38,101.6a3.35,3.35,0,0,0,4.64-.54A3.22,3.22,0,1,0,721,97,3.27,3.27,0,0,0,721.38,101.6Z" fill="#9a8bf2"/><path id="df044807-c562-47fc-916a-0a8712e884d3" data-name="&lt;Контур&gt;" d="M719.48,116.18a3.25,3.25,0,1,0,4.54-.5A3.19,3.19,0,0,0,719.48,116.18Z" fill="#9a8bf2"/><path id="f277ee73-54f3-4e7b-91a5-de54fd79cc0b" data-name="&lt;Контур&gt;" d="M750,42.25a3.25,3.25,0,0,0-1.21-2,3.25,3.25,0,1,0,.48,4.66,3.33,3.33,0,0,0,.73-1.59Z" fill="#9a8bf2"/><path id="6a3a14cd-d6fb-4c37-8da2-c2411f765fae" data-name="&lt;Контур&gt;" d="M715.8,178.51a3.34,3.34,0,0,0,4.55-.63,3.21,3.21,0,0,0-5.06-3.94A3.35,3.35,0,0,0,715.8,178.51Z" fill="#9a8bf2"/><path id="a04c10da-a7e2-4332-9afd-9143f1840589" data-name="&lt;Контур&gt;" d="M750,271.73a3,3,0,0,0-2.87,1.13,3.33,3.33,0,0,0,.4,4.57,3.17,3.17,0,0,0,2.47.63Z" fill="#9a8bf2"/><path id="9241fa20-35d1-4022-bd08-2234acc78aea" data-name="&lt;Контур&gt;" d="M734.15,49.35a3.15,3.15,0,1,0,4.64,4.21,2.81,2.81,0,0,0-.54-4.35C736.83,48,735.18,48.11,734.15,49.35Z" fill="#9a8bf2"/><path id="27b01e5e-aeee-4d76-82b4-c2d1a0015187" data-name="&lt;Контур&gt;" d="M722.47,77.52a3.33,3.33,0,0,0,.1,4.7,3.29,3.29,0,0,0,4.56-.51,2.84,2.84,0,0,0-.43-4.26C725.14,76.24,723.54,76.22,722.47,77.52Z" fill="#9a8bf2"/><path id="da7928fe-93ee-47e9-a5ce-fa45157a7395" data-name="&lt;Контур&gt;" d="M738.75,266.93a3.28,3.28,0,0,0,4.44-.55c1.12-1.43,1.17-3.18-.5-4.36-1.48-1.2-3.17-1.11-4.22.22A3.32,3.32,0,0,0,738.75,266.93Z" fill="#9a8bf2"/><path id="991b000d-0862-4c45-a4a3-3084b43b5a3c" data-name="&lt;Контур&gt;" d="M722.25,227.09a3.28,3.28,0,0,0,4.44-.54c1.12-1.42,1.19-3.18-.48-4.36-1.48-1.21-3.17-1.13-4.22.2A3.33,3.33,0,0,0,722.25,227.09Z" fill="#9a8bf2"/><path id="2a797012-4c0c-4da9-ae7a-014d2d70a303" data-name="&lt;Контур&gt;" d="M714.53,197.64a3.12,3.12,0,1,0-.35-4.34A3.2,3.2,0,0,0,714.53,197.64Z" fill="#9a8bf2"/><path id="6553c90a-1a1d-42b9-810f-e3532f5f9f14" data-name="&lt;Контур&gt;" d="M729.83,256.49A2.68,2.68,0,0,0,734,256c1.22-1.51,1.1-3.11-.32-4.24a2.8,2.8,0,0,0-4.21.63A2.67,2.67,0,0,0,729.83,256.49Z" fill="#9a8bf2"/><path id="3fa34247-17a2-410b-b98a-9b50c78a0ffe" data-name="&lt;Контур&gt;" d="M709.7,125.25c-1.35,1.62-1.29,3,.19,4.24a2.61,2.61,0,0,0,4.11-.36c1.35-1.63,1.28-3.14-.21-4.34A2.7,2.7,0,0,0,709.7,125.25Z" fill="#9a8bf2"/><path id="92edc944-57cd-4b95-a469-33f9ae45f159" data-name="&lt;Контур&gt;" d="M750,21l-.06-.06c-1.46-1.14-2.92-.91-4.18.66s-1.09,2.92.37,4.11a2.55,2.55,0,0,0,3.88-.2Z" fill="#9a8bf2"/><path id="f156f521-ec8a-4af3-8f47-ee7fa9d083c6" data-name="&lt;Контур&gt;" d="M708.39,148.67a3,3,0,1,0-.31-4.25A2.94,2.94,0,0,0,708.39,148.67Z" fill="#9a8bf2"/><path id="f94c8e2a-6a0d-4fc3-a458-60cae8ff8b2a" data-name="&lt;Контур&gt;" d="M724.24,63a2.81,2.81,0,0,0,4.17-.58,3.1,3.1,0,0,0-.36-4.19,3.14,3.14,0,0,0-4.27.71A2.79,2.79,0,0,0,724.24,63Z" fill="#9a8bf2"/><path id="368c33eb-3457-45fe-a2bf-ef867af9cb29" data-name="&lt;Контур&gt;" d="M706.79,163.92a3,3,0,1,0,4.23-.51A2.89,2.89,0,0,0,706.79,163.92Z" fill="#9a8bf2"/><path id="46f20396-72ab-4722-84f0-0ac9741e1d07" data-name="&lt;Контур&gt;" d="M711.11,110.3a3,3,0,1,0-.5-4.12A2.88,2.88,0,0,0,711.11,110.3Z" fill="#9a8bf2"/><path id="13a0ec97-a82b-4321-9e9d-38d8aeab6146" data-name="&lt;Контур&gt;" d="M740,34.39a2.91,2.91,0,1,0-4.12.37A3,3,0,0,0,740,34.39Z" fill="#9a8bf2"/><path id="2106af4f-8916-4397-8f9c-dcac9f04c9b7" data-name="&lt;Контур&gt;" d="M713.33,216.67a2.92,2.92,0,1,0-.43-4.13A2.88,2.88,0,0,0,713.33,216.67Z" fill="#9a8bf2"/><path id="a3529555-648e-4102-8303-a30fc355c528" data-name="&lt;Контур&gt;" d="M705.85,187a3,3,0,0,0,4.13-.4,2.89,2.89,0,0,0-4.4-3.75A3,3,0,0,0,705.85,187Z" fill="#9a8bf2"/><path id="18f7c7c6-30a5-4d02-a1d8-e2482a575e96" data-name="&lt;Контур&gt;" d="M720.94,246a3,3,0,0,0,4.13-.46,2.89,2.89,0,0,0-4.45-3.68A3,3,0,0,0,720.94,246Z" fill="#9a8bf2"/><path id="66dcef12-bc57-47cd-9e24-0bd4225442d6" data-name="&lt;Контур&gt;" d="M750,291.86l-.1-.09a2.56,2.56,0,0,0-4,.44,2.88,2.88,0,0,0,4.1,4Z" fill="#9a8bf2"/><path id="88f78d02-748a-4d8f-b5a5-e08cea23130a" data-name="&lt;Контур&gt;" d="M737.48,285.75a3.16,3.16,0,0,0,4-.43,2.59,2.59,0,0,0-.18-3.73c-1.66-1.43-2.84-1.44-4,0C735.88,282.59,736.59,285,737.48,285.75Z" fill="#9a8bf2"/><path id="4954b9e4-8edc-4458-8336-84b2930cea38" data-name="&lt;Контур&gt;" d="M718.33,71.17a2.54,2.54,0,0,0-.51-3.82c-1.52-1.24-2.65-1.08-3.94.25-1.1,1.14-.57,3.33.33,4.11A3.12,3.12,0,0,0,718.33,71.17Z" fill="#9a8bf2"/><path id="78d5fb60-ba82-4762-b080-186f13201446" data-name="&lt;Контур&gt;" d="M729.64,43.41a2.8,2.8,0,1,0-4,.31A2.89,2.89,0,0,0,729.64,43.41Z" fill="#9a8bf2"/><path id="63f29712-17ce-4afc-83e2-2d009fee0ad9" data-name="&lt;Контур&gt;" d="M712.16,87a2.9,2.9,0,1,0,4.14-.31A2.91,2.91,0,0,0,712.16,87Z" fill="#9a8bf2"/><path id="c863d19b-2d5a-4442-895d-6910db28cd9e" data-name="&lt;Контур&gt;" d="M704.81,118.81a2.74,2.74,0,1,0-3.86.34A2.76,2.76,0,0,0,704.81,118.81Z" fill="#9a8bf2"/><path id="eb49bbb7-72bc-4399-948e-2d3d68218367" data-name="&lt;Контур&gt;" d="M750,1.66a2.52,2.52,0,0,0-2.62.78,3,3,0,0,0,.22,4.08A2.75,2.75,0,0,0,750,7Z" fill="#9a8bf2"/><path id="412c695c-7e27-4f75-85f0-5a63b16d8c11" data-name="&lt;Контур&gt;" d="M704,202.24a2.79,2.79,0,1,0,4.27,3.59,2.74,2.74,0,0,0-.45-3.83A2.66,2.66,0,0,0,704,202.24Z" fill="#9a8bf2"/><path id="c6e35c99-9554-4f63-9abb-220b67943a6c" data-name="&lt;Контур&gt;" d="M712.19,235.82a3,3,0,0,0,4-.42,2.79,2.79,0,0,0-4.22-3.65A3,3,0,0,0,712.19,235.82Z" fill="#9a8bf2"/><path id="5bc8113b-b6e4-4b64-a9a1-850d5eed5452" data-name="&lt;Контур&gt;" d="M699.26,134.2a2.8,2.8,0,1,0,4.31,3.54,2.72,2.72,0,0,0-.48-3.72A2.69,2.69,0,0,0,699.26,134.2Z" fill="#9a8bf2"/><path id="6b492c30-549c-4b31-be3a-382acaa90745" data-name="&lt;Контур&gt;" d="M728.79,275.69a2.74,2.74,0,1,0-.46-3.87A2.76,2.76,0,0,0,728.79,275.69Z" fill="#9a8bf2"/><path id="2cc04879-9628-466a-9ecf-7689c61fda64" data-name="&lt;Контур&gt;" d="M698.35,157.56a2.74,2.74,0,1,0-.34-3.88A2.75,2.75,0,0,0,698.35,157.56Z" fill="#9a8bf2"/><path id="ee689b88-808e-4b3b-b041-019866aa12b2" data-name="&lt;Контур&gt;" d="M706.34,99.32c1.12-1.36,1.07-2.81-.13-3.83a2.5,2.5,0,0,0-3.79.5,2.57,2.57,0,1,0,3.93,3.33Z" fill="#9a8bf2"/><path id="b99657e7-a63f-4981-adec-820ebc2f5136" data-name="&lt;Контур&gt;" d="M696.75,172.83a2.58,2.58,0,1,0,3.9,3.36c1.14-1.37,1.1-2.81-.1-3.84A2.51,2.51,0,0,0,696.75,172.83Z" fill="#9a8bf2"/><path id="f6ab70ae-31cc-4e9d-bbf7-73c133b8d736" data-name="&lt;Контур&gt;" d="M741.1,15.14c1.22-1.44,1.17-2.9-.14-3.94a2.51,2.51,0,0,0-3.68.49,2.42,2.42,0,0,0,.21,3.74A2.4,2.4,0,0,0,741.1,15.14Z" fill="#9a8bf2"/><path id="c95d4e8a-4a21-4307-ac2a-22dab9663bc7" data-name="&lt;Контур&gt;" d="M719.21,51.83c1.17-1.34,1-2.56-.22-3.81a2.42,2.42,0,0,0-3.65.42,2.58,2.58,0,1,0,3.88,3.39Z" fill="#9a8bf2"/><path id="7b602f59-2bf9-48d3-8fb4-16aa5ba29db6" data-name="&lt;Контур&gt;" d="M719.79,265.29a2.5,2.5,0,0,0,3.62-.4,2.57,2.57,0,0,0-.17-3.84,2.74,2.74,0,0,0-3.45,4.24Z" fill="#9a8bf2"/><path id="ede7e53c-a3a1-478f-96ff-1f1db5e6ab6b" data-name="&lt;Контур&gt;" d="M703.25,225.42a2.56,2.56,0,0,0,3.69-.38,2.74,2.74,0,0,0-.18-3.8,2.77,2.77,0,0,0-3.66.36A2.58,2.58,0,0,0,703.25,225.42Z" fill="#9a8bf2"/><path id="b2036ca1-9c07-4ce7-a2df-8d11fd072aba" data-name="&lt;Контур&gt;" d="M707.55,80a2.74,2.74,0,0,0-.19-3.8,2.81,2.81,0,0,0-3.66.37A2.58,2.58,0,1,0,707.55,80Z" fill="#9a8bf2"/><path id="dc6a4b65-92a0-4003-89bd-fcebaa80d479" data-name="&lt;Контур&gt;" d="M710.56,251.17a2.56,2.56,0,0,0,4,3.25,2.56,2.56,0,1,0-4-3.25Z" fill="#9a8bf2"/><path id="7b8e62d6-f371-40be-94cb-6706f154864f" data-name="&lt;Контур&gt;" d="M730.89,23.63a2.36,2.36,0,0,0-.47-3.59,2.34,2.34,0,0,0-3.49.35,2.56,2.56,0,1,0,4,3.24Z" fill="#9a8bf2"/><path id="b332cfaa-3681-478a-aedd-2a2452f6213a" data-name="&lt;Контур&gt;" d="M693.18,146.52a2.5,2.5,0,1,0-3.48.41A2.59,2.59,0,0,0,693.18,146.52Z" fill="#9a8bf2"/><path id="ee9ede9b-dab1-4ac4-9fc0-307969d163dd" data-name="&lt;Контур&gt;" d="M699.45,195.5a2.57,2.57,0,1,0-3.59.35A2.58,2.58,0,0,0,699.45,195.5Z" fill="#9a8bf2"/><path id="63bcbf12-aab4-4a52-8fd7-fe67a675d67f" data-name="&lt;Контур&gt;" d="M745.41,315.36a2.81,2.81,0,0,0,3.58-.51,2.35,2.35,0,0,0-.4-3.42c-1.23-1-2.53-1-3.39.1A2.75,2.75,0,0,0,745.41,315.36Z" fill="#9a8bf2"/><path id="b2a9fa93-d18b-4b04-9bf1-3c22b5073a77" data-name="&lt;Контур&gt;" d="M736.51,304.84a2.8,2.8,0,0,0,3.59-.43,2.4,2.4,0,0,0-.45-3.53,2.2,2.2,0,0,0-3.27.13A2.75,2.75,0,0,0,736.51,304.84Z" fill="#9a8bf2"/><path id="ba41d88b-d2b4-4f4b-b0bc-e385d8dd2d19" data-name="&lt;Контур&gt;" d="M694.7,127.36a2.35,2.35,0,0,0-.4-3.42c-1.23-1-2.53-1-3.39.09a2.75,2.75,0,0,0,.21,3.83A2.81,2.81,0,0,0,694.7,127.36Z" fill="#9a8bf2"/><path id="b899b6e3-6463-4475-a89a-eadd39393484" data-name="&lt;Контур&gt;" d="M691.85,165.94c.74-1.09,1.08-2.18-.47-3.38a2.23,2.23,0,0,0-3.18,0,2.73,2.73,0,0,0,.1,3.84A2.57,2.57,0,0,0,691.85,165.94Z" fill="#9a8bf2"/><path id="18ecf721-cb3c-43e9-8d8b-9bd891ad04bf" data-name="&lt;Контур&gt;" d="M695.86,108c1-1.47.71-2.45-.5-3.38a2.22,2.22,0,0,0-3.17.06,2.72,2.72,0,0,0,.13,3.84A2.6,2.6,0,0,0,695.86,108Z" fill="#9a8bf2"/><path id="69e07cc2-ce18-4318-a383-d65b8e86cc7e" data-name="&lt;Контур&gt;" d="M709,60.71c1-1.47.72-2.45-.5-3.38a2.22,2.22,0,0,0-3.17.05,2.72,2.72,0,0,0,.12,3.84A2.6,2.6,0,0,0,709,60.71Z" fill="#9a8bf2"/><path id="c0237b25-2147-42ae-a327-985699ce38f3" data-name="&lt;Контур&gt;" d="M727.46,294.48a2.43,2.43,0,1,0-.25-3.46A2.46,2.46,0,0,0,727.46,294.48Z" fill="#9a8bf2"/><path id="b61575a7-cf65-4d07-a7b4-0a6a40a2aaf9" data-name="&lt;Контур&gt;" d="M702,244.26c1.25,1,2.22.93,3.26-.35s1.05-2.38-.19-3.38-2.24-.79-3.34.58C700.77,242.33,700.85,243.3,702,244.26Z" fill="#9a8bf2"/><path id="b51aba8c-f53d-405f-8fe2-6ba263737f35" data-name="&lt;Контур&gt;" d="M694.44,211.37c-1.1,1.31-1.06,2.29.13,3.28s2.23,1,3.26-.31,1.06-2.4-.15-3.38S695.47,210.13,694.44,211.37Z" fill="#9a8bf2"/><path id="2e6fd3c6-2ecb-421d-a1a0-0f3e98c6ab21" data-name="&lt;Контур&gt;" d="M720.37,32.55c1.13-1.36,1.1-2.39-.09-3.39s-2.24-.89-3.35.47-1,2.26.29,3.26A2,2,0,0,0,720.37,32.55Z" fill="#9a8bf2"/><path id="8c759cfe-ba33-46ba-bdc6-9582b53deae8" data-name="&lt;Контур&gt;" d="M697,88.85a2.27,2.27,0,0,0-.18-3.41,2.37,2.37,0,0,0-3.16.39c-1,1.21-1,2.36.07,3.3A2.1,2.1,0,0,0,697,88.85Z" fill="#9a8bf2"/><path id="945fa668-634f-45d1-a140-e510ad230240" data-name="&lt;Контур&gt;" d="M718.56,284.14a2.1,2.1,0,0,0,3.26-.47,2.27,2.27,0,0,0-.24-3.29,2.34,2.34,0,0,0-3.27.48A2.09,2.09,0,0,0,718.56,284.14Z" fill="#9a8bf2"/><path id="a56eb76b-722d-4bea-87a8-6e7b3e152d2e" data-name="&lt;Контур&gt;" d="M690.29,184.88a2.33,2.33,0,0,0-.29-3.29,2.35,2.35,0,0,0-3.26.52,2.09,2.09,0,0,0,.29,3.28C688.17,186.28,689.32,186.11,690.29,184.88Z" fill="#9a8bf2"/><path id="e7bd8006-c72f-4659-ac7f-331eb7f55c71" data-name="&lt;Контур&gt;" d="M732.16,4.24A2.7,2.7,0,0,0,731.94,1a2.66,2.66,0,0,0-3.34.49,2.16,2.16,0,0,0,.25,3.22A2.17,2.17,0,0,0,732.16,4.24Z" fill="#9a8bf2"/><path id="c0c78f13-9c49-4e66-90b3-8e99e617e6c4" data-name="&lt;Контур&gt;" d="M709.84,270.41a2.42,2.42,0,0,0,0,3.32,2.38,2.38,0,0,0,3.3-.2,2.5,2.5,0,0,0-.11-3.4A2.54,2.54,0,0,0,709.84,270.41Z" fill="#9a8bf2"/><path id="df2ad55f-73e9-41e8-b689-f9896df9dcdc" data-name="&lt;Контур&gt;" d="M709.92,41.36a2.52,2.52,0,0,0-.1-3.29,2.57,2.57,0,0,0-3.26.3,2.41,2.41,0,0,0,.07,3.31A2.38,2.38,0,0,0,709.92,41.36Z" fill="#9a8bf2"/><path id="b498277f-193a-4116-9bce-18e6a937abda" data-name="&lt;Контур&gt;" d="M696.7,233.58a2.5,2.5,0,0,0-.19-3.28,2.54,2.54,0,0,0-3.26.39,2.26,2.26,0,1,0,3.45,2.89Z" fill="#9a8bf2"/><path id="cbee0172-aad3-4f09-9913-2db3411521c6" data-name="&lt;Контур&gt;" d="M688.87,203.91c.8-1,.63-2-.5-2.94s-2.14-.89-3.06.28a2.23,2.23,0,1,0,3.56,2.66Z" fill="#9a8bf2"/><path id="7eb40c2c-f424-4868-a166-34a8c092aec2" data-name="&lt;Контур&gt;" d="M684,135.92c.81-1,.64-2-.48-2.94s-2.14-.9-3.06.26a2.23,2.23,0,1,0,3.55,2.68Z" fill="#9a8bf2"/><path id="fcc4e0b3-4e15-4aac-b99c-85476af1dd3d" data-name="&lt;Контур&gt;" d="M685.29,117a2.2,2.2,0,1,0-3,.32A2.29,2.29,0,0,0,685.29,117Z" fill="#9a8bf2"/><path id="ce213e84-2852-47a4-9921-303bf73d4c84" data-name="&lt;Контур&gt;" d="M682.81,155.22a1.91,1.91,0,0,0-.45-2.89,2,2,0,0,0-3,.28,2.18,2.18,0,1,0,3.48,2.61Z" fill="#9a8bf2"/><path id="be600b84-242b-4b04-ba8f-c9f2be675e5f" data-name="&lt;Контур&gt;" d="M721.6,13.06a2,2,0,0,0-.52-3,1.93,1.93,0,0,0-2.9.32,2.27,2.27,0,0,0,.29,3.16A2.3,2.3,0,0,0,721.6,13.06Z" fill="#9a8bf2"/><path id="99674351-f00d-4764-9923-5ff63ae1bba4" data-name="&lt;Контур&gt;" d="M698.18,69.57a2.23,2.23,0,1,0-3.14.31A2.28,2.28,0,0,0,698.18,69.57Z" fill="#9a8bf2"/><path id="5554d33c-8698-46aa-9690-adc5c49bdaf2" data-name="&lt;Контур&gt;" d="M701,263.59a2.29,2.29,0,0,0,3.13-.53,1.91,1.91,0,0,0-.44-2.89,2,2,0,0,0-3,.26A2.29,2.29,0,0,0,701,263.59Z" fill="#9a8bf2"/><path id="fbe72365-6a9d-433e-9b1a-b173a5c185e8" data-name="&lt;Контур&gt;" d="M686.48,97.53c.67-1,.92-2-.37-2.85a1.81,1.81,0,0,0-2.92.24,2.12,2.12,0,0,0,.32,3.05A2,2,0,0,0,686.48,97.53Z" fill="#9a8bf2"/><path id="25f93810-591a-4f17-bec4-116c93a667c4" data-name="&lt;Контур&gt;" d="M726.28,313.35a2.1,2.1,0,0,0,3-.34c.87-1,.74-2-.77-3.26a1.66,1.66,0,0,0-2.45.54A2.15,2.15,0,0,0,726.28,313.35Z" fill="#9a8bf2"/><path id="11697b48-362a-4703-a2e5-627a11698468" data-name="&lt;Контур&gt;" d="M699.57,50.28c.68-1,.94-2-.36-2.87a1.82,1.82,0,0,0-2.9.23,2.12,2.12,0,0,0,.29,3.06A2,2,0,0,0,699.57,50.28Z" fill="#9a8bf2"/><path id="13e3c64c-da62-4b6f-ac75-537411bbf7cc" data-name="&lt;Контур&gt;" d="M734.88,320.81a2.12,2.12,0,0,0,.29,3.06,2,2,0,0,0,3-.42c.68-1,.93-2-.35-2.86A1.82,1.82,0,0,0,734.88,320.81Z" fill="#9a8bf2"/><path id="27935ac1-c262-46dd-9e60-a5d38b8c091a" data-name="&lt;Контур&gt;" d="M681.23,174.37c.69-.94,1-2-.43-3a1.77,1.77,0,0,0-2.8.29,2.12,2.12,0,0,0,.26,3.06A2,2,0,0,0,681.23,174.37Z" fill="#9a8bf2"/><path id="a256310b-1c08-4e41-b702-bfcd090cea99" data-name="&lt;Контур&gt;" d="M743.88,331.1a2.17,2.17,0,0,0,.31,3,2.13,2.13,0,0,0,3-.37,2.06,2.06,0,0,0-.29-2.9A2.13,2.13,0,0,0,743.88,331.1Z" fill="#9a8bf2"/><path id="b50e2ec3-dc26-45a3-a7a6-6be88bfd9e7f" data-name="&lt;Контур&gt;" d="M711.18,22A1.86,1.86,0,0,0,711,19.2a1.89,1.89,0,0,0-2.87.36,1.8,1.8,0,0,0,.16,2.78C709.25,23.18,710.27,23,711.18,22Z" fill="#9a8bf2"/><path id="b246f55a-71d6-4397-a019-8aa1fa3cf1bb" data-name="&lt;Контур&gt;" d="M687.37,223.17c.8-1,.81-2.28-.17-2.87s-2-.82-2.75.34a1.85,1.85,0,0,0,.16,2.89A1.78,1.78,0,0,0,687.37,223.17Z" fill="#9a8bf2"/><path id="e14a3a3a-7498-4260-a54c-bf598f7f7c7c" data-name="&lt;Контур&gt;" d="M694.74,252.84a1.83,1.83,0,0,0-.06-2.87,1.76,1.76,0,0,0-2.73.15,1.91,1.91,0,0,0,0,2.92A1.86,1.86,0,0,0,694.74,252.84Z" fill="#9a8bf2"/><path id="de0042ca-fa78-41f8-bbf8-70e8955b0a8d" data-name="&lt;Контур&gt;" d="M679.72,193.86a1.82,1.82,0,0,0-.14-2.86,1.75,1.75,0,0,0-2.72.24,1.89,1.89,0,0,0,.08,2.91A1.86,1.86,0,0,0,679.72,193.86Z" fill="#9a8bf2"/><path id="7fa4ebb0-242b-4ca8-9db1-ab68d0ecc379" data-name="&lt;Контур&gt;" d="M720.21,300c-.89-.57-1.94-.88-2.75.28a1.86,1.86,0,0,0,.09,2.9,1.78,1.78,0,0,0,2.76-.3C721.14,301.9,721.17,300.6,720.21,300Z" fill="#9a8bf2"/><path id="18f76992-6c02-4a48-8e96-3230c67f8dfa" data-name="&lt;Контур&gt;" d="M687.74,78.44a2,2,0,0,0-3-2.51c-.84,1-.67,1.93.27,2.89A1.9,1.9,0,0,0,687.74,78.44Z" fill="#9a8bf2"/><path id="6562b47d-2ac8-4c64-a57a-8bb5bc425e98" data-name="&lt;Контур&gt;" d="M708.75,292.7a1.9,1.9,0,0,0,2.77-.44c.69-.88.81-1.8-.26-2.45-1-.87-1.81-1.17-2.71,0A2,2,0,0,0,708.75,292.7Z" fill="#9a8bf2"/><path id="f97884ea-1c6f-4da7-a658-5b405d9c7b06" data-name="&lt;Контур&gt;" d="M674.85,125.82a1.88,1.88,0,0,0-2.93-2.35,1.88,1.88,0,1,0,2.93,2.35Z" fill="#9a8bf2"/><path id="7691a175-1f8a-4bcc-8037-2b0407074bd3" data-name="&lt;Контур&gt;" d="M673.41,145a1.71,1.71,0,0,0-.21-2.57,1.66,1.66,0,0,0-2.63.11,1.8,1.8,0,0,0,.17,2.7A1.86,1.86,0,0,0,673.41,145Z" fill="#9a8bf2"/><path id="7872e04b-14ca-49bb-a499-abddd82d4fd7" data-name="&lt;Контур&gt;" d="M678.31,212.81a1.67,1.67,0,0,0-.5-2.59,1.73,1.73,0,0,0-2.58.41,1.87,1.87,0,0,0,.4,2.62A1.8,1.8,0,0,0,678.31,212.81Z" fill="#9a8bf2"/><path id="097c8559-ee13-4707-b401-d1be3ead4682" data-name="&lt;Контур&gt;" d="M672,164a1.74,1.74,0,0,0-.42-2.67,1.63,1.63,0,0,0-2.5.3,1.79,1.79,0,0,0,.26,2.69A1.86,1.86,0,0,0,672,164Z" fill="#9a8bf2"/><path id="07ff69bf-c03c-4e4a-a6ec-fef1186ef1d4" data-name="&lt;Контур&gt;" d="M702.37,282.1a1.74,1.74,0,0,0-.4-2.67,1.63,1.63,0,0,0-2.5.27,1.8,1.8,0,0,0,.24,2.69A1.86,1.86,0,0,0,702.37,282.1Z" fill="#9a8bf2"/><path id="3d192850-b92e-42a4-b23e-90ad2267728f" data-name="&lt;Контур&gt;" d="M689.16,59.25a1.74,1.74,0,0,0-.42-2.67,1.63,1.63,0,0,0-2.5.3,1.79,1.79,0,0,0,.26,2.69A1.86,1.86,0,0,0,689.16,59.25Z" fill="#9a8bf2"/><path id="d9322956-905f-4e4a-a7b6-d531f6549d33" data-name="&lt;Контур&gt;" d="M685.87,242.24a1.62,1.62,0,0,0-.22-2.5,1.74,1.74,0,0,0-2.7.13,1.86,1.86,0,0,0,.23,2.66A1.79,1.79,0,0,0,685.87,242.24Z" fill="#9a8bf2"/><path id="290425b3-ccbf-48c3-8059-1654d10e3fa4" data-name="&lt;Контур&gt;" d="M676.1,106.41a1.67,1.67,0,0,0-.49-2.59,1.71,1.71,0,0,0-2.54.36,1.86,1.86,0,0,0,.36,2.66A1.8,1.8,0,0,0,676.1,106.41Z" fill="#9a8bf2"/><path id="5e727914-3aad-4921-9cbb-e0744fff662d" data-name="&lt;Контур&gt;" d="M700.87,31a1.75,1.75,0,0,0-.49-2.64,1.62,1.62,0,0,0-2.49.35,1.79,1.79,0,0,0,.31,2.69A1.87,1.87,0,0,0,700.87,31Z" fill="#9a8bf2"/><path id="5488a3af-b7db-459c-bc79-bdd4dcb02bd0" data-name="&lt;Контур&gt;" d="M677.64,87a1.48,1.48,0,0,0-.29-2.42,1.43,1.43,0,0,0-2.28-.12,1.89,1.89,0,0,0-.08,2.83A1.74,1.74,0,0,0,677.64,87Z" fill="#9a8bf2"/><path id="0a15cd0b-9b36-4f65-bd94-42392d67fca0" data-name="&lt;Контур&gt;" d="M670.57,183.22a1.54,1.54,0,0,0-.08-2.52c-.7-.54-1.62-.77-2.23.23-.79.86-1,1.66,0,2.47A1.46,1.46,0,0,0,670.57,183.22Z" fill="#9a8bf2"/><path id="58c4a082-c50c-48c1-91b5-a19a72f75fcd" data-name="&lt;Контур&gt;" d="M734.18,340.3a1.6,1.6,0,0,0,0,2.41,1.54,1.54,0,0,0,2.38-.17,1.57,1.57,0,0,0,0-2.45A1.54,1.54,0,0,0,734.18,340.3Z" fill="#9a8bf2"/><path id="61d5c61e-3511-4718-baa9-15e9c4fa6714" data-name="&lt;Контур&gt;" d="M693.22,271.52c.85-.81.51-1.7-.27-2.31a1.5,1.5,0,0,0-2.38.42c-.63.89-.68,1.59.19,2.32S692.49,272.53,693.22,271.52Z" fill="#9a8bf2"/><path id="bd41b1b7-bbd3-4f65-8b95-41046f1ab80e" data-name="&lt;Контур&gt;" d="M718.75,321.64a1.63,1.63,0,1,0-2.64-1.88,1.48,1.48,0,0,0,.3,2.34C717.34,322.77,718.08,322.48,718.75,321.64Z" fill="#9a8bf2"/><path id="f797c520-03e5-4e5a-8e8e-6ac3cdda0b4f" data-name="&lt;Контур&gt;" d="M676.9,231.52c.56-.58.32-1.51-.44-2.14a1.53,1.53,0,0,0-2.31.36,1.49,1.49,0,0,0,.13,2.37C675.15,232.84,675.94,232.65,676.9,231.52Z" fill="#9a8bf2"/><path id="32b1db4a-872e-442e-a36a-17a5ab2cc613" data-name="&lt;Контур&gt;" d="M725.4,332.31a1.76,1.76,0,1,0-.17-2.39A1.56,1.56,0,0,0,725.4,332.31Z" fill="#9a8bf2"/><path id="59ab787e-f5af-46d0-98da-e6d428c88b2a" data-name="&lt;Контур&gt;" d="M690.36,39.49a1.63,1.63,0,1,0-2.51-2.05A1.48,1.48,0,0,0,688,39.8,1.51,1.51,0,0,0,690.36,39.49Z" fill="#9a8bf2"/><path id="f4693e56-7386-45ac-b7d9-e76473ac9062" data-name="&lt;Контур&gt;" d="M678.72,67.61a1.52,1.52,0,0,0-.14-2.33,1.58,1.58,0,0,0-2.43.35,1.63,1.63,0,1,0,2.57,2Z" fill="#9a8bf2"/><path id="1ded2849-185f-481a-83c2-37d1058482de" data-name="&lt;Контур&gt;" d="M742.91,350.45a1.48,1.48,0,0,0,.17,2.36,1.51,1.51,0,0,0,2.35-.32,1.63,1.63,0,1,0-2.52-2Z" fill="#9a8bf2"/><path id="29acf558-e3c7-47c3-8056-dc15fd526455" data-name="&lt;Контур&gt;" d="M712.27,2.93a1.57,1.57,0,0,0-.11-2.4,1.58,1.58,0,0,0-2.5.17,1.63,1.63,0,0,0,.21,2.42A1.63,1.63,0,0,0,712.27,2.93Z" fill="#9a8bf2"/><path id="38157a43-0597-472d-a482-2e18e9ff6630" data-name="&lt;Контур&gt;" d="M669.11,202.32a1.47,1.47,0,0,0-.19-2.25,1.6,1.6,0,1,0-2.06,2.44A1.47,1.47,0,0,0,669.11,202.32Z" fill="#9a8bf2"/><path id="f6fbeeef-959f-4b19-b4dd-eeb257332e3d" data-name="&lt;Контур&gt;" d="M684.47,261.39c.73-.78.45-1.5-.18-2.16s-1.51-.81-2.21,0a1.56,1.56,0,0,0,.13,2.38A1.54,1.54,0,0,0,684.47,261.39Z" fill="#9a8bf2"/><path id="19d34d82-c937-48af-8fee-2fd856ce9e87" data-name="&lt;Контур&gt;" d="M709.66,311.39c.66-.84.31-1.54-.53-2.25a1.38,1.38,0,0,0-2,.36,1.6,1.6,0,1,0,2.57,1.89Z" fill="#9a8bf2"/><path id="83282995-7b69-4c03-8754-49bdb9b843bb" data-name="&lt;Контур&gt;" d="M664.27,134.32a1.35,1.35,0,0,0-.39-2c-.76-.63-1.49-.64-2.32.29a1.58,1.58,0,0,0,.38,2.21A1.56,1.56,0,0,0,664.27,134.32Z" fill="#9a8bf2"/><path id="a739b243-f4ab-4d15-9cb2-9e86eee910d2" data-name="&lt;Контур&gt;" d="M665.9,115a1.35,1.35,0,0,0-.38-2,1.43,1.43,0,0,0-2.25.19A1.61,1.61,0,1,0,665.9,115Z" fill="#9a8bf2"/><path id="f7707f5a-1a36-4f72-9171-c2c9548c9d61" data-name="&lt;Контур&gt;" d="M702.1,11.18a1.35,1.35,0,0,0-.39-2,1.43,1.43,0,0,0-2.25.21,1.61,1.61,0,1,0,2.65,1.81Z" fill="#9a8bf2"/><path id="f4acc7a0-afff-477b-98f9-d60773919f07" data-name="&lt;Контур&gt;" d="M701,301.08c.62-.78.38-1.46-.42-2.07a1.24,1.24,0,0,0-2,.18,1.53,1.53,0,1,0,2.41,1.89Z" fill="#9a8bf2"/><path id="aaf39ddc-457a-4704-ada1-8bf9a058f73a" data-name="&lt;Контур&gt;" d="M667,95.68c.62-.81.33-1.46-.51-2.11a1.21,1.21,0,0,0-1.93.26,1.49,1.49,0,0,0,.21,2.25A1.51,1.51,0,0,0,667,95.68Z" fill="#9a8bf2"/><path id="e3b83a65-e004-49ef-a0a1-415c9f2c3b4e" data-name="&lt;Контур&gt;" d="M661.58,172.74c.62-.81.31-1.46-.54-2.12a1.21,1.21,0,0,0-1.91.29,1.48,1.48,0,0,0,.22,2.24A1.51,1.51,0,0,0,661.58,172.74Z" fill="#9a8bf2"/><path id="2bfa085c-c922-426a-b217-1e333368152e" data-name="&lt;Контур&gt;" d="M662.91,153.78a1.54,1.54,0,1,0-2.49-1.82,1.54,1.54,0,1,0,2.49,1.82Z" fill="#9a8bf2"/><path id="9700f013-5d79-43b4-bd9c-bc06c2b7c9a0" data-name="&lt;Контур&gt;" d="M679.88,48.58a1.34,1.34,0,0,0-.07-2,1.45,1.45,0,1,0-2,2.07A1.36,1.36,0,0,0,679.88,48.58Z" fill="#9a8bf2"/><path id="3825f4b7-5d47-464c-8ab6-661fd7c5f3a7" data-name="&lt;Контур&gt;" d="M691.71,290.76c.61-.74.66-1.42-.11-2s-1.4-.3-2,.43-.57,1.33.22,1.86C690.59,291.74,691.14,291.46,691.71,290.76Z" fill="#9a8bf2"/><path id="b81d896f-c5d9-4f21-9ff7-911c39ba62f2" data-name="&lt;Контур&gt;" d="M667.75,221.34a1.19,1.19,0,0,0,0-2c-.74-.62-1.39-.41-2,.33s-.66,1.26.12,1.89S667.19,222.17,667.75,221.34Z" fill="#9a8bf2"/><path id="9953fd6d-ac34-4a6c-900b-12ff958cc1ee" data-name="&lt;Контур&gt;" d="M691.55,20.19c.62-.75.64-1.42-.13-2s-1.4-.26-2,.46-.53,1.34.25,1.86C690.45,21.21,691,20.87,691.55,20.19Z" fill="#9a8bf2"/><path id="bfc26f24-e3f9-49c5-a264-0f6d459cd983" data-name="&lt;Контур&gt;" d="M675.24,250.9c.62-.76.62-1.43-.15-2s-1.41-.23-2,.48-.5,1.34.25,1.84C674.15,251.93,674.68,251.58,675.24,250.9Z" fill="#9a8bf2"/><path id="62a76aab-be95-4b0c-a785-8512d3f66e81" data-name="&lt;Контур&gt;" d="M660,191.7A1.3,1.3,0,1,0,658,192,1.23,1.23,0,0,0,660,191.7Z" fill="#9a8bf2"/><path id="be2bcc5d-a063-4ad5-b451-a078dd13f8f2" data-name="&lt;Контур&gt;" d="M668.1,76.61a1.3,1.3,0,0,0,.13-2,1.21,1.21,0,0,0-1.85,0c-.67.76-.77,1.46-.11,2.07A1.2,1.2,0,0,0,668.1,76.61Z" fill="#9a8bf2"/><path id="40956825-157c-4adf-88f3-43a4f4509bc5" data-name="&lt;Контур&gt;" d="M654,143c.59-.69.21-1.15-.3-1.6s-1.16-.74-1.74.06a1.26,1.26,0,0,0,.1,1.85C652.69,143.86,653.38,143.66,654,143Z" fill="#9a8bf2"/><path id="25310dee-9943-4fbb-96cf-4c64b727c8ec" data-name="&lt;Контур&gt;" d="M669.68,57.31c.6-.7.2-1.15-.31-1.6s-1.17-.74-1.74.07a1.25,1.25,0,0,0,.11,1.85C668.42,58.19,669.1,58,669.68,57.31Z" fill="#9a8bf2"/><path id="6a6ff2b9-524d-4dc6-b380-13ec32c7b89b" data-name="&lt;Контур&gt;" d="M666.44,240.29c.49-.52-.14-1-.67-1.42a1,1,0,0,0-1.61.17,1.26,1.26,0,0,0,.11,1.85C665,241.46,665.65,241.25,666.44,240.29Z" fill="#9a8bf2"/><path id="8ab92f2c-a3a4-47ff-89c7-df6cf430f6fc" data-name="&lt;Контур&gt;" d="M682.68,280.43c.58-.67.28-1.14-.42-1.73-.42-.32-1-.67-1.58.14a1.29,1.29,0,1,0,2,1.59Z" fill="#9a8bf2"/><path id="97a9b1c6-fed0-4457-9d3e-b192d39aa6e8" data-name="&lt;Контур&gt;" d="M658.95,210.79c.53-.52,0-1-.56-1.48s-1.09-.63-1.62.09a1.26,1.26,0,0,0,.15,2C657.55,211.83,658.23,211.64,658.95,210.79Z" fill="#9a8bf2"/><path id="a819ac48-29c3-40c8-94cb-6c1f81305e76" data-name="&lt;Контур&gt;" d="M655.07,123.77c.67-.71.35-1.23-.56-2-.32-.29-.89-.42-1.43.36a1.28,1.28,0,1,0,2,1.6Z" fill="#9a8bf2"/><path id="df346421-328b-4db8-9347-f9fa691d9c33" data-name="&lt;Контур&gt;" d="M681.06,29c.67-.75.22-1.23-.18-1.58-.72-.57-1.25-.77-1.78-.06a1.29,1.29,0,1,0,2,1.64Z" fill="#9a8bf2"/><path id="1079642f-f005-48f7-9c35-e9f0eef03583" data-name="&lt;Контур&gt;" d="M725.7,351.17a1.21,1.21,0,0,0-1.82-1.58,1.21,1.21,0,1,0,1.82,1.58Z" fill="#9a8bf2"/><path id="c0861c5d-7ff8-4920-a490-e6de1ef121bf" data-name="&lt;Контур&gt;" d="M656.26,104.78a1.14,1.14,0,0,0,0-1.7,1,1,0,0,0-1.65.05,1.3,1.3,0,0,0,.15,1.79A1.18,1.18,0,0,0,656.26,104.78Z" fill="#9a8bf2"/><path id="626d7e15-c405-4b1d-8fb8-258aed4c6948" data-name="&lt;Контур&gt;" d="M707.94,330.69a1.14,1.14,0,0,0,0-1.7,1,1,0,0,0-1.65.05,1.3,1.3,0,0,0,.15,1.79A1.18,1.18,0,0,0,707.94,330.69Z" fill="#9a8bf2"/><path id="48ce6d5e-2eac-492b-8342-6a895bc41d87" data-name="&lt;Контур&gt;" d="M717,340.88a1.14,1.14,0,0,0-.11-1.7,1,1,0,0,0-1.64.14,1.28,1.28,0,0,0,.17,1.71A1.17,1.17,0,0,0,717,340.88Z" fill="#9a8bf2"/><path id="c18333be-bac9-4879-82ad-ac4264087448" data-name="&lt;Контур&gt;" d="M673.66,270a1.22,1.22,0,0,0-.31-1.71,1,1,0,0,0-1.52.22,1.19,1.19,0,0,0,.29,1.78A1.15,1.15,0,0,0,673.66,270Z" fill="#9a8bf2"/><path id="be743838-e973-4b3a-aa0f-9b85277c4592" data-name="&lt;Контур&gt;" d="M652.21,162.29a1.14,1.14,0,0,0,0-1.7,1,1,0,0,0-1.65,0,1.3,1.3,0,0,0,.15,1.8A1.18,1.18,0,0,0,652.21,162.29Z" fill="#9a8bf2"/><path id="9c7a928c-5f50-4745-b76d-db98953135cb" data-name="&lt;Контур&gt;" d="M734.8,361.31a1,1,0,0,0-.13-1.55,1.06,1.06,0,0,0-1.67,0,1.26,1.26,0,0,0,.1,1.73A1.28,1.28,0,0,0,734.8,361.31Z" fill="#9a8bf2"/><path id="78edc5c7-3c83-4571-8789-d745e2eb3cc7" data-name="&lt;Контур&gt;" d="M743.83,371.59a1,1,0,0,0-.06-1.55,1.07,1.07,0,0,0-1.67,0,1.28,1.28,0,0,0,.08,1.78A1.32,1.32,0,0,0,743.83,371.59Z" fill="#9a8bf2"/><path id="6da5cbad-b332-4ba3-ab45-46f51e770396" data-name="&lt;Контур&gt;" d="M657.08,229.93c.43-.53.55-1-.06-1.49s-1.06-.26-1.46.29-.54,1,.06,1.48S656.65,230.46,657.08,229.93Z" fill="#9a8bf2"/><path id="c2842567-a2ff-49c8-a692-f93f19f4090c" data-name="&lt;Контур&gt;" d="M650.9,181.45c.44-.55.49-1-.12-1.48s-1-.16-1.46.34-.47,1,.28,1.61C650.07,182.26,650.49,182,650.9,181.45Z" fill="#9a8bf2"/><path id="32bcdba6-9988-464e-9344-3f1aa87772cf" data-name="&lt;Контур&gt;" d="M690,309.64c.41-.52.62-1,0-1.5s-1-.32-1.47.21-.6,1-.15,1.38C689.13,310.33,689.59,310.19,690,309.64Z" fill="#9a8bf2"/><path id="c2f2f3f9-7251-4e6b-9130-9c44a34b40de" data-name="&lt;Контур&gt;" d="M670.59,37.86c.43-.53.55-1-.06-1.49s-1.06-.26-1.46.29-.54,1,.06,1.48S670.16,38.39,670.59,37.86Z" fill="#9a8bf2"/><path id="be2501d4-972f-4019-8bda-b4e6822349ff" data-name="&lt;Контур&gt;" d="M649.37,200.64a.77.77,0,0,0-.12-1.23c-.45-.38-.91-.55-1.36,0a1,1,0,1,0,1.47,1.21Z" fill="#9a8bf2"/><path id="fac6f1c5-161a-43bc-8b10-0c7b650ffd21" data-name="&lt;Контур&gt;" d="M644.57,132.64c.44-.55.21-1-.27-1.33a.78.78,0,0,0-1.23.14,1,1,0,1,0,1.49,1.19Z" fill="#9a8bf2"/><path id="f1da8ca3-931f-4b7d-be88-32bd78fdfe41" data-name="&lt;Контур&gt;" d="M680.9,299.45a.77.77,0,0,0-.06-1.23c-.44-.38-.89-.59-1.36,0a1,1,0,0,0,0,1.43A1,1,0,0,0,680.9,299.45Z" fill="#9a8bf2"/><path id="2fd4d603-964c-4004-8ade-502771a5b185" data-name="&lt;Контур&gt;" d="M658.85,66.07c.44-.55.21-1-.27-1.33a.78.78,0,0,0-1.23.14,1,1,0,1,0,1.49,1.19Z" fill="#9a8bf2"/><path id="4645776e-0037-41db-ab4f-6a0846d9ac76" data-name="&lt;Контур&gt;" d="M664.4,259.61c.55-.55.26-1-.2-1.34a.78.78,0,0,0-1.23.09.92.92,0,0,0,.06,1.4A.9.9,0,0,0,664.4,259.61Z" fill="#9a8bf2"/><path id="9c729eca-4a6e-41fe-b63b-3c1f80e3ad60" data-name="&lt;Контур&gt;" d="M682.07,9.89c.41-.49.52-.9.05-1.31s-.87-.64-1.36-.1a.93.93,0,0,0,0,1.41A.9.9,0,0,0,682.07,9.89Z" fill="#9a8bf2"/><path id="e26445d1-3a27-4fac-81d8-eebd6c4bbc08" data-name="&lt;Контур&gt;" d="M657.71,85.5a1,1,0,0,0-.09-1.41,1,1,0,0,0-1.53,0,1.06,1.06,0,1,0,1.62,1.37Z" fill="#9a8bf2"/><path id="3bc73586-1c29-4fd2-8278-377f001cfa3a" data-name="&lt;Контур&gt;" d="M699.07,320a1,1,0,0,0,0-1.42,1,1,0,0,0-1.53,0,1.06,1.06,0,1,0,1.57,1.42Z" fill="#9a8bf2"/><path id="032c9d7d-62e2-493a-bb17-a69bab6d00c4" data-name="&lt;Контур&gt;" d="M655.81,249.17c.56-.55,0-.84-.32-1.11s-.69-.6-1,0a1.06,1.06,0,0,0,.05,1.32A1,1,0,0,0,655.81,249.17Z" fill="#9a8bf2"/><path id="fd85a029-9038-41ab-9980-1e41374a4bb0" data-name="&lt;Контур&gt;" d="M643.33,151.43c.27-.29-.13-.58-.43-.84s-.68-.64-1.06-.16-.5,1,0,1.42S642.76,152,643.33,151.43Z" fill="#9a8bf2"/><path id="5f8937c7-119d-4d4c-b430-3c3b599e7555" data-name="&lt;Контур&gt;" d="M660.24,46.89c.56-.44.14-.76-.15-1s-.71-.77-1.16-.14a1.06,1.06,0,0,0,0,1.39A1.15,1.15,0,0,0,660.24,46.89Z" fill="#9a8bf2"/><path id="9afb483e-54c8-4f75-a693-d24e7464f37d" data-name="&lt;Контур&gt;" d="M646.08,113.31c.36-.46-.1-.76-.42-1s-.7-.57-1,0-.38,1,.06,1.31A1,1,0,0,0,646.08,113.31Z" fill="#9a8bf2"/><path id="35d09528-c4f3-43d3-b5a9-ff4b857b2be5" data-name="&lt;Контур&gt;" d="M647.14,94.15c.56-.44.13-.76-.15-1s-.71-.77-1.16-.13a1,1,0,0,0,0,1.34A1.06,1.06,0,0,0,647.14,94.15Z" fill="#9a8bf2"/><path id="8e76a32b-789d-4c18-9a64-3440c04f4c3f" data-name="&lt;Контур&gt;" d="M641.93,170.94c.53-.45.11-.76-.18-1s-.72-.76-1.15-.1a1,1,0,0,0,0,1.33A1.06,1.06,0,0,0,641.93,170.94Z" fill="#9a8bf2"/><path id="e2a8d2f9-c0dc-40d5-bbbf-8e4b01eff8e0" data-name="&lt;Контур&gt;" d="M672,18.58c.36-.46-.1-.76-.42-1s-.7-.57-1,0-.38,1,.06,1.31A1,1,0,0,0,672,18.58Z" fill="#9a8bf2"/><path id="68fbcf4f-da8d-44dc-af71-0d1e918f9688" data-name="&lt;Контур&gt;" d="M648,219.58c.45-.46,0-.75-.29-1s-.65-.57-1-.24c-.36.55-.51,1.06-.13,1.44S647.58,220,648,219.58Z" fill="#9a8bf2"/><path id="f721357b-2f66-4518-b696-84013a1afe31" data-name="&lt;Контур&gt;" d="M672.36,288.94c.43-.46,0-.76-.32-1s-.66-.58-1-.23c-.37.58-.51,1.09-.12,1.46S672,289.36,672.36,288.94Z" fill="#9a8bf2"/></g></g></svg>