<svg id="5cb37159-5e1e-4181-bd9a-fdc9193a98ee" data-name="Background" xmlns="http://www.w3.org/2000/svg" xmlns:xlink="http://www.w3.org/1999/xlink" viewBox="0 0 750 500"><defs><clipPath id="53fbbd9f-a7a4-4862-b206-f2c87ec3ee68"><rect id="6d06e7c4-2803-4232-87a5-f8177eef4eef" data-name="&lt;Прямоугольник&gt;" width="750" height="500" fill="none"/></clipPath></defs><title>abstract2</title><g id="3ca86034-1137-4a8c-b7c0-be54908893bc" data-name="&lt;Группа обтравки&gt;"><g clip-path="url(#53fbbd9f-a7a4-4862-b206-f2c87ec3ee68)"><g id="9fd12752-349d-48c0-8c5f-407c483f52b8" data-name="&lt;Группа&gt;"><g id="2b1d60ac-e5dc-407b-a3ce-0ae2cbc0c09d" data-name="&lt;Группа&gt;"><path id="03b61b0b-4240-4b7b-abc1-86cb849cb175" data-name="&lt;Контур&gt;" d="M750.38,40.27a4.08,4.08,0,0,0,5.37-1.86,3.92,3.92,0,1,0-7-3.53A4,4,0,0,0,750.38,40.27Z" fill="#9a8bf2" opacity="0.8"/><path id="56915b92-4a31-4847-ad69-563fabec5777" data-name="&lt;Контур&gt;" d="M745.34,11.39a4.05,4.05,0,0,0,1.36,5.56,4,4,0,0,0,5.28-1.8,3.45,3.45,0,0,0-1.63-5C748.18,9.16,746.27,9.57,745.34,11.39Z" fill="#9a8bf2" opacity="0.8"/><path id="d7543b94-4d08-44b0-9a52-bf4b0c7563d9" data-name="&lt;Контур&gt;" d="M742.72,71.43c-1.17,2.28-.73,3.93,1.34,5s3.73.55,4.79-1.51c1.18-2.29.69-4.06-1.39-5.1A3.28,3.28,0,0,0,742.72,71.43Z" fill="#9a8bf2" opacity="0.8"/><path id="6aa837cf-8e21-41f7-84f8-503fb84d681d" data-name="&lt;Контур&gt;" d="M747.33,99.6a3.64,3.64,0,1,0-1.49-5A3.57,3.57,0,0,0,747.33,99.6Z" fill="#9a8bf2" opacity="0.8"/><path id="fdabe438-6cd8-42a8-83c8-ce9b9d5ee3de" data-name="&lt;Контур&gt;" d="M749.44,118.13a3.59,3.59,0,1,0,4.89-1.72A3.51,3.51,0,0,0,749.44,118.13Z" fill="#9a8bf2" opacity="0.8"/><path id="d92415f8-a66c-47e4-b673-83237c2322df" data-name="&lt;Контур&gt;" d="M740.47,53.31a3.59,3.59,0,1,0-1.67-4.76A3.5,3.5,0,0,0,740.47,53.31Z" fill="#9a8bf2" opacity="0.8"/><path id="67e5a17e-3e1b-4e22-b3e3-4b70dea808f9" data-name="&lt;Контур&gt;" d="M738.75,4.94a3.09,3.09,0,0,0-1.6-4.4c-2.14-1.08-3.43-.59-4.61,1.33-1,1.64.2,4.1,1.47,4.79A3.79,3.79,0,0,0,738.75,4.94Z" fill="#9a8bf2" opacity="0.8"/><path id="03107032-6d4f-4627-9f7a-24f5964d860f" data-name="&lt;Контур&gt;" d="M735.59,25.39a3.52,3.52,0,1,0,4.84-1.46A3.54,3.54,0,0,0,735.59,25.39Z" fill="#9a8bf2" opacity="0.8"/><path id="3d8074d0-009c-47c4-8461-e0e462835de0" data-name="&lt;Контур&gt;" d="M735.22,65.07a3.33,3.33,0,1,0-4.5,1.42A3.35,3.35,0,0,0,735.22,65.07Z" fill="#9a8bf2" opacity="0.8"/><path id="fd35530c-3653-4f4b-a91d-2cb36bd5636d" data-name="&lt;Контур&gt;" d="M732.68,84.81a3.4,3.4,0,1,0,6,3.08,3.31,3.31,0,0,0-1.55-4.29A3.27,3.27,0,0,0,732.68,84.81Z" fill="#9a8bf2" opacity="0.8"/><path id="98d7e620-7db0-4069-acac-b8cff8d94dba" data-name="&lt;Контур&gt;" d="M737.74,112.8a3.33,3.33,0,1,0-1.42-4.52A3.35,3.35,0,0,0,737.74,112.8Z" fill="#9a8bf2" opacity="0.8"/><path id="85e03b22-daa5-4679-a330-74983c36c951" data-name="&lt;Контур&gt;" d="M731.91,41.52c1-1.91.54-3.62-1.17-4.52s-3.42-.29-4.37,1.59a3.13,3.13,0,1,0,5.54,2.92Z" fill="#9a8bf2" opacity="0.8"/><path id="7a4e1d85-9d94-46af-a5d5-ce6571a3dbc3" data-name="&lt;Контур&gt;" d="M739.86,131.35c-.95,1.86-.46,3.46,1.33,4.35a2.91,2.91,0,0,0,4.19-1.38c1-1.92.57-3.62-1.13-4.53A3,3,0,0,0,739.86,131.35Z" fill="#9a8bf2" opacity="0.8"/><path id="a537eb4a-aaf4-48de-9619-518586bf95c1" data-name="&lt;Контур&gt;" d="M728.27,18.23a3.33,3.33,0,0,0-1.22-4.46,3.41,3.41,0,0,0-4.25,1.4,3.14,3.14,0,1,0,5.47,3.06Z" fill="#9a8bf2" opacity="0.8"/><path id="c49d71fe-f5f3-4c09-ac9d-992eff1e4ff6" data-name="&lt;Контур&gt;" d="M728.7,101a3,3,0,1,0-4,1.4A3.15,3.15,0,0,0,728.7,101Z" fill="#9a8bf2" opacity="0.8"/><path id="6b12b754-f40c-427d-aa03-18979c0d3952" data-name="&lt;Контур&gt;" d="M749,157.57a3.12,3.12,0,1,0-4.17,1.36A3.14,3.14,0,0,0,749,157.57Z" fill="#9a8bf2" opacity="0.8"/><path id="18470449-b0b5-4824-88e1-6593c679fde0" data-name="&lt;Контур&gt;" d="M725.47,77.88a2.86,2.86,0,0,0-1.37-4c-1.73-.88-3.26-.49-4,1a3.34,3.34,0,0,0,1.25,4.49A3.41,3.41,0,0,0,725.47,77.88Z" fill="#9a8bf2" opacity="0.8"/><path id="9cd97c87-b126-4007-9fc7-b8d4f4eaecf6" data-name="&lt;Контур&gt;" d="M732.23,124.46c.59-1.49.71-2.87-1.45-3.89a2.71,2.71,0,0,0-3.77.87,3.32,3.32,0,0,0,1.13,4.54A3.13,3.13,0,0,0,732.23,124.46Z" fill="#9a8bf2" opacity="0.8"/><path id="b02c3f05-6033-4b14-a120-afcedc655bd0" data-name="&lt;Контур&gt;" d="M721.75,54.55c.79-2,.2-3.1-1.48-3.88a2.7,2.7,0,0,0-3.75.9,3.3,3.3,0,0,0,1.16,4.53A3.16,3.16,0,0,0,721.75,54.55Z" fill="#9a8bf2" opacity="0.8"/><path id="9ba15432-053c-4ac9-896a-04effd9da9ad" data-name="&lt;Контур&gt;" d="M747.25,177.74c-1,1.85-.66,3,1,3.86s2.9.54,3.79-1.22.63-3.13-1.07-4S748.15,176,747.25,177.74Z" fill="#9a8bf2" opacity="0.8"/><path id="065f6954-4b71-4237-8e20-115276be4894" data-name="&lt;Контур&gt;" d="M718.13,31.53a2.76,2.76,0,0,0-1.11-4,2.88,2.88,0,0,0-3.65,1.3c-.91,1.71-.58,3.07.95,3.91A2.55,2.55,0,0,0,718.13,31.53Z" fill="#9a8bf2" opacity="0.8"/><path id="049df846-a02b-4a87-8a85-da399784570b" data-name="&lt;Контур&gt;" d="M735.36,147.36a2.83,2.83,0,0,0-1.2-3.83,2.86,2.86,0,0,0-3.74,1.47c-.83,1.7-.41,3,1.21,3.82S734.52,149.08,735.36,147.36Z" fill="#9a8bf2" opacity="0.8"/><path id="bced0275-cc5c-448c-af8f-423374f814fe" data-name="&lt;Контур&gt;" d="M738.67,170.34c.68-1.44.21-2.57-1.37-3.36s-2.77-.49-3.56,1.14a2.71,2.71,0,1,0,4.93,2.22Z" fill="#9a8bf2" opacity="0.8"/><path id="eeaa81a8-718a-4880-989c-0f66018245cd" data-name="&lt;Контур&gt;" d="M715.07,90.86c.69-1.44.23-2.58-1.35-3.36s-2.78-.51-3.57,1.12a2.71,2.71,0,1,0,4.92,2.25Z" fill="#9a8bf2" opacity="0.8"/><path id="ec7a2e96-11e2-4869-816e-7e45e015656b" data-name="&lt;Контур&gt;" d="M711.57,68.09a2.67,2.67,0,1,0-3.52,1.18A2.78,2.78,0,0,0,711.57,68.09Z" fill="#9a8bf2" opacity="0.8"/><path id="04267bbd-5006-42a6-826c-3164d4c41f8a" data-name="&lt;Контур&gt;" d="M718.67,114.1c.66-1.53.09-2.6-1.3-3.31a2.43,2.43,0,0,0-3.52,1.13,2.65,2.65,0,1,0,4.82,2.19Z" fill="#9a8bf2" opacity="0.8"/><path id="51591f2f-a259-4bed-bbbc-0c7c5f5f3f4c" data-name="&lt;Контур&gt;" d="M714.4,8.33a2.71,2.71,0,1,0-3.65,1.19A2.78,2.78,0,0,0,714.4,8.33Z" fill="#9a8bf2" opacity="0.8"/><path id="420eaa10-a750-455b-b20c-5d1cbe94b7f1" data-name="&lt;Контур&gt;" d="M707.86,44.61c.54-1.32.57-2.61-1.19-3.29-1.53-.78-2.66-.45-3.4,1.06a2.58,2.58,0,0,0,1.19,3.54A2.48,2.48,0,0,0,707.86,44.61Z" fill="#9a8bf2" opacity="0.8"/><path id="1f3bf226-ee7c-4be0-a7db-a744c17ec467" data-name="&lt;Контур&gt;" d="M721.83,137.26c.57-1.3.63-2.59-1.28-3.4a2.16,2.16,0,0,0-3.25,1.08,2.58,2.58,0,0,0,1.11,3.56A2.48,2.48,0,0,0,721.83,137.26Z" fill="#9a8bf2" opacity="0.8"/><path id="e20e1d8e-1c6a-41ec-88f3-24c73df86f18" data-name="&lt;Контур&gt;" d="M741.95,193.61c.69-1.38.36-2.92-1-3.37s-2.55-.46-3.17,1.12-.41,2.76.95,3.39A2.16,2.16,0,0,0,741.95,193.61Z" fill="#9a8bf2" opacity="0.8"/><path id="4dc4a2f0-122c-4009-8c73-683b89f95d9f" data-name="&lt;Контур&gt;" d="M725.16,160.8a2.21,2.21,0,0,0-.92-3.36,2.12,2.12,0,0,0-3.17,1c-.78,1.42-.46,2.81.86,3.44A2.26,2.26,0,0,0,725.16,160.8Z" fill="#9a8bf2" opacity="0.8"/><path id="3bda01be-c679-4ba4-bc97-5bf6b27a7dc8" data-name="&lt;Контур&gt;" d="M704.34,21.61a2.38,2.38,0,0,0-4.23-2.2c-.74,1.36-.29,2.47,1.07,3.36A2.31,2.31,0,0,0,704.34,21.61Z" fill="#9a8bf2" opacity="0.8"/><path id="2e6f1f22-0ff6-4f14-a0c7-38f11461e564" data-name="&lt;Контур&gt;" d="M701.49,81.28a2.28,2.28,0,0,0-4.09-2c-.67,1.27-.17,2.35,1,3.14A2.29,2.29,0,0,0,701.49,81.28Z" fill="#9a8bf2" opacity="0.8"/><path id="e1b94848-db99-4fe4-963b-446b4cb1f54c" data-name="&lt;Контур&gt;" d="M704.81,104.39a2.08,2.08,0,0,0-.93-3c-1.26-.68-2.41-.51-3.1.82a2.19,2.19,0,0,0,.92,3.16A2.26,2.26,0,0,0,704.81,104.39Z" fill="#9a8bf2" opacity="0.8"/><path id="56a8b317-d3c6-42b3-816f-cc4c17acaad3" data-name="&lt;Контур&gt;" d="M728.47,183.69c.62-1.36,0-2.36-1.27-2.94s-2.23-.13-3,1.16a2.27,2.27,0,0,0,1.17,3A2.19,2.19,0,0,0,728.47,183.69Z" fill="#9a8bf2" opacity="0.8"/><path id="4baa2f62-a126-40a0-bbe7-cf46e0a30b6d" data-name="&lt;Контур&gt;" d="M708.16,127.4a2.12,2.12,0,0,0-1.2-3.06,2,2,0,0,0-2.89,1,2.18,2.18,0,0,0,1,3.13A2.27,2.27,0,0,0,708.16,127.4Z" fill="#9a8bf2" opacity="0.8"/><path id="f49a0ce1-5727-40e9-8f3c-2196e64456d1" data-name="&lt;Контур&gt;" d="M745.19,216.65a2,2,0,0,0-.92-2.91,2.12,2.12,0,0,0-3.17.87,2.27,2.27,0,0,0,1,3.1A2.18,2.18,0,0,0,745.19,216.65Z" fill="#9a8bf2" opacity="0.8"/><path id="651e9e61-fd84-4d2b-89d4-60e6f0d7c40d" data-name="&lt;Контур&gt;" d="M697.87,57.9c.62-1.36,0-2.36-1.27-2.94a2.07,2.07,0,0,0-2.92,1.1,2.26,2.26,0,0,0,1.13,3.07A2.19,2.19,0,0,0,697.87,57.9Z" fill="#9a8bf2" opacity="0.8"/><path id="5f924933-2d58-4eb0-9d81-8f3905e4312c" data-name="&lt;Контур&gt;" d="M694.6,34.48a1.81,1.81,0,0,0-1-2.8,1.74,1.74,0,0,0-2.73.46,2.29,2.29,0,0,0,.64,3.38A2.12,2.12,0,0,0,694.6,34.48Z" fill="#9a8bf2" opacity="0.8"/><path id="312ba0da-96e9-4224-abe0-f6104647ffe4" data-name="&lt;Контур&gt;" d="M711.5,150.58c.76-1.31.49-2.38-.76-3-1-.46-2.13-.48-2.58.85-.71,1.23-.73,2.23.64,2.94A1.77,1.77,0,0,0,711.5,150.58Z" fill="#9a8bf2" opacity="0.8"/><path id="5cf50a4a-39cb-4eb1-a184-2520ee098549" data-name="&lt;Контур&gt;" d="M731.71,206.28c.51-.83,0-1.88-1.08-2.43a1.86,1.86,0,0,0-2.64,1c-.59,1.19-.45,2.14.78,2.78S730.87,207.88,731.71,206.28Z" fill="#9a8bf2" opacity="0.8"/><path id="255f6bc1-1594-4881-9512-d0e80fbf3bd3" data-name="&lt;Контур&gt;" d="M690.77,11.13A1.85,1.85,0,0,0,690,8.4a1.92,1.92,0,0,0-2.79,1.05,2,2,0,1,0,3.57,1.68Z" fill="#9a8bf2" opacity="0.8"/><path id="a6dcadb8-28c3-4434-a4ff-6a552b2b4759" data-name="&lt;Контур&gt;" d="M714.78,173.64A1.79,1.79,0,0,0,714,171a1.94,1.94,0,1,0-1.81,3.44A1.79,1.79,0,0,0,714.78,173.64Z" fill="#9a8bf2" opacity="0.8"/><path id="760c0d76-c746-4636-a98c-164328fb4a57" data-name="&lt;Контур&gt;" d="M748.55,239.76c.66-1.12.14-1.9-.78-2.52-1.06-.46-2-.57-2.61.63a1.9,1.9,0,0,0,.78,2.79A1.88,1.88,0,0,0,748.55,239.76Z" fill="#9a8bf2" opacity="0.8"/><path id="d8d07a92-9075-42a6-ae42-72fe2d55d5b0" data-name="&lt;Контур&gt;" d="M691.16,94.16a1.64,1.64,0,0,0-1-2.3c-1.06-.54-1.94-.37-2.68.95a1.93,1.93,0,0,0,1,2.52A1.9,1.9,0,0,0,691.16,94.16Z" fill="#9a8bf2" opacity="0.8"/><path id="dcf77215-e683-4706-b4c9-aa6245d26867" data-name="&lt;Контур&gt;" d="M688,70.76a1.64,1.64,0,0,0-1-2.3,1.75,1.75,0,0,0-2.62.82,2,2,0,1,0,3.6,1.49Z" fill="#9a8bf2" opacity="0.8"/><path id="a6e583f1-e8b8-417b-a5bd-70fcb5185bb5" data-name="&lt;Контур&gt;" d="M684.24,47.55c.53-1.12,0-1.83-1.16-2.37a1.47,1.47,0,0,0-2.22.82,1.81,1.81,0,0,0,.84,2.61A1.83,1.83,0,0,0,684.24,47.55Z" fill="#9a8bf2" opacity="0.8"/><path id="0086a139-21f9-4416-82e0-9716f4884b11" data-name="&lt;Контур&gt;" d="M698.06,140.49c.53-1.13,0-1.82-1.2-2.38a1.47,1.47,0,0,0-2.19.85,1.8,1.8,0,0,0,.85,2.61A1.83,1.83,0,0,0,698.06,140.49Z" fill="#9a8bf2" opacity="0.8"/><path id="bd8f7369-227d-41c2-b034-6b50e50a2812" data-name="&lt;Контур&gt;" d="M694.66,117.63a1.88,1.88,0,1,0-3.44-1.51,1.88,1.88,0,1,0,3.44,1.51Z" fill="#9a8bf2" opacity="0.8"/><path id="daaa4684-dbef-4a65-929a-64b0ddf5920b" data-name="&lt;Контур&gt;" d="M718.17,196.59a1.45,1.45,0,0,0-.54-2.34c-1-.55-1.75-.12-2.27.92s-.45,1.67.64,2.21S717.73,197.73,718.17,196.59Z" fill="#9a8bf2" opacity="0.8"/><path id="9f6e1bcd-8bcf-48ab-b010-d10c232d87bf" data-name="&lt;Контур&gt;" d="M734.83,229.73c.54-1.06.36-1.86-.71-2.34s-1.73.1-2.22,1.09-.24,1.72.79,2.12C733.81,231.25,734.35,230.68,734.83,229.73Z" fill="#9a8bf2" opacity="0.8"/><path id="5caafcca-7e26-4630-9ebf-b0b9a689901e" data-name="&lt;Контур&gt;" d="M701.12,163.44a1.59,1.59,0,1,0-2.21.89A1.5,1.5,0,0,0,701.12,163.44Z" fill="#9a8bf2" opacity="0.8"/><path id="3ddc8356-ca13-4b73-a51e-33892f2a5291" data-name="&lt;Контур&gt;" d="M680.53,24.6a1.58,1.58,0,0,0-.37-2.37,1.47,1.47,0,0,0-2.2.5c-.59,1.08-.53,1.93.42,2.49A1.46,1.46,0,0,0,680.53,24.6Z" fill="#9a8bf2" opacity="0.8"/><path id="b5d44efb-cc62-4dbd-9281-d6dd5420cc18" data-name="&lt;Контур&gt;" d="M681.19,107.15c.52-1,0-1.42-.78-1.82s-1.58-.58-2,.53A1.53,1.53,0,0,0,679,108C679.91,108.53,680.67,108.12,681.19,107.15Z" fill="#9a8bf2" opacity="0.8"/><path id="242d3b3f-bd4b-4e1b-a239-4c6328d9ab8a" data-name="&lt;Контур&gt;" d="M677.33,1.26c.52-1-.07-1.41-.79-1.82s-1.58-.57-2,.54a1.53,1.53,0,0,0,.62,2.17C676.06,2.64,676.82,2.23,677.33,1.26Z" fill="#9a8bf2" opacity="0.8"/><path id="b05c1cbb-29e5-4d31-8efa-f78429925202" data-name="&lt;Контур&gt;" d="M704.94,186.38c.49-.75-.26-1.21-1.05-1.61s-1.46-.46-1.9.53-.29,1.85.69,2.29S704.31,187.58,704.94,186.38Z" fill="#9a8bf2" opacity="0.8"/><path id="0cdd9a62-c505-469b-b7a0-fe73bc8c4757" data-name="&lt;Контур&gt;" d="M677.45,84c.61-1,.09-1.55-1.18-2.19-.45-.26-1.17-.26-1.61.81A1.56,1.56,0,1,0,677.45,84Z" fill="#9a8bf2" opacity="0.8"/><path id="75fb5624-3721-487a-87e0-42edf17f6e0b" data-name="&lt;Контур&gt;" d="M673.88,61.18a1.38,1.38,0,0,0-.47-2,1.25,1.25,0,0,0-1.94.49,1.58,1.58,0,0,0,.65,2.08A1.44,1.44,0,0,0,673.88,61.18Z" fill="#9a8bf2" opacity="0.8"/><path id="6ffd69cd-6018-44dc-968f-e78268487560" data-name="&lt;Контур&gt;" d="M684.19,130.55a1.38,1.38,0,0,0-.45-2,1.25,1.25,0,0,0-1.95.48,1.58,1.58,0,0,0,.65,2.09A1.44,1.44,0,0,0,684.19,130.55Z" fill="#9a8bf2" opacity="0.8"/><path id="37220733-87b8-46e7-a5fd-827feacd1b29" data-name="&lt;Контур&gt;" d="M687.67,153.65c.37-.77.31-1.34-.53-1.73s-1.28.08-1.65.78-.29,1.35.75,1.83C686.89,154.82,687.32,154.38,687.67,153.65Z" fill="#9a8bf2" opacity="0.8"/><path id="e0fcc736-ef16-48b6-8fbb-464f0f666114" data-name="&lt;Контур&gt;" d="M690.9,176.85a.94.94,0,0,0-.46-1.43c-.64-.33-1.22-.42-1.61.38a1.16,1.16,0,1,0,2.07,1Z" fill="#9a8bf2" opacity="0.8"/><path id="98e527da-fec9-42dd-8a50-bcbc86f5ff79" data-name="&lt;Контур&gt;" d="M667.31,97.33c.38-.77,0-1.19-.66-1.5a1,1,0,0,0-1.42.49,1.17,1.17,0,1,0,2.08,1Z" fill="#9a8bf2" opacity="0.8"/><path id="43468cee-6dac-4823-bb21-9377c2d10769" data-name="&lt;Контур&gt;" d="M666.77,14.52c.38-.77,0-1.19-.66-1.5a1,1,0,0,0-1.42.49,1.17,1.17,0,1,0,2.08,1Z" fill="#9a8bf2" opacity="0.8"/><path id="9055644a-3ef6-4e5e-9b85-e6233eb6a8f1" data-name="&lt;Контур&gt;" d="M670.52,37.89a1.17,1.17,0,0,0-.48-1.66,1.19,1.19,0,0,0-1.8.46,1.29,1.29,0,1,0,2.29,1.2Z" fill="#9a8bf2" opacity="0.8"/><path id="67b70e97-b008-45e2-83ec-4b5492324419" data-name="&lt;Контур&gt;" d="M670.78,120c.25-.42-.3-.66-.73-.88s-1-.58-1.3.08-.33,1.34.4,1.68S670.25,120.76,670.78,120Z" fill="#9a8bf2" opacity="0.8"/><path id="ea2a2b05-9896-484c-b232-515d6ff715dd" data-name="&lt;Контур&gt;" d="M664,74c.3-.64-.31-.88-.76-1.08s-1-.49-1.23.27c-.19.62-.19,1.25.42,1.54A1.16,1.16,0,0,0,664,74Z" fill="#9a8bf2" opacity="0.8"/><path id="5c543642-d4b5-4fa7-8063-c65095827f8e" data-name="&lt;Контур&gt;" d="M660.24,50.95c.55-.67,0-.93-.45-1.17s-1.05-.73-1.41.15a1.26,1.26,0,0,0,.37,1.59A1.29,1.29,0,0,0,660.24,50.95Z" fill="#9a8bf2" opacity="0.8"/><path id="1a34fc54-7f11-4697-944c-fc30c0cb238d" data-name="&lt;Контур&gt;" d="M674.25,143.52c.51-.67-.07-.93-.48-1.16s-1.06-.71-1.4.18a1.25,1.25,0,0,0,.39,1.57A1.29,1.29,0,0,0,674.25,143.52Z" fill="#9a8bf2" opacity="0.8"/></g></g><g id="48eb81a9-0107-4ccd-b3b5-b251ef8dc134" data-name="&lt;Группа&gt;" opacity="0.8"><g id="3a79e49b-8656-4be6-9c50-c169079e2408" data-name="&lt;Группа&gt;"><path id="ed71cc27-be87-4153-b528-6dc376f77236" data-name="&lt;Контур&gt;" d="M-11.55,452.95c.83-3.59,3.54-5.33,6.93-4.65a6.12,6.12,0,0,1,4.85,7.24,6.11,6.11,0,0,1-7.31,4.53C-10.5,459.13-12.24,457-11.55,452.95Z" fill="#9a8bf2"/><path id="6dd62ea8-d80c-4e57-b5a9-8c76f8f2e1c9" data-name="&lt;Контур&gt;" d="M5,501.44c-3.18-.76-5.33-3.36-4.47-7.07a5.71,5.71,0,0,1,6.23-4.82c4.66,1,6,3.95,5.46,7.33A6,6,0,0,1,5,501.44Z" fill="#9a8bf2"/><path id="bc861f53-2fee-4801-9469-b21b47735e64" data-name="&lt;Контур&gt;" d="M1.11,481a5.63,5.63,0,0,1,7-4.37c3.54.76,5.26,3.48,4.48,7.08A5.61,5.61,0,0,1,5.94,488,5.76,5.76,0,0,1,1.11,481Z" fill="#9a8bf2"/><path id="7c1f6a2a-d005-4813-99b8-33d09217dc23" data-name="&lt;Контур&gt;" d="M6.37,474.25c-3.59-.7-5.75-3.75-5-7a5.76,5.76,0,0,1,6.82-4.41,5.79,5.79,0,1,1-1.84,11.44Z" fill="#9a8bf2"/><path id="06ea6e65-4c5b-4232-abf6-7e71d11c2f91" data-name="&lt;Контур&gt;" d="M-6.27,446.55c-3.86-.74-5.08-3.71-4.48-6.9a5.68,5.68,0,0,1,6.89-4.47,5.73,5.73,0,0,1,4.44,7A5.71,5.71,0,0,1-6.27,446.55Z" fill="#9a8bf2"/><path id="32a1fe67-9f51-4729-9344-1aea248edad2" data-name="&lt;Контур&gt;" d="M2.38,453.73c.32-2.88,3.78-5.25,6.76-4.51a5.83,5.83,0,0,1,4.44,6.84c-.71,3.21-3.37,5-6.84,4.4A5.52,5.52,0,0,1,2.38,453.73Z" fill="#9a8bf2"/><path id="cddb450b-5503-46ba-8029-ca1f9e8c8eac" data-name="&lt;Контур&gt;" d="M-10.12,425.06c.52-2.12,3.66-4.42,6.26-3.54a5.71,5.71,0,0,1,4.65,6.85,5.61,5.61,0,0,1-6.87,4.3C-9.53,432-11.09,429-10.12,425.06Z" fill="#9a8bf2"/><path id="bd31b45c-7f71-477d-9992-4a0491827212" data-name="&lt;Контур&gt;" d="M18.67,501.79a5.69,5.69,0,0,1,2.6-11.07,5.69,5.69,0,1,1-2.6,11.07Z" fill="#9a8bf2"/><path id="9077fc51-9ced-4c4b-8d03-6213cd347beb" data-name="&lt;Контур&gt;" d="M14.83,481.32c.69-3,3.23-5.21,6.75-4.1a5.12,5.12,0,0,1,4.17,6.52c-.7,3.23-3.24,4.72-6.53,4.19A5.2,5.2,0,0,1,14.83,481.32Z" fill="#9a8bf2"/><path id="19db3d59-a896-463b-b5d2-9a976c6982a4" data-name="&lt;Контур&gt;" d="M3,440.06a5.24,5.24,0,0,1,6.47-4.24c3.41.72,5.21,3.26,4.55,6.42a5.35,5.35,0,0,1-6.42,4.39A5.42,5.42,0,0,1,3,440.06Z" fill="#9a8bf2"/><path id="78314cae-8152-470a-ab02-5d34aa696c64" data-name="&lt;Контур&gt;" d="M20.07,474.28c-4-.71-5.06-3.8-4.58-6.57.4-2.38,3.07-5.33,6.61-4.19A5.32,5.32,0,0,1,26.43,470,5.38,5.38,0,0,1,20.07,474.28Z" fill="#9a8bf2"/><path id="85b823c9-0039-49bb-837e-742167d9a29b" data-name="&lt;Контур&gt;" d="M3.69,426.38c.1-2.86,3.85-5,6.48-4.27a5.93,5.93,0,0,1,4.15,6.59c-.59,2.89-4.14,4.67-6.1,4.2C4.69,432.07,3,429.69,3.69,426.38Z" fill="#9a8bf2"/><path id="656d5374-f141-4677-b42c-04b3f593216c" data-name="&lt;Контур&gt;" d="M16.36,454.32a5.3,5.3,0,0,1,6.52-4.14c2.42.56,4.78,3.79,4.09,6.6a5.65,5.65,0,0,1-6.47,4.09A5.13,5.13,0,0,1,16.36,454.32Z" fill="#9a8bf2"/><path id="9e257eb8-f25b-4fb6-be55-af899bbf2193" data-name="&lt;Контур&gt;" d="M-9.4,412.3a5.3,5.3,0,0,1,6.52-4.14,5.47,5.47,0,0,1,4.15,6.5,5.35,5.35,0,0,1-6.54,4.16A5.26,5.26,0,0,1-9.4,412.3Z" fill="#9a8bf2"/><path id="d7bbc160-15f8-4cab-80f1-229244fe6616" data-name="&lt;Контур&gt;" d="M28.46,495.91A5.37,5.37,0,1,1,39,498a5.37,5.37,0,0,1-10.53-2.1Z" fill="#9a8bf2"/><path id="d69c146f-c963-4583-b6b9-283f0ddec771" data-name="&lt;Контур&gt;" d="M28.85,482.22a5.3,5.3,0,1,1,10.38,2.14,5.28,5.28,0,0,1-6.42,4A5.36,5.36,0,0,1,28.85,482.22Z" fill="#9a8bf2"/><path id="1a4a9073-f472-44cd-8058-0b775703337f" data-name="&lt;Контур&gt;" d="M16.69,440.69a5.08,5.08,0,0,1,6.38-3.95c3,.87,4.63,3.09,4,6.14a4.82,4.82,0,0,1-6.11,4C17.38,446.5,16.19,443.14,16.69,440.69Z" fill="#9a8bf2"/><path id="bb95cd25-47d9-4be8-8dbd-13a6030ecb92" data-name="&lt;Контур&gt;" d="M-8.74,398.74c.36-2.15,3.63-5.17,6-4,3.28.68,5,3,4.41,6a5.09,5.09,0,0,1-6,4.25A5.36,5.36,0,0,1-8.74,398.74Z" fill="#9a8bf2"/><path id="04456266-70c1-4ecf-b9b2-8239573bddce" data-name="&lt;Контур&gt;" d="M14.67,415.25a5.15,5.15,0,0,1-6.25,3.92A5.06,5.06,0,0,1,4.28,413c.6-2.4,2.94-5,6.56-3.92A5.26,5.26,0,0,1,14.67,415.25Z" fill="#9a8bf2"/><path id="3bf12d29-772e-4f07-8e0c-b3493ce13ecb" data-name="&lt;Контур&gt;" d="M17.55,427.4c.49-3.15,3.29-5.06,5.86-4.33a5.14,5.14,0,1,1-1.61,10.16A4.85,4.85,0,0,1,17.55,427.4Z" fill="#9a8bf2"/><path id="06765cc0-d2ac-44ed-832c-23961a73a095" data-name="&lt;Контур&gt;" d="M39.82,470.57a5.21,5.21,0,0,1-6.07,4.07,5.19,5.19,0,1,1,2-10.17A5.19,5.19,0,0,1,39.82,470.57Z" fill="#9a8bf2"/><path id="39a26e93-cf45-4bce-b172-1ecba6e7cb2c" data-name="&lt;Контур&gt;" d="M30.06,454.73a5.13,5.13,0,1,1,4,6.12A5.16,5.16,0,0,1,30.06,454.73Z" fill="#9a8bf2"/><path id="47100acf-5268-49dd-8569-bd87903e8be5" data-name="&lt;Контур&gt;" d="M14.85,401.55c-.69,2.93-3.45,4.38-7,3.66-1.92-.39-3.42-3.35-2.88-5.69.62-2.69,3.05-4.75,5.06-4.28C13.64,396.07,15.55,398.58,14.85,401.55Z" fill="#9a8bf2"/><path id="b678ef02-e0c7-4489-9f88-23a5af80d67d" data-name="&lt;Контур&gt;" d="M42.19,496.21c.57-2.6,3.1-4.46,5.28-4.12a5.09,5.09,0,1,1-1.6,10A4.9,4.9,0,0,1,42.19,496.21Z" fill="#9a8bf2"/><path id="a668c247-2880-4aeb-a42d-03d021a9ac49" data-name="&lt;Контур&gt;" d="M30.75,441.49a4.89,4.89,0,0,1,5.87-4.27,5,5,0,1,1-2,9.82A4.8,4.8,0,0,1,30.75,441.49Z" fill="#9a8bf2"/><path id="1b003d4e-7128-4ad9-bce6-cb617cee35cb" data-name="&lt;Контур&gt;" d="M1.79,387.21a4.72,4.72,0,0,1-6,3.75A4.7,4.7,0,0,1-8,385.11a5,5,0,0,1,5.91-3.94C.78,382,2.5,384.17,1.79,387.21Z" fill="#9a8bf2"/><path id="48d7414c-be36-4022-8904-0e2851c2db68" data-name="&lt;Контур&gt;" d="M42.76,482.54a4.64,4.64,0,0,1,5.77-3.76c3.12.67,4.62,2.81,4,5.7s-2.83,4.41-5.7,3.79C43.75,487.61,42.17,485.38,42.76,482.54Z" fill="#9a8bf2"/><path id="747f6558-73f6-42c0-84d1-5abf24c9bd26" data-name="&lt;Контур&gt;" d="M28,415.49a4.75,4.75,0,0,1-5.61,3.79,4.84,4.84,0,0,1-4.14-5.87,4.63,4.63,0,0,1,5.86-3.66C27.1,410.38,28.65,412.66,28,415.49Z" fill="#9a8bf2"/><path id="6b1e8d72-e495-4d2e-8a95-f85dd5852966" data-name="&lt;Контур&gt;" d="M53.1,471.23a4.65,4.65,0,0,1-5.7,3.69c-3.63-.68-4.38-3.1-3.93-5.71a4.48,4.48,0,0,1,5.83-3.76A4.71,4.71,0,0,1,53.1,471.23Z" fill="#9a8bf2"/><path id="7c94035c-dfb5-43cb-bf0a-e24e8cb83849" data-name="&lt;Контур&gt;" d="M49.77,451.72a5.21,5.21,0,0,1,3.68,5.81,5,5,0,0,1-5.84,3.65A4.52,4.52,0,0,1,44,455.45,4.67,4.67,0,0,1,49.77,451.72Z" fill="#9a8bf2"/><path id="97018db8-1b39-4378-bcd6-167ac1b67eda" data-name="&lt;Контур&gt;" d="M31.59,427.83a4.76,4.76,0,0,1,5.69-3.75,4.83,4.83,0,1,1-2,9.47A4.76,4.76,0,0,1,31.59,427.83Z" fill="#9a8bf2"/><path id="b8933469-d06b-404c-9171-b6edde972f23" data-name="&lt;Контур&gt;" d="M15.26,387.82a4.82,4.82,0,0,1-5.79,3.6,4.47,4.47,0,0,1-3.58-5.59A4.62,4.62,0,0,1,11.63,382C14,382.73,15.93,385.44,15.26,387.82Z" fill="#9a8bf2"/><path id="61253440-3ecc-4823-b283-984cd7ad77e1" data-name="&lt;Контур&gt;" d="M2.22,373.71a5,5,0,0,1-5.64,3.74,4.51,4.51,0,0,1-3.8-5.36c.59-3,2.71-4.56,5.41-4.06C.47,368.1,2.71,371,2.22,373.71Z" fill="#9a8bf2"/><path id="4821190d-4dbf-46c5-b372-9fdb7af599f3" data-name="&lt;Контур&gt;" d="M28.31,401.92a4.77,4.77,0,1,1-3.67-5.82A4.86,4.86,0,0,1,28.31,401.92Z" fill="#9a8bf2"/><path id="acbade57-69fa-4dfd-9b09-a88f0a3ab641" data-name="&lt;Контур&gt;" d="M54,443.76a4.84,4.84,0,0,1-5.69,3.65,4.46,4.46,0,0,1-3.55-5.53c.66-2.88,2.74-4.3,5.65-3.67A4.85,4.85,0,0,1,54,443.76Z" fill="#9a8bf2"/><path id="cd34fbe4-be74-407b-9f1c-17db02a958f7" data-name="&lt;Контур&gt;" d="M59.74,502.47a4.47,4.47,0,0,1-3.56-5.52c.67-2.91,2.75-4.3,5.65-3.68a4.72,4.72,0,1,1-2.08,9.2Z" fill="#9a8bf2"/><path id="d879f830-2aee-4255-be08-fe8814ba87ef" data-name="&lt;Контур&gt;" d="M56.73,483.29c.57-2.77,2.69-4.11,5.53-3.51s4.18,2.63,3.63,5.24c-.59,2.78-2.63,4.17-5.31,3.6C57.61,488,56.17,486,56.73,483.29Z" fill="#9a8bf2"/><path id="63220c8f-0d21-4817-b6f6-250473ad6c89" data-name="&lt;Контур&gt;" d="M41.23,416.11a4.85,4.85,0,0,1-5.68,3.53,4.69,4.69,0,0,1,1.94-9.18A4.86,4.86,0,0,1,41.23,416.11Z" fill="#9a8bf2"/><path id="cb57bee2-341a-4e32-8840-df6ca2b85331" data-name="&lt;Контур&gt;" d="M66.18,471.53a4.31,4.31,0,0,1-5.38,3.35,4.39,4.39,0,0,1-3.65-5.4,4.47,4.47,0,0,1,5.58-3.42A4.42,4.42,0,0,1,66.18,471.53Z" fill="#9a8bf2"/><path id="f9b325d2-feca-493c-a338-36bb9c25f360" data-name="&lt;Контур&gt;" d="M24.88,383a4.51,4.51,0,1,1-1.47,8.89A4.51,4.51,0,1,1,24.88,383Z" fill="#9a8bf2"/><path id="e1636582-fc73-40c7-aa7e-41ed03bbebb6" data-name="&lt;Контур&gt;" d="M15.7,373.85a4.55,4.55,0,0,1-5.23,3.69c-2.67-.49-4.56-3-3.89-5.41.52-1.91,2.52-4.29,5.21-3.51A4.56,4.56,0,0,1,15.7,373.85Z" fill="#9a8bf2"/><path id="504ad27d-9e0b-41d7-be90-f98b4dcdee07" data-name="&lt;Контур&gt;" d="M54.18,430A4.48,4.48,0,0,1,49,433.56a4.55,4.55,0,0,1-3.69-5.31c.41-2.5,3.35-4.25,5.16-3.63A4.5,4.5,0,0,1,54.18,430Z" fill="#9a8bf2"/><path id="f1ed46f2-608b-4478-9cc1-4adbf86d6f07" data-name="&lt;Контур&gt;" d="M66.78,458.12a4.64,4.64,0,0,1-5.35,3.42,4.5,4.5,0,0,1,1.79-8.81A4.63,4.63,0,0,1,66.78,458.12Z" fill="#9a8bf2"/><path id="c3c64791-e22a-4419-84f9-776572e07a38" data-name="&lt;Контур&gt;" d="M41.71,402.45a4.65,4.65,0,0,1-5.38,3.37A4.5,4.5,0,0,1,38.2,397,4.63,4.63,0,0,1,41.71,402.45Z" fill="#9a8bf2"/><path id="ebe8afda-462f-4704-87c4-09b4f25f1702" data-name="&lt;Контур&gt;" d="M-.84,354.7A4.56,4.56,0,0,1,2.6,360a4.63,4.63,0,0,1-5.26,3.51,4.39,4.39,0,0,1-3.55-5.37A4.53,4.53,0,0,1-.84,354.7Z" fill="#9a8bf2"/><path id="05b5e51e-5ab3-4735-89c8-ef4edd627167" data-name="&lt;Контур&gt;" d="M67.38,444.34A4.64,4.64,0,0,1,62,447.74c-2.09-.56-3.93-2.22-3.24-5.11a4.22,4.22,0,0,1,5.17-3.51A4.82,4.82,0,0,1,67.38,444.34Z" fill="#9a8bf2"/><path id="85c78ef9-e0c0-4557-bdbf-900f4157d17f" data-name="&lt;Контур&gt;" d="M74.95,493.77c3.24.75,4.15,3,3.82,5.33a4.34,4.34,0,0,1-5.25,3.35c-2.35-.54-4-2.54-3.27-5.16C70.3,495,73.29,493.39,74.95,493.77Z" fill="#9a8bf2"/><path id="0e7929e7-ee74-4deb-bde2-081f68295584" data-name="&lt;Контур&gt;" d="M54.66,416.65a4.59,4.59,0,0,1-5.3,3.41,4.42,4.42,0,0,1,1.8-8.66A4.58,4.58,0,0,1,54.66,416.65Z" fill="#9a8bf2"/><path id="3c0e8084-0b7a-4ae1-8346-cf9a4c0d446e" data-name="&lt;Контур&gt;" d="M12.27,355.25a4.62,4.62,0,0,1,3.43,5.32,4.06,4.06,0,0,1-5,3.22c-2.64-.56-4.07-2.57-3.56-5A4.69,4.69,0,0,1,12.27,355.25Z" fill="#9a8bf2"/><path id="19d62136-2034-45b8-8d04-f1748b13c66b" data-name="&lt;Контур&gt;" d="M70.7,484a4.13,4.13,0,0,1,5-3.27c2.64.55,4,2.45,3.51,4.88A4,4,0,0,1,74.41,489C71.69,488.44,70.23,486.47,70.7,484Z" fill="#9a8bf2"/><path id="b71f9580-2e31-4584-aed4-92d4ef66275f" data-name="&lt;Контур&gt;" d="M38.77,383.65c2.48.62,3.83,2.51,3.32,4.94a4,4,0,0,1-4.95,3.28c-3.07-.45-3.93-2.72-3.45-5A3.88,3.88,0,0,1,38.77,383.65Z" fill="#9a8bf2"/><path id="c9c1c15e-2775-40ca-9a4a-003d200dbfdc" data-name="&lt;Контур&gt;" d="M28.71,374.5a3.93,3.93,0,0,1-4.87,3.31c-2.69-.56-4.15-2.6-3.62-5.05a4.12,4.12,0,0,1,5.07-3.18C27.91,370.12,29.23,372,28.71,374.5Z" fill="#9a8bf2"/><path id="2af9c3a4-b4de-44dc-aed6-5ee25316903f" data-name="&lt;Контур&gt;" d="M67.49,430.59a4,4,0,0,1-4.94,3.26A4.2,4.2,0,0,1,59,428.76a4.15,4.15,0,0,1,4.89-3.17C66.59,426.14,68,428.12,67.49,430.59Z" fill="#9a8bf2"/><path id="321a51e7-9d97-4917-8173-71a201c7b987" data-name="&lt;Контур&gt;" d="M71,470.26A4.16,4.16,0,0,1,76,467c2.65.55,4.07,2.56,3.54,5a4,4,0,0,1-5,3.2A4.19,4.19,0,0,1,71,470.26Z" fill="#9a8bf2"/><path id="c87735ac-afb2-411a-ba1e-653335762f89" data-name="&lt;Контур&gt;" d="M2.65,346.15a4.15,4.15,0,0,1-4.94,3.32,4.24,4.24,0,0,1-3.57-5,4.29,4.29,0,0,1,5.19-3.2A4.15,4.15,0,0,1,2.65,346.15Z" fill="#9a8bf2"/><path id="e82f9278-4dc7-4d60-9ae7-9ca1d30a51f7" data-name="&lt;Контур&gt;" d="M80.17,458.31c-.51,2.3-2.17,3.7-5,3.21A3.83,3.83,0,0,1,72,456.69a4,4,0,0,1,4.88-3.32A4.06,4.06,0,0,1,80.17,458.31Z" fill="#9a8bf2"/><path id="96065120-688e-431e-8bce-77c440529ad0" data-name="&lt;Контур&gt;" d="M55.08,403A4.19,4.19,0,1,1,52,398,4.16,4.16,0,0,1,55.08,403Z" fill="#9a8bf2"/><path id="e5783ff3-2521-43bb-83f2-f08ca2b9d633" data-name="&lt;Контур&gt;" d="M64.76,412a4.39,4.39,0,0,1,3.3,5,4.35,4.35,0,0,1-4.89,3.07c-2.22-.62-3.7-1.87-3.1-5.1A3.88,3.88,0,0,1,64.76,412Z" fill="#9a8bf2"/><path id="2dfed1ba-32de-433f-9492-2d9eac3c4506" data-name="&lt;Контур&gt;" d="M80.45,444.64a4.33,4.33,0,0,1-4.88,3.1,3.77,3.77,0,0,1-3.15-4.45c.55-2.71,2.28-4,4.65-3.56A4.3,4.3,0,0,1,80.45,444.64Z" fill="#9a8bf2"/><path id="26d58f91-e6f3-44b2-bf7b-130a298e16d9" data-name="&lt;Контур&gt;" d="M42.24,375.27a4.26,4.26,0,0,1-4.91,3,3.74,3.74,0,0,1-3.07-4.78,3.92,3.92,0,0,1,4.8-3.21A4.42,4.42,0,0,1,42.24,375.27Z" fill="#9a8bf2"/><path id="8b7f7cf7-513a-46f3-a07a-702b0de383c6" data-name="&lt;Контур&gt;" d="M29.24,361a4.27,4.27,0,0,1-4.91,3,3.75,3.75,0,0,1-3.06-4.79,3.91,3.91,0,0,1,4.8-3.2A4.42,4.42,0,0,1,29.24,361Z" fill="#9a8bf2"/><path id="da1c5133-0f14-4958-a8c2-7603af305103" data-name="&lt;Контур&gt;" d="M16.13,346.9a4.15,4.15,0,0,1-5,3,3.69,3.69,0,0,1-2.89-4.69c.51-2.25,2.39-3.75,4.23-3.36C15,342.43,16.63,344.61,16.13,346.9Z" fill="#9a8bf2"/><path id="05338347-66e6-4b0b-a40d-9f5e6a526979" data-name="&lt;Контур&gt;" d="M87.26,502.63c-2.48-.54-3.86-2.4-3.11-4.66s2.11-3.66,4.84-2.89c2.4.68,3.49,2.25,2.93,4.74C91.42,502.11,89.67,503.16,87.26,502.63Z" fill="#9a8bf2"/><path id="5116f559-b650-4bee-adec-150c73d03029" data-name="&lt;Контур&gt;" d="M84.48,484.33c.64-2.13,2-3.77,4.85-3a3.86,3.86,0,1,1-1.68,7.53C85.19,488.36,83.81,486.58,84.48,484.33Z" fill="#9a8bf2"/><path id="ead86209-02d0-4b8d-be73-3cf836859565" data-name="&lt;Контур&gt;" d="M52.05,384.57c2.33.47,3.57,2.18,3.13,4.32-.51,2.49-2.2,3.79-4.34,3.34-2.49-.53-4.07-2.64-3.59-4.77A4.1,4.1,0,0,1,52.05,384.57Z" fill="#9a8bf2"/><path id="cc0db824-39b7-4a72-91bf-c2df16dbbc0a" data-name="&lt;Контур&gt;" d="M68.52,403.11A3.77,3.77,0,0,1,64,406.23a4,4,0,0,1-3.37-4.61,4.07,4.07,0,0,1,4.71-3A3.77,3.77,0,0,1,68.52,403.11Z" fill="#9a8bf2"/><path id="7da65d8f-17be-437b-85a7-11a36db02a3c" data-name="&lt;Контур&gt;" d="M3,332.54a3.83,3.83,0,0,1-4.55,3,3.83,3.83,0,0,1-3.06-4.65,3.83,3.83,0,0,1,4.55-3A3.83,3.83,0,0,1,3,332.54Z" fill="#9a8bf2"/><path id="0aa2cbbe-c22c-4275-ac2b-44bb7d3b6904" data-name="&lt;Контур&gt;" d="M85,470.92a4,4,0,0,1,4.6-3,3.86,3.86,0,1,1-1.32,7.61A4,4,0,0,1,85,470.92Z" fill="#9a8bf2"/><path id="815cc93a-5d58-489d-9e70-8a5d59f0501f" data-name="&lt;Контур&gt;" d="M80.86,431.24a3.89,3.89,0,1,1-2.9-4.61A3.83,3.83,0,0,1,80.86,431.24Z" fill="#9a8bf2"/><path id="ee54357c-9ba4-4443-9718-e8a4f525444a" data-name="&lt;Контур&gt;" d="M86,457.41a3.57,3.57,0,0,1,4.4-3.07A4.09,4.09,0,0,1,93.52,459a4,4,0,0,1-4.68,2.86A3.48,3.48,0,0,1,86,457.41Z" fill="#9a8bf2"/><path id="899ef318-046b-49da-a957-482f8015d31f" data-name="&lt;Контур&gt;" d="M42.67,361.52A4,4,0,0,1,38,364.43a3.5,3.5,0,0,1-2.84-4.58,3.56,3.56,0,0,1,4.33-3A4.08,4.08,0,0,1,42.67,361.52Z" fill="#9a8bf2"/><path id="98ba3eaf-d8a2-49b6-bc43-a30652667abb" data-name="&lt;Контур&gt;" d="M55.71,375.57a4,4,0,0,1-4.54,2.86,3.55,3.55,0,0,1-2.89-4.6A3.47,3.47,0,0,1,52.75,371,4,4,0,0,1,55.71,375.57Z" fill="#9a8bf2"/><path id="8cf1accb-2a1f-4db4-95af-148f0d4d4be9" data-name="&lt;Контур&gt;" d="M29.69,347a3.88,3.88,0,0,1-4.34,3.11c-2.19-.5-3.69-1.46-3.16-4.37.41-2.27,1.54-3.51,4.24-3.15A4,4,0,0,1,29.69,347Z" fill="#9a8bf2"/><path id="1106e337-3311-49e5-a194-b5591f21c193" data-name="&lt;Контур&gt;" d="M93.8,445.16A3.81,3.81,0,0,1,89.2,448c-2.2-.57-3.22-2-2.74-4.41a3.41,3.41,0,0,1,3.92-3C92.81,441.17,94.23,443,93.8,445.16Z" fill="#9a8bf2"/><path id="9e4961d4-b6d8-481e-9d7d-00974421814c" data-name="&lt;Контур&gt;" d="M68.67,389.77a3.81,3.81,0,0,1-4.6,2.88c-2.21-.57-3.22-2-2.75-4.41a3.41,3.41,0,0,1,4.07-3C67.73,385.85,69.08,387.66,68.67,389.77Z" fill="#9a8bf2"/><path id="7175ca43-807c-4fde-9960-04e2a6e1460c" data-name="&lt;Контур&gt;" d="M16.53,333.15A3.81,3.81,0,0,1,11.91,336a3.36,3.36,0,0,1-2.75-4.28c.48-2.26,2.06-3.49,4-3.09C15.57,329.14,17,331,16.53,333.15Z" fill="#9a8bf2"/><path id="434db96d-9681-441f-b88f-d7ef32ad15ae" data-name="&lt;Контур&gt;" d="M78.47,413A3.8,3.8,0,1,1,74,416,3.88,3.88,0,0,1,78.47,413Z" fill="#9a8bf2"/><path id="3d68a048-2eb8-4ae9-8336-3c701f7bacf1" data-name="&lt;Контур&gt;" d="M105,500.24c-.46,2.09-2.08,2.95-4.24,2.73a3.82,3.82,0,0,1-3-4.36,3.57,3.57,0,0,1,4.23-2.66C104.38,496.46,105.47,498,105,500.24Z" fill="#9a8bf2"/><path id="3040c266-2bcb-40af-b412-b49476053a56" data-name="&lt;Контур&gt;" d="M2.94,319a3.58,3.58,0,0,1-4.26,2.79,3.57,3.57,0,0,1-3-4.21A3.45,3.45,0,0,1,0,314.8,3.46,3.46,0,0,1,2.94,319Z" fill="#9a8bf2"/><path id="daad0464-c244-415c-b6bb-dd8a77049436" data-name="&lt;Контур&gt;" d="M81.51,403.79a3.47,3.47,0,0,1-4.34,2.66,3.54,3.54,0,1,1,1.52-6.9A3.47,3.47,0,0,1,81.51,403.79Z" fill="#9a8bf2"/><path id="7ad21647-5512-4827-bc17-f673b7e44795" data-name="&lt;Контур&gt;" d="M94.24,431.51a3.47,3.47,0,0,1-4.33,2.68,3.54,3.54,0,1,1,1.49-6.91A3.47,3.47,0,0,1,94.24,431.51Z" fill="#9a8bf2"/><path id="ca9fab23-6c6b-4985-8d75-1f23cabf7227" data-name="&lt;Контур&gt;" d="M98.69,485a3.58,3.58,0,1,1,2.81,4.29A3.52,3.52,0,0,1,98.69,485Z" fill="#9a8bf2"/><path id="9411a313-436a-4d4a-bfeb-9a160d73b9dd" data-name="&lt;Контур&gt;" d="M29.66,333.64a3.52,3.52,0,1,1-2.87-4.14A3.55,3.55,0,0,1,29.66,333.64Z" fill="#9a8bf2"/><path id="7c44ba61-d728-495c-9357-ff2c3d1eacb1" data-name="&lt;Контур&gt;" d="M69.08,376.18a3.72,3.72,0,0,1-4.3,2.6,3.24,3.24,0,0,1-2.55-4.22,3.37,3.37,0,0,1,4.27-2.66A4,4,0,0,1,69.08,376.18Z" fill="#9a8bf2"/><path id="2590fd0b-60c1-40e1-be1a-75526a7c1f0b" data-name="&lt;Контур&gt;" d="M56.12,361.75a3.54,3.54,0,1,1-2.92-4.2A3.53,3.53,0,0,1,56.12,361.75Z" fill="#9a8bf2"/><path id="9c6d2633-987c-4f6c-a3fa-f3274d11b384" data-name="&lt;Контур&gt;" d="M43,347.8a3.54,3.54,0,1,1-2.85-4.25A3.53,3.53,0,0,1,43,347.8Z" fill="#9a8bf2"/><path id="75f4b179-6ade-475c-8259-943e03c0103c" data-name="&lt;Контур&gt;" d="M99.38,471.42a3.54,3.54,0,1,1,2.76,4.2A3.53,3.53,0,0,1,99.38,471.42Z" fill="#9a8bf2"/><path id="f0131dc2-3d22-47fa-8ac2-9d262815cd55" data-name="&lt;Контур&gt;" d="M99.77,457.69a3.31,3.31,0,0,1,4-2.71,3.5,3.5,0,1,1-1.47,6.84A3.31,3.31,0,0,1,99.77,457.69Z" fill="#9a8bf2"/><path id="bab08e1a-df82-4023-8a3a-7f80becbaca2" data-name="&lt;Контур&gt;" d="M82.07,390.18A3.44,3.44,0,1,1,79.45,386,3.53,3.53,0,0,1,82.07,390.18Z" fill="#9a8bf2"/><path id="cad2a136-c4fd-4d11-a65d-3bfa6ceca071" data-name="&lt;Контур&gt;" d="M16.6,319.35A3.75,3.75,0,0,1,12.36,322c-1.9-.4-3.13-2.47-2.57-4,.45-2.16,2-3.24,4-2.81A3.71,3.71,0,0,1,16.6,319.35Z" fill="#9a8bf2"/><path id="debbccb7-da3a-4ec3-8c5a-105f4f409e5d" data-name="&lt;Контур&gt;" d="M94.53,417.75a3.48,3.48,0,1,1-2.68-4.12A3.57,3.57,0,0,1,94.53,417.75Z" fill="#9a8bf2"/><path id="54481cb3-6998-4e8f-9974-8d0d10996f55" data-name="&lt;Контур&gt;" d="M106.92,445.77a3,3,0,0,1-3.85,2.44c-2.19-.46-3.19-1.89-2.74-3.9a3,3,0,0,1,3.81-2.44C106.41,442.35,107.37,443.7,106.92,445.77Z" fill="#9a8bf2"/><path id="d9a30889-5240-4f4f-9715-1e32c145991d" data-name="&lt;Контур&gt;" d="M119,487.25a3.11,3.11,0,0,1-3.9,2.34,3.23,3.23,0,1,1,1.56-6.25A3.11,3.11,0,0,1,119,487.25Z" fill="#9a8bf2"/><path id="b0992c0d-a81a-4837-a065-0a82237b80af" data-name="&lt;Контур&gt;" d="M118.41,500.47a3,3,0,0,1-3.74,2.51c-2.14-.42-3.26-1.94-2.87-3.89a3.2,3.2,0,0,1,3.87-2.48C117.78,497,118.82,498.5,118.41,500.47Z" fill="#9a8bf2"/><path id="eaa2b19d-7eb3-4643-adda-00811f3a1d56" data-name="&lt;Контур&gt;" d="M.53,301.44c2.11.42,3.17,1.89,2.76,3.84a3,3,0,0,1-3.73,2.53c-2.15-.41-3.26-1.91-2.89-3.87A3.21,3.21,0,0,1,.53,301.44Z" fill="#9a8bf2"/><path id="2ee2bca8-e1ec-4f4f-92f7-67da078f8316" data-name="&lt;Контур&gt;" d="M107.58,432.12a3.11,3.11,0,0,1-3.84,2.44,3.23,3.23,0,1,1,1.41-6.28A3.11,3.11,0,0,1,107.58,432.12Z" fill="#9a8bf2"/><path id="c85c848c-64f8-4f6c-a985-e75e389a3040" data-name="&lt;Контур&gt;" d="M94.88,404.3a3,3,0,0,1-3.7,2.56C89,406.45,87.91,405,88.25,403a3.24,3.24,0,0,1,3.83-2.53C94.2,400.89,95.28,402.35,94.88,404.3Z" fill="#9a8bf2"/><path id="4cbde812-54fc-4491-adaa-824b152d6613" data-name="&lt;Контур&gt;" d="M56.11,348.14a3.06,3.06,0,0,1-3.78,2.65c-2.13-.42-3.26-2-2.86-3.89a3.19,3.19,0,0,1,3.88-2.47C55.39,344.84,56.46,346.28,56.11,348.14Z" fill="#9a8bf2"/><path id="15e3cc99-9834-469d-a7ab-665cc1d5f382" data-name="&lt;Контур&gt;" d="M69.18,362.3a3.25,3.25,0,1,1-2.63-3.87A3.19,3.19,0,0,1,69.18,362.3Z" fill="#9a8bf2"/><path id="8f0df167-4e71-4e54-bb4e-f5e31c06ac56" data-name="&lt;Контур&gt;" d="M30,319.95a3.35,3.35,0,0,1-4,2.48,3.22,3.22,0,1,1,1.33-6.29A3.27,3.27,0,0,1,30,319.95Z" fill="#9a8bf2"/><path id="701093df-0b40-4d9b-92f3-32d40992ab73" data-name="&lt;Контур&gt;" d="M40.61,330.13a3.25,3.25,0,1,1-3.86,2.46A3.19,3.19,0,0,1,40.61,330.13Z" fill="#9a8bf2"/><path id="7fa5096a-8ee9-4e9f-8472-6115837600cb" data-name="&lt;Контур&gt;" d="M82.5,376.45a3.34,3.34,0,0,1-3.94,2.36A3.21,3.21,0,0,1,80,372.57,3.35,3.35,0,0,1,82.5,376.45Z" fill="#9a8bf2"/><path id="e15188ce-e7a1-4e56-92cc-1b1f5ad30565" data-name="&lt;Контур&gt;" d="M119.64,473.47a3.34,3.34,0,0,1-3.88,2.45,3.21,3.21,0,0,1,1.33-6.27A3.33,3.33,0,0,1,119.64,473.47Z" fill="#9a8bf2"/><path id="dfaed4ff-1b4c-433b-9011-d2e469f0b1dd" data-name="&lt;Контур&gt;" d="M14.09,301.85A3.33,3.33,0,0,1,17,305.58,3.29,3.29,0,0,1,13.08,308a2.84,2.84,0,0,1-2.34-3.59C11.21,302.52,12.45,301.51,14.09,301.85Z" fill="#9a8bf2"/><path id="bb987373-3d76-4882-af8d-6844a5b737bc" data-name="&lt;Контур&gt;" d="M119.92,459.79a3.28,3.28,0,0,1-3.81,2.34c-1.77-.41-2.91-1.75-2.34-3.71.4-1.86,1.78-2.85,3.43-2.47A3.32,3.32,0,0,1,119.92,459.79Z" fill="#9a8bf2"/><path id="a49c4fd7-5120-4714-815b-be39637c27fe" data-name="&lt;Контур&gt;" d="M107.86,418.38a3.28,3.28,0,0,1-3.8,2.36c-1.76-.4-2.92-1.73-2.35-3.7.4-1.87,1.77-2.86,3.42-2.48A3.33,3.33,0,0,1,107.86,418.38Z" fill="#9a8bf2"/><path id="7d75a91d-6d4b-4654-9966-adba5a2881c5" data-name="&lt;Контур&gt;" d="M95.45,390.58A3.12,3.12,0,1,1,93,387,3.2,3.2,0,0,1,95.45,390.58Z" fill="#9a8bf2"/><path id="5465d1f1-dc3d-4a5b-a02f-27cfc001b77c" data-name="&lt;Контур&gt;" d="M120.34,446.06a2.68,2.68,0,0,1-3.56,2.17c-1.9-.41-2.8-1.73-2.41-3.51a2.8,2.8,0,0,1,3.68-2.15A2.67,2.67,0,0,1,120.34,446.06Z" fill="#9a8bf2"/><path id="ceef18bb-d3cf-4299-8b92-63cae06c6451" data-name="&lt;Контур&gt;" d="M53.92,331.09c2.07.42,2.9,1.56,2.51,3.43A2.61,2.61,0,0,1,53,336.81c-2.07-.43-3-1.65-2.55-3.52A2.7,2.7,0,0,1,53.92,331.09Z" fill="#9a8bf2"/><path id="eed02b3a-6ef1-46e9-a48f-515022c3a1e3" data-name="&lt;Контур&gt;" d="M69.6,348.54A3,3,0,1,1,67.18,345,2.94,2.94,0,0,1,69.6,348.54Z" fill="#9a8bf2"/><path id="3bdf371b-229a-4157-bc3c-a8b4f6b5e36b" data-name="&lt;Контур&gt;" d="M3.62,291.62A2.81,2.81,0,0,1,0,293.78a3.1,3.1,0,0,1-2.35-3.49,3.14,3.14,0,0,1,3.78-2.12A2.79,2.79,0,0,1,3.62,291.62Z" fill="#9a8bf2"/><path id="a550aee7-42c9-403f-b703-53b99cd4caa1" data-name="&lt;Контур&gt;" d="M80.39,359.44a3,3,0,1,1-3.62,2.25A2.89,2.89,0,0,1,80.39,359.44Z" fill="#9a8bf2"/><path id="49697e1e-443f-4881-a35a-28e608cbefee" data-name="&lt;Контур&gt;" d="M43.47,320.31a3,3,0,1,1-2.19-3.52A2.88,2.88,0,0,1,43.47,320.31Z" fill="#9a8bf2"/><path id="6dcefd4e-992a-47e8-b110-f8c997aa4e7b" data-name="&lt;Контур&gt;" d="M131.75,501a3,3,0,0,1-3.48,2.25,2.91,2.91,0,1,1,3.48-2.25Z" fill="#9a8bf2"/><path id="15033e46-f1c1-42a5-a4ac-4b13b1fcd2b4" data-name="&lt;Контур&gt;" d="M108.3,404.67a2.92,2.92,0,1,1-2.25-3.49A2.88,2.88,0,0,1,108.3,404.67Z" fill="#9a8bf2"/><path id="4993d843-fc01-4fb6-8583-836779b0cc17" data-name="&lt;Контур&gt;" d="M95.56,376.85a3,3,0,0,1-3.48,2.27,2.89,2.89,0,0,1,1.09-5.68A3,3,0,0,1,95.56,376.85Z" fill="#9a8bf2"/><path id="3ec9bab7-4adf-42d7-9cbe-b3e3369e8706" data-name="&lt;Контур&gt;" d="M120.69,432.28a3,3,0,0,1-3.51,2.22,2.89,2.89,0,0,1,1.17-5.66A3,3,0,0,1,120.69,432.28Z" fill="#9a8bf2"/><path id="5f3535a5-b627-48dc-b9cb-3c3fbe554d78" data-name="&lt;Контур&gt;" d="M132.39,487.49a3,3,0,0,1-3.58,2.11,2.89,2.89,0,0,1,1.35-5.62A3,3,0,0,1,132.39,487.49Z" fill="#9a8bf2"/><path id="2b0e8731-dc4a-4723-8249-a925ddde8502" data-name="&lt;Контур&gt;" d="M132.69,473.67a3.16,3.16,0,0,1-3.4,2.18,2.59,2.59,0,0,1-2.19-3c.4-2.16,1.31-2.9,3.12-2.56C132,470.21,132.9,472.52,132.69,473.67Z" fill="#9a8bf2"/><path id="103b8a2d-2dac-4e7a-824c-bb694a5a71bb" data-name="&lt;Контур&gt;" d="M13.36,294.31a2.54,2.54,0,0,1-2-3.29c.41-1.92,1.39-2.5,3.23-2.27,1.57.2,2.53,2.24,2.31,3.41A3.12,3.12,0,0,1,13.36,294.31Z" fill="#9a8bf2"/><path id="22d543ca-0c9a-4dc2-a1e1-fb25b3300bdb" data-name="&lt;Контур&gt;" d="M28.09,302.81a2.9,2.9,0,1,1-3.43,2.35A2.91,2.91,0,0,1,28.09,302.81Z" fill="#9a8bf2"/><path id="527023f6-6a3e-455f-9353-f913a7d5afc8" data-name="&lt;Контур&gt;" d="M53.71,323a2.74,2.74,0,1,1,3.23-2.15A2.76,2.76,0,0,1,53.71,323Z" fill="#9a8bf2"/><path id="ffecac09-329d-4960-80dc-47bd0f27643f" data-name="&lt;Контур&gt;" d="M106.51,387.6a2.79,2.79,0,1,1-1.09,5.47,2.74,2.74,0,0,1-2-3.27A2.66,2.66,0,0,1,106.51,387.6Z" fill="#9a8bf2"/><path id="f1a5e833-70dd-4b07-939b-ad013be16f0a" data-name="&lt;Контур&gt;" d="M121.17,418.9a3,3,0,0,1-3.36,2.16,2.79,2.79,0,0,1,1-5.49A3,3,0,0,1,121.17,418.9Z" fill="#9a8bf2"/><path id="665ca7dd-b3de-41d4-8012-6a3764754249" data-name="&lt;Контур&gt;" d="M67.67,331.54A2.8,2.8,0,1,1,66.52,337a2.72,2.72,0,0,1-2-3.2A2.69,2.69,0,0,1,67.67,331.54Z" fill="#9a8bf2"/><path id="f84d2886-edaf-40cb-a991-3c7df51661ad" data-name="&lt;Контур&gt;" d="M133.17,460.38a2.74,2.74,0,1,1-2.06-3.31A2.76,2.76,0,0,1,133.17,460.38Z" fill="#9a8bf2"/><path id="f6907acb-2c33-45b9-a6da-0c6e992b2172" data-name="&lt;Контур&gt;" d="M83,349.19a2.74,2.74,0,1,1-2.17-3.24A2.75,2.75,0,0,1,83,349.19Z" fill="#9a8bf2"/><path id="57eccdb0-64d9-49e6-95b5-e2e8451cb2d4" data-name="&lt;Контур&gt;" d="M40.32,308.76c-1.73-.36-2.6-1.52-2.29-3.07a2.5,2.5,0,0,1,3.27-2,2.57,2.57,0,1,1-1,5.05Z" fill="#9a8bf2"/><path id="2a759c4c-1e26-4955-9d86-589f17ae367e" data-name="&lt;Контур&gt;" d="M93.79,360.1a2.58,2.58,0,1,1-.94,5.06c-1.74-.35-2.61-1.5-2.32-3.05A2.51,2.51,0,0,1,93.79,360.1Z" fill="#9a8bf2"/><path id="cd2f4d6c-9868-4346-82bf-ac128f0836fd" data-name="&lt;Контур&gt;" d="M.56,279.77c-1.75-.31-2.39-1.36-2.21-3.11a2.42,2.42,0,0,1,3.11-2,2.5,2.5,0,0,1,2.19,3.14A2.52,2.52,0,0,1,.56,279.77Z" fill="#9a8bf2"/><path id="c23d45ee-47ca-47cd-abb0-b73d1d7cb81a" data-name="&lt;Контур&gt;" d="M133.68,446.64a2.5,2.5,0,0,1-3.08,1.95,2.57,2.57,0,0,1-2.27-3.1,2.74,2.74,0,0,1,5.34,1.15Z" fill="#9a8bf2"/><path id="a949e67f-6f37-4472-924e-60952b1eedae" data-name="&lt;Контур&gt;" d="M121.63,405.19a2.56,2.56,0,0,1-3.12,2,2.74,2.74,0,0,1-2.24-3.07,2.77,2.77,0,0,1,3.08-2A2.58,2.58,0,0,1,121.63,405.19Z" fill="#9a8bf2"/><path id="e4965792-274b-4e99-adf1-c1864c080c72" data-name="&lt;Контур&gt;" d="M27.27,294.43A2.74,2.74,0,0,1,25,291.35a2.81,2.81,0,0,1,3.09-2,2.58,2.58,0,1,1-.86,5.08Z" fill="#9a8bf2"/><path id="4bf2138f-0585-4a71-9854-05148d9b9e05" data-name="&lt;Контур&gt;" d="M132,429.85a2.56,2.56,0,0,1-1,5,2.56,2.56,0,1,1,1-5Z" fill="#9a8bf2"/><path id="31e6b99b-bbb3-4715-9945-1a3c4e9253b2" data-name="&lt;Контур&gt;" d="M80.12,337.35a2.5,2.5,0,1,1,3-1.86A2.59,2.59,0,0,1,80.12,337.35Z" fill="#9a8bf2"/><path id="450d9035-fdd2-4c40-a686-cf2308184be7" data-name="&lt;Контур&gt;" d="M105.88,379.48a2.57,2.57,0,1,1,3-2A2.58,2.58,0,0,1,105.88,379.48Z" fill="#9a8bf2"/><path id="b2effa50-499d-40ec-afdd-ba0ec9f5a228" data-name="&lt;Контур&gt;" d="M145,501.73a2.81,2.81,0,0,1-3.11,1.84,2.35,2.35,0,0,1-1.83-2.92c.33-1.56,1.37-2.34,2.71-2A2.75,2.75,0,0,1,145,501.73Z" fill="#9a8bf2"/><path id="899d0572-34da-4b38-a596-a986c33844ac" data-name="&lt;Контур&gt;" d="M145.39,488a2.8,2.8,0,0,1-3.07,1.91,2.4,2.4,0,0,1-1.86-3,2.2,2.2,0,0,1,2.63-1.95A2.75,2.75,0,0,1,145.39,488Z" fill="#9a8bf2"/><path id="a1a5899e-d1d5-49db-b193-0c2cb86ad49f" data-name="&lt;Контур&gt;" d="M66.94,323.35a2.35,2.35,0,0,1-1.83-2.91c.33-1.56,1.36-2.35,2.71-2.05A2.75,2.75,0,0,1,70,321.5,2.81,2.81,0,0,1,66.94,323.35Z" fill="#9a8bf2"/><path id="cf4f6c0d-aed0-4a1f-8595-0e48511c7fdb" data-name="&lt;Контур&gt;" d="M93.31,351.66c-1.26-.39-2.21-1-1.75-2.93a2.23,2.23,0,0,1,2.5-2,2.73,2.73,0,0,1,2.33,3.06A2.57,2.57,0,0,1,93.31,351.66Z" fill="#9a8bf2"/><path id="c1cd328f-b811-46b8-99e5-c60a74db6ee0" data-name="&lt;Контур&gt;" d="M53.9,309c-1.69-.53-2.09-1.46-1.72-3a2.22,2.22,0,0,1,2.51-1.94,2.72,2.72,0,0,1,2.3,3.07A2.6,2.6,0,0,1,53.9,309Z" fill="#9a8bf2"/><path id="5fba22fd-290c-4aa9-ad12-b7ed290883a2" data-name="&lt;Контур&gt;" d="M14.11,280.29c-1.7-.53-2.09-1.46-1.73-2.95a2.22,2.22,0,0,1,2.51-1.94,2.72,2.72,0,0,1,2.31,3.07A2.6,2.6,0,0,1,14.11,280.29Z" fill="#9a8bf2"/><path id="1a8f7cf3-c806-4faa-8504-f5cf3b268fcb" data-name="&lt;Контур&gt;" d="M146,474.21a2.43,2.43,0,1,1-2-2.86A2.46,2.46,0,0,1,146,474.21Z" fill="#9a8bf2"/><path id="2ac276d1-db8c-47bf-a406-1b7486cc092b" data-name="&lt;Контур&gt;" d="M134.39,419.12c-.33,1.58-1.15,2.11-2.76,1.76s-2.31-1.2-2-2.75,1.25-2,3-1.64C134.15,416.83,134.69,417.64,134.39,419.12Z" fill="#9a8bf2"/><path id="4fba7ea8-086e-43cd-b29a-b5af61246e2e" data-name="&lt;Контур&gt;" d="M119.72,388.72c1.68.34,2.26,1.12,2,2.64s-1.14,2.14-2.74,1.8-2.32-1.21-2-2.73S118.14,388.4,119.72,388.72Z" fill="#9a8bf2"/><path id="e993354a-2c80-4101-9f76-253bc9dbd3fb" data-name="&lt;Контур&gt;" d="M41,294.77A2.27,2.27,0,0,1,39,292a2.37,2.37,0,0,1,2.71-1.67c1.57.3,2.26,1.21,2,2.62A2.1,2.1,0,0,1,41,294.77Z" fill="#9a8bf2"/><path id="fe64999f-7278-4100-8db4-168217161ff4" data-name="&lt;Контур&gt;" d="M146.44,460.58a2.1,2.1,0,0,1-2.84,1.68,2.27,2.27,0,0,1-1.87-2.72,2.34,2.34,0,0,1,2.85-1.67A2.09,2.09,0,0,1,146.44,460.58Z" fill="#9a8bf2"/><path id="36ef82a9-7603-43b2-9691-d54c2228a3e5" data-name="&lt;Контур&gt;" d="M106.37,365.46a2.33,2.33,0,0,1-1.84-2.74,2.35,2.35,0,0,1,2.87-1.64,2.09,2.09,0,0,1,1.82,2.74C108.91,365.23,107.9,365.8,106.37,365.46Z" fill="#9a8bf2"/><path id="041a2798-659f-4166-b604-7e975d7ec8aa" data-name="&lt;Контур&gt;" d="M144.64,444.41a2.42,2.42,0,0,1,2.11,2.56,2.38,2.38,0,0,1-2.7,1.91,2.5,2.5,0,0,1-2-2.72A2.54,2.54,0,0,1,144.64,444.41Z" fill="#9a8bf2"/><path id="f35460b9-d8f8-45fd-9279-efa6dd086c6e" data-name="&lt;Контур&gt;" d="M1.26,265.79a2.52,2.52,0,0,1-2-2.63A2.57,2.57,0,0,1,2,261.35,2.41,2.41,0,0,1,4,264,2.38,2.38,0,0,1,1.26,265.79Z" fill="#9a8bf2"/><path id="9eec33b2-8a17-457f-9e24-2f779972e73b" data-name="&lt;Контур&gt;" d="M131.85,407.46a2.5,2.5,0,0,1-1.9-2.68,2.54,2.54,0,0,1,2.79-1.74,2.26,2.26,0,1,1-.88,4.42Z" fill="#9a8bf2"/><path id="e4941353-0ea5-4904-a3e4-0f1974f63bcc" data-name="&lt;Контур&gt;" d="M119.39,379.42c-1.27-.31-1.76-1.19-1.45-2.61s1.11-2,2.56-1.7a2.23,2.23,0,1,1-1.12,4.3Z" fill="#9a8bf2"/><path id="c695bdaf-767c-4dbe-ba54-b3caa1bfa3fe" data-name="&lt;Контур&gt;" d="M80.61,323.37c-1.28-.3-1.77-1.18-1.46-2.6s1.1-2,2.55-1.71a2.23,2.23,0,1,1-1.09,4.31Z" fill="#9a8bf2"/><path id="1555a48d-4386-4b64-85ee-48ee64710a4e" data-name="&lt;Контур&gt;" d="M67.82,309.4a2.2,2.2,0,1,1,2.57-1.64A2.29,2.29,0,0,1,67.82,309.4Z" fill="#9a8bf2"/><path id="66dd763d-89e0-4636-9106-19f3a882bcca" data-name="&lt;Контур&gt;" d="M93.65,337.64a1.91,1.91,0,0,1-1.46-2.54,2,2,0,0,1,2.53-1.68,2.18,2.18,0,1,1-1.08,4.21Z" fill="#9a8bf2"/><path id="d5718e9a-c7b4-464a-835e-0877c54ecfba" data-name="&lt;Контур&gt;" d="M28.07,280.45a2.23,2.23,0,1,1,2.64-1.73A2.28,2.28,0,0,1,28.07,280.45Z" fill="#9a8bf2"/><path id="568014a7-bc57-4e47-ac8f-833a88019b4b" data-name="&lt;Контур&gt;" d="M147.29,433.54a2.29,2.29,0,0,1-2.77,1.55,1.91,1.91,0,0,1-1.47-2.53,2,2,0,0,1,2.53-1.69A2.29,2.29,0,0,1,147.29,433.54Z" fill="#9a8bf2"/><path id="da121fc9-557b-4434-96a5-a271e708f397" data-name="&lt;Контур&gt;" d="M54.69,294.94c-1.12-.33-2-1-1.5-2.45a1.81,1.81,0,0,1,2.43-1.64,2.12,2.12,0,0,1,1.66,2.58A2,2,0,0,1,54.69,294.94Z" fill="#9a8bf2"/><path id="a3aeedeb-b086-4f31-8c96-d04d871bad4c" data-name="&lt;Контур&gt;" d="M158.69,488.18a2.1,2.1,0,0,1-2.55,1.6c-1.3-.24-1.85-1.12-1.44-3a1.66,1.66,0,0,1,2.25-1.11A2.15,2.15,0,0,1,158.69,488.18Z" fill="#9a8bf2"/><path id="dc70e6b0-cd43-4cec-a2e6-07e53636e158" data-name="&lt;Контур&gt;" d="M14.92,266.27c-1.13-.32-2-1-1.52-2.47a1.82,1.82,0,0,1,2.41-1.63,2.12,2.12,0,0,1,1.69,2.56A2,2,0,0,1,14.92,266.27Z" fill="#9a8bf2"/><path id="ef7e6319-6dc7-40a0-bb96-e2048991aa8c" data-name="&lt;Контур&gt;" d="M156.65,499.39a2.12,2.12,0,0,1,1.68,2.57,2,2,0,0,1-2.58,1.53c-1.13-.32-2-1-1.52-2.45A1.82,1.82,0,0,1,156.65,499.39Z" fill="#9a8bf2"/><path id="cedb6250-187d-4ee4-9d97-e2aaaa47d974" data-name="&lt;Контур&gt;" d="M106.87,351.59c-1.13-.31-2-.93-1.52-2.57a1.77,1.77,0,0,1,2.36-1.53,2.12,2.12,0,0,1,1.71,2.55A2,2,0,0,1,106.87,351.59Z" fill="#9a8bf2"/><path id="411e26db-ca29-4d86-95cb-28c5557d5f87" data-name="&lt;Контур&gt;" d="M132.61,393.49c-1.24-.27-2.06-1.27-1.67-2.35s1-1.87,2.35-1.45A1.85,1.85,0,0,1,135,392,1.78,1.78,0,0,1,132.61,393.49Z" fill="#9a8bf2"/><path id="6d469d13-f242-422a-b112-a1b6e4b036f6" data-name="&lt;Контур&gt;" d="M145.43,421.26a1.83,1.83,0,0,1-1.75-2.27,1.76,1.76,0,0,1,2.22-1.59,1.91,1.91,0,0,1,1.83,2.27A1.86,1.86,0,0,1,145.43,421.26Z" fill="#9a8bf2"/><path id="9278cd66-956f-4945-bc46-962849e9655d" data-name="&lt;Контур&gt;" d="M120.24,365.85a1.82,1.82,0,0,1-1.68-2.32,1.75,1.75,0,0,1,2.27-1.52,1.89,1.89,0,0,1,1.76,2.32A1.86,1.86,0,0,1,120.24,365.85Z" fill="#9a8bf2"/><path id="76e6d9a5-c242-4c0a-b742-f15da76e9310" data-name="&lt;Контур&gt;" d="M155.07,474c.34-1,1-1.9,2.32-1.51s2,1.13,1.74,2.32a1.78,1.78,0,0,1-2.34,1.5C155.54,476,154.7,475,155.07,474Z" fill="#9a8bf2"/><path id="95ee75c4-47a5-484e-bfb4-efb2d1576208" data-name="&lt;Контур&gt;" d="M41.76,280.84a2,2,0,0,1,.77-3.84c1.25.22,1.73,1.08,1.6,2.42A1.9,1.9,0,0,1,41.76,280.84Z" fill="#9a8bf2"/><path id="b3c2cb9b-0fe6-4d71-89b5-1f4e33d5cf59" data-name="&lt;Контур&gt;" d="M159.44,461.11A1.9,1.9,0,0,1,157,462.5c-1.09-.26-1.76-.9-1.33-2.07.2-1.28.68-2.05,2.11-1.69A2,2,0,0,1,159.44,461.11Z" fill="#9a8bf2"/><path id="8352a322-389a-40d8-a0c4-38ac5397c49f" data-name="&lt;Контур&gt;" d="M81.47,309.73a1.88,1.88,0,0,1,.82-3.66,1.88,1.88,0,1,1-.82,3.66Z" fill="#9a8bf2"/><path id="bb977774-64fa-4ba5-95b6-9288fab2cf52" data-name="&lt;Контур&gt;" d="M94.57,323.76a1.71,1.71,0,0,1-1.44-2.14,1.66,1.66,0,0,1,2.12-1.56,1.8,1.8,0,0,1,1.56,2.22A1.86,1.86,0,0,1,94.57,323.76Z" fill="#9a8bf2"/><path id="bbf798ad-0a5d-484b-8549-8b400af389a0" data-name="&lt;Контур&gt;" d="M133.2,379.75a1.67,1.67,0,0,1-1.23-2.33,1.73,1.73,0,0,1,2.27-1.29,1.87,1.87,0,0,1,1.33,2.3A1.8,1.8,0,0,1,133.2,379.75Z" fill="#9a8bf2"/><path id="a961ad98-9d87-40fd-859c-32d3bb38f970" data-name="&lt;Контур&gt;" d="M107.58,337.75a1.74,1.74,0,0,1-1.35-2.34,1.63,1.63,0,0,1,2.13-1.33,1.79,1.79,0,0,1,1.48,2.26A1.86,1.86,0,0,1,107.58,337.75Z" fill="#9a8bf2"/><path id="955f1008-9dbe-4563-8c25-d74b658e7a56" data-name="&lt;Контур&gt;" d="M157.79,448.86a1.74,1.74,0,0,1-1.36-2.33,1.63,1.63,0,0,1,2.12-1.35,1.8,1.8,0,0,1,1.5,2.25A1.86,1.86,0,0,1,157.79,448.86Z" fill="#9a8bf2"/><path id="6086a8d6-4961-4da8-8adf-b45a55f1f4ad" data-name="&lt;Контур&gt;" d="M28.65,266.75a1.74,1.74,0,0,1-1.35-2.34,1.63,1.63,0,0,1,2.13-1.33,1.79,1.79,0,0,1,1.48,2.26A1.86,1.86,0,0,1,28.65,266.75Z" fill="#9a8bf2"/><path id="6b7f30ef-22ed-45bb-b306-74c0c4fa0740" data-name="&lt;Контур&gt;" d="M145.71,407.44a1.62,1.62,0,0,1-1.39-2.09,1.74,1.74,0,0,1,2.19-1.58A1.86,1.86,0,0,1,148,406,1.79,1.79,0,0,1,145.71,407.44Z" fill="#9a8bf2"/><path id="e46bd8a6-89f1-49d1-a279-3f7f4fa4bba3" data-name="&lt;Контур&gt;" d="M68.34,295.37A1.67,1.67,0,0,1,67.11,293a1.71,1.71,0,0,1,2.21-1.31A1.86,1.86,0,0,1,70.7,294,1.8,1.8,0,0,1,68.34,295.37Z" fill="#9a8bf2"/><path id="1df8755a-7c29-4fc0-a24c-0db764934498" data-name="&lt;Контур&gt;" d="M1.86,252.08a1.74,1.74,0,0,1-1.27-2.37,1.62,1.62,0,0,1,2.16-1.29,1.79,1.79,0,0,1,1.44,2.29A1.87,1.87,0,0,1,1.86,252.08Z" fill="#9a8bf2"/><path id="be1cb0d2-a279-42f8-a4c9-9aa270b72c44" data-name="&lt;Контур&gt;" d="M55,281.22a1.48,1.48,0,0,1-1.29-2.07c.06-.87.53-1.67,1.7-1.51a1.89,1.89,0,0,1,1.83,2.15A1.74,1.74,0,0,1,55,281.22Z" fill="#9a8bf2"/><path id="5d28db46-a48f-44d1-be79-05274b5a2050" data-name="&lt;Контур&gt;" d="M120.72,351.83c-1.23-.19-1.78-.91-1.51-2,.2-.86.78-1.61,1.88-1.22,1.15.17,1.8.68,1.55,1.92A1.46,1.46,0,0,1,120.72,351.83Z" fill="#9a8bf2"/><path id="25f0f53d-04b1-4f4f-8c49-f5417b0b84e9" data-name="&lt;Контур&gt;" d="M158.3,434.88c-1.17-.1-1.46-1-1.23-2a1.5,1.5,0,0,1,2.12-1.16c1.05.3,1.53.81,1.3,1.93S159.5,435.2,158.3,434.88Z" fill="#9a8bf2"/><path id="c9abbb1b-340f-49da-916e-01ba1997a1e5" data-name="&lt;Контур&gt;" d="M169.75,489.95a1.63,1.63,0,1,1,.88-3.12,1.48,1.48,0,0,1,1.23,2C171.56,489.94,170.8,490.18,169.75,489.95Z" fill="#9a8bf2"/><path id="b416ff35-a7ad-4a86-b6c0-b2c1d95ab4b2" data-name="&lt;Контур&gt;" d="M146,393.46c-.8-.1-1.2-1-1-1.94a1.53,1.53,0,0,1,2-1.16c1.07.23,1.61.82,1.38,1.93S147.46,393.75,146,393.46Z" fill="#9a8bf2"/><path id="c5bd1eb5-e12f-4a67-98f0-b0a1f3c88f02" data-name="&lt;Контур&gt;" d="M15.35,252.1a1.63,1.63,0,1,1,.67-3.17c1,.23,1.6.82,1.36,1.94S16.43,252.29,15.35,252.1Z" fill="#9a8bf2"/><path id="4892f30b-15e7-478f-b315-71c742ffb953" data-name="&lt;Контур&gt;" d="M42,266.74a1.52,1.52,0,0,1-1.35-1.91,1.58,1.58,0,0,1,2.11-1.25,1.63,1.63,0,1,1-.76,3.15Z" fill="#9a8bf2"/><path id="899b4536-5ba7-4b89-9b40-c157b244041d" data-name="&lt;Контур&gt;" d="M133.81,365.8a1.47,1.47,0,0,1-1.26-1.87,1.6,1.6,0,1,1,3.13.61A1.47,1.47,0,0,1,133.81,365.8Z" fill="#9a8bf2"/><path id="3b400c1e-eb24-426c-abcc-fc8ba7288c60" data-name="&lt;Контур&gt;" d="M158.79,421.49c-1.06-.15-1.29-.88-1.21-1.79.25-.91.67-1.58,1.75-1.35a1.56,1.56,0,0,1,1.38,1.94A1.54,1.54,0,0,1,158.79,421.49Z" fill="#9a8bf2"/><path id="d782d616-aa31-4faf-984d-787a2e6f8994" data-name="&lt;Контур&gt;" d="M170.43,476.26c-1-.24-1.2-1-1-2.08.3-.69.77-1.31,1.81-1a1.6,1.6,0,1,1-.82,3.08Z" fill="#9a8bf2"/><path id="72d1b96a-ce98-4054-a606-131666e939a4" data-name="&lt;Контур&gt;" d="M95,309.74c-.94-.27-1.14-1-1-1.82s.76-1.43,2-1.23a1.58,1.58,0,0,1,1.09,2A1.56,1.56,0,0,1,95,309.74Z" fill="#9a8bf2"/><path id="a2135a10-0ad7-4478-a478-1a80fa980e49" data-name="&lt;Контур&gt;" d="M81.66,295.67c-.95-.26-1.15-.95-1-1.82a1.43,1.43,0,0,1,1.87-1.26,1.61,1.61,0,1,1-.9,3.08Z" fill="#9a8bf2"/><path id="10cd6eb3-f217-4494-8ef3-08a1fbc67433" data-name="&lt;Контур&gt;" d="M170.74,462.79c-1-.22-1.21-.9-1-1.88a1.24,1.24,0,0,1,1.66-1.1,1.53,1.53,0,1,1-.69,3Z" fill="#9a8bf2"/><path id="2c072978-9d73-4b63-ab6f-1ef8065ac358" data-name="&lt;Контур&gt;" d="M68.73,281.31c-1-.24-1.17-.93-.93-2a1.21,1.21,0,0,1,1.67-1,1.49,1.49,0,0,1,1.24,1.88A1.51,1.51,0,0,1,68.73,281.31Z" fill="#9a8bf2"/><path id="ce499d61-7bc3-42ad-821b-0d398438dab5" data-name="&lt;Контур&gt;" d="M121.17,338c-1-.24-1.16-.95-.91-2a1.21,1.21,0,0,1,1.67-1,1.48,1.48,0,0,1,1.23,1.89A1.51,1.51,0,0,1,121.17,338Z" fill="#9a8bf2"/><path id="450c72c2-d90e-4cdf-89da-95c807ee95fd" data-name="&lt;Контур&gt;" d="M108.28,324.07a1.54,1.54,0,1,1,.8-3,1.54,1.54,0,1,1-.8,3Z" fill="#9a8bf2"/><path id="3a488620-87bf-4f0f-94ff-e76707fa0ac3" data-name="&lt;Контур&gt;" d="M29.21,252.62A1.34,1.34,0,0,1,28,251a1.45,1.45,0,1,1,2.89.34A1.36,1.36,0,0,1,29.21,252.62Z" fill="#9a8bf2"/><path id="3eabd431-ee12-497e-9713-e9ca2568d290" data-name="&lt;Контур&gt;" d="M171.53,448.93c-.94-.2-1.4-.7-1.17-1.63s.91-1.11,1.81-.9,1.28.68,1,1.58S172.41,449.12,171.53,448.93Z" fill="#9a8bf2"/><path id="b9cd890f-b436-4a36-9d86-8b01d63fc9e3" data-name="&lt;Контур&gt;" d="M146.77,379.79a1.19,1.19,0,0,1-1.22-1.55c.18-.95.83-1.18,1.76-1s1.3.57,1.09,1.55S147.73,380.1,146.77,379.79Z" fill="#9a8bf2"/><path id="cec8d4b6-80c1-480e-9510-c63051b0b5ba" data-name="&lt;Контур&gt;" d="M2.34,237.78c-1-.2-1.39-.71-1.15-1.65s.93-1.08,1.83-.88,1.25.71,1,1.6S3.21,238,2.34,237.78Z" fill="#9a8bf2"/><path id="e38b8fc8-b418-4bfe-a0a3-1b52b63c99b9" data-name="&lt;Контур&gt;" d="M159.43,407.53c-1-.2-1.38-.73-1.14-1.66s1-1.06,1.84-.86,1.23.73,1,1.6C160.92,407.66,160.29,407.72,159.43,407.53Z" fill="#9a8bf2"/><path id="e8cdc65b-b705-4aa5-b07e-8a5264000a4f" data-name="&lt;Контур&gt;" d="M134.31,351.8a1.3,1.3,0,1,1,.54-2.53c.88.16,1.36.7,1.17,1.57S135.18,352,134.31,351.8Z" fill="#9a8bf2"/><path id="744cd7da-80e1-4523-9d19-027ccb44747e" data-name="&lt;Контур&gt;" d="M55.94,267.12c-.86-.1-1.4-.59-1.33-1.46a1.21,1.21,0,0,1,1.45-1.15c1,.17,1.51.66,1.38,1.55A1.2,1.2,0,0,1,55.94,267.12Z" fill="#9a8bf2"/><path id="e9b08d6e-98b4-4ec8-b902-f07642cc8ea4" data-name="&lt;Контур&gt;" d="M108.5,310c-.9-.17-.88-.76-.76-1.44s.44-1.31,1.39-1c.79.22,1.24.73,1.08,1.51S109.38,310.21,108.5,310Z" fill="#9a8bf2"/><path id="b982dc0d-6bd5-430b-8e4e-dbc333dce68b" data-name="&lt;Контур&gt;" d="M42.63,253c-.9-.18-.87-.77-.76-1.44s.45-1.31,1.4-1c.79.23,1.24.74,1.07,1.51S43.51,253.22,42.63,253Z" fill="#9a8bf2"/><path id="25141f50-9676-49da-b330-bec96c2358bf" data-name="&lt;Контур&gt;" d="M159.65,393.76c-.71-.1-.5-.85-.37-1.53s.54-1.11,1.36-.88,1.24.74,1.08,1.51S160.86,394,159.65,393.76Z" fill="#9a8bf2"/><path id="067d8c47-892e-44cb-861e-8f8262ce4dd0" data-name="&lt;Контур&gt;" d="M172.11,435.23c-.87-.15-.94-.72-.75-1.61.13-.52.35-1.14,1.32-.88.79.21,1.25.71,1.12,1.49S173,435.38,172.11,435.23Z" fill="#9a8bf2"/><path id="fc6090a8-c6c4-4814-b443-665d93411f31" data-name="&lt;Контур&gt;" d="M147,366.06c-.73-.07-.64-.79-.49-1.5s.46-1.17,1.32-.95,1.33.77,1.11,1.62S148.13,366.27,147,366.06Z" fill="#9a8bf2"/><path id="d5e87db6-9859-4861-ac85-2cb426ac9dff" data-name="&lt;Контур&gt;" d="M95.62,295.75c-1-.13-1-.74-.79-1.88.07-.42.44-.88,1.35-.61a1.28,1.28,0,1,1-.55,2.49Z" fill="#9a8bf2"/><path id="2e0ccd3b-6ba6-44e6-9683-2191c0c56cc0" data-name="&lt;Контур&gt;" d="M16,238.09c-1-.17-.95-.82-.85-1.35.21-.89.49-1.38,1.35-1.16s1.34.76,1.12,1.61A1.26,1.26,0,0,1,16,238.09Z" fill="#9a8bf2"/><path id="12d60cd1-7de4-4e84-be97-e43bf4fee426" data-name="&lt;Контур&gt;" d="M82.8,281.69a1.14,1.14,0,0,1-1.05-1.34,1,1,0,0,1,1.32-1c.67.13,1,.67,1,1.49A1.18,1.18,0,0,1,82.8,281.69Z" fill="#9a8bf2"/><path id="f6b4eae5-a03d-4a3b-974b-742f8b8eef04" data-name="&lt;Контур&gt;" d="M183.85,490.23a1.14,1.14,0,0,1-1.05-1.34,1,1,0,0,1,1.32-1c.67.13,1,.67,1,1.49A1.18,1.18,0,0,1,183.85,490.23Z" fill="#9a8bf2"/><path id="d2bdec42-3705-48c6-a5fc-9190dd75f0e1" data-name="&lt;Контур&gt;" d="M172.61,421.45a1.22,1.22,0,0,1-.83-1.53,1,1,0,0,1,1.33-.78,1.19,1.19,0,0,1,.89,1.57A1.15,1.15,0,0,1,172.61,421.45Z" fill="#9a8bf2"/><path id="7462b213-85c6-47af-885d-bbbe9609327e" data-name="&lt;Контур&gt;" d="M121.94,324a1.14,1.14,0,0,1-1.06-1.33,1,1,0,0,1,1.31-1c.67.12,1,.66,1,1.49A1.18,1.18,0,0,1,121.94,324Z" fill="#9a8bf2"/><path id="400abb5e-4746-4abd-b3fc-ebdf05ed359d" data-name="&lt;Контур&gt;" d="M160.47,379.82c-.67-.15-1.06-.44-.89-1.2s.67-.86,1.32-.69,1.05.44.88,1.19S161.14,380,160.47,379.82Z" fill="#9a8bf2"/><path id="1732b647-b808-4823-8130-33f1ab4cc9da" data-name="&lt;Контур&gt;" d="M135,338.14c-.69-.16-1-.49-.84-1.23s.71-.78,1.35-.65,1,.51.79,1.42C136.11,338.24,135.61,338.29,135,338.14Z" fill="#9a8bf2"/><path id="3655a6e3-0026-4524-8c41-82b84f00255d" data-name="&lt;Контур&gt;" d="M184.64,462.61c-.64-.15-1.1-.38-.94-1.16s.6-.9,1.28-.76,1.09.4,1,1C185.78,462.59,185.34,462.77,184.64,462.61Z" fill="#9a8bf2"/><path id="5a9f1235-c7ed-4e5e-b9b5-a690651a9b08" data-name="&lt;Контур&gt;" d="M29.75,238.45c-.67-.15-1.06-.44-.89-1.2s.67-.86,1.32-.69,1.05.44.88,1.19S30.41,238.6,29.75,238.45Z" fill="#9a8bf2"/><path id="73eab407-4e94-455b-892c-7b1c41c31171" data-name="&lt;Контур&gt;" d="M148.16,352.15a.77.77,0,0,1-.68-1c.11-.58.36-1,1.07-.83a1,1,0,1,1-.4,1.86Z" fill="#9a8bf2"/><path id="4a9d65c4-787b-4407-b64b-67b5178602e9" data-name="&lt;Контур&gt;" d="M109.35,296.09c-.69-.15-.76-.62-.62-1.2a.78.78,0,0,1,1-.66,1,1,0,1,1-.42,1.86Z" fill="#9a8bf2"/><path id="df21a463-a106-45d7-babd-6bf925aca9bf" data-name="&lt;Контур&gt;" d="M185.39,448.95a.77.77,0,0,1-.72-1c.1-.57.32-1,1-.88a1,1,0,0,1,.88,1.12A1,1,0,0,1,185.39,448.95Z" fill="#9a8bf2"/><path id="fd96bc3f-b1fe-46c2-9470-e5f9f0c306b3" data-name="&lt;Контур&gt;" d="M56.55,253.11c-.69-.15-.76-.62-.62-1.2a.78.78,0,0,1,1-.66,1,1,0,1,1-.42,1.86Z" fill="#9a8bf2"/><path id="f11ba7e0-43cb-4db0-8fa7-99a435af9efa" data-name="&lt;Контур&gt;" d="M173.33,407.55c-.78-.09-.81-.59-.68-1.17a.78.78,0,0,1,1-.7.92.92,0,0,1,.83,1.13A.9.9,0,0,1,173.33,407.55Z" fill="#9a8bf2"/><path id="5eb1c847-fca7-42bb-93d7-da765d303d7c" data-name="&lt;Контур&gt;" d="M3.29,223.82c-.63-.13-1-.38-.86-1s.28-1,1-.93a.93.93,0,0,1,.9,1.08A.9.9,0,0,1,3.29,223.82Z" fill="#9a8bf2"/><path id="dbb2749a-8ba9-42ac-b0a4-12578bb132ac" data-name="&lt;Контур&gt;" d="M69.61,267.55a1,1,0,0,1-.81-1.16,1,1,0,0,1,1.22-.92,1.06,1.06,0,1,1-.41,2.08Z" fill="#9a8bf2"/><path id="7b47e85e-bb07-4e74-ad42-3a6c9e0b1205" data-name="&lt;Контур&gt;" d="M184.1,476.38a1,1,0,0,1-.85-1.13,1,1,0,0,1,1.19-1,1.06,1.06,0,1,1-.34,2.1Z" fill="#9a8bf2"/><path id="4fb510c1-bfa0-47a3-8f27-c56e4708e850" data-name="&lt;Контур&gt;" d="M173.49,394c-.78-.08-.55-.64-.44-1.07s.16-.9.82-.63a1.06,1.06,0,0,1,.78,1.06A1,1,0,0,1,173.49,394Z" fill="#9a8bf2"/><path id="67f4d06f-08a3-4358-b2e1-2deef6bb7729" data-name="&lt;Контур&gt;" d="M122.08,310c-.39-.06-.27-.53-.19-.92s.13-.93.72-.79,1,.48.87,1.12S122.85,310,122.08,310Z" fill="#9a8bf2"/><path id="2462e275-a798-41ec-93b7-291dcfe41827" data-name="&lt;Контур&gt;" d="M43.47,239c-.71,0-.58-.5-.52-.88s.07-1,.82-.83a1.06,1.06,0,0,1,.83,1.11A1.15,1.15,0,0,1,43.47,239Z" fill="#9a8bf2"/><path id="3ed205d5-9563-4576-affe-eac41f1d284a" data-name="&lt;Контур&gt;" d="M96.08,282c-.57-.14-.4-.66-.3-1s.19-.88.81-.65.9.52.77,1.06A1,1,0,0,1,96.08,282Z" fill="#9a8bf2"/><path id="6f8d3ab0-d4a0-4ae9-b72e-1851b1e98708" data-name="&lt;Контур&gt;" d="M83.26,267.68c-.72,0-.58-.51-.52-.89s.07-1,.82-.83a1,1,0,0,1,.83,1.06A1.06,1.06,0,0,1,83.26,267.68Z" fill="#9a8bf2"/><path id="6064a03a-693d-40ed-a4b6-3165198bdd3f" data-name="&lt;Контур&gt;" d="M135.38,324.32c-.69,0-.56-.52-.49-.9s.09-1,.83-.8a1,1,0,0,1,.8,1.06A1.06,1.06,0,0,1,135.38,324.32Z" fill="#9a8bf2"/><path id="14d74ba9-614c-47d2-b4e6-c67d910af02f" data-name="&lt;Контур&gt;" d="M16.55,224.32c-.57-.14-.4-.66-.3-1s.19-.88.81-.65.9.52.77,1.06A1,1,0,0,1,16.55,224.32Z" fill="#9a8bf2"/><path id="b75efa4e-2e20-4fce-9599-cfd5a55e7d6e" data-name="&lt;Контур&gt;" d="M161.09,366c-.64-.08-.47-.59-.4-1s.15-.85.61-.8c.62.21,1.07.51,1,1S161.66,366.12,161.09,366Z" fill="#9a8bf2"/><path id="ca3d7928-4d02-47c6-afd3-fd9a53ca5a7d" data-name="&lt;Контур&gt;" d="M185.48,435.41c-.62-.09-.46-.6-.38-1s.15-.86.6-.78c.65.22,1.08.53,1,1.06S186,435.5,185.48,435.41Z" fill="#9a8bf2"/></g></g></g></g></svg>