<svg id="64debbbd-0634-4c00-9624-92424ffdf042" data-name="BACKGROUND" xmlns="http://www.w3.org/2000/svg" xmlns:xlink="http://www.w3.org/1999/xlink" viewBox="0 0 401.36 500"><defs><clipPath id="aa1bcbee-be5b-471a-93db-da22d84a3f44"><rect width="750" height="500" fill="none"/></clipPath></defs><title>figures-small</title><g clip-path="url(#aa1bcbee-be5b-471a-93db-da22d84a3f44)"><circle cx="259.19" cy="7.76" r="2" fill="#ffc248"/><circle cx="259.19" cy="23.29" r="2" fill="#ffc248"/><circle cx="163.36" cy="2.23" r="2.01" fill="#ffc248"/><circle cx="163.36" cy="17.76" r="2.01" fill="#ffc248"/><circle cx="163.36" cy="33.28" r="2.01" fill="#ffc248"/><circle cx="302.53" cy="466.96" r="2" fill="#ffc248"/><circle cx="302.53" cy="482.49" r="2" fill="#ffc248"/><path d="M660.37,498a2,2,0,1,1-4,0c0-1.11-354.94-2-353.83-2S660.37,496.9,660.37,498Z" fill="#ffc248"/><circle cx="38.6" cy="377.73" r="2.01" fill="#ffc248"/><circle cx="38.6" cy="393.25" r="2.01" fill="#ffc248"/><circle cx="38.6" cy="408.78" r="2.01" fill="#ffc248"/><circle cx="38.6" cy="424.3" r="2.01" fill="#ffc248"/><circle cx="3.54" cy="43.05" r="2" fill="#353535"/><circle cx="19.07" cy="43.05" r="2" fill="#353535"/><circle cx="34.59" cy="43.05" r="2.01" fill="#353535"/><circle cx="360.25" cy="387.06" r="2" fill="#353535"/><circle cx="375.77" cy="387.06" r="2" fill="#353535"/><circle cx="391.3" cy="387.06" r="2" fill="#353535"/><circle cx="366.01" cy="15.54" r="2" fill="#353535"/><circle cx="381.53" cy="15.54" r="2.01" fill="#353535"/><circle cx="397.06" cy="15.54" r="2" fill="#353535"/><circle cx="9.3" cy="305.06" r="2" fill="#353535"/><circle cx="13.31" cy="484.49" r="2" fill="#353535"/><circle cx="28.84" cy="484.49" r="2" fill="#353535"/><circle cx="155.62" cy="468.97" r="2" fill="#353535"/><circle cx="171.14" cy="468.97" r="2" fill="#353535"/><circle cx="186.67" cy="468.97" r="2" fill="#353535"/><circle cx="202.19" cy="468.97" r="2.01" fill="#353535"/><circle cx="368.01" cy="147.83" r="2" fill="#ffc248"/><circle cx="368.01" cy="163.36" r="2" fill="#ffc248"/><circle cx="368.01" cy="178.88" r="2" fill="#ffc248"/><circle cx="368.01" cy="194.41" r="2" fill="#ffc248"/><line x1="270.11" y1="19.76" x2="283.94" y2="19.76" fill="none" stroke="#353535" stroke-miterlimit="10" stroke-width="0.5"/><line x1="277.03" y1="26.68" x2="277.03" y2="12.85" fill="none" stroke="#353535" stroke-miterlimit="10" stroke-width="0.5"/><line x1="136.44" y1="464.96" x2="150.28" y2="464.96" fill="none" stroke="#353535" stroke-miterlimit="10" stroke-width="0.5"/><line x1="143.36" y1="471.87" x2="143.36" y2="458.04" fill="none" stroke="#353535" stroke-miterlimit="10" stroke-width="0.5"/><line x1="279.69" y1="443.06" x2="293.53" y2="443.06" fill="none" stroke="#353535" stroke-miterlimit="10" stroke-width="0.5"/><line x1="286.61" y1="449.97" x2="286.61" y2="436.14" fill="none" stroke="#353535" stroke-miterlimit="10" stroke-width="0.5"/><line x1="136.44" y1="35.29" x2="150.28" y2="35.29" fill="none" stroke="#353535" stroke-miterlimit="10" stroke-width="0.5"/><line x1="143.36" y1="42.2" x2="143.36" y2="28.37" fill="none" stroke="#353535" stroke-miterlimit="10" stroke-width="0.5"/><line x1="334.61" y1="289.56" x2="348.44" y2="289.56" fill="none" stroke="#353535" stroke-miterlimit="10" stroke-width="0.5"/><line x1="341.53" y1="296.47" x2="341.53" y2="282.64" fill="none" stroke="#353535" stroke-miterlimit="10" stroke-width="0.5"/><line x1="27.68" y1="180.89" x2="41.51" y2="180.89" fill="none" stroke="#353535" stroke-miterlimit="10" stroke-width="0.5"/><line x1="34.59" y1="187.81" x2="34.59" y2="173.97" fill="none" stroke="#353535" stroke-miterlimit="10" stroke-width="0.5"/><polygon points="27.21 265.54 22.01 274.54 32.4 274.54 27.21 265.54" fill="#353535"/><polygon points="394.17 308.54 388.97 317.54 399.36 317.54 394.17 308.54" fill="#353535"/><polygon points="-6 82.06 3 87.25 3 76.86 -6 82.06" fill="#353535"/><polygon points="340.61 459.54 331.61 454.35 331.61 464.74 340.61 459.54" fill="#353535"/><polygon points="302.36 63.58 311.36 68.78 311.36 58.39 302.36 63.58" fill="#353535"/><polygon points="222.78 2.98 231.78 8.18 231.78 -2.22 222.78 2.98" fill="#353535"/><polygon points="184.66 504.5 189.86 495.5 179.47 495.5 184.66 504.5" fill="#353535"/><polygon points="81.83 498.5 72.83 493.3 72.83 503.7 81.83 498.5" fill="#353535"/></g></svg>