<svg aria-hidden="true" style="position: absolute; width: 0; height: 0; overflow: hidden;" version="1.1"
     xmlns="http://www.w3.org/2000/svg" xmlns:xlink="http://www.w3.org/1999/xlink">
  <defs>

    <svg id="ic-arrow" width="218" height="48" viewBox="0 0 218 48" fill="none" xmlns="http://www.w3.org/2000/svg">
      <path
        d="M3.81075 29.4083C3.81075 29.4083 47.369 8.04557 106.983 9.30909C166.597 10.5726 207.24 32.2743 207.24 32.2743"
        stroke-width="5" stroke-linecap="round"/>
      <path d="M203.846 16.4301L213.412 35.4195L191.523 38.1048" stroke-width="5" stroke-linecap="round"/>
    </svg>

    <svg id="ic-check" xmlns="http://www.w3.org/2000/svg" viewBox="0 0 168.89 168.89"><title>Ресурс 1</title>
      <g id="Слой_2" data-name="Слой 2">
        <g id="Слой_1-2" data-name="Слой 1">
          <circle id="baf12095-0797-4180-a98d-6422936d747a" cx="84.45" cy="84.45" r="84.45"/>
          <path id="b582f34e-fd02-4670-b1d8-d23f069ed737-426"
                d="M76.08,116.66a8.76,8.76,0,0,1-5.27-1.75l-.09-.07L50.87,99.66a8.82,8.82,0,0,1,10.73-14h0l12.85,9.86,30.38-39.63a8.82,8.82,0,0,1,12.36-1.63h0l-.19.26.19-.26a8.83,8.83,0,0,1,1.63,12.36L83.1,113.21a8.82,8.82,0,0,1-7,3.44Z"
                fill="#fff"/>
        </g>
      </g>
    </svg>

    <svg id="ic-lv" xmlns="http://www.w3.org/2000/svg" xmlns:xlink="http://www.w3.org/1999/xlink" version="1.1" x="0px"
         y="0px" viewBox="0 0 512.001 512.001" style="enable-background:new 0 0 512.001 512.001;" xml:space="preserve">
      <path style="fill:#C8414B;"
            d="M503.172,423.725H8.828c-4.875,0-8.828-3.953-8.828-8.828V97.104c0-4.875,3.953-8.828,8.828-8.828  h494.345c4.875,0,8.828,3.953,8.828,8.828v317.793C512,419.773,508.047,423.725,503.172,423.725z"/>
      <rect y="225.101" style="fill:#F5F5F5;" width="512" height="61.793"/>
    </svg>

    <svg id="ic-ru" xmlns="http://www.w3.org/2000/svg" xmlns:xlink="http://www.w3.org/1999/xlink" version="1.1" x="0px"
         y="0px" viewBox="0 0 512.001 512.001" style="enable-background:new 0 0 512.001 512.001;" xml:space="preserve">
      <path style="fill:#F5F5F5;"
            d="M512,200.093H0V97.104c0-4.875,3.953-8.828,8.828-8.828h494.345c4.875,0,8.828,3.953,8.828,8.828  L512,200.093L512,200.093z"/>
      <path style="fill:#FF4B55;"
            d="M503.172,423.725H8.828c-4.875,0-8.828-3.953-8.828-8.828V311.909h512v102.988  C512,419.773,508.047,423.725,503.172,423.725z"/>
      <rect y="200.091" style="fill:#41479B;" width="512" height="111.81"/>
    </svg>

    <svg id="ic-vk" xmlns="http://www.w3.org/2000/svg" viewBox="0 0 3333 1980" shape-rendering="geometricPrecision" text-rendering="geometricPrecision" image-rendering="optimizeQuality" fill-rule="evenodd" clip-rule="evenodd"><path d="M3257 134c23-77 0-134-110-134h-365c-93 0-135 49-159 103 0 0-185 452-448 746-85 85-124 112-170 112-23 0-58-27-58-104V135c0-93-26-134-103-134h-573c-58 0-93 43-93 84 0 88 131 108 145 355v537c0 118-21 139-68 139-124 0-424-454-603-974C617 41 582 0 489 0H124C20 0-1 49-1 103c0 97 124 576 576 1209 301 433 726 667 1112 667 232 0 260-52 260-142v-327c0-104 22-125 95-125 54 0 147 27 363 236 247 247 288 358 427 358h365c104 0 156-52 126-155-33-102-151-251-308-427-85-100-212-209-251-263-54-70-39-100 0-162 0 0 444-626 491-838z"/></svg>

    <svg id="ic-wp" xmlns="http://www.w3.org/2000/svg"  viewBox="0 0 30 30">    <path d="M 15 3 C 8.373 3 3 8.373 3 15 C 3 17.251208 3.6323415 19.350068 4.7109375 21.150391 L 3.1074219 27 L 9.0820312 25.431641 C 10.829354 26.425062 12.84649 27 15 27 C 21.627 27 27 21.627 27 15 C 27 8.373 21.627 3 15 3 z M 10.892578 9.4023438 C 11.087578 9.4023438 11.287937 9.4011562 11.460938 9.4101562 C 11.674938 9.4151563 11.907859 9.4308281 12.130859 9.9238281 C 12.395859 10.509828 12.972875 11.979906 13.046875 12.128906 C 13.120875 12.277906 13.173313 12.453437 13.070312 12.648438 C 12.972312 12.848437 12.921344 12.969484 12.777344 13.146484 C 12.628344 13.318484 12.465078 13.532109 12.330078 13.662109 C 12.181078 13.811109 12.027219 13.974484 12.199219 14.271484 C 12.371219 14.568484 12.968563 15.542125 13.851562 16.328125 C 14.986562 17.342125 15.944188 17.653734 16.242188 17.802734 C 16.540187 17.951734 16.712766 17.928516 16.884766 17.728516 C 17.061766 17.533516 17.628125 16.864406 17.828125 16.566406 C 18.023125 16.268406 18.222188 16.319969 18.492188 16.417969 C 18.766188 16.515969 20.227391 17.235766 20.525391 17.384766 C 20.823391 17.533766 21.01875 17.607516 21.09375 17.728516 C 21.17075 17.853516 21.170828 18.448578 20.923828 19.142578 C 20.676828 19.835578 19.463922 20.505734 18.919922 20.552734 C 18.370922 20.603734 17.858562 20.7995 15.351562 19.8125 C 12.327563 18.6215 10.420484 15.524219 10.271484 15.324219 C 10.122484 15.129219 9.0605469 13.713906 9.0605469 12.253906 C 9.0605469 10.788906 9.8286563 10.071437 10.097656 9.7734375 C 10.371656 9.4754375 10.692578 9.4023438 10.892578 9.4023438 z"/></svg>

    <svg id="ic-tt" xmlns="http://www.w3.org/2000/svg" viewBox="0 0 2859 3333" shape-rendering="geometricPrecision" text-rendering="geometricPrecision" image-rendering="optimizeQuality" fill-rule="evenodd" clip-rule="evenodd"><path d="M2081 0c55 473 319 755 778 785v532c-266 26-499-61-770-225v995c0 1264-1378 1659-1932 753-356-583-138-1606 1004-1647v561c-87 14-180 36-265 65-254 86-398 247-358 531 77 544 1075 705 992-358V1h551z"/></svg>

    <svg id="ic-fb" xmlns="http://www.w3.org/2000/svg" width="64" height="64" shape-rendering="geometricPrecision" text-rendering="geometricPrecision" image-rendering="optimizeQuality" fill-rule="evenodd" clip-rule="evenodd" viewBox="0 0 640 640"><path d="M380.001 120.001h99.993V0h-99.993c-77.186 0-139.986 62.8-139.986 139.986v60h-80.009V320h79.985v320h120.013V320h99.994l19.996-120.013h-119.99v-60.001c0-10.843 9.154-19.996 19.996-19.996v.012z"/></svg>

    <svg id="ic-ig" xmlns="http://www.w3.org/2000/svg"  viewBox="0 0 30 30" width="512px" height="512px">    <path d="M 9.9980469 3 C 6.1390469 3 3 6.1419531 3 10.001953 L 3 20.001953 C 3 23.860953 6.1419531 27 10.001953 27 L 20.001953 27 C 23.860953 27 27 23.858047 27 19.998047 L 27 9.9980469 C 27 6.1390469 23.858047 3 19.998047 3 L 9.9980469 3 z M 22 7 C 22.552 7 23 7.448 23 8 C 23 8.552 22.552 9 22 9 C 21.448 9 21 8.552 21 8 C 21 7.448 21.448 7 22 7 z M 15 9 C 18.309 9 21 11.691 21 15 C 21 18.309 18.309 21 15 21 C 11.691 21 9 18.309 9 15 C 9 11.691 11.691 9 15 9 z M 15 11 A 4 4 0 0 0 11 15 A 4 4 0 0 0 15 19 A 4 4 0 0 0 19 15 A 4 4 0 0 0 15 11 z"/></svg>

    <svg id="ic-vk-coloured" xmlns="http://www.w3.org/2000/svg"  viewBox="0 0 48 48" width="48px" height="48px">
      <circle cx="24" cy="24" r="24" fill="#1976d2"></circle>
      <path fill="#fff" d="M35.937,18.041c0.046-0.151,0.068-0.291,0.062-0.416C35.984,17.263,35.735,17,35.149,17h-2.618 c-0.661,0-0.966,0.4-1.144,0.801c0,0-1.632,3.359-3.513,5.574c-0.61,0.641-0.92,0.625-1.25,0.625C26.447,24,26,23.786,26,23.199 v-5.185C26,17.32,25.827,17,25.268,17h-4.649C20.212,17,20,17.32,20,17.641c0,0.667,0.898,0.827,1,2.696v3.623 C21,24.84,20.847,25,20.517,25c-0.89,0-2.642-3-3.815-6.932C16.448,17.294,16.194,17,15.533,17h-2.643 C12.127,17,12,17.374,12,17.774c0,0.721,0.6,4.619,3.875,9.101C18.25,30.125,21.379,32,24.149,32c1.678,0,1.85-0.427,1.85-1.094 v-2.972C26,27.133,26.183,27,26.717,27c0.381,0,1.158,0.25,2.658,2c1.73,2.018,2.044,3,3.036,3h2.618 c0.608,0,0.957-0.255,0.971-0.75c0.003-0.126-0.015-0.267-0.056-0.424c-0.194-0.576-1.084-1.984-2.194-3.326 c-0.615-0.743-1.222-1.479-1.501-1.879C32.062,25.36,31.991,25.176,32,25c0.009-0.185,0.105-0.361,0.249-0.607 C32.223,24.393,35.607,19.642,35.937,18.041z"/>
    </svg>

    <svg id="ic-wp-coloured" xmlns="http://www.w3.org/2000/svg" xmlns:xlink="http://www.w3.org/1999/xlink" viewBox="0 0 48 48" width="48px" height="48px">
      <g id="surface11002504">
        <path style=" stroke:none;fill-rule:nonzero;fill:rgb(14.509805%,82.745099%,40.000001%);fill-opacity:1;" d="M 24 48 C 10.746094 48 0 37.253906 0 24 C 0 10.746094 10.746094 0 24 0 C 37.253906 0 48 10.746094 48 24 C 48 37.253906 37.253906 48 24 48 Z M 24 48 "/>
        <path style=" stroke:none;fill-rule:nonzero;fill:rgb(100%,100%,100%);fill-opacity:1;" d="M 24.019531 8 C 15.207031 8 8.039062 15.164062 8.035156 23.976562 C 8.03125 26.789062 8.769531 29.539062 10.167969 31.960938 L 8 40 L 16.371094 38.023438 C 18.707031 39.296875 21.332031 39.964844 24.007812 39.964844 L 24.015625 39.964844 C 32.824219 39.964844 39.992188 32.796875 39.996094 23.992188 C 40 19.71875 38.339844 15.707031 35.320312 12.683594 C 32.304688 9.664062 28.292969 8 24.019531 8 Z M 24.015625 11.199219 C 27.433594 11.203125 30.644531 12.535156 33.058594 14.945312 C 35.472656 17.363281 36.800781 20.574219 36.796875 23.988281 C 36.792969 31.035156 31.0625 36.765625 24.011719 36.765625 C 21.878906 36.765625 19.765625 36.226562 17.90625 35.210938 L 16.828125 34.625 L 15.636719 34.90625 L 12.488281 35.648438 L 13.253906 32.792969 L 13.601562 31.511719 L 12.941406 30.363281 C 11.824219 28.429688 11.230469 26.21875 11.234375 23.976562 C 11.238281 16.933594 16.96875 11.199219 24.015625 11.199219 Z M 18.363281 16.601562 C 18.09375 16.601562 17.664062 16.699219 17.296875 17.101562 C 16.929688 17.5 15.894531 18.464844 15.894531 20.429688 C 15.894531 22.394531 17.328125 24.292969 17.527344 24.558594 C 17.726562 24.824219 20.289062 28.984375 24.347656 30.585938 C 27.722656 31.914062 28.40625 31.652344 29.140625 31.585938 C 29.871094 31.519531 31.503906 30.621094 31.835938 29.6875 C 32.167969 28.753906 32.171875 27.953125 32.070312 27.789062 C 31.972656 27.621094 31.707031 27.523438 31.304688 27.320312 C 30.90625 27.121094 28.945312 26.15625 28.578125 26.023438 C 28.210938 25.890625 27.941406 25.824219 27.675781 26.226562 C 27.414062 26.625 26.648438 27.523438 26.414062 27.789062 C 26.179688 28.054688 25.949219 28.089844 25.550781 27.890625 C 25.148438 27.6875 23.863281 27.265625 22.335938 25.90625 C 21.148438 24.847656 20.347656 23.542969 20.113281 23.144531 C 19.882812 22.746094 20.09375 22.527344 20.292969 22.328125 C 20.472656 22.148438 20.691406 21.863281 20.890625 21.628906 C 21.089844 21.394531 21.15625 21.226562 21.289062 20.960938 C 21.421875 20.695312 21.355469 20.460938 21.253906 20.261719 C 21.15625 20.0625 20.378906 18.089844 20.023438 17.300781 C 19.726562 16.636719 19.410156 16.621094 19.125 16.609375 C 18.894531 16.601562 18.628906 16.601562 18.363281 16.601562 Z M 18.363281 16.601562 "/>
      </g>
    </svg>

    <svg id="ic-tt-coloured" xmlns="http://www.w3.org/2000/svg" xmlns:xlink="http://www.w3.org/1999/xlink" width="48" height="48" viewBox="0 0 48 48" role="img" aria-labelledby="a708eb22-eb45-48de-a829-f4d7cd39f0df"><title id="a708eb22-eb45-48de-a829-f4d7cd39f0df">TikTok</title><defs><circle id="tiktok-circle" cx="24" cy="24" r="24"></circle><mask id="tiktok-mask" fill="#fff"><use fill-rule="evenodd" xlink:href="#tiktok-circle"></use></mask><circle id="tiktok-circle" cx="24" cy="24" r="24"></circle><circle id="tiktok-circle" cx="24" cy="24" r="24"></circle></defs><g fill="none" fill-rule="evenodd"><use fill="#000" xlink:href="#tiktok-circle"></use><g fill-rule="nonzero" mask="url(#tiktok-mask)" fill="none"><path fill="#EE1D52" d="M19.732 5.83c.404.093.748.118.97.093V9.25s-1.176-.049-2.05-.28c-1.216-.326-1.997-.826-1.997-.826s-.541-.358-.582-.382v6.871c0 .382-.1 1.338-.404 2.135-.396 1.04-1.01 1.728-1.124 1.866 0 0-.748.927-2.061 1.549-1.185.56-2.228.549-2.54.56l-.026.002c-.23.003-1.888-.007-3.393-1.03a6.793 6.793 0 01-.749-.602l-.221-.215c1.62 1.106 3.42 1.029 3.42 1.029.311-.013 1.354 0 2.538-.561 1.314-.622 2.062-1.55 2.062-1.55.113-.138.728-.825 1.124-1.866a6.988 6.988 0 00.404-2.134V6.948c.045.024.582.382.582.382s.78.5 1.997.825c.873.232 2.05.28 2.05.28zm-9.94 2.582c.323-.009.646.012.965.06v3.395s-1.33-.443-2.397.342c-.744.581-1.14 1.146-1.257 2.159-.004.549.093 1.268.546 1.886a4.536 4.536 0 01-.344-.207c-.99-.7-1.172-1.752-1.168-2.496.117-1.013.513-1.578 1.257-2.16 1.067-.784 2.397-.34 2.397-.34zm6.277-7.172s-.182 1.569 1.156 3.11l.02.02a5.137 5.137 0 01-.986-.837c-.731-.842-1.01-1.696-1.111-2.293z" transform="translate(12 9)"></path><path fill="#FFFFFF" d="M19.732 5.826v2.606s-1.177-.049-2.05-.28c-1.217-.326-1.997-.826-1.997-.826s-.541-.358-.582-.382v6.87c0 .383-.1 1.339-.404 2.135-.396 1.041-1.01 1.728-1.124 1.867 0 0-.748.927-2.062 1.549-1.184.56-2.227.548-2.538.56 0 0-1.8.074-3.42-1.028l-.008-.008a6.855 6.855 0 01-.481-.549c-.518-.663-.833-1.443-.914-1.667v-.004c-.13-.386-.396-1.321-.36-2.22.065-1.59.599-2.57.74-2.813A6.63 6.63 0 015.967 9.87a6.015 6.015 0 011.706-1.016 5.668 5.668 0 012.118-.448v2.64s-1.33-.444-2.397.34c-.744.582-1.14 1.147-1.257 2.16-.004.744.178 1.797 1.172 2.5.117.077.23.146.344.207.174.236.384.444.626.614.975.647 1.787.691 2.83.273.695-.28 1.217-.911 1.46-1.614.153-.44.15-.879.15-1.334V1.24h2.425a4.65 4.65 0 001.111 2.293c.295.317.627.601.987.837.105.118.65.687 1.354 1.041.36.183.744.321 1.136.415z" transform="translate(12 9)"></path><path fill="#69C9D0" d="M9.795 7.655v.757a5.672 5.672 0 00-2.122.447 5.96 5.96 0 00-1.706 1.016 6.572 6.572 0 00-1.435 1.769c-.141.244-.675 1.22-.74 2.813-.036.903.235 1.834.36 2.22v.004c.08.22.396 1.004.914 1.667.15.191.31.374.48.55a6.825 6.825 0 01-1.45-1.367 6.526 6.526 0 01-.91-1.659v-.008c-.13-.386-.4-1.321-.36-2.224.065-1.59.598-2.57.74-2.813A6.572 6.572 0 015 9.058a6.015 6.015 0 011.706-1.016c.388-.163.792-.281 1.205-.358a5.975 5.975 0 011.883-.029zM15.103.422c-.004 0-.04.322.045.818h-2.426v12.953c0 .455 0 .894-.15 1.334-.246.699-.768 1.333-1.459 1.614-1.043.423-1.86.374-2.83-.273a2.633 2.633 0 01-.626-.61c.829.444 1.568.435 2.486.065.695-.28 1.217-.914 1.46-1.614.127-.366.146-.731.149-1.107V.422zm2.139 3.948c.125.082.25.155.384.224.857.427 1.693.557 2.106.512v.72a5.143 5.143 0 01-1.136-.415c-.7-.35-1.245-.923-1.354-1.04z" transform="translate(12 9)"></path><path fill="#69C9D0" d="M14.808 3.025a.89.89 0 00.04.272c0 .008.004.013.004.02.134.432.53.724.978.724v1.041c-.505 0-.865.016-1.414-.309a2.043 2.043 0 01-.975-1.76c0-.728.392-1.46 1.063-1.814.486-.256.853-.256 1.33-.256v1.041c-.565 0-1.022.46-1.022 1.029z" transform="translate(12 9) translate(.42 22.78)"></path><path fill="#EE1D52" d="M16.861 3.025a.89.89 0 01-.04.272c0 .008-.004.013-.004.02-.134.432-.53.724-.978.724v1.041c.5 0 .865.016 1.41-.309a2.038 2.038 0 00.979-1.76c0-.728-.392-1.46-1.064-1.814-.485-.256-.853-.256-1.33-.256v1.041c.566 0 1.023.46 1.023 1.029v.012z" transform="translate(12 9) translate(.42 22.78)"></path><path fill="#FFFFFF" d="M0 0h3.788l-.352 1.049h-.99v4.013H1.229V1.049H0zm10.042 0v1.049h1.228v4.013h1.221V1.049h.99L13.834 0zm-5.43 1.191a.59.59 0 00.59-.593.59.59 0 10-1.18 0c0 .329.263.593.59.593zm-.59 3.867H5.22V1.61H4.022zM9.52 1.163H8.121L6.917 2.374V0H5.728l-.004 5.054h1.2V3.736l.373-.341L8.46 5.054h1.281L8.057 2.63zm11.473 1.472l1.463-1.472h-1.399l-1.204 1.211V0h-1.189l-.008 5.058h1.2V3.74l.377-.341 1.164 1.659h1.281zm-3.077.374c0 1.142-.933 2.07-2.086 2.07s-2.085-.928-2.085-2.07c0-1.143.933-2.07 2.085-2.07s2.086.927 2.086 2.07zm-1.063 0c0-.57-.457-1.029-1.023-1.029s-1.022.46-1.022 1.029.456 1.028 1.022 1.028 1.023-.46 1.023-1.028z" transform="translate(12 9) translate(.42 22.78)"></path></g></g></svg>

    <svg id="ic-ig-coloured" xmlns:xlink="http://www.w3.org/1999/xlink" width="48" height="48" viewBox="0 0 48 48" version="1.1" xmlns="http://www.w3.org/2000/svg" role="img" aria-labelledby="e11f7363-b6ea-45ab-ad1c-599205daf2bd"><title id="e11f7363-b6ea-45ab-ad1c-599205daf2bd">Instagram</title><defs><polygon id="dark-instagram-path-1" points="0 0.00883333333 27.9911667 0.00883333333 27.9911667 27.9966667 0 27.9966667"></polygon><polygon id="dark-instagram-path-1" points="0 0.00883333333 27.9911667 0.00883333333 27.9911667 27.9966667 0 27.9966667"></polygon></defs><g stroke="none" stroke-width="1" fill="none" fill-rule="evenodd"><g fill="none"><g fill="#FF0375" fill-rule="nonzero"><path d="M24,0 C10.7471924,0 0,10.7471924 0,24 C0,37.2528076 10.7471924,48 24,48 C37.2528076,48 48,37.2528076 48,24 C48,10.7471924 37.2528076,0 24,0 Z" fill="#FF0375"></path></g><g transform="translate(10.000000, 10.000000)" fill="none"><g fill="none"><mask id="dark-instagram-mask" fill="#FFFFFF"><use xlink:href="#dark-instagram-path-1" fill="#FFFFFF"></use></mask><g fill="none"></g><path d="M13.9956111,0.00883333333 C10.1946111,0.00883333333 9.718,0.0249444444 8.22522222,0.0930555556 C6.73555556,0.161 5.71816667,0.397611111 4.82794444,0.743611111 C3.90761111,1.10122222 3.12711111,1.57977778 2.349,2.35783333 C1.57094444,3.13594444 1.09238889,3.91644444 0.734777778,4.83677778 C0.388777778,5.727 0.152166667,6.74438889 0.0842222222,8.23405556 C0.0161111111,9.72683333 0,10.2034444 0,14.0044444 C0,17.8053889 0.0161111111,18.282 0.0842222222,19.7747778 C0.152166667,21.2644444 0.388777778,22.2818333 0.734777778,23.1720556 C1.09238889,24.0923889 1.57094444,24.8728889 2.349,25.651 C3.12711111,26.4290556 3.90761111,26.9076111 4.82794444,27.2652778 C5.71816667,27.6112222 6.73555556,27.8478333 8.22522222,27.9157778 C9.718,27.9838889 10.1946111,28 13.9956111,28 C17.7965556,28 18.2731667,27.9838889 19.7659444,27.9157778 C21.2556111,27.8478333 22.273,27.6112222 23.1632222,27.2652778 C24.0835556,26.9076111 24.8640556,26.4290556 25.6421667,25.651 C26.4202222,24.8728889 26.8987778,24.0923889 27.2564444,23.1720556 C27.6023889,22.2818333 27.839,21.2644444 27.9069444,19.7747778 C27.9750556,18.282 27.9911667,17.8053889 27.9911667,14.0044444 C27.9911667,10.2034444 27.9750556,9.72683333 27.9069444,8.23405556 C27.839,6.74438889 27.6023889,5.727 27.2564444,4.83677778 C26.8987778,3.91644444 26.4202222,3.13594444 25.6421667,2.35783333 C24.8640556,1.57977778 24.0835556,1.10122222 23.1632222,0.743611111 C22.273,0.397611111 21.2556111,0.161 19.7659444,0.0930555556 C18.2731667,0.0249444444 17.7965556,0.00883333333 13.9956111,0.00883333333 Z M13.9956111,2.53055556 C17.7325556,2.53055556 18.1752222,2.54483333 19.651,2.61216667 C21.0155556,2.67438889 21.7566111,2.90238889 22.2497778,3.09405556 C22.9030556,3.34794444 23.3692778,3.65122222 23.859,4.141 C24.3487778,4.63072222 24.6520556,5.09694444 24.9059444,5.75022222 C25.0976111,6.24338889 25.3256111,6.98444444 25.3878333,8.349 C25.4551667,9.82477778 25.4694444,10.2674444 25.4694444,14.0044444 C25.4694444,17.7413889 25.4551667,18.1840556 25.3878333,19.6598333 C25.3256111,21.0243889 25.0976111,21.7654444 24.9059444,22.2586111 C24.6520556,22.9118889 24.3487778,23.3781111 23.859,23.8678333 C23.3692778,24.3576111 22.9030556,24.6608889 22.2497778,24.9147778 C21.7566111,25.1064444 21.0155556,25.3344444 19.651,25.3966667 C18.1754444,25.464 17.7328333,25.4782778 13.9956111,25.4782778 C10.2583333,25.4782778 9.81577778,25.464 8.34016667,25.3966667 C6.97561111,25.3344444 6.23455556,25.1064444 5.74138889,24.9147778 C5.08811111,24.6608889 4.62188889,24.3576111 4.13216667,23.8678333 C3.64244444,23.3781111 3.33911111,22.9118889 3.08522222,22.2586111 C2.89355556,21.7654444 2.66555556,21.0243889 2.60333333,19.6598333 C2.536,18.1840556 2.52172222,17.7413889 2.52172222,14.0044444 C2.52172222,10.2674444 2.536,9.82477778 2.60333333,8.349 C2.66555556,6.98444444 2.89355556,6.24338889 3.08522222,5.75022222 C3.33911111,5.09694444 3.64238889,4.63072222 4.13216667,4.141 C4.62188889,3.65122222 5.08811111,3.34794444 5.74138889,3.09405556 C6.23455556,2.90238889 6.97561111,2.67438889 8.34016667,2.61216667 C9.81594444,2.54483333 10.2586111,2.53055556 13.9956111,2.53055556 L13.9956111,2.53055556 Z" fill="#FFFFFF" mask="url(#dark-instagram-mask)"></path></g><path d="M14.0000289,18.8467867 C11.3231811,18.8467867 9.15321334,16.6768189 9.15321334,14.0000289 C9.15321334,11.3231811 11.3231811,9.15321334 14.0000289,9.15321334 C16.6768189,9.15321334 18.8467867,11.3231811 18.8467867,14.0000289 C18.8467867,16.6768189 16.6768189,18.8467867 14.0000289,18.8467867 Z M14.0000289,6.53333333 C9.87624735,6.53333333 6.53333333,9.87624735 6.53333333,14.0000289 C6.53333333,18.1237527 9.87624735,21.4666667 14.0000289,21.4666667 C18.1237527,21.4666667 21.4666667,18.1237527 21.4666667,14.0000289 C21.4666667,9.87624735 18.1237527,6.53333333 14.0000289,6.53333333 L14.0000289,6.53333333 Z" fill="#FFFFFF"></path><path d="M23.3333333,6.53336421 C23.3333333,7.56430536 22.497577,8.4 21.4666358,8.4 C20.4357564,8.4 19.6,7.56430536 19.6,6.53336421 C19.6,5.50242305 20.4357564,4.66666667 21.4666358,4.66666667 C22.497577,4.66666667 23.3333333,5.50242305 23.3333333,6.53336421" fill="#FFFFFF"></path></g></g></g></svg>

    <svg id="ic-fb-coloured" xmlns:xlink="http://www.w3.org/1999/xlink" width="48" height="49" viewBox="0 0 48 49" version="1.1" xmlns="http://www.w3.org/2000/svg" role="img" aria-labelledby="095d902c-93ef-4b46-9726-7ea6cae6f819"><title id="095d902c-93ef-4b46-9726-7ea6cae6f819">Facebook</title><g stroke="none" stroke-width="1" fill="none" fill-rule="evenodd"><g fill="none"><circle fill="#FFFFFF" cx="24" cy="24" r="24"></circle><path d="M48,24 C48,10.7471924 37.2528076,0 24,0 C10.7471924,0 0,10.7471924 0,24 C0,37.2528076 10.7471924,48 24,48 C24.1409912,48 24.28125,47.9970703 24.421875,47.9945068 L24.421875,29.3115234 L19.265625,29.3115234 L19.265625,23.3023682 L24.421875,23.3023682 L24.421875,18.8803711 C24.421875,13.7519531 27.5526123,10.9606933 32.1273193,10.9606933 C34.3179932,10.9606933 36.2010498,11.1240234 36.75,11.1968994 L36.75,16.5567627 L33.5954589,16.5567627 C31.1066895,16.5567627 30.6247558,17.739624 30.6247558,19.4750977 L30.6247558,23.3023682 L36.5756836,23.3023682 L35.8000489,29.3115234 L30.6247558,29.3115234 L30.6247558,47.0727539 C40.6563721,44.1968994 48,34.9548339 48,24 Z" fill="#4367B2" fill-rule="nonzero"></path></g></g></svg>

    <svg id="ic-tg-coloured" xmlns="http://www.w3.org/2000/svg"  viewBox="0 0 48 48" width="48px" height="48px">
<!--      <path fill="#29b6f6" d="M24 4A20 20 0 1 0 24 44A20 20 0 1 0 24 4Z"/>-->
      <circle cx="24" cy="24" r="24" fill="#29b6f6"></circle>

      <path fill="#fff" d="M33.95,15l-3.746,19.126c0,0-0.161,0.874-1.245,0.874c-0.576,0-0.873-0.274-0.873-0.274l-8.114-6.733 l-3.97-2.001l-5.095-1.355c0,0-0.907-0.262-0.907-1.012c0-0.625,0.933-0.923,0.933-0.923l21.316-8.468 c-0.001-0.001,0.651-0.235,1.126-0.234C33.667,14,34,14.125,34,14.5C34,14.75,33.95,15,33.95,15z"/><path fill="#b0bec5" d="M23,30.505l-3.426,3.374c0,0-0.149,0.115-0.348,0.12c-0.069,0.002-0.143-0.009-0.219-0.043 l0.964-5.965L23,30.505z"/><path fill="#cfd8dc" d="M29.897,18.196c-0.169-0.22-0.481-0.26-0.701-0.093L16,26c0,0,2.106,5.892,2.427,6.912 c0.322,1.021,0.58,1.045,0.58,1.045l0.964-5.965l9.832-9.096C30.023,18.729,30.064,18.416,29.897,18.196z"/></svg>

    <svg id="ic-blob" viewBox="0 0 100 100" xmlns="http://www.w3.org/2000/svg" version="1.1">
      <path d="M20.7,-28.1C27.6,-23.5,34.4,-18.5,38.2,-11.3C41.9,-4.2,42.6,4.9,39.1,11.8C35.6,18.7,28,23.3,20.7,27.1C13.5,30.9,6.8,33.8,-0.3,34.3C-7.4,34.7,-14.8,32.6,-21.2,28.6C-27.7,24.6,-33.2,18.6,-36.3,11.2C-39.5,3.9,-40.4,-4.8,-38.8,-13.5C-37.2,-22.3,-33.2,-31.2,-26.3,-35.7C-19.4,-40.2,-9.7,-40.4,-1.4,-38.5C6.9,-36.6,13.8,-32.6,20.7,-28.1Z" width="100%" height="100%" transform="translate(50 50)" stroke-width="0" style="transition: all 0.3s ease 0s;" stroke="url(#sw-gradient)"></path>
    </svg>

    <svg id="ic-quote" xmlns:xlink="http://www.w3.org/1999/xlink" xmlns="http://www.w3.org/2000/svg" width="119" height="98" viewBox="0 0 119 98">
      <path d="M70.7079 7.94785C75.7386 2.91719 82.3863 0.401855 90.6509 0.401855C98.9156 0.401855 105.563 3.09685 110.594 8.48685C115.984 13.5175 118.679 21.6025 118.679 32.7419C118.679 43.5219 114.008 55.9189 104.665 69.9329C95.3223 83.9469 85.4406 93.1099 75.0199 97.4219C73.5826 98.1405 71.4266 97.4219 68.5519 95.2659C66.0366 92.7505 64.7789 90.5945 64.7789 88.7979C75.1996 81.9705 82.5659 71.0109 86.8779 55.9188C79.6913 55.2002 73.9419 52.3255 69.6299 47.2949C65.3179 41.9049 63.1619 35.2572 63.1619 27.3519C63.1619 19.4465 65.6773 12.9785 70.7079 7.94785ZM8.18394 7.94785C13.2146 2.91719 19.8623 0.401855 28.1269 0.401855C36.3916 0.401855 43.0393 3.09685 48.0699 8.48685C53.1006 13.5175 55.6159 21.6025 55.6159 32.7419C55.6159 43.5219 50.9446 55.9189 41.6019 69.9329C32.6186 83.9469 22.9166 93.1099 12.4959 97.4219C11.0586 98.1405 8.90261 97.4219 6.02794 95.2659C3.51261 92.7505 2.25494 90.5945 2.25494 88.7979C12.6756 81.9705 20.0419 71.0109 24.3539 55.9188C17.1673 55.2002 11.4179 52.3255 7.10594 47.2949C2.79394 41.9049 0.637939 35.2572 0.637939 27.3519C0.637939 19.4465 3.15327 12.9785 8.18394 7.94785Z"/>
    </svg>


    <!--  ILLUSTRATIONS  -->

    <svg id="ill-superhero" data-name="Слой 1" xmlns="http://www.w3.org/2000/svg" xmlns:xlink="http://www.w3.org/1999/xlink" viewBox="0 0 906.42 887"><defs><clipPath id="d4d1de66-5e28-4ccf-a5c9-8dde3a4f7a40"><path d="M266.77,289.63S317.34,304.8,388.15,282s217.47,32.87,217.47,32.87,116.32,0,288.28-73.33c0,0-78.39,75.86-22.76,121.38s5.06,111.26-60.69,136.55-70.8,75.86-65.75,123.91,0,2.53,0,2.53-197.24-35.4-247.82,86L246.54,317.45S231.37,287.11,266.77,289.63Z" fill="none"/></clipPath></defs><title>superhero</title><path d="M208.88,481h-.18l-8.49-11-13.74,13.74,1.52,2.28-1.73.42S214,540,218.61,519.72,208.88,481,208.88,481Z" fill="#fdb797"/><path id="0833b9fa-8645-4979-a0a7-152fb05be02e" data-name="83eae6ee-46c5-4585-a2a2-a187faac01c1-9" d="M266.77,289.63S317.34,304.8,388.15,282s217.47,32.87,217.47,32.87,116.32,0,288.28-73.33c0,0-78.39,75.86-22.76,121.38s5.06,111.26-60.69,136.55-70.8,75.86-65.75,123.91,0,2.53,0,2.53-197.24-35.4-247.82,86L246.54,317.45S231.37,287.11,266.77,289.63Z" fill="#6c63ff"/><g clip-path="url(#d4d1de66-5e28-4ccf-a5c9-8dde3a4f7a40)"><polygon points="141.46 215.18 771.11 667.82 809.04 556.56 141.46 215.18" opacity="0.1" style="isolation:isolate"/><polygon points="179.39 356.79 528.35 710.81 578.93 672.88 179.39 356.79" opacity="0.1" style="isolation:isolate"/></g><g opacity="0.1"><path d="M281.38,325.32s50.57,15.17,121.38-7.59,217.45,32.88,217.45,32.88,94.1,0,238.14-53.36c11.39-30.12,37.49-55.38,37.49-55.38-172,73.33-288.28,73.33-288.28,73.33s-146.67-55.63-217.47-32.87-121.38,7.59-121.38,7.59c-35.4-2.53-20.23,27.82-20.23,27.82l10.41,16.41C261.06,328.62,267.11,324.3,281.38,325.32Z"/><path d="M873.11,363.25a63.63,63.63,0,0,1-7.26-6.93c-.58,14.93,4.57,29.78,19.9,42.33a78.94,78.94,0,0,1,11.18,11.06C897.42,393.49,890.39,377.39,873.11,363.25Z"/></g><polygon points="358.58 831.77 353.92 855.08 335.27 855.08 339.94 822.45 358.58 831.77" fill="#fdb797"/><polygon points="358.2 834.99 356.89 838.93 338.5 833.68 339.81 831.05 358.2 834.99" opacity="0.1" style="isolation:isolate"/><polygon points="237.41 831.77 242.07 855.08 260.71 855.08 256.05 822.45 237.41 831.77" fill="#fdb797"/><polygon points="237.34 834.99 238.65 840.24 257.05 833.68 257.05 831.05 237.34 834.99" opacity="0.1" style="isolation:isolate"/><path d="M398,197.49s-.52-23.36-16.93-36.22S377,207.46,377,207.46Z" fill="#fdb797"/><path d="M260.71,850.42h-23.3l-4.66,14s-23.82-.52-23.3,4.66,13.46,14,46.6,4.66l9.32-9.32S270,859.74,260.71,850.42Z" fill="#333"/><path d="M335.27,850.42h23.3l4.66,14s23.82-.52,23.3,4.66-13.46,14-46.6,4.66l-9.32-9.32S325.95,859.74,335.27,850.42Z" fill="#333"/><path d="M363.21,533.51H232.75c-42.46,111.85-37.28,163.12-37.28,163.12l37.28,139.81,28-4.66L232.75,692c23.3-19.16,65.25-93.21,65.25-93.21s41.93,74,65.21,93.21l-28,139.81,28,4.66,37.28-139.81S405.7,645.36,363.21,533.51Z" fill="#333"/><path d="M232.75,535.32s74,28,130.49,0Z" opacity="0.1" style="isolation:isolate"/><path d="M228.63,366.19l-37.28,37.28,14,74.57-18.64,14-32.62-97.87s-9.84-18.12,4.66-28l55.93-55.93s24-16.08,40.5-7.84-26.87,63.2-26.87,63.2" fill="#3ad29f"/><path d="M228.08,365.73l4.66,167.78s74,28,130.49,0l-4.66-157.94-1.19-5.22.86-2.57,56-46.44c15.35-8.45,7.24-27.41,7.24-27.41l-23.4-100.47-19.87,12.18,7,75.54-39.88,33.08-1-.05v.25L242.1,309.81" fill="#3ad29f"/><rect x="279.61" y="286.76" width="37.28" height="41.94" rx="15.83" ry="15.83" fill="#fdb797"/><path d="M280.8,304.67a41.93,41.93,0,0,0,36-4,18.71,18.71,0,0,0-17.52-12.29h0A18.7,18.7,0,0,0,280.8,304.67Z" opacity="0.1" style="isolation:isolate"/><circle cx="293.59" cy="263.46" r="41.94" fill="#fdb797"/><path d="M264.46,240.33a21.6,21.6,0,0,1-7.8-.44,17.22,17.22,0,0,1-6.6-4.32c-5.48-5.26-9.56-12.28-10.09-19.86s3-15.61,9.57-19.37c9.2-5.24,20.93-1.1,29.8,4.68,7.63,5,16.74,11.41,24.94,7.44,2.69-1.3,4.77-3.59,7.22-5.3,9.47-6.65,23.57-3.37,31.3,5.24s9.9,21.07,8.57,32.57-5.73,22.37-9.77,33.21a16.11,16.11,0,0,1-3.13,5.83c-4.92,5.05-14.13,1.13-17.37-5.13-5.63-10.89,0-29.77-13.3-36.12C297.21,233.72,275.83,239.59,264.46,240.33Z" opacity="0.1" style="isolation:isolate"/><path d="M265.09,239.29a21.6,21.6,0,0,1-7.8-.44,17.22,17.22,0,0,1-6.6-4.32c-5.48-5.26-9.56-12.28-10.09-19.86s3-15.61,9.57-19.37c9.2-5.24,20.93-1.1,29.8,4.68,7.63,5,16.74,11.41,24.94,7.44,2.69-1.3,4.77-3.59,7.22-5.3,9.47-6.65,23.57-3.37,31.3,5.24s9.9,21.07,8.57,32.57-5.79,22.37-9.79,33.21a16.11,16.11,0,0,1-3.13,5.83c-4.92,5.05-14.13,1.13-17.37-5.13-5.63-10.89,0-29.77-13.3-36.12C297.87,232.68,276.45,238.56,265.09,239.29Z" fill="#333"/><ellipse cx="316.89" cy="263.46" rx="4.66" ry="9.32" fill="#fdb797"/><path d="M298.8,325v7.59S243.45,322.48,242,307.3l36.53,2.53Z" fill="#6c63ff"/><path d="M298.8,325v7.59s55.35-10.11,56.76-25.29L319,309.83Z" fill="#6c63ff"/><polygon points="637.09 407.36 819.16 450.35 753.41 478.17 637.09 407.36" opacity="0.1" style="isolation:isolate"/><path d="M242.21,307.67s0-15.89,10.6-15.89S274,323.57,274,323.57Z" fill="#6c63ff"/><path d="M411.18,154.52h0a5.62,5.62,0,0,1-5.46-2.81L382.88,112a5.67,5.67,0,0,1,2.09-7.73l88.36-50.79a5.66,5.66,0,0,1,7.73,2.09l22.83,39.72a5.62,5.62,0,0,1-.32,6.13,131.42,131.42,0,0,1-40.39,36.67A131.42,131.42,0,0,1,411.18,154.52Z" fill="#6c63ff"/><path d="M442.59,106.58l-86.12,10.17a5.66,5.66,0,0,1-5.07-9.19l53.85-66.32a5.64,5.64,0,0,1,3.5-2L494.1,25.54a5.66,5.66,0,0,1,5.4,9l-53.07,69.84a5.7,5.7,0,0,1-3.84,2.21Z" fill="#6c63ff"/><circle cx="496.12" cy="100.58" r="7.55" transform="translate(15.87 260.62) rotate(-29.89)" fill="#3f3d56"/><path d="M350.7,112.06a5,5,0,0,0,5.58,5l86.12-10.17a5,5,0,0,0,3.41-2l53.07-69.84a5,5,0,0,0-1.48-7.39,4.93,4.93,0,0,1-1,3l-53.07,69.84a5,5,0,0,1-3.41,2l-86.12,10.17A4.94,4.94,0,0,1,350.7,112.06Z" opacity="0.2" style="isolation:isolate"/><path d="M496,99.15l-21-36.5a2.53,2.53,0,0,0-3.47-.91L428,69.35a1.26,1.26,0,1,0,1.25,2.18l43.52-7.6,21,36.5A1.26,1.26,0,0,0,496,99.17Z" fill="#3f3d56"/></svg>

    <svg id="ill-experts" xmlns="http://www.w3.org/2000/svg" data-name="Layer 1" width="794.58865" height="499.42913" viewBox="0 0 794.58865 499.42913" xmlns:xlink="http://www.w3.org/1999/xlink"><path d="M516.25856,599.337h-310.357a3.19945,3.19945,0,0,1-3.19589-3.1959V293.59634a3.19945,3.19945,0,0,1,3.19589-3.1959h310.357a3.19939,3.19939,0,0,1,3.19589,3.1959V596.14113A3.19939,3.19939,0,0,1,516.25856,599.337Z" transform="translate(-202.70568 -200.28543)" fill="#f0f0f0"/><path d="M482.5241,318.09821H239.636a3.2007,3.2007,0,0,0-3.1959,3.19589V509.49685a3.20074,3.20074,0,0,0,3.1959,3.1959H482.5241a3.20074,3.20074,0,0,0,3.1959-3.1959V321.2941A3.2007,3.2007,0,0,0,482.5241,318.09821Z" transform="translate(-202.70568 -200.28543)" fill="#fff"/><path d="M468.67522,549.6231H253.48491a1.77759,1.77759,0,0,1-1.7755-1.7755v-9.94279a1.77759,1.77759,0,0,1,1.7755-1.7755H468.67522a1.77759,1.77759,0,0,1,1.7755,1.7755v9.94279A1.77759,1.77759,0,0,1,468.67522,549.6231Z" transform="translate(-202.70568 -200.28543)" fill="#fff"/><path d="M394.10432,573.76986H253.48491a1.77758,1.77758,0,0,1-1.7755-1.77549v-9.94279a1.77759,1.77759,0,0,1,1.7755-1.7755H394.10432a1.77759,1.77759,0,0,1,1.7755,1.7755v9.94279A1.77758,1.77758,0,0,1,394.10432,573.76986Z" transform="translate(-202.70568 -200.28543)" fill="#fff"/><circle cx="152.37388" cy="214.46016" r="30.88214" fill="#ffb8b8"/><polygon points="197.556 312.407 129.086 312.407 131.323 262.068 131.856 261.507 139.54 253.39 163.992 253.39 173.054 262.168 173.786 262.878 193.082 281.372 197.556 312.407" fill="#6c63ff"/><path d="M343.56644,512.69275H291.76457c-.12762-11.36319-.19871-18.16691-.19871-18.16691l2.99685-1.82521a.02235.02235,0,0,1,.01422-.00711h.00728l33.01-20.0418,6.93137-11.25668.03572.39771,2.03836,23.72777S339.96586,496.40078,343.56644,512.69275Z" transform="translate(-202.70568 -200.28543)" fill="#2f2e41"/><path d="M430.62981,512.69275h-54.87c.83088-33.13792-3.64324-51.29771-1.342-51.29771l1.342,1.05823,16.17125,12.76937,21.31325,7.8193h.01422l14.694,5.39038,2.57794.94458v1.21445C430.53756,493.50315,430.55178,501.4645,430.62981,512.69275Z" transform="translate(-202.70568 -200.28543)" fill="#2f2e41"/><path d="M325.86329,424.40756s2.62386-4.6079,2.01386-20.00134,22.83053-6.6871,42.41754-8.15555,15.44079,25.69973,15.44079,25.69973,1.41309-1.615,4.43848-14.72716-3.84387-26.179-3.84387-26.179c-2.0231-13.77843-12.92622-9.36244-12.92622-9.36244,5.25081,2.04409,4.24233,6.41481,4.24233,6.41481-4.44463-7.79263-15.34775-3.37663-15.34775-3.37663-14.54162-9.12521-29.27939,2.89155-29.27939,2.89155-17.567,3.98691-7.26462,17.95721-7.26462,17.95721C308.08782,404.49669,325.86329,424.40756,325.86329,424.40756Z" transform="translate(-202.70568 -200.28543)" fill="#2f2e41"/><path d="M298.68207,512.69275H277.39725a64.17769,64.17769,0,0,0,.01422-7.87613c-1.27128-5.06372,16.61165-11.91,17.15124-12.116a.02235.02235,0,0,1,.01422-.00711h.00728l3.40882,1.83232Z" transform="translate(-202.70568 -200.28543)" fill="#2f2e41"/><path d="M434.4721,512.69275H412.11487L409.324,485.137l3.13174-2.28686s.28436.06393.78857.19177h.01422c2.50685.61787,10.26217,2.66324,14.694,5.39038a9.10373,9.10373,0,0,1,2.57794,2.159,2.66156,2.66156,0,0,1,.61067,1.88912C431.02756,493.51026,432.33439,501.09518,434.4721,512.69275Z" transform="translate(-202.70568 -200.28543)" fill="#2f2e41"/><path d="M994.09843,509.222h-310.357a3.19945,3.19945,0,0,1-3.19589-3.1959V203.48133a3.19945,3.19945,0,0,1,3.19589-3.1959h310.357a3.19939,3.19939,0,0,1,3.19589,3.1959V506.02612A3.19939,3.19939,0,0,1,994.09843,509.222Z" transform="translate(-202.70568 -200.28543)" fill="#f0f0f0"/><path d="M960.36421,227.98381H717.47614a3.20073,3.20073,0,0,0-3.1959,3.19589V419.38245a3.20073,3.20073,0,0,0,3.1959,3.19589H960.36421a3.20073,3.20073,0,0,0,3.1959-3.19589V231.1797A3.20073,3.20073,0,0,0,960.36421,227.98381Z" transform="translate(-202.70568 -200.28543)" fill="#fff"/><path d="M946.51509,459.50809H731.32478a1.77759,1.77759,0,0,1-1.7755-1.7755V447.7898a1.77759,1.77759,0,0,1,1.7755-1.7755H946.51509a1.77759,1.77759,0,0,1,1.7755,1.7755v9.94279A1.77759,1.77759,0,0,1,946.51509,459.50809Z" transform="translate(-202.70568 -200.28543)" fill="#fff"/><path d="M871.94419,483.65485H731.32478a1.77758,1.77758,0,0,1-1.7755-1.77549v-9.94279a1.77759,1.77759,0,0,1,1.7755-1.7755H871.94419a1.77759,1.77759,0,0,1,1.7755,1.7755v9.94279A1.77758,1.77758,0,0,1,871.94419,483.65485Z" transform="translate(-202.70568 -200.28543)" fill="#fff"/><path d="M898.70472,422.57835c1.37068-4.93588,2.436-9.19,2.98283-12.20122a8.70167,8.70167,0,0,0,.04972-2.81239c-2.04538-14.552-38.98993-26.85262-43.727-28.37245l-1.14342-12.67-46.50383-5.0069-5.88755,16.20674L787.78583,383.979a7.95019,7.95019,0,0,0-1.71158.88065,8.2627,8.2627,0,0,0-3.40185,8.81357l7.10909,28.9051H898.70472Z" transform="translate(-202.70568 -200.28543)" fill="#6c63ff"/><path d="M802.30227,422.57834H766.217c1.29262-8.05367,2.45033-15.177,3.20318-19.708,2.75549-16.49084,14.772-17.897,16.654-18.01064.14929-.01421.24153-.01421.24864-.01421h7.592Z" transform="translate(-202.70568 -200.28543)" fill="#6c63ff"/><path d="M898.70472,422.57835h8.74965c-.77412-7.10909-3.23141-11.89583-5.7171-15.01361a17.93616,17.93616,0,0,0-6.25686-5.20576l-.66048-.28408-7.69146,20.50345Z" transform="translate(-202.70568 -200.28543)" fill="#6c63ff"/><circle id="e1a103b7-8d34-421f-afc4-5b4214dc85b9" data-name="Ellipse 109" cx="629.09235" cy="119.72704" r="33.48351" fill="#a0616a"/><path id="b2c74153-0538-46ec-992c-20d14033c946-795" data-name="Path 696" d="M809.32366,303.69955c3.46635,4.1021,9.33139,5.25905,14.74249,5.72953,10.98965.9641,26.9684-.5994,37.70795-3.07852.77129,7.42854-1.32221,15.43883,3.05209,21.55068a100.04907,100.04907,0,0,0,3.55451-22.68008c.13222-3.29006.08044-6.69363-1.2561-9.71375s-4.25305-5.58406-7.61032-5.61053a19.07377,19.07377,0,0,1,8.50832-3.636l-10.63155-5.34277,2.73037-2.80307-19.24786-1.17785,5.57525-3.54127a120.88934,120.88934,0,0,0-25.33556-.79658c-3.92251.28867-8.02351.84069-11.20122,3.11376s-5.01446,6.78946-3.04106,10.12582a14.7028,14.7028,0,0,0-11.20452,8.89066c-1.417,3.592-1.287,7.58171-.85058,11.40946a80.86726,80.86726,0,0,0,4.23987,17.9389" transform="translate(-202.70568 -200.28543)" fill="#2f2e41"/><path d="M761.08349,699.71457h-310.357a3.19945,3.19945,0,0,1-3.1959-3.1959V393.97388a3.19945,3.19945,0,0,1,3.1959-3.1959h310.357a3.1994,3.1994,0,0,1,3.1959,3.1959V696.51867A3.1994,3.1994,0,0,1,761.08349,699.71457Z" transform="translate(-202.70568 -200.28543)" fill="#e4e4e4"/><path d="M727.34927,418.47635H484.4612a3.20074,3.20074,0,0,0-3.1959,3.1959V609.875a3.20073,3.20073,0,0,0,3.1959,3.19589H727.34927a3.20073,3.20073,0,0,0,3.1959-3.19589V421.67225A3.20074,3.20074,0,0,0,727.34927,418.47635Z" transform="translate(-202.70568 -200.28543)" fill="#fff"/><path d="M713.50016,650.00063H498.30984a1.77758,1.77758,0,0,1-1.77549-1.77549v-9.94279a1.77758,1.77758,0,0,1,1.77549-1.7755H713.50016a1.77758,1.77758,0,0,1,1.77549,1.7755v9.94279A1.77758,1.77758,0,0,1,713.50016,650.00063Z" transform="translate(-202.70568 -200.28543)" fill="#fff"/><path d="M638.92926,674.1474H498.30984a1.77758,1.77758,0,0,1-1.77549-1.7755v-9.94278a1.77758,1.77758,0,0,1,1.77549-1.7755H638.92926a1.77758,1.77758,0,0,1,1.77549,1.7755v9.94278A1.77758,1.77758,0,0,1,638.92926,674.1474Z" transform="translate(-202.70568 -200.28543)" fill="#fff"/><path d="M629.80337,613.07089H580.92048l3.04661-45.72261,17.6343,4.06942L618.75263,564.82l.45462-.17044.02844-.01422a.22939.22939,0,0,1,.01422.04261C619.5197,565.76455,624.90306,587.31907,629.80337,613.07089Z" transform="translate(-202.70568 -200.28543)" fill="#6c63ff"/><polygon points="456.557 374.527 451.99 412.785 410.792 412.785 416.047 364.535 416.097 364.066 416.502 364.364 416.544 364.392 426.707 371.807 456.557 374.527" fill="#2f2e41"/><path d="M588.15026,613.07089h-36.8948l-.53265-30.11956L577.8737,573.946l6.09339-6.59773S585.89188,587.19835,588.15026,613.07089Z" transform="translate(-202.70568 -200.28543)" fill="#2f2e41"/><path d="M677.02467,613.07089H646.45039l1.96033-27.4066,10.85169-10.85182S667.84878,592.82311,677.02467,613.07089Z" transform="translate(-202.70568 -200.28543)" fill="#2f2e41"/><path d="M559.95539,613.07089H543.82663c.07109-8.77805.11374-14.84317.11374-16.55473a15.98654,15.98654,0,0,1,6.78244-13.56483l8.146,2.713Z" transform="translate(-202.70568 -200.28543)" fill="#2f2e41"/><path d="M557.43925,520.28323a42.96378,42.96378,0,0,1,21.07323-36.82585c13.59583-8.02635,29.99925-7.88091,45.00347.397,10.69,5.89872,19.38714,20.74062,19.38714,33.08545v36.0207H557.43925Z" transform="translate(-202.70568 -200.28543)" fill="#2f2e41"/><circle cx="598.47877" cy="521.20387" r="30.86882" transform="translate(-379.3653 150.65164) rotate(-28.66316)" fill="#ffb8b8"/><path d="M566.28793,521.49586c-.23381-.27-.78152-.90272,3.02607-30.20114l.1209-.47867h.34427c19.30031-9.4949,38.88168-9.73362,58.20469-.7131a3.80191,3.80191,0,0,1,2.15526,3.07639c2.255,27.52671,1.71,28.12689,1.47713,28.38341a3.78007,3.78007,0,0,1-2.79041,1.23412h-8.56149l-.1795-.32341a88.35362,88.35362,0,0,0-4.83152-7.946,70.52683,70.52683,0,0,0-1.97268,7.76922l-.10433.50015H569.13757A3.76933,3.76933,0,0,1,566.28793,521.49586Z" transform="translate(-202.70568 -200.28543)" fill="#2f2e41"/></svg>

    <svg id="ill-study-work" xmlns="http://www.w3.org/2000/svg" data-name="Layer 1" width="744.10303" height="540.06599" viewBox="0 0 744.10303 540.06599" xmlns:xlink="http://www.w3.org/1999/xlink"><polygon points="628.516 244.135 555.516 235.135 559.516 171.135 628.516 171.135 628.516 244.135" fill="#ffb6b6"/><g id="f547979f-30db-4d62-a257-d4bfbfe667e0" data-name="Group 234"><path d="M898.00314,502.305a5.87684,5.87684,0,0,1-5.38672-3.55371L882.4797,475.10191l30.04541.1045,20.64356-21.83106,9.8999,23.11621a5.8826,5.8826,0,0,1-3.00488,7.66016l-39.68262,17.64453A5.84282,5.84282,0,0,1,898.00314,502.305Z" transform="translate(-227.94849 -179.967)" fill="#e6e6e6"/><path d="M907.96066,478.18687q-.375,0-.75146-.02148l-24.14112-1.36621-.65332-1.46582.45655-.2041,50.21289-22.35938.65429,1.4668-15.3623,18.98242A13.43023,13.43023,0,0,1,907.96066,478.18687Z" transform="translate(-227.94849 -179.967)" fill="#ccc"/></g><g id="ec5190b7-0dc9-4fc1-a6ea-a2851344a52e" data-name="Group 231"><path id="a41acc16-2a15-4b6f-9345-341b037288f3-359" data-name="Path 3126" d="M865.4425,259.23624l-71.275.891a5.052,5.052,0,0,1-5.046-5.046v-23.55a37.567,37.567,0,1,1,75.134,0l6.234,22.659a5.052,5.052,0,0,1-5.046,5.046Z" transform="translate(-227.94849 -179.967)" fill="#2f2e41"/><path id="a3d22c3d-6f1c-436e-b4fd-75bc616be34e-360" data-name="Path 3127" d="M900.33734,468.62436a10.94289,10.94289,0,0,1,.646-16.767l-12.4-36.856,19.537,5.163,8.783,34.207a11,11,0,0,1-16.566,14.25305Z" transform="translate(-227.94849 -179.967)" fill="#ffb6b6"/><path id="fe496b5f-eacb-49bf-835d-e5ac3c7bd013-361" data-name="Path 3128" d="M815.82635,705.69938l-14.63-2.373,2.194-57.558,21.592,3.5Z" transform="translate(-227.94849 -179.967)" fill="#ffb6b6"/><path id="adde0c44-329e-48ad-9999-13284ac28796-362" data-name="Path 3130" d="M888.73962,675.18473l-13.232,6.676-35.048-50.86,19.529-9.853Z" transform="translate(-227.94849 -179.967)" fill="#ffb6b6"/><circle id="ab67ec02-b830-445c-9023-1829e58b9383" data-name="Ellipse 597" cx="598.42909" cy="53.89992" r="26.016" fill="#ffb8b8"/><path id="ac700c97-6387-43c9-81e9-ad7c0d932a24-363" data-name="Path 3132" d="M846.9765,656.69169l-60.929-155.364c-21.806-59.565-2.323-100.618-2.123-101.025l.1-.2.208-.076c2.50214,9.738,59.23206,9.07522,72.23206-5.92478,7.588,6.374,17.68692,21.38177,19.85092,39.31576a141.47277,141.47277,0,0,1-5.038,57.289l-24,81.36,29.693,66.891Z" transform="translate(-227.94849 -179.967)" fill="#2f2e41"/><path id="e883732b-3258-425b-994e-3a6a30ec2938-364" data-name="Path 3133" d="M817.59528,560.32242l-22,111.556,29.3,5.525,18.435-96.562Z" transform="translate(-227.94849 -179.967)" fill="#2f2e41"/><path d="M785.46457,370.10191c4.687,1.252,51.019,20.34375,73,1l17.249-85.16406-20.66553-6.51807-7.21142-8.76953a8.18994,8.18994,0,0,0-6.44727-2.99218l-25.63623.34277a8.22868,8.22868,0,0,0-6,2.72705l-8.21191,9.15771-18.54883,4.3169Z" transform="translate(-227.94849 -179.967)" fill="#6c63ff"/><path id="a25c4561-38e3-49ca-954a-abf72052a615-365" data-name="Path 3135" d="M867.84845,292.58066l5.61612-7.47875s10.28989,2.70376,15.51785,17.44875,26.64807,132.552,26.64807,132.552l-23.067,10.71-31.237-104.116Z" transform="translate(-227.94849 -179.967)" fill="#6c63ff"/><path id="a027b147-c881-4d9f-8b61-00879d10f14f-366" data-name="Path 3136" d="M683.00519,432.87626a10.943,10.943,0,0,1,14.212-8.92l23.445-31.024,6.752,19.046-23.3,26.541a11,11,0,0,1-21.11-5.643Z" transform="translate(-227.94849 -179.967)" fill="#ffb6b6"/><path id="f5b89bac-f8c6-4779-b05c-fe0d4c0fe303-367" data-name="Path 3137" d="M791.23322,290.92985l-7.76865-6.82794s-8.13736,2.05294-13.36533,16.79794-71.958,113.6-71.958,113.6l23.067,10.71,76.548-85.168Z" transform="translate(-227.94849 -179.967)" fill="#6c63ff"/><path id="ba40f7a0-bee8-41f1-97d8-6a2b5672d4e5-368" data-name="Path 3159" d="M853.48749,232.15079h-36.363a2.807,2.807,0,0,1-2.782-2.456l-.471-3.766a1.682,1.682,0,0,0-3.193-.5l-2.385,5.104a2.814,2.814,0,0,1-2.54,1.617h-5.523a2.8,2.8,0,0,1-2.80414-2.79584q-.00027-.13784.01312-.27518l2.178-22.749a2.825,2.825,0,0,1,1.6-2.283c16.653-7.774,33.541-7.764,50.194.03a2.80813,2.80813,0,0,1,1.586,2.152l3.263,22.719a2.8,2.8,0,0,1-2.775,3.2Z" transform="translate(-227.94849 -179.967)" fill="#2f2e41"/></g><path id="a3cc64c2-abbc-45ce-be54-f5a6fdde0299-369" data-name="Path 3114" d="M266.91948,197.963a4.776,4.776,0,0,0-4.781,4.759l-1.175,510.439a4.776,4.776,0,0,0,4.759,4.781l411.213.946a4.776,4.776,0,0,0,4.781-4.76l1.175-510.439a4.776,4.776,0,0,0-4.76-4.781Z" transform="translate(-227.94849 -179.967)" fill="#e6e6e6"/><path id="efbfa0e2-5865-4f91-9d47-e58aafc36f5f-370" data-name="Path 3115" d="M282.15349,213.264a4.776,4.776,0,0,0-4.781,4.759l-1.1,479.908a4.776,4.776,0,0,0,4.759,4.781l380.682.876a4.776,4.776,0,0,0,4.781-4.759l1.1-479.908a4.776,4.776,0,0,0-4.76-4.781Z" transform="translate(-227.94849 -179.967)" fill="#fff"/><path id="bdd7e382-c488-46e1-abb6-e0dcfe2b45ff-371" data-name="Path 3116" d="M612.26351,421.659l-280.5-.645a7.156,7.156,0,0,1,.033-14.311l280.5.646a7.156,7.156,0,0,1-.033,14.311Z" transform="translate(-227.94849 -179.967)" fill="#e6e6e6"/><path id="a030302a-8aea-40b9-b209-283f220e96ee-372" data-name="Path 3117" d="M614.97951,288.33l-186.094-.428c-2.622-.006-4.74-3.215-4.731-7.167s2.142-7.151,4.764-7.145l186.094.428c2.622.006,4.74,3.215,4.731,7.167S617.60146,288.34,614.97951,288.33Z" transform="translate(-227.94849 -179.967)" fill="#e6e6e6"/><path id="a8f20448-9372-4a75-b338-6e14c20e819a-373" data-name="Path 3118" d="M614.88448,329.356l-186.094-.428c-2.622-.006-4.74-3.215-4.731-7.167s2.142-7.151,4.764-7.145l186.094.428c2.622.006,4.74,3.215,4.731,7.167S617.50649,329.362,614.88448,329.356Z" transform="translate(-227.94849 -179.967)" fill="#e6e6e6"/><path id="b6db1193-8bf6-43ce-8bbd-82156e7f6c80-374" data-name="Path 3119" d="M612.15346,467.932l-280.5-.645a7.156,7.156,0,0,1,.033-14.311l280.5.645a7.156,7.156,0,1,1,.13251,14.3114q-.08277.00073-.16553-.0004Z" transform="translate(-227.94849 -179.967)" fill="#e6e6e6"/><path id="e8bd11eb-6651-49db-b69e-2aeb489d8156-375" data-name="Path 3120" d="M612.05349,514.205l-280.5-.646a7.156,7.156,0,0,1,.033-14.311l280.5.646a7.156,7.156,0,1,1,.13525,14.31134q-.08414.00082-.16827-.00037Z" transform="translate(-227.94849 -179.967)" fill="#e6e6e6"/><path id="f336a5d0-52e6-422c-aaf1-5eee2a5d72af-376" data-name="Path 3121" d="M611.94448,560.479l-280.5-.646a7.156,7.156,0,0,1,.033-14.311l280.5.646a7.156,7.156,0,0,1,.13531,14.31135q-.08414.00081-.16833-.00037Z" transform="translate(-227.94849 -179.967)" fill="#e6e6e6"/><path id="ac9f3bd3-9abe-42cb-b3e3-99cb75c73ae6-377" data-name="Path 3122" d="M473.83748,604.752l-142.5-.646a7.156,7.156,0,0,1,.033-14.311l142.5.646a7.156,7.156,0,0,1,.13532,14.31134Q473.92169,604.75317,473.83748,604.752Z" transform="translate(-227.94849 -179.967)" fill="#e6e6e6"/><path id="f6760762-a9bc-4797-b1cd-005f4be61990-378" data-name="Path 3123" d="M473.73146,651.026l-142.5-.646a7.156,7.156,0,0,1,.033-14.311l142.5.646a7.156,7.156,0,0,1,.1352,14.31134q-.08414.00082-.16822-.00036Z" transform="translate(-227.94849 -179.967)" fill="#e6e6e6"/><path id="b178569c-1ea7-4785-9e0a-4827d572b4f6-379" data-name="Path 3124" d="M420.36049,421.217" transform="translate(-227.94849 -179.967)" fill="#e6e6e6"/><path id="e143acc2-6a50-448e-bf71-b0fcbdb3a8d4-380" data-name="Path 3125" d="M553.45981,233.70177V199.65392a19.26315,19.26315,0,1,0-38.517-.84732h4.23851a15.04481,15.04481,0,0,1,15.01083-14.45829h.22071a15.05205,15.05205,0,0,1,14.80921,15.27392v34.35141a10.09034,10.09034,0,0,1-10.0762,9.95631h-.12411a10.09531,10.09531,0,0,1-9.954-10.22666l.02329-33.81874a5.0765,5.0765,0,1,1,10.153-.03323v9.82552a2.11925,2.11925,0,0,0,4.2385,0v-9.85911a9.31385,9.31385,0,1,0-18.62768.03207l-.02216,33.82638A14.33229,14.33229,0,0,0,538.974,248.165h.1764a14.33609,14.33609,0,0,0,14.3128-14.15052C553.46058,233.90529,553.46058,233.79456,553.45981,233.70177Z" transform="translate(-227.94849 -179.967)" fill="#6c63ff"/><path d="M611.46457,620.84234a47.09506,47.09506,0,0,1-2.96835,16.51433,45.80248,45.80248,0,0,1-3.28052,6.99436,47.31374,47.31374,0,0,1-82.101,0q-.629-1.09038-1.19294-2.2134a47.30326,47.30326,0,1,1,89.54279-21.29529Z" transform="translate(-227.94849 -179.967)" fill="#e4e4e4"/><circle cx="338.6758" cy="439.81776" r="9.04267" fill="#6c63ff"/><path d="M521.92183,642.13763c3.98413-4.30566,9.31028-11.14158,14.30559-6.2022,2.507,2.3299,6.43052,8.1034,10.18632,4.329l29.32878-29.32878a5.82252,5.82252,0,0,1,8.32707.14911l24.42667,26.272a45.81759,45.81759,0,0,1-3.2805,6.99436h-82.101Z" transform="translate(-227.94849 -179.967)" fill="#3f3d56"/><path d="M399.46457,299.84234a47.09506,47.09506,0,0,1-2.96835,16.51433,45.80248,45.80248,0,0,1-3.28052,6.99436,47.31374,47.31374,0,0,1-82.101,0q-.629-1.09038-1.19294-2.2134a47.30326,47.30326,0,1,1,89.54279-21.29529Z" transform="translate(-227.94849 -179.967)" fill="#e4e4e4"/><circle cx="126.6758" cy="118.81776" r="9.04267" fill="#6c63ff"/><path d="M309.92183,321.13763c3.98413-4.30566,9.31028-11.14158,14.30559-6.2022,2.507,2.3299,6.43052,8.1034,10.18632,4.329l29.32878-29.32878a5.82252,5.82252,0,0,1,8.32707.14911l24.42667,26.272a45.81759,45.81759,0,0,1-3.2805,6.99436h-82.101Z" transform="translate(-227.94849 -179.967)" fill="#3f3d56"/><circle cx="309.51608" cy="55.13491" r="5" fill="#6c63ff"/><path d="M823.33883,719.10191h-9.51671l-1.69869-8.98489-4.35059,8.98489H782.53227a5.67385,5.67385,0,0,1-3.22407-10.3429l20.15637-13.92071v-9.08343l21.201,1.26541Z" transform="translate(-227.94849 -179.967)" fill="#2f2e41"/><path d="M907.667,696.82857l-7.99481,5.16242-6.301-6.62658,1.21908,9.90807-21.20415,13.692a5.67385,5.67385,0,0,1-8.31908-6.94l9.38158-22.62855-4.92739-7.63082,18.497-10.43762Z" transform="translate(-227.94849 -179.967)" fill="#2f2e41"/><rect id="ec7b4546-a015-4f0c-8a9e-c44dd1859d9d" data-name="Rectangle 462" y="538.06599" width="744.10303" height="2" fill="#ccc"/></svg>

    <svg id="ill-team" data-name="Слой 1" xmlns="http://www.w3.org/2000/svg" viewBox="0 0 776.32 227.5"><title>team-2</title><path d="M227.49,113.64a113.15,113.15,0,1,1,0-.59Q227.5,113.35,227.49,113.64Z" fill="#f2f2f2"/><circle cx="382.3" cy="113.44" r="113.44" fill="#f2f2f2"/><circle cx="658.78" cy="113.44" r="113.44" fill="#f2f2f2"/><path d="M61.48,76.54c4.69-14.95,15.36-28.66,30.11-33.71s36.35,2.64,47.45,13.7c20.29,20.22,25.24,89.68,11.3,111.63-2.77-.15-12.34-.26-15.14-.36l-4-13.23v13.1q-6.71-.21-13.52-.29A58.82,58.82,0,0,1,59.63,110C59.26,95.44,59.63,82.43,61.48,76.54Z" fill="#2f2e41"/><circle cx="112.37" cy="93.75" r="32.33" fill="#9e616a"/><path d="M84.47,65.36,121.7,46.72h0a46.79,46.79,0,0,1,27.4,38.76L150,96.6l-15.59-4-1.71-14.21-2.65,13.1-7.19-1.83L123,67.63l-7.2,22-25.69-5.9Z" fill="#2f2e41"/><path d="M612.48,69.07a106.59,106.59,0,0,1-7.6,24.27c-20,42.33,37,28.53,57.34,28.53,22.27,0,43.57,11.71,40.32-40.32-1.39-22.22-18.05-40.32-40.32-40.32C643.2,41.24,616.46,49.69,612.48,69.07Z" fill="#2f2e41"/><circle cx="658.88" cy="89.1" r="32.76" fill="#ffb6b6"/><path d="M636.64,55.71a37.53,37.53,0,0,1,57.06,32.75c-16.69,4.19-34.23,7.4-52,1l-4.2-10.29L635,89.47c-5.42,2.22-10.86,4.09-16.29,0A38.32,38.32,0,0,1,636.64,55.71Z" fill="#2f2e41"/><circle cx="386.92" cy="88.02" r="36.99" fill="#ffb8b8"/><path id="76cf05da-b950-43a1-a622-802d9a1d3112" data-name="bd502a69-4a38-4003-a7a1-fa248c8198be-81" d="M419.49,63.58s9.63-18.41-11.56-20.09c0,0-18.06-16.39-36.48-3,0,0-10,0-15.53,11.36,0,0-7.9-3-9.63,5,0,0-5.78,16.74,0,31.8s7.7,16.74,7.7,16.74-4.06-18.69,19.06-20.37,44.32-16.16,46.25,2.26,4,10.09,4,10.09S441.65,71.12,419.49,63.58Z" fill="#2f2e41"/><path d="M198.23,188.51A113.4,113.4,0,0,1,39.52,200l9.73-27.15a29.2,29.2,0,0,1,24.8-17l6.19-.38L95,142.69s39.77-1.42,39.18-2.1l24.09,14.49,0-.1,9.47.58a29.18,29.18,0,0,1,24.8,17Z" fill="#6c63ff"/><path d="M467,188.87a113.4,113.4,0,0,1-158.71,11.47L318,173.19a29.2,29.2,0,0,1,24.8-17l6.19-.38,14.76-12.73s39.77-1.42,39.18-2.1L427,155.44l0-.1,9.47.58a29.18,29.18,0,0,1,24.8,17Z" fill="#6c63ff"/><path d="M747,188.87a113.4,113.4,0,0,1-158.71,11.47L598,173.19a29.2,29.2,0,0,1,24.8-17l6.19-.38,14.76-12.73s39.77-1.42,39.18-2.1L707,155.44l0-.1,9.47.58a29.18,29.18,0,0,1,24.8,17Z" fill="#6c63ff"/></svg>

    <svg id="ill-chat" xmlns="http://www.w3.org/2000/svg" xmlns:xlink="http://www.w3.org/1999/xlink" x="0px" y="0px"
         viewBox="0 0 652.7 735.2" style="enable-background:new 0 0 652.7 735.2;" xml:space="preserve">
<style type="text/css">
	.st0{display:none;fill:#F2F2F2;}
  .st1{display:none;fill:#FFFFFF;}
  .st2{display:none;fill:#FD6584;}
  .st3{fill:#2F2E41;}
  .st4{fill:#FFB6B6;}
  .st5{fill:#FFB7B7;}
  .st6{fill:#6C63FF;}
  .st7{display:none;fill:#CCCCCC;}
  .st8{fill:#E6E6E6;}
  .st9{fill:#FFFFFF;}
  .st10{display:none;fill:#E6E6E6;}
</style>
      <path class="st0" d="M442.4,580.9c20.7-19.5,31.4-48.7,20.3-73.4c-16.2,24.9-42.9,44.5-73.8,54.2c-12,3.8-25.9,6.9-32.5,16.5
	c-4.1,6-4.4,13.4-2.5,20.1c1.8,6.7,5.6,12.9,9.4,19.1l0,1.7C392.6,611.6,421.7,600.4,442.4,580.9z"/>
      <path class="st1" d="M462,507.6c-3.5,21.5-14.9,42.2-32.4,57.8c-3.8,3.5-8.1,6.5-12.8,8.7c-4.8,2.1-10,3.1-15.3,2.8
	c-4.9-0.2-10-0.8-14.9,0.1c-4.9,0.9-9.2,3.6-11.9,7.7c-3.3,4.8-4.3,10.3-5.2,15.7c-0.9,6-1.8,12.3-5.8,17.5
	c-0.5,0.6,0.7,1.2,1.1,0.6c6.9-9,4.6-20.5,9.2-30.2c2.2-4.5,5.9-8.5,11.5-9.9c4.9-1.2,10.1-0.5,15.1-0.3c5.1,0.3,10.3-0.5,15.1-2.3
	c4.8-2,9.2-4.8,13.1-8.2c8.5-7.3,15.8-15.9,21.6-25.5c6.4-10.5,10.7-22.2,12.7-34.4C463.5,506.8,462.2,506.8,462,507.6L462,507.6z"
      />
      <path class="st1" d="M435.6,560.6c7.3,4.5,16.7,3.9,23.3-1.5c0.6-0.5-0.3-1.4-0.9-0.9c-6.2,5.1-14.9,5.6-21.7,1.3
	C435.6,559.1,434.9,560.1,435.6,560.6L435.6,560.6z"/>
      <path class="st1" d="M404.1,577.3c-1.4-7.6,0.5-15.4,5.3-21.5c0.5-0.6-0.7-1.2-1.1-0.6c-4.9,6.4-6.9,14.5-5.4,22.4
	C402.9,578.3,404.2,578,404.1,577.3L404.1,577.3z"/>
      <path class="st1" d="M455.3,531.1c-3-1.1-5.2-3.6-5.9-6.7c-0.1-0.7-1.4-0.5-1.3,0.3c0.8,3.4,3.2,6.2,6.5,7.4
	c0.3,0.2,0.7,0.1,0.9-0.2C455.7,531.7,455.7,531.3,455.3,531.1C455.4,531.1,455.4,531.1,455.3,531.1z"/>
      <path class="st0" d="M364.4,479.3c0.1,0.5,0.1,0.9,0.2,1.4c0.9,6.3,1.2,12.6,0.8,18.9c0,0.5,0,1-0.1,1.5c-1,15.4-5.2,30.4-12.3,44.1
	c-2.9,5.6-6.3,10.9-10,16c-5.3,7-11.6,14.3-13.8,22.2c-0.2,0.8-0.4,1.7-0.5,2.5l32.2,33c0.1,0,0.2,0.1,0.3,0.1l1.2,1.4
	c0.2-0.3,0.4-0.5,0.7-0.8c0.1-0.1,0.2-0.3,0.4-0.4c0.1-0.1,0.2-0.2,0.2-0.3c0,0,0.1-0.1,0.1-0.1c0.1-0.1,0.1-0.2,0.2-0.3
	c1.2-1.5,2.5-3,3.7-4.4c0,0,0,0,0,0c9.2-11.4,17.4-23.6,23.2-36.4c0.2-0.4,0.4-0.8,0.5-1.2c2.6-5.8,4.6-11.7,6.1-17.9
	c0.8-3.3,1.4-6.7,1.8-10.1c1-8.8,0.4-17.6-1.8-26.2c-4.3-17.1-14.9-32.9-31.6-42.3C365.3,479.8,364.9,479.6,364.4,479.3z"/>
      <path class="st1" d="M364,479.7c12.1,19,17.3,41.5,14.2,63.1c-0.6,4.8-2,9.4-4.2,13.6c-2.4,4.3-6,7.8-10.3,10.3
	c-4.1,2.5-8.5,4.6-11.8,7.8c-3.3,3.2-4.8,7.9-4.2,12.4c0.7,5.5,3.7,10.5,6.8,15.3c3.4,5.3,7.1,10.7,7.5,17c0.1,0.8,1.4,0.6,1.3-0.1
	c-0.7-10.8-10.6-18.8-13.6-29c-1.4-4.8-1.2-9.9,2.4-13.9c3.1-3.5,7.7-5.7,11.8-8.2c4.2-2.3,7.8-5.7,10.5-9.7c2.4-4.1,4-8.7,4.7-13.4
	c1.8-10.5,1.6-21.2-0.5-31.7c-2.4-12.1-7-23.7-13.7-34.1C364.7,478.4,363.6,479.1,364,479.7L364,479.7z"/>
      <path class="st1" d="M379.7,535.9c8.8-0.1,16.3-5.8,17.6-13.4c0.1-0.7-1.2-0.9-1.3-0.2c-1.2,7.1-8.2,12.3-16.4,12.4
	C378.7,534.7,378.8,535.9,379.7,535.9L379.7,535.9z"/>
      <path class="st1" d="M366,565.7c-6.2-4.9-10-12.1-10.7-20c-0.1-0.8-1.4-0.6-1.3,0.1c0.7,8.2,4.8,15.7,11.2,20.8
	C365.8,567.2,366.7,566.3,366,565.7L366,565.7z"/>
      <path class="st1" d="M375,502.1c-3.3,0.7-6.7-0.2-9.3-2.3c-0.6-0.5-1.5,0.4-0.9,0.9c2.9,2.3,6.7,3.2,10.3,2.5
	c0.4-0.1,0.6-0.3,0.6-0.6C375.7,502.2,375.3,502,375,502.1L375,502.1z"/>
      <path class="st0" d="M289.9,618c-40,27.4-79.8,34.3-112,19.6c-41.4-18.9-66.4-71.1-68.7-143l2.5,0.2c2.3,71,26.8,122.2,67.1,140.7
	c31.4,14.4,70.3,7.5,109.6-19.4L289.9,618z"/>
      <path class="st0" d="M537.2,154.7c-3.9,43.4-15.2,89.2-32.8,133.4c-21.8,54.6-51.5,102.8-86,139.2l-1.9-1.7
	c34.3-36.2,64-84.1,85.6-138.5c19.6-49.2,31.3-100.3,33.7-147.9l2.4,0.4C538.1,144.6,537.7,149.6,537.2,154.7z"/>
      <path class="st0" d="M430.9,93l-2.4,0.3c-10.6-41.7-31.2-70.6-59.5-83.5c-36-16.5-80.4-5.4-125.2,31.1
	c-45,36.7-84.9,94.7-112.2,163.3l-2.3-1.1C156.8,134.3,196.8,76,242.1,39.1C287.6,1.9,333-9.2,369.9,7.7C399,21,420.1,50.5,430.9,93
	z"/>
      <path class="st0" d="M562.9,455.9C514.4,533,455.6,588.1,397.3,611.1l-1.2-2.2c57.9-22.8,116.4-77.6,164.6-154.4L562.9,455.9z"/>
      <path class="st0" d="M637.7,283.1c-0.8,8.8-1.8,17.7-3.1,26.7l-2.4-0.6c9.3-67.3,6-129-9.6-178.4l2.3-0.4
	C638.6,173.6,642.9,226,637.7,283.1z"/>
      <path class="st0" d="M131.4,216.3c-6.2,13.1-12.1,26.7-17.6,40.4c-31.4,78.7-47.3,159-46,232.4l-2.5-0.3
	c-1.3-73.6,14.6-154.3,46.1-233.2c5.5-13.7,11.4-27.3,17.6-40.5L131.4,216.3z"/>
      <path class="st0" d="M288.7,672.1c-40,27.4-79.8,34.3-112,19.6c-41.4-18.9-66.4-71.1-68.7-143l2.5,0.2c2.3,71,26.8,122.2,67.1,140.7
	c31.4,14.4,70.3,7.5,109.6-19.4L288.7,672.1z"/>
      <path class="st0" d="M536,208.8c-3.9,43.4-15.2,89.2-32.8,133.4c-21.8,54.6-51.5,102.8-86,139.2l-1.9-1.7
	c34.3-36.2,64-84.1,85.6-138.5c19.6-49.2,31.3-100.3,33.7-147.9l2.4,0.4C536.9,198.6,536.5,203.7,536,208.8z"/>
      <path class="st0" d="M531.7,150.1l-2.4,0.3c-10.6-41.7-31.2-70.6-59.5-83.5c-36-16.5-80.4-5.4-125.2,31.1
	c-45,36.7-84.9,94.7-112.2,163.3l-2.3-1.1c27.5-68.9,67.5-127.2,112.8-164.1c45.5-37.1,90.9-48.3,127.8-31.4
	C499.8,78.1,520.9,107.6,531.7,150.1z"/>
      <path class="st0" d="M559.7,529c-48.5,77.1-107.3,132.2-165.6,155.1L393,682c57.9-22.8,116.4-77.6,164.6-154.4L559.7,529z"/>
      <path class="st0" d="M636.5,337.2c-0.8,8.8-1.8,17.7-3.1,26.7l-2.4-0.6c9.3-67.3,6-129-9.6-178.4l2.3-0.4
	C637.4,227.7,641.7,280,636.5,337.2z"/>
      <path class="st0" d="M130.3,270.4c-6.2,13.1-12.1,26.7-17.6,40.4c-31.4,78.7-47.3,159-46,232.4l-2.5-0.3
	c-1.3-73.6,14.6-154.3,46.1-233.2c5.5-13.7,11.4-27.3,17.6-40.5L130.3,270.4z"/>
      <ellipse transform="matrix(0.5539 -0.8326 0.8326 0.5539 74.6735 592.9323)" class="st2" cx="590.7" cy="226.8" rx="8.9" ry="10.2"/>
      <path class="st3" d="M287.7,284.3c5.7-8.7,14.9-15.5,25.3-16.1c10.3-0.6,22.7,8.2,27.8,17.2c9.3,16.5,5.3,32.4-7.6,43.9
	c-1.7-0.6-7.8-2.4-9.6-2.9l-1.1-2l-1.4,1.2c-15.9,1.6-31.2-0.2-43.1-12C279.5,303.4,282.1,293,287.7,284.3z"/>
      <polygon class="st4" points="330.2,400.4 328.4,417.8 329.5,440.6 279,434.6 274.2,400.4 280.3,400.5 "/>
      <circle class="st5" cx="309.5" cy="304.3" r="21"/>
      <path class="st6" d="M286.3,343.3l12-7.2l24-2.4l21.2,10.8l-0.2,33l-13.5,34.2l-56.4-7.2l-2.1-12.1c0,0-15.6-20.9,1.2-32.9
	L286.3,343.3z"/>
      <path class="st3" d="M301.7,272.5c14-3.9,28.5,4.2,32.5,18.2c1.4,4.8,1.3,9.9-0.1,14.7c-12.8,1-25.4-0.2-35.3-9.2l-0.9-7.7l-3.6,6.5
	c-3.7-1-7.3-2.1-11-3.1C285.4,282.6,292.5,275.2,301.7,272.5z"/>
      <path class="st4" d="M214.3,245.3c-2.1,4.6-0.2,10,4.4,12.2c0.5,0.2,1,0.4,1.5,0.6l39.1,73.7l15.8-12.2L231.7,251
	c1-5-2.3-9.8-7.2-10.8C220.3,239.3,216.1,241.5,214.3,245.3L214.3,245.3z"/>
      <path class="st6" d="M278.3,356.7c0,0-3.6,3.2-8.8-5.7c-4.1-7.1-24.7-38.9-27.6-49.9c-3.3,0.1-6.2-2.1-7.1-5.2l22.1-8.6
	c4.8,2.4,3.5,5.7,2.3,7.4l8.2,12.3l27.3,30.7L281,354.4L278.3,356.7z"/>
      <path class="st8" d="M495.8,73.2c-11.7-11.6-27.4-18-43.1-22c-17.8-4.6-36.2-7.3-54.4-10c-18.9-2.7-38-4.8-57.1-6.3
	c-19.1-1.5-38.2-2.3-57.3-2.5c-17.1-0.2-34.2-0.2-51.2,1.7c-16,1.8-31.9,5.4-46.3,12.7c-12.8,6.4-23.6,16.3-31.1,28.5
	c-6.9,11.4-11,25-9.6,38.4c0.7,6.6,2.7,12.9,6,18.7c3.9,6.3,8.8,12,14.6,16.6c11.9,10.1,26.1,17.4,36.4,29.4c2.7,3.1,5.1,6.5,7,10.2
	c1.5,2.8,3.2,5.1,5.9,6.7c5,2.9,11.3,2.4,15.9-1.1c3.2-2.5,5.5-6.4,8-9.5l8.6-11.1c0.6-1,1.3-1.9,2.2-2.8c0.6-0.5-0.4-0.1-0.2-0.2
	c0.1-0.1,0.3,0,0.4-0.1c0.6-0.2,1.2-0.3,1.8-0.3c6.3-1.2,12.6-2.2,18.9-3.2c23.3-3.8,46.8-6.9,70.3-8.5c12.1-1,24.3-1.3,36.5-0.9
	c15.7,0.6,31.3,3.8,47,5.1c16.9,1.5,34.6,1.3,50.5-5.3c12.7-5.2,24.6-14,31.5-26.1c3.3-5.7,5.2-12.1,5.7-18.7
	C513.5,97.5,506.2,83.5,495.8,73.2z"/>
      <path class="st9" d="M274.6,44.6c-3,0-6,0-9,0c-28.8,0.3-58.6,2.6-81.2,17.5c-20.1,13.2-34.1,42.5-22.2,63.6
	c5.5,9.7,15.4,16.7,25.8,24.2c4.1,2.9,8.4,5.9,12.4,9.2c8.9,7.1,17.3,16.6,22.1,27.4l21.2-27.2l4-0.8c3.8-0.7,94.7-18,143.1-12.4
	c4.5,0.5,8.9,1.1,13.3,1.7c19.7,2.6,38.2,5,56.1,1.4c18.6-3.8,39-18.1,40.3-37.4c0.8-13.2-7.7-27.6-21.8-36.8
	c-14.2-9.3-32-13.1-49-16.2C378.5,49.3,326.6,44.6,274.6,44.6z"/>
      <path class="st6" d="M438.7,86.5H234.4c-2.5,0-4.4-2-4.4-4.4c0-2.5,2-4.4,4.4-4.4h204.3c2.5,0,4.4,2,4.4,4.4
	C443.1,84.5,441.2,86.5,438.7,86.5z"/>
      <path class="st6" d="M438.7,113.8H234.4c-2.5,0-4.4-2-4.4-4.4c0-2.5,2-4.4,4.4-4.4c0,0,0,0,0,0h204.3c2.5,0,4.4,2,4.4,4.4
	C443.1,111.8,441.2,113.7,438.7,113.8z"/>
      <path class="st6" d="M258.2,141h-23.8c-2.5,0-4.4-2-4.4-4.4c0-2.5,2-4.4,4.4-4.4h23.8c2.5,0,4.4,2,4.4,4.4
	C262.7,139,260.7,141,258.2,141z"/>
      <circle class="st8" cx="221.3" cy="228.7" r="18.9"/>
      <ellipse transform="matrix(0.5539 -0.8326 0.8326 0.5539 -308.7054 334.5971)" class="st0" cx="157.9" cy="455.4" rx="8.9" ry="10.2"/>
      <ellipse transform="matrix(0.5539 -0.8326 0.8326 0.5539 -126.8371 671.4652)" class="st10" cx="563.2" cy="454.1" rx="8.9" ry="10.2"/>
      <ellipse transform="matrix(0.5539 -0.8326 0.8326 0.5539 -72.6999 478.5071)" class="st10" cx="410.2" cy="307.1" rx="8.9" ry="10.2"/>
      <polygon class="st4" points="356.4,716 345.4,716 340.1,673.4 356.4,673.4 "/>
      <path class="st3" d="M362.2,735.1h-7.9l-1.4-7.5l-3.6,7.5h-21c-2.6,0-4.7-2.1-4.7-4.7c0-1.6,0.8-3,2-3.9l16.8-11.6v-7.6l17.6,1.1
	L362.2,735.1z"/>
      <polygon class="st4" points="294.4,716 283.4,716 278.1,673.4 294.4,673.4 "/>
      <path class="st3" d="M300.2,735.1h-7.9l-1.4-7.5l-3.6,7.5h-21c-2.6,0-4.7-2.1-4.7-4.7c0-1.6,0.8-3,2-3.9l16.8-11.6v-7.6l17.6,1.1
	L300.2,735.1z"/>
      <path class="st3" d="M361.2,679.3h-0.1l-2.1-69.2c2.8-5.4,2.7-11.8-0.2-17.1l-0.3-0.6l0.8-3.7c1-4.7,0.5-9.6-1.3-14l-2-64.6
	c7.1-45.9-26.6-75.8-26.6-75.8h-50.5l-10.8,37.3c-7.2,69.8-5.9,137.9,5.5,203.8l-0.3,0.2c-1.1,0.4-1.6,1.9-1.1,3.5s1.9,2.4,3,2.1
	l26.7-0.9c1.1-0.4,1.6-1.9,1.1-3.5c-0.5-1.5-1.9-2.4-3-2.1l-1.8,0.9l3.9-66.8l-0.4-12.2l0.9-13.8l4.1-62.3l15.5,76.6l15.8,82.9
	c-1.2,1.1-1.3,2.9-0.2,4.1c0.6,0.6,1.3,1,2.2,1h21.6c1.6,0,2.9-1.3,2.9-2.9S362.8,679.3,361.2,679.3
	C361.2,679.3,361.2,679.3,361.2,679.3L361.2,679.3z"/>
      <path class="st4" d="M337.6,485.7c4.3-2.7,5.6-8.3,3-12.6c-0.3-0.5-0.6-0.9-1-1.3l7.7-83l-19.9,1.5l-1.4,81.2
	c-3.6,3.6-3.5,9.5,0.1,13C329.3,487.5,334,488,337.6,485.7L337.6,485.7z"/>
      <path class="st6" d="M342.7,344.8c0,0,4.8-0.7,4.2,9.5c-0.4,8.2,1.7,58.7-1.9,69.5c2.8,1.7,4.1,5.1,3.1,8.3l-23.2-4.9
	c-2.7-4.6-2.1-9.4-0.2-10.2l-0.1-14.8l-5.1-48.9l19.7-8.1L342.7,344.8z"/>
</svg>

    <svg id="ill-work-together" xmlns="http://www.w3.org/2000/svg" data-name="Layer 1" width="844.52097" height="544.59508" viewBox="0 0 844.52097 544.59508" xmlns:xlink="http://www.w3.org/1999/xlink"><path d="M931.14105,699.03863l13.887.36551a44.822,44.822,0,0,0,6.7571-20.48c-8.89865,9.43551-24.595,7.065-36.08827,13.07507a26.96057,26.96057,0,0,0-13.82546,18.84016l-5.72591,8.01794a45.17742,45.17742,0,0,0,37.19059-6.91016,43.63879,43.63879,0,0,0,8.00025-7.47307C936.18548,702.09145,931.14105,699.03863,931.14105,699.03863Z" transform="translate(-177.73951 -177.70246)" fill="#f2f2f2"/><path d="M923.49136,677.89435l12.5925-5.8662a44.82209,44.82209,0,0,0-3.08581-21.344c-3.75662,12.41382-18.86274,17.29241-26.4693,27.79742a26.96057,26.96057,0,0,0-3.972,23.02864l-1.54908,9.73A45.17742,45.17742,0,0,0,931.213,688.469a43.63836,43.63836,0,0,0,3.82772-10.25668C929.36785,678.377,923.49136,677.89435,923.49136,677.89435Z" transform="translate(-177.73951 -177.70246)" fill="#f2f2f2"/><polygon points="725.084 533.946 716.566 533.946 712.514 501.092 725.085 501.092 725.084 533.946" fill="#a0616a"/><path d="M902.59641,708.86507l-9.08836-3.69172-.26812-.11-5.01854,3.80174a10.685,10.685,0,0,0-10.67646,10.22271c-.01377.15122-.01377.30937-.01377.46747v.35062h27.46452v-11.0408Z" transform="translate(-177.73951 -177.70246)" fill="#2f2e41"/><polygon points="708.863 516.955 701.522 521.275 681.367 495.014 692.202 488.639 708.863 516.955" fill="#a0616a"/><path d="M891.67247,698.9861l-.9968-1.69808-3.60923-6.13224-1.87683,1.10682-.19247.11-9.7071,1.42991-.28877.04129-2.39239,5.82287A10.68981,10.68981,0,0,0,868.814,714.303l.17875.2956,23.66966-13.92815Z" transform="translate(-177.73951 -177.70246)" fill="#2f2e41"/><path d="M913.61121,510.79661c3.9935,12.04439,3.5713,25.11823-.9599,39.15l-1.18267,48.23631L907.67,628.60959a52.09865,52.09865,0,0,1,3.46672,18.68115c-.01615,16.74127-1.14179,40.52495-6.84893,51.6977H890.782l-3.04874-49.75469-3.63816-25.01587-.44852-26.80669-.39118-23.37977-14.685,21.47379-14.26985,20.86666,14.18354,23.92474,12.3745,38.49844-13.062,10.99955-14.81769-28.09247-7.18142-8.34355-19.60394-42.43815,1.76178-5.90879a139.78376,139.78376,0,0,1,15.66252-34.53159l0,0,19.49945-45.25659Z" transform="translate(-177.73951 -177.70246)" fill="#2f2e41"/><path d="M688.66247,519.79661H420.65233a8.07558,8.07558,0,0,1-8.06636-8.06636V306.86267a8.07532,8.07532,0,0,1,8.06636-8.06606H688.66247a8.07532,8.07532,0,0,1,8.06636,8.06606V511.73025A8.07557,8.07557,0,0,1,688.66247,519.79661Z" transform="translate(-177.73951 -177.70246)" fill="#fff"/><path d="M688.66229,520.79661H420.65252a9.077,9.077,0,0,1-9.06641-9.06641V306.86253a9.07653,9.07653,0,0,1,9.06641-9.06592H688.66229a9.07652,9.07652,0,0,1,9.0664,9.06592V511.7302A9.07694,9.07694,0,0,1,688.66229,520.79661Zm-268.00977-221a7.07424,7.07424,0,0,0-7.06641,7.06592V511.7302a7.07434,7.07434,0,0,0,7.06641,7.06641H688.66229a7.07434,7.07434,0,0,0,7.0664-7.06641V306.86253a7.07423,7.07423,0,0,0-7.0664-7.06592Z" transform="translate(-177.73951 -177.70246)" fill="#f0f0f0"/><path d="M413.205,480.79661V511.7304a7.45828,7.45828,0,0,0,7.44716,7.44716H688.66262a7.45828,7.45828,0,0,0,7.44716-7.44716V480.79661Z" transform="translate(-177.73951 -177.70246)" fill="#f0f0f0"/><rect x="554.65076" y="224.09029" width="1.99962" height="333.55961" transform="translate(-250.87539 470.37299) rotate(-57.37135)" fill="#f0f0f0"/><path d="M875.60125,214.25494H243.27789a1.01559,1.01559,0,0,1,0-2.03069H875.60125a1.01559,1.01559,0,0,1,0,2.03069Z" transform="translate(-177.73951 -177.70246)" fill="#cacaca"/><ellipse cx="87.89347" cy="11.16881" rx="10.92534" ry="11.16881" fill="#3f3d56"/><ellipse cx="125.63554" cy="11.16881" rx="10.92534" ry="11.16881" fill="#3f3d56"/><ellipse cx="163.37762" cy="11.16881" rx="10.92534" ry="11.16881" fill="#3f3d56"/><path d="M852.98423,180.47076h-26.81a2.0304,2.0304,0,0,0,0,4.06h26.81a2.0304,2.0304,0,0,0,0-4.06Z" transform="translate(-177.73951 -177.70246)" fill="#3f3d56"/><path d="M852.98423,188.09076h-26.81a2.0304,2.0304,0,0,0,0,4.06h26.81a2.0304,2.0304,0,0,0,0-4.06Z" transform="translate(-177.73951 -177.70246)" fill="#3f3d56"/><path d="M852.98423,195.70074h-26.81a2.0304,2.0304,0,0,0,0,4.06h26.81a2.0304,2.0304,0,0,0,0-4.06Z" transform="translate(-177.73951 -177.70246)" fill="#3f3d56"/><path d="M779.50328,452.98922a6.6176,6.6176,0,0,0,10.13608.47785l21.56551,9.37924-2.1006-12.03868-20.15693-7.061a6.65349,6.65349,0,0,0-9.44406,9.24262Z" transform="translate(-177.73951 -177.70246)" fill="#a0616a"/><path d="M799.12472,446.188l41.19723,5.33928,42.485-25.59256a18.78361,18.78361,0,0,1,26.80668,8.35028h0a18.80383,18.80383,0,0,1-8.4331,24.39256l-57.08925,20.34375-.10746.03844L793.89442,456.748Z" transform="translate(-177.73951 -177.70246)" fill="#3f3d56"/><path d="M859.28737,518.07907l3.42446-8.561-2.26477-7.36036,6.71034-73.36111h0l.99127-11.11841.06685-8.288,22.946-.55964L893.65,415.1499l4.924,2.9442a35.64637,35.64637,0,0,1,17.30724,31.18056l-.88947,48.12064,2.28984,4.58023a9.63783,9.63783,0,0,1-5.67976,13.49028l-50.44447,15.3308Z" transform="translate(-177.73951 -177.70246)" fill="#3f3d56"/><circle cx="699.84774" cy="202.42136" r="20.8488" fill="#a0616a"/><path d="M899.29724,384.66879c.62184-2.6197.33635-6.30613-.01507-8.94389a25.03482,25.03482,0,0,0-10.59629-17.38372,7.63326,7.63326,0,0,0-3.80218-1.511,3.28226,3.28226,0,0,0-3.3002,1.99619,6.84189,6.84189,0,0,0-3.8598-3.82756,12.05793,12.05793,0,0,0-5.49444-.74021,20.08039,20.08039,0,0,0-16.75192,11.9747c-.55688,1.32291-2.11229-3.56352-2.81785-2.31357a5.55713,5.55713,0,0,1-3.15143,2.76892c-1.38251.38578-1.944,6.08184-2.48811,4.75362a6.33176,6.33176,0,0,0,6.05343,8.82879,34.87045,34.87045,0,0,0,4.143-.793,10.32927,10.32927,0,0,1,11.3093,7.73074,13.68475,13.68475,0,0,1,1.80033-4.00553,4.63181,4.63181,0,0,1,3.71585-2.04166,5.2038,5.2038,0,0,1,3.57592,2.05552c.91784,1.07772,1.6072,2.3351,2.53182,3.407,2.71306,3.14524,6.38255,10.4801,10.24894,9.94514C893.44979,396.14715,898.4482,388.24565,899.29724,384.66879Z" transform="translate(-177.73951 -177.70246)" fill="#2f2e41"/><path d="M938.82557,555.89408a6.61765,6.61765,0,0,0-2.83685-9.74274l1.87445-23.442-10.70577,5.89313-.1387,21.35744a6.6535,6.6535,0,0,0,11.80687,5.93417Z" transform="translate(-177.73951 -177.70246)" fill="#a0616a"/><path d="M926.02574,539.541l-8.31682-40.70074-37.993-31.88244a18.78361,18.78361,0,0,1-.79944-28.06575h0a18.80382,18.80382,0,0,1,25.80911.06221l37.76678,47.3996.07123.08917-4.85208,54.61886Z" transform="translate(-177.73951 -177.70246)" fill="#3f3d56"/><path d="M1021.0698,722.29754h-347.988a1.19069,1.19069,0,1,1,0-2.38137h347.988a1.19069,1.19069,0,1,1,0,2.38137Z" transform="translate(-177.73951 -177.70246)" fill="#ccc"/><path d="M796.17743,528.6544H638.03771a4.16145,4.16145,0,0,1-4.15662-4.15662V460.33154a4.16146,4.16146,0,0,1,4.15662-4.15663H796.17743a4.16139,4.16139,0,0,1,4.15662,4.15663v64.16624A4.16138,4.16138,0,0,1,796.17743,528.6544Z" transform="translate(-177.73951 -177.70246)" fill="#6c63ff"/><path d="M781.11961,559.43533h-128.024a4.98795,4.98795,0,1,1,0-9.97589h128.024C787.55215,549.36965,787.61649,559.52593,781.11961,559.43533Z" transform="translate(-177.73951 -177.70246)" fill="#e4e4e4"/><path d="M781.11961,582.29676h-128.024a4.98795,4.98795,0,0,1,0-9.9759h128.024C787.55215,572.23107,787.61649,582.38736,781.11961,582.29676Z" transform="translate(-177.73951 -177.70246)" fill="#e4e4e4"/><path d="M781.11961,605.15818h-128.024a4.98795,4.98795,0,1,1,0-9.97589h128.024C787.55215,595.0925,787.61649,605.24878,781.11961,605.15818Z" transform="translate(-177.73951 -177.70246)" fill="#e4e4e4"/><path d="M386.63821,642.09329l13.24162-4.20034a44.8221,44.8221,0,0,0-.319-21.56359c-5.31984,11.82854-20.92743,14.72661-29.82018,24.1677a26.96059,26.96059,0,0,0-6.89675,22.32778l-2.7859,9.45051a45.17739,45.17739,0,0,0,32.87975-18.70324,43.63869,43.63869,0,0,0,5.11331-9.68013C392.404,643.32671,386.63821,642.09329,386.63821,642.09329Z" transform="translate(-177.73951 -177.70246)" fill="#f2f2f2"/><path d="M372.4887,624.6179l9.97854-9.665a44.82209,44.82209,0,0,0-9.90246-19.15807c.51382,12.9596-12.16315,22.51418-15.912,34.93035a26.96056,26.96056,0,0,0,3.78488,23.06013l1.72124,9.70107a45.17744,45.17744,0,0,0,21.08749-31.40394,43.639,43.639,0,0,0,.25947-10.94457C378.19944,623.15042,372.4887,624.6179,372.4887,624.6179Z" transform="translate(-177.73951 -177.70246)" fill="#f2f2f2"/><path d="M399.1658,444.66928a7.52289,7.52289,0,0,1-8.51517-7.78187l-48.09647-48.80072,13.42658-9.34746L399.03607,429.648a7.56363,7.56363,0,0,1,.12973,15.02128Z" transform="translate(-177.73951 -177.70246)" fill="#ffb6b6"/><path d="M327.75776,366.97811s-3.40875,2.04312,2.26484,8.26467c4.54215,4.98081,24.36293,28.92837,32.27447,33.9282-.86281,2.49126,21.02175,26.34234,23.32251,27.863l12.164-15.17955c-.6949-4.35213-24.62925-25.12984-26.27763-24.60133l-7.6317-9.48634-17.29159-29.00363-16.38708,6.69437Z" transform="translate(-177.73951 -177.70246)" fill="#6c63ff"/><polygon points="112.035 480.052 121.102 480.052 125.417 445.078 112.034 445.078 112.035 480.052" fill="#ffb6b6"/><path d="M286.81481,651.544l14.48631-.86463v6.20656l13.77254,9.51181a3.87685,3.87685,0,0,1-2.203,7.06714l-17.24649,0-2.9727-6.13925-1.16069,6.13925h-6.50261Z" transform="translate(-177.73951 -177.70246)" fill="#2f2e41"/><polygon points="162.968 480.052 172.035 480.052 176.35 445.078 162.968 445.078 162.968 480.052" fill="#ffb6b6"/><path d="M337.74786,651.544l14.48631-.86463v6.20656l13.77254,9.51181a3.87685,3.87685,0,0,1-2.203,7.06714l-17.24649,0-2.9727-6.13925-1.16069,6.13925h-6.50261Z" transform="translate(-177.73951 -177.70246)" fill="#2f2e41"/><path d="M285.86178,627.59413h.09858l1.74384-56.867a14.87005,14.87005,0,0,1,.19511-14.05194l.24966-.45193-.64734-3.00072a19.11352,19.11352,0,0,1,1.09226-11.50324l1.62684-53.04638c-5.812-37.66677,21.88634-62.23162,21.88634-62.23162l-5.06161-21.29269,50.11155-4.929-3.5574,26.22169,8.908,30.60567c5.88895,57.374,4.8204,113.28328-4.52452,167.44994l.25476.12883c.91734.31665,1.31077,1.58741.879,2.83844s-1.52548,2.00849-2.44281,1.69184l-21.91283-.76217c-.91733-.31657-1.31091-1.58741-.879-2.83844.43175-1.251,1.52548-2.00842,2.44281-1.69184l1.48994.75359-3.17752-54.87452.35263-10.02317-.72647-11.3711-3.35883-51.14711-12.71368,62.89653-12.98639,68.1293a2.38889,2.38889,0,0,1-1.61089,4.15967h-17.732a2.39631,2.39631,0,0,1,0-4.79261Z" transform="translate(-177.73951 -177.70246)" fill="#2f2e41"/><path d="M347.397,351.582l-9.85494-5.913-19.70988-1.971-17.42074,8.871.1746,27.09955,11.05157,28.10695,43.05489,8.87405,5.02317-24.70113s12.81142-17.20734-.98549-27.06228Z" transform="translate(-177.73951 -177.70246)" fill="#6c63ff"/><path d="M305.21219,468.58869a7.52287,7.52287,0,0,1-1.6681-11.41416l-6.3551-68.22312,16.31137,1.25981,1.11782,66.66495a7.56363,7.56363,0,0,1-9.406,11.71252Z" transform="translate(-177.73951 -177.70246)" fill="#ffb6b6"/><path d="M301.01556,352.84092s-3.93229-.57536-3.47683,7.83236c.36464,6.731-1.36843,48.21939,1.593,57.09749-2.24467,1.38285-2.36413,35.15015-1.54511,37.78361l19.0247-4.05483c2.21628-3.80947.75711-38.72087-.85365-39.35487l.09462-12.17475,4.20458-40.13088-16.19145-6.63269Z" transform="translate(-177.73951 -177.70246)" fill="#6c63ff"/><path d="M398.24783,474.90117a5.41136,5.41136,0,0,1-1.11673-4.51063,72.0123,72.0123,0,0,0,0-28.37347,5.41137,5.41137,0,0,1,1.11673-4.51063,5.28944,5.28944,0,0,1,4.02487-1.941c8.288-3.30285,16.22505-3.30325,23.59529.0004a5.35173,5.35173,0,0,1,5.20457,4.59929,119.10339,119.10339,0,0,1,0,32.07744,5.35142,5.35142,0,0,1-5.29442,4.60008H402.35333A5.28843,5.28843,0,0,1,398.24783,474.90117Z" transform="translate(-177.73951 -177.70246)" fill="#6c63ff"/><path d="M404.8066,447.79526h19.716a1.23226,1.23226,0,0,0,0-2.46451h-19.716a1.23225,1.23225,0,0,0,0,2.46451Z" transform="translate(-177.73951 -177.70246)" fill="#fff"/><path d="M404.8066,457.65327h19.716a1.23226,1.23226,0,0,0,0-2.46451h-19.716a1.23226,1.23226,0,0,0,0,2.46451Z" transform="translate(-177.73951 -177.70246)" fill="#fff"/><path d="M404.8066,467.51127h19.716a1.23225,1.23225,0,0,0,0-2.4645h-19.716a1.23225,1.23225,0,0,0,0,2.4645Z" transform="translate(-177.73951 -177.70246)" fill="#fff"/><path d="M460.40956,673.10754a1.18647,1.18647,0,0,1-1.19007,1.19h-280.29a1.19,1.19,0,1,1,0-2.38h280.29A1.18651,1.18651,0,0,1,460.40956,673.10754Z" transform="translate(-177.73951 -177.70246)" fill="#ccc"/><path id="a0ad7a78-ce9c-4e5a-964d-79d0781968c2-93" data-name="a1ca5f83-7fa1-45b1-9d3b-bf096f25c0e5" d="M346.15958,333.62371V315.26234a24.60388,24.60388,0,1,0-49.20774-.0316v.0316c-4.33641,9.03639-1.62353,13.33257,0,18.36137a3.309,3.309,0,0,0,3.30352,3.30352h42.59906A3.30907,3.30907,0,0,0,346.15958,333.62371Z" transform="translate(-177.73951 -177.70246)" fill="#2f2e41"/><circle cx="151.88324" cy="139.61473" r="18.41689" fill="#ffb7b7"/><path d="M310.34868,322.1453c.16692-.02638.33385-.06155.50077-.08794,2.87277-.5095,5.74549-1.01021,8.60947-1.52861l.26359-6.49216,3.47011,5.81568c7.91546,2.62677,15.32136,1.14212,22.288-2.13474a62.923,62.923,0,0,0,6.67677-3.68094,24.40688,24.40688,0,0,0-11.9918-17.2717c-.26354-.14939-.51829-.28108-.78189-.413a.00859.00859,0,0,1-.00874-.00879c-.44805-.21083-.9049-.41288-1.36175-.59733a20.28683,20.28683,0,0,0-21.29528,4.129C311.09546,305.24261,308.56532,314.10684,310.34868,322.1453Z" transform="translate(-177.73951 -177.70246)" fill="#2f2e41"/></svg>

    <svg id="ill-tutoring" data-name="Слой 1" xmlns="http://www.w3.org/2000/svg" viewBox="0 0 536.12 598.27"><title>tutor</title><path d="M154,203.65a114.23,114.23,0,0,1-12.56,4c-5.63,1.37-8.8,2-14.23-.1l-.54-.22A57.68,57.68,0,0,1,91.58,155c0-.38,0-.79,0-1.18a56.19,56.19,0,0,1,.27-5.68,57.37,57.37,0,0,1,1.23-7.63H93c-4.4-4.5-6.09-10.65-5.53-16.84A27.83,27.83,0,0,1,100,102.85a44,44,0,0,1,18.28-6.45,46.33,46.33,0,0,1,5.26-.3h16.5a71.28,71.28,0,0,1,10.36-1.63h0c33.21-2.75,59.39,19.26,56.95,46l-.06.09c-.71,1.15-1.33,2.24-1.88,3.29s-1,1.91-1.37,2.79c-3,6.85,11.37,113.06,6.21,114.67-2.94.91-14.79-78.12-12.66-63.09C200.31,217.11,169.31,198,154,203.65Z" transform="translate(-1 -70.05)" fill="#2f2e41"/><polygon points="203.04 325.61 249.07 423.67 72 405.73 108.97 311.6 203.04 325.61" fill="#ffb6b6"/><path d="M296.44,592.26a257.91,257.91,0,0,1-95.64,12.81l-14.09-22.85s-.59,8.51-1.47,21.52a248.82,248.82,0,0,1-45.47-9.64c-28.11-8.79-54.46-22.41-81.17-35-5.41-32.25-7.44-82,22.47-110.93l161,29.5S267.89,497,261,503.94s-8,5.84-3.44,10.38S271.89,524.93,272,528.9C272,530.45,283,558.56,296.44,592.26Z" transform="translate(-1 -70.05)" fill="#2f2e41"/><path d="M175.93,206.17,137,208.88l-25.14,24.29-8.8,1.57a32.82,32.82,0,0,0-27,34.25c1.81,30.68,5.87,76.53,14.34,91.4,13.14,23.06,24,15.83,13.14,23.06s-18.14,1.55-13.14,13-6.76,26.1-6.76,26.1L79,427.23l5,2,158.2,20.58s-13.68-61.5-5.12-76.61,29.3-60.78,10.78-78.65l-18.1-63.69-31.13-9.18Z" transform="translate(-1 -70.05)" fill="#6c63ff"/><path d="M411.37,458.59a18,18,0,0,1-17.08-21.41l-74.21-50.26L328.94,363l87.7,60.33a18,18,0,0,1-5.27,35.27Z" transform="translate(-1 -70.05)" fill="#ffb6b6"/><path d="M201.78,227.89,191,232.16,248.52,344.5,367.6,425.67l17.16-29-90.64-78.29-36.29-69.6A44.67,44.67,0,0,0,201.78,227.89Z" transform="translate(-1 -70.05)" fill="#6c63ff"/><circle cx="153.46" cy="87.18" r="39.06" fill="#ffb6b6"/><path d="M188.42,140.71c-.65.34-1.29.66-1.94,1s-1.36.65-2,1c-13.07,5.92-23.72,6.58-30.18-1.94a36.17,36.17,0,0,0-3-13,20.9,20.9,0,0,1-3.45,13h-13c-13.4,8.89-20.27,17.06-11,46.25.61,1.92,4.76,70,5.94,75.28C109.52,254.47,92,171.88,91.58,150.11c0-.35,0-.72,0-1.09a47.56,47.56,0,0,1,.27-5.22,48.86,48.86,0,0,1,1.23-7H93a18.33,18.33,0,0,1-5.53-15.49,44.66,44.66,0,0,1,12.41-11.13,79.2,79.2,0,0,1,13.59-5.1l.33-.08c1.43-.39,2.89-.74,4.36-1a81.87,81.87,0,0,1,9.14-1.38l.64,0a6.85,6.85,0,0,1,3.49,1h0a6.89,6.89,0,0,1,3.36,5.86h14.49c.53,0,1.07,0,1.6,0,20.18.8,36.4,9.43,37.44,29.27C188.4,139.36,188.42,140,188.42,140.71Z" transform="translate(-1 -70.05)" fill="#2f2e41"/><circle cx="101.75" cy="46.51" r="25.73" fill="#2f2e41"/><path d="M138.07,104.65c-2.92,13.91-17.35,22.22-31.14,18.82A25.73,25.73,0,0,1,88.11,92.33c3.4-13.8,20.15-9.82,31.14-18.82C134.81,60.78,142,85.9,138.07,104.65Z" transform="translate(-1 -70.05)" fill="#2f2e41"/><path d="M80.9,491.76c21.93-89.43,65.38-166.29,137.34-226.51A20.25,20.25,0,0,1,246,258.43L417.09,362.16a20.25,20.25,0,0,1,6.81,27.78c-27.47,91.76-68.6,171.39-137.34,226.51a20.25,20.25,0,0,1-27.78,6.81L87.71,519.53A20.25,20.25,0,0,1,80.9,491.76Z" transform="translate(-1 -70.05)" fill="#f2f2f2"/><path d="M111.31,521.89a20.25,20.25,0,0,1-6.81-27.78c21.93-89.43,65.38-166.29,137.34-226.51a20,20,0,0,1,7.55-7.13l-3.37-2a20.25,20.25,0,0,0-27.78,6.81c-72,60.22-115.41,137.09-137.34,226.51a20.25,20.25,0,0,0,6.81,27.78L258.78,623.26a20.16,20.16,0,0,0,20.23.32Z" transform="translate(-1 -70.05)" opacity="0.2" style="isolation:isolate"/><path d="M311.93,471.93,197.1,402.74A8,8,0,0,1,205.4,389l114.83,69.19a8,8,0,0,1-8.3,13.78Z" transform="translate(-1 -70.05)" fill="#fff"/><path d="M245.13,380.18,219.87,365a8,8,0,0,1,8.26-13.81l0,0,25.26,15.22a8,8,0,0,1-8.3,13.78Z" transform="translate(-1 -70.05)" fill="#fff"/><path d="M293.68,502.22,178.85,433a8,8,0,0,1,8.29-13.79h0L302,488.44a8,8,0,0,1-8.3,13.78Z" transform="translate(-1 -70.05)" fill="#fff"/><circle cx="325.51" cy="237.89" r="33.54" fill="#3f3d56"/><circle cx="267.7" cy="525.58" r="71.69" fill="#fff"/><path d="M268.7,668.32a72.69,72.69,0,1,1,72.69-72.69A72.69,72.69,0,0,1,268.7,668.32Zm0-143.37a70.69,70.69,0,1,0,70.69,70.69h0A70.76,70.76,0,0,0,268.7,524.95Z" transform="translate(-1 -70.05)" fill="#3f3d56"/><path d="M258.92,632.94a8,8,0,0,1-6.38-3.19L233,603.68a8,8,0,1,1,12.74-9.59l0,0,12.79,17.06,32.86-49.29a8,8,0,0,1,13.28,8.83v0l-39.11,58.67a8,8,0,0,1-6.41,3.55Z" transform="translate(-1 -70.05)" fill="#6c63ff"/><ellipse cx="499.9" cy="228.78" rx="5.18" ry="3.6" transform="translate(-18.67 -26.63) rotate(-4.89)" fill="#fff"/><ellipse cx="531.95" cy="217.91" rx="5.18" ry="3.6" transform="translate(-17.63 -23.94) rotate(-4.89)" fill="#3f3d56"/><ellipse cx="484.71" cy="204.33" rx="5.18" ry="3.6" transform="translate(-16.65 -28.01) rotate(-4.89)" fill="#ff6584"/><ellipse cx="470.85" cy="196.84" rx="2.28" ry="3.27" transform="translate(-32.81 38.56) rotate(-12.73)" fill="#e6e6e6"/><ellipse cx="461.28" cy="177.71" rx="2.28" ry="3.27" transform="translate(-28.82 35.98) rotate(-12.73)" fill="#3f3d56"/><ellipse cx="507.2" cy="204.58" rx="2.28" ry="3.27" transform="translate(-33.62 46.77) rotate(-12.73)" fill="#e6e6e6"/><ellipse cx="493.2" cy="216.2" rx="2.28" ry="3.27" transform="translate(-36.52 43.97) rotate(-12.73)" fill="#ff6584"/><ellipse cx="518.69" cy="225.66" rx="2.28" ry="3.27" transform="translate(-37.98 49.82) rotate(-12.73)" fill="#3f3d56"/><ellipse cx="362.86" cy="82.92" rx="3.6" ry="5.18" transform="translate(192.34 344.24) rotate(-75.78)" fill="#fff"/><ellipse cx="329.02" cy="82.7" rx="3.6" ry="5.18" transform="translate(167.02 311.27) rotate(-75.78)" fill="#3f3d56"/><ellipse cx="369.21" cy="111" rx="3.6" ry="5.18" transform="translate(169.92 371.58) rotate(-75.78)" fill="#ff6584"/><ellipse cx="379.86" cy="122.61" rx="3.27" ry="2.28" transform="translate(214.83 416.45) rotate(-83.62)" fill="#e6e6e6"/><ellipse cx="382.64" cy="143.81" rx="3.27" ry="2.28" transform="translate(196.23 438.07) rotate(-83.62)" fill="#3f3d56"/><ellipse cx="348.04" cy="103.4" rx="3.27" ry="2.28" transform="translate(205.63 367.76) rotate(-83.62)" fill="#e6e6e6"/><ellipse cx="365.07" cy="97" rx="3.27" ry="2.28" transform="translate(227.13 378.99) rotate(-83.62)" fill="#ff6584"/><ellipse cx="344.09" cy="79.71" rx="3.27" ry="2.28" transform="translate(225.66 342.77) rotate(-83.62)" fill="#3f3d56"/><path d="M91.57,492.7a19.07,19.07,0,0,1-9-27.61L27.43,387.64l17.68-20.51,64.78,92.48a19,19,0,0,1-18.31,33.1Z" transform="translate(-1 -70.05)" fill="#ffb6b6"/><path d="M92.84,247.23h0a13.6,13.6,0,0,0-17.38,3.06L1,354.42l69,98,27-29-42-66,55.82-53.15A44.67,44.67,0,0,0,92.84,247.23Z" transform="translate(-1 -70.05)" fill="#6c63ff"/></svg>
  </defs>
</svg>
